<svg width="110" height="80" viewBox="0 0 110 80" fill="none" xmlns="http://www.w3.org/2000/svg">
<path d="M32.8507 5.39727C32.8507 5.39727 30.4485 7.63191 31.0071 9.47549C31.3423 10.4811 32.5155 10.2017 33.5211 10.7045C34.3591 11.2073 35.3088 12.1571 35.4205 12.8833C35.6999 14.4476 35.5323 15.0062 35.8675 15.8442C36.2585 16.6263 38.8842 18.1906 38.8842 18.1906L36.4261 7.79951L32.8507 5.39727Z" fill="#81CEFF"/>
<path d="M36.6497 15.7883C34.5267 16.738 32.9625 17.6319 31.7893 19.3079C31.0631 20.3135 30.2251 24.0565 30.0575 24.6152C29.834 25.1738 23.8005 27.2409 22.5714 33.2185C21.3424 39.2521 21.901 45.3973 24.3033 50.8722C26.7055 56.2912 28.996 57.9672 28.996 57.9672C28.996 57.9672 29.2753 66.6823 34.1916 70.9281C41.1189 76.9616 45.6441 75.4532 49.1078 74.0566C52.5715 72.7158 38.0463 20.3693 38.0463 20.3693L36.6497 15.7883Z" fill="#81CEFF"/>
<path d="M63.3541 40.0342C50.8401 44.3359 57.2647 68.8052 72.1251 65.2856C86.9296 61.7102 80.7843 34.0007 63.3541 40.0342Z" fill="url(#paint0_linear_39_4599)"/>
<path d="M67.5432 67.1292C67.5432 67.1292 72.0683 66.2353 75.7555 63.7213C78.1018 61.766 66.0348 39.3638 66.0348 39.3638C66.0348 39.3638 60.8392 40.2576 56.7052 42.6599C52.8504 44.9504 67.5432 67.1292 67.5432 67.1292Z" fill="url(#paint1_linear_39_4599)"/>
<path d="M58.3252 41.9895C44.1352 46.7381 53.1855 70.5929 66.8168 67.2968C80.4481 64.0007 74.4146 36.6822 58.3252 41.9895Z" fill="url(#paint2_linear_39_4599)"/>
<path d="M60.0567 62.9392C60.0567 62.9392 67.0958 61.6543 68.2131 60.8722C69.3304 60.1459 69.3304 54.9504 64.4701 53.0509C59.6656 51.2073 57.4868 55.7325 57.4868 56.1794C57.4868 56.6822 60.0567 62.9392 60.0567 62.9392Z" fill="url(#paint3_linear_39_4599)"/>
<path d="M70.3364 21.7101C70.3364 21.7101 50.1129 17.0174 31.6213 24.3358C17.2637 29.9783 22.1241 60.8163 39.2191 62.1013C56.3699 63.442 74.8057 49.5314 74.8057 49.5314L70.3364 21.7101Z" fill="url(#paint4_linear_39_4599)"/>
<path d="M31.2295 26.0118C29.8329 24.9504 31.453 20.7604 32.9055 18.9168C34.358 17.0174 43.6318 14.8386 45.196 15.2297C46.7603 15.5649 50.0564 19.252 49.9446 20.9839C49.6653 27.3526 37.0954 30.1459 31.2295 26.0118Z" fill="url(#paint5_linear_39_4599)"/>
<path d="M32.9059 19.0844C30.6154 22.7716 47.9897 19.3079 45.8109 15.7325C44.3025 13.2743 34.6377 16.2911 32.9059 19.0844Z" fill="url(#paint6_linear_39_4599)"/>
<path d="M36.7049 18.3023C35.7552 19.8107 42.8502 18.414 41.9563 16.9615C41.3418 15.9559 37.3753 17.185 36.7049 18.3023Z" fill="url(#paint7_linear_39_4599)"/>
<path d="M41.6779 17.7437C41.6779 17.7437 39.7784 19.2521 38.0466 18.9169C38.0466 18.9169 36.5382 16.9057 35.9795 14.8945C35.8678 14.4476 35.8119 13.9448 35.8119 13.5537C35.8678 11.4308 33.8566 10.0342 32.6276 9.69898C32.6276 9.69898 32.609 9.69898 32.5717 9.69898C32.46 9.66173 32.3669 9.62449 32.2924 9.58724C31.1192 9.47551 31.6779 5.34143 33.6332 4.78277C35.6443 4.27997 38.6052 8.24646 39.4432 11.2632C40.1136 13.5537 39.2198 15.3973 41.6779 17.7437Z" fill="url(#paint8_linear_39_4599)"/>
<path d="M32.0125 9.53134C33.0181 9.81067 34.4706 5.22966 33.9678 4.72686C33.465 4.27994 30.2806 7.68776 32.0125 9.53134Z" fill="#C25448"/>
<g style="mix-blend-mode:multiply" opacity="0.3">
<path d="M27.0955 54.1124C25.643 45.0621 63.4084 54.3359 64.8051 55.0621C66.2576 55.7325 50.8386 62.5482 41.8442 62.213C32.9056 61.8778 27.0955 54.1124 27.0955 54.1124Z" fill="#904F98"/>
</g>
<g style="mix-blend-mode:soft-light" opacity="0.2">
<path d="M42.3481 29.0286C27.9347 31.9336 25.0297 41.5426 25.6442 44.5593C26.2587 47.632 31.5101 50.4811 43.633 50.3135C55.756 50.0901 57.5995 41.7102 57.5995 35.5091C57.5995 29.2521 48.4934 27.7996 42.3481 29.0286Z" fill="#C5CFEA"/>
</g>
<g style="mix-blend-mode:multiply">
<path d="M66.7611 54.5594C66.7611 54.5594 65.141 56.2353 62.7946 56.6264C60.5041 57.0175 53.856 46.7381 55.9789 33.7772C57.4315 24.6152 61.5097 20.4811 61.5097 20.4811L66.7611 54.5594Z" fill="#AB6377"/>
</g>
<path d="M65.4209 17.5202C54.0242 20.7604 56.4264 55.509 72.1806 56.4588C87.5438 57.4644 80.4488 13.2185 65.4209 17.5202Z" fill="url(#paint9_linear_39_4599)"/>
<path d="M63.8554 18.1906C63.8554 18.1906 65.7549 16.5146 75.1962 15.509L83.2968 54.3917C83.2968 54.3917 76.537 57.2409 72.7381 56.5147C68.8834 55.7325 49.3861 39.5873 63.8554 18.1906Z" fill="url(#paint10_linear_39_4599)"/>
<path d="M73.6883 15.8442C62.2357 19.0844 64.638 53.8331 80.3922 54.8386C95.7553 55.7884 88.7162 11.5983 73.6883 15.8442Z" fill="url(#paint11_linear_39_4599)"/>
<path d="M75.476 24.5034C69.219 26.347 70.5039 45.509 79.219 46.1236C87.8223 46.7381 83.8559 22.0453 75.476 24.5034Z" fill="url(#paint12_linear_39_4599)"/>
<g style="mix-blend-mode:multiply" opacity="0.3">
<path d="M69.3303 55.9001C68.1572 55.509 62.2912 50.6487 61.2856 46.5705C60.2242 42.4923 67.7102 41.8219 67.9337 42.0453C68.1572 42.2688 69.3303 50.7046 78.0454 54.3917C78.0454 54.3917 74.1348 57.5202 69.3303 55.9001Z" fill="#904F98"/>
</g>
<g style="mix-blend-mode:soft-light" opacity="0.2">
<path d="M67.8224 41.4867C67.2079 42.0454 61.6213 43.3303 60.2805 42.604C58.9397 41.8778 57.7665 33.7213 58.4928 29.699C59.2191 25.7325 66.314 23.6096 66.4816 23.833C66.6492 24.0006 65.085 32.8275 67.8224 41.4867Z" fill="#C5CFEA"/>
</g>
<g style="mix-blend-mode:multiply" opacity="0.3">
<path d="M33.1855 27.0174C31.3977 25.509 33.0179 21.2632 33.4648 20.928C33.8558 20.537 38.2134 20.8722 39.1631 20.8163C40.1128 20.8163 40.3363 26.4029 39.4983 27.185C38.6603 27.9671 34.8614 28.4141 33.1855 27.0174Z" fill="#904F98"/>
</g>
<g style="mix-blend-mode:soft-light" opacity="0.2">
<path d="M39.8338 20.2576C39.3869 20.3693 40.5601 26.5146 40.8394 26.9615C41.0629 27.4084 46.8171 26.5146 48.3813 23.7213C49.9456 20.8721 46.9847 17.1291 46.7053 17.0174C46.426 16.8498 45.3646 18.6933 39.8338 20.2576Z" fill="#C5CFEA"/>
</g>
<path d="M43.1301 45.4532C29.6105 50.09 36.5379 76.5147 52.5714 72.7158C68.605 68.861 61.901 38.9168 43.1301 45.4532Z" fill="url(#paint13_linear_39_4599)"/>
<path d="M47.6546 74.7269C47.6546 74.7269 52.5149 73.7772 56.4814 70.9839C59.0512 68.9169 45.9786 44.671 45.9786 44.671C45.9786 44.671 40.392 45.6766 35.9227 48.3023C31.7327 50.7604 47.6546 74.7269 47.6546 74.7269Z" fill="url(#paint14_linear_39_4599)"/>
<path d="M46.8724 74.8946C44.917 75.3415 43.0735 75.3415 41.3975 74.8946C32.1796 72.66 26.7047 59.0845 32.012 51.6543C32.012 51.6171 32.012 51.5985 32.012 51.5985C33.2969 49.8108 35.1405 48.4141 37.7103 47.5761C55.0847 41.7661 61.5651 71.3192 46.8724 74.8946Z" fill="url(#paint15_linear_39_4599)"/>
<path fill-rule="evenodd" clip-rule="evenodd" d="M27.7101 41.3191C27.3191 40.5928 27.5984 36.2911 28.8275 33.2744C28.8647 33.3116 28.9206 33.3489 28.9951 33.3861C30.0565 33.9448 29.9448 33.0509 29.2744 32.2688C29.6096 31.5984 29.9448 31.0397 30.2241 30.7604C30.9504 29.9224 32.0677 30.0341 33.0174 30.3693C32.9615 30.6487 33.1291 31.0397 33.4085 31.3749C33.7995 31.766 34.5258 31.9894 34.4699 31.2073C36.2576 32.9392 36.3135 39.0286 36.4811 41.1515C36.7046 43.3303 34.9727 42.2129 34.6375 42.8275C34.2465 43.442 35.6431 45.7884 35.7548 46.0677C35.8107 46.347 34.3582 46.4588 34.2465 46.347C34.0789 46.2912 33.6878 45.3414 33.6878 45.3414C33.6878 45.3414 34.0789 46.5146 34.1347 46.7381C34.1906 46.9057 32.2911 46.5146 32.1235 46.4587C31.9559 46.4587 31.4532 45.2297 31.4532 45.2297C31.4532 45.2297 31.6766 46.0118 31.6208 46.0677C31.6208 46.0677 30.7269 45.7884 30.4476 45.6766C30.2241 45.5649 30.1682 42.9951 30.0006 42.3805C29.7772 41.766 28.2688 42.2688 27.7101 41.3191ZM30.7828 32.2688C30.5593 31.9894 30.0565 31.8219 30.3358 32.2129C30.6152 32.5481 31.0062 32.4922 30.7828 32.2688ZM33.1291 31.9894C32.9615 31.766 32.7939 31.9894 32.8498 32.2129C32.9057 32.3805 33.2967 32.2688 33.1291 31.9894ZM32.9615 40.3694C33.4085 41.3191 34.7492 41.0956 35.1962 39.8107C35.699 38.4699 34.6934 34.7269 33.7995 34.0565C32.9057 33.442 31.7325 37.9671 32.9615 40.3694ZM31.9001 41.7101C31.9559 41.5984 31.9001 41.0397 31.9001 40.8721C31.9001 41.0956 32.0118 41.766 32.1235 41.766C32.1794 41.766 32.7939 41.766 32.8498 41.7101C32.9615 41.6543 32.0118 39.4755 31.8442 39.1403C31.6208 38.7492 31.0621 41.2073 31.118 41.3749C31.118 41.4867 31.8442 41.8777 31.9001 41.7101ZM30.7828 38.9168C31.0621 38.414 31.1738 36.4587 31.0062 35.2855C30.8386 34.0565 29.1626 35.7325 28.9951 37.4643C28.7716 39.1403 29.7772 40.7045 30.7828 38.9168Z" fill="#BB9AB5"/>
<path d="M66.9853 24.3359C66.5942 24.1683 65.3651 26.0119 65.4769 27.7996C65.5327 29.5873 66.3707 30.5929 66.5942 30.5371C66.8177 30.5371 69.7227 25.3415 66.9853 24.3359Z" fill="#2C1C46"/>
<g style="mix-blend-mode:multiply">
<path d="M66.9844 24.3359C66.3699 24.5035 65.5319 25.8443 65.8671 27.3527C66.2023 28.8052 67.3754 27.8555 67.9341 26.6264C68.4928 25.4533 67.3754 24.2242 66.9844 24.3359Z" fill="#AB6377"/>
</g>
<path d="M65.4758 27.7996C65.5316 27.2968 66.9841 29.0846 67.04 29.4198C67.0959 29.755 66.6489 30.4812 66.4813 30.5371C66.3696 30.5371 65.2523 29.0287 65.4758 27.7996Z" fill="#442C4E"/>
<path d="M65.9224 29.7549C65.9782 29.6991 66.5369 30.2577 66.5928 30.3695C66.6486 30.4253 66.5928 30.5371 66.5928 30.5371C66.5928 30.5371 66.5928 30.6488 66.3693 30.4253C66.09 30.2019 65.9224 29.7549 65.9224 29.7549Z" fill="#65637D"/>
<path d="M33.8001 20.7045C33.7442 21.0397 35.532 21.8219 37.0962 21.4867C38.6046 21.0956 39.3867 20.2576 39.3308 20.0341C39.275 19.8666 34.3029 18.1347 33.8001 20.7045Z" fill="#2C1C46"/>
<g style="mix-blend-mode:multiply">
<path d="M33.8 20.7046C34.0794 21.1515 35.3643 21.7102 36.6492 21.2074C37.8783 20.7046 36.8727 19.7548 35.6995 19.4755C34.5822 19.1962 33.6324 20.3135 33.8 20.7046Z" fill="#AB6377"/>
</g>
<path d="M37.0963 21.4867C36.6493 21.4867 37.9901 19.9224 38.2695 19.8107C38.5488 19.699 39.275 20.0342 39.3309 20.1459C39.3868 20.2576 38.2136 21.4867 37.0963 21.4867Z" fill="#442C4E"/>
<path d="M34.3032 21.0956C34.3032 21.0956 36.3703 21.5425 37.711 21.1515C39.0518 20.7604 39.2753 20.2576 39.2753 20.2576C39.2753 20.2576 39.1077 21.4308 37.2641 21.766C35.3647 22.1571 34.3032 21.0956 34.3032 21.0956Z" fill="#65637D"/>
<path d="M69.3309 45.5091C69.3309 45.5091 66.9845 39.0286 67.208 34.9504C67.4873 30.928 67.6549 30.4252 68.5488 27.9113C69.4426 25.3414 67.5432 24.4476 68.046 22.604C68.6046 20.7604 70.3365 17.4084 72.4035 16.347C72.4035 16.347 68.1577 18.3582 67.3197 24.4476C67.3197 24.4476 68.3253 26.6263 67.8225 28.2465C67.3197 29.8107 66.4817 30.537 66.4817 30.537C66.4817 30.537 65.6437 37.9671 69.3309 45.5091Z" fill="#7C6F89"/>
<g style="mix-blend-mode:soft-light" opacity="0.3">
<path d="M67.5436 37.7437C68.8286 44.3359 68.661 31.375 73.8006 24.8387C78.9403 18.3023 82.5716 29.4755 84.6386 35.118C86.6498 40.7605 87.9347 31.2632 86.2588 26.0118C84.5828 20.7604 79.7224 13.9448 73.8565 16.0677C67.9906 18.1906 67.7112 22.2129 69.1638 26.1236C70.5604 30.0901 66.4263 32.1571 67.5436 37.7437Z" fill="#C5CFEA"/>
</g>
<g style="mix-blend-mode:multiply">
<path d="M71.5659 32.8275C72.7391 40.3135 78.7726 41.4867 81.5659 37.9672C84.3592 34.4476 81.3424 24.7269 77.2084 24.671C73.0184 24.671 71.1748 30.09 71.5659 32.8275Z" fill="#AB6377"/>
</g>
<g style="mix-blend-mode:soft-light" opacity="0.3">
<path d="M75.1411 44.0566C75.1411 44.0566 79.778 43.5538 81.1746 44.0007C82.6272 44.3918 81.9009 46.5147 79.778 46.1795C77.6551 45.7884 75.1411 44.0566 75.1411 44.0566Z" fill="#C5CFEA"/>
</g>
<path d="M80.9512 45.7884C80.9512 45.7884 81.3422 44.1124 82.0126 43.1627C82.6271 42.213 83.6886 41.766 83.6886 41.766C83.6886 41.766 84.2473 45.7884 80.9512 45.7884Z" fill="#3C2A51"/>
<path d="M70.0566 47.3526C70.0566 47.3526 73.2969 48.8051 75.5315 50.9839C77.7661 53.2186 78.3248 54.4476 78.3248 54.4476C78.3248 54.4476 71.565 52.7158 70.0566 47.3526Z" fill="#3C2A51"/>
<g style="mix-blend-mode:soft-light" opacity="0.3">
<path d="M71.8448 46.3471C72.0124 47.5202 77.4873 50.8722 78.8839 53.3862C80.2806 55.9001 84.8057 53.8331 86.3699 51.2074C87.9342 48.5817 86.8727 44.7269 86.2023 43.1068C85.4761 41.4867 87.599 43.3862 82.6828 45.5091C77.7107 47.632 74.8615 45.3973 73.2973 43.8331C71.7889 42.2688 71.6213 45.1739 71.8448 46.3471Z" fill="#C5CFEA"/>
</g>
<g style="mix-blend-mode:soft-light" opacity="0.3">
<path d="M38.0464 19.1403C38.0464 19.1403 39.052 19.7548 40.0017 19.7548C41.0073 19.7548 44.5827 18.4141 45.4207 17.2967C46.3146 16.2353 44.1358 15.3414 43.0743 15.5649C42.0129 15.7883 42.4598 16.347 42.0687 17.4085C41.7335 18.4699 38.8844 19.1403 38.0464 19.1403Z" fill="#C5CFEA"/>
</g>
<g style="mix-blend-mode:soft-light">
<path d="M26.0908 52.3247C26.0908 52.3247 24.1914 46.5705 26.1467 39.4197C28.1579 32.2688 27.2082 27.4085 27.2082 27.4085C27.2082 27.4085 23.521 31.2074 23.1858 38.3582C22.9065 45.5091 26.0908 52.3247 26.0908 52.3247Z" fill="#81CEFF"/>
</g>
<g style="mix-blend-mode:multiply" opacity="0.3">
<path d="M40.2248 38.8051C41.4538 40.9839 43.3533 42.6599 44.1913 41.6543C45.1969 40.4811 46.7611 39.5314 45.4203 37.5761C45.1969 37.2409 44.9548 36.887 44.6941 36.5146C43.5767 34.8386 42.2918 33.1626 40.6159 34.0565C40.6159 34.0565 38.5488 34.9503 39.6103 37.6319C39.7965 38.0416 40.0013 38.4327 40.2248 38.8051Z" fill="#4F2A6F"/>
</g>
<g style="mix-blend-mode:multiply" opacity="0.5">
<path d="M40.2248 38.8051L40.4483 39.0844C40.4483 39.0844 39.6661 37.7436 39.7779 36.5146C39.8337 35.2855 40.3365 34.2241 41.789 34.4476C43.1857 34.7269 44.6941 36.5146 44.6941 36.5146C43.5767 34.8386 42.2918 33.1626 40.6159 34.0565C40.6159 34.0565 38.5488 34.9503 39.6103 37.6319C39.7965 38.0416 40.0013 38.4327 40.2248 38.8051Z" fill="#4F2A6F"/>
</g>
<g style="mix-blend-mode:multiply" opacity="0.3">
<path d="M51.3415 37.5202C51.0622 38.1348 51.1739 39.1962 51.8443 39.699C52.6264 40.3694 53.5761 41.375 53.7437 40.6487C53.7437 40.537 53.7624 40.4253 53.7996 40.3135C53.9672 39.699 54.0789 39.0286 53.1292 37.9672C53.1292 37.9672 52.0119 36.6822 51.5091 37.185C51.4346 37.2968 51.3787 37.4085 51.3415 37.5202Z" fill="#4F2A6F"/>
</g>
<g style="mix-blend-mode:multiply" opacity="0.5">
<path d="M51.343 37.5202L51.2871 37.632C51.2871 37.632 51.5106 37.2409 51.9575 37.3526C52.4044 37.4644 52.9631 37.7996 53.41 38.6376C53.8569 39.4755 53.8011 40.3135 53.8011 40.3135C53.9687 39.699 54.0804 39.0286 53.1307 37.9672C53.1307 37.9672 52.0134 36.6822 51.5106 37.185C51.4361 37.2968 51.3802 37.4085 51.343 37.5202Z" fill="#4F2A6F"/>
</g>
<g style="mix-blend-mode:soft-light" opacity="0.5">
<path d="M50.5597 31.9336C49.3865 34.1124 50.5038 34.5594 51.4535 34.3359C52.4032 34.1124 52.7943 32.5482 52.7943 31.766C52.7943 31.0398 50.9507 31.2633 50.5597 31.9336Z" fill="#C5CFEA"/>
<path d="M49.6102 30.5929C49.0515 31.7102 49.9454 31.7661 50.113 30.9281C50.3365 30.1459 49.7778 30.2577 49.6102 30.5929Z" fill="#C5CFEA"/>
<path d="M52.0686 22.3806C47.8227 24.9504 51.5099 27.185 55.2529 24.8945C58.9401 22.6599 56.2585 19.8107 52.0686 22.3806Z" fill="#C5CFEA"/>
<path d="M61.3974 39.308C58.4365 41.5985 63.7438 42.4364 64.7494 39.5873C65.8108 36.7381 62.1795 38.6934 61.3974 39.308Z" fill="#C5CFEA"/>
<path d="M59.8899 36.4029C59.3871 37.632 60.7278 37.7437 61.063 37.0733C61.3982 36.4029 60.1133 35.956 59.8899 36.4029Z" fill="#C5CFEA"/>
</g>
<path d="M69.7778 46.4029C71.2303 48.9728 73.6326 47.9672 75.6996 50.0901C77.7108 52.213 77.9901 53.889 78.5488 54.2242C79.1075 54.6152 81.1745 54.8387 81.1745 54.8387C81.1745 54.8387 78.8281 54.6152 78.3253 54.4476C77.7667 54.28 73.465 48.6376 70.0572 47.3527L69.7778 46.4029Z" fill="#6D5C7F"/>
<g style="mix-blend-mode:soft-light">
<path d="M59.3303 25.2297C59.3303 25.2297 56.3694 43.442 66.7604 54.5594C66.7604 54.5594 54.3023 43.3303 59.3303 25.2297Z" fill="#81CEFF"/>
</g>
<g style="mix-blend-mode:multiply">
<path d="M60.1128 66.794C60.1128 66.794 62.962 69.0845 68.3251 66.0678C73.7441 63.051 73.5206 57.6879 73.2972 57.0733C73.1296 56.4029 66.7608 54.5594 66.7608 54.5594L61.3977 57.2968C61.3977 57.2968 62.7944 61.9337 60.1128 66.794Z" fill="#AB6377"/>
</g>
<g style="mix-blend-mode:multiply" opacity="0.2">
<path d="M40.0571 74.5035C40.0571 74.5035 51.2303 61.7102 52.5711 60.7046C53.9119 59.6431 53.5208 58.8051 54.5823 58.3024C55.6437 57.7996 61.1745 56.2912 61.1745 56.2912L61.3979 57.2968C61.3979 57.2968 55.532 58.3024 54.694 58.861C53.9119 59.4197 53.9119 60.1459 53.3532 61.0957C52.7946 61.9895 48.9398 70.5929 46.9286 72.7717C44.8616 75.0063 41.3979 74.8946 41.3979 74.8946L40.0571 74.5035Z" fill="#903B98"/>
</g>
<g style="mix-blend-mode:multiply" opacity="0.2">
<path d="M34.4712 70.4811C34.4712 70.4811 38.0466 62.604 40.9516 58.4141C43.9125 54.28 46.2589 49.3079 47.5438 48.2464C48.8288 47.2409 53.745 45.7883 53.745 45.7883C53.745 45.7883 55.7003 46.5146 56.5383 47.7437C56.5383 47.7437 52.4042 49.252 50.8399 50.2576C49.3315 51.2632 45.5885 57.7437 43.4656 61.8778C41.3427 66.0677 41.0075 67.7437 39.8902 69.4197C38.717 71.0956 36.0913 72.1012 36.0913 72.1012L34.4712 70.4811Z" fill="#903B98"/>
</g>
<g style="mix-blend-mode:multiply" opacity="0.2">
<path d="M33.8004 69.699C33.8004 69.699 36.5378 60.4811 39.0518 55.0063C41.5658 49.4755 43.2418 47.6878 44.1356 47.0174C45.0295 46.2912 49.9457 44.6152 49.9457 44.6152L49.0518 44.5593C49.0518 44.5593 44.0239 45.6767 42.0686 46.794C40.1133 47.9672 34.9177 56.2912 33.3535 59.8107C31.7892 63.3303 33.0741 68.5817 33.0741 68.5817L33.8004 69.699Z" fill="#903B98"/>
</g>
<path d="M40.4488 55.1739C33.689 57.4085 37.9906 68.7493 44.4711 67.185C50.8957 65.6208 48.0465 52.6599 40.4488 55.1739Z" fill="url(#paint16_linear_39_4599)"/>
<path d="M40.5599 56.9616C37.9901 57.7996 36.0348 60.2018 36.761 62.4365C37.4873 64.9504 41.0627 67.2409 43.8001 66.6264C48.9957 65.3415 46.7052 54.8945 40.5599 56.9616Z" fill="url(#paint17_linear_39_4599)"/>
<path d="M43.5767 54.3917C43.5767 54.3917 47.0404 49.2521 48.0459 48.4699C48.9957 47.6319 53.1856 46.0118 53.1856 46.0118C53.1856 46.0118 50.1689 46.6822 47.5431 48.2465C44.8616 49.8107 43.5767 54.3917 43.5767 54.3917Z" fill="#772C2C"/>
<path d="M32.627 63.1068C32.627 63.1068 34.7499 57.2968 37.6549 53.051C40.6158 48.8051 42.7387 47.185 43.3532 46.7381C44.0236 46.347 46.6493 45.118 46.6493 45.118C46.6493 45.118 43.856 45.8443 42.0683 46.794C40.2806 47.7437 33.018 57.5761 32.627 63.1068Z" fill="#772C2C"/>
<path d="M41.9565 72.3247C41.9565 72.3247 46.7052 68.1906 49.2191 65.5091C51.6772 62.8834 53.5208 59.4197 54.1912 58.7493C54.9175 58.1347 58.7163 56.9616 58.7163 56.9616C58.7163 56.9616 54.8616 58.023 54.1912 58.3582C53.5208 58.6934 53.4649 59.6431 52.5152 60.537C51.6214 61.4308 50.951 61.8778 50.7834 62.1571C50.6158 62.4923 41.9565 72.3247 41.9565 72.3247Z" fill="#772C2C"/>
<g style="mix-blend-mode:multiply" opacity="0.3">
<path d="M47.0399 57.0175C46.9841 56.2912 49.6098 51.6543 50.3919 51.5426C51.174 51.4309 53.6321 56.5705 53.5763 57.8554C53.5763 59.0845 49.945 62.6599 49.0511 63.2745C48.1014 63.889 48.2131 59.0286 47.0399 57.0175Z" fill="#C877AF"/>
</g>
<g style="mix-blend-mode:multiply" opacity="0.3">
<path d="M39.499 55.0063C39.499 55.3415 42.5158 54.1124 42.851 54.0007C43.1862 53.8889 46.2588 48.7493 46.3705 48.3582C46.4823 48.023 45.0298 47.8554 44.2476 47.7437C43.4655 47.632 39.6666 53.1627 39.499 55.0063Z" fill="#C877AF"/>
</g>
<g style="mix-blend-mode:multiply">
<path d="M38.0467 64.5594C37.7115 62.8834 45.0858 62.1571 46.2032 62.3247C47.2646 62.4365 46.6501 66.6823 44.192 67.1292C41.678 67.5761 39.1082 65.4532 39.1082 65.4532L38.0467 64.5594Z" fill="#AB6377"/>
</g>
<g style="mix-blend-mode:soft-light" opacity="0.2">
<path d="M38.8837 63.2744C37.4871 62.9392 37.0401 61.1515 37.9899 59.3638C38.8837 57.5761 41.2301 56.2912 43.0737 57.0733C44.9173 57.8554 45.029 60.928 43.4647 61.8778C41.8446 62.8834 38.8837 63.2744 38.8837 63.2744Z" fill="#C5CFEA"/>
</g>
<path d="M40.4486 62.9951C39.89 62.8275 40.9514 61.5985 41.7894 61.1515C42.6274 60.7046 43.1861 62.213 42.795 62.5482C42.4598 62.8275 40.4486 62.9951 40.4486 62.9951Z" fill="#6E607D"/>
<g style="mix-blend-mode:multiply">
<path d="M37.0407 59.8107C37.0407 59.8107 38.7166 57.2409 41.5658 57.0733C44.4708 56.9057 46.7055 60.7046 47.1524 61.766C47.5993 62.8275 48.2139 58.8051 44.806 55.509C41.9569 52.7157 36.8731 56.4029 37.0407 59.8107Z" fill="#AB6377"/>
</g>
<path d="M50.4482 50.5929C50.4482 50.5929 51.9008 53.8331 52.6829 55.0063C53.465 56.1795 54.3589 57.8555 54.3589 57.8555C54.3589 57.8555 54.4147 56.0678 53.6326 54.0007C52.7946 51.9337 50.4482 50.5929 50.4482 50.5929Z" fill="#A2503D"/>
<path d="M54.9735 62.1013L54.1914 68.0231C54.1914 68.0231 56.6495 68.1907 54.9735 62.1013Z" fill="#6F2229"/>
<path d="M53.6882 69.1962C53.6882 69.1962 51.7329 70.2018 52.124 71.7102C52.124 71.7102 53.6324 71.1515 53.6882 69.1962Z" fill="#5E1E26"/>
<g style="mix-blend-mode:multiply" opacity="0.3">
<path d="M47.9341 48.7492C47.4313 48.6375 45.6995 50.3694 44.9732 51.4867C44.247 52.604 43.9677 54.2241 44.0235 54.6152C44.0794 54.9504 46.0347 56.1794 46.0347 56.1794C46.0347 56.1794 48.8839 51.9336 49.5543 51.1515C50.1688 50.3693 47.9341 48.7492 47.9341 48.7492Z" fill="#903B98"/>
</g>
<g style="mix-blend-mode:multiply" opacity="0.3">
<path d="M32.6268 62.9951C32.5709 64.0566 32.6826 66.7381 33.0737 67.4644C33.4648 68.1348 36.4815 61.0957 36.8167 59.6431C37.1519 58.1906 38.1016 56.5146 38.6603 55.2856C39.2748 54.0565 42.9061 47.9671 42.9061 47.9671C42.9061 47.9671 41.6771 47.7437 41.2301 47.8554C40.7273 48.023 33.7441 56.4029 32.6268 62.9951Z" fill="#C877AF"/>
</g>
<path d="M53.9122 65.0622C53.6329 64.3359 53.577 63.3303 54.3592 62.1013C55.3089 60.537 56.4821 62.9392 56.3703 64.1683C56.2586 65.4532 54.9737 66.3471 54.9737 66.3471C54.9737 66.3471 54.2474 65.9001 53.9122 65.0622Z" fill="url(#paint18_linear_39_4599)"/>
<path d="M54.9734 66.347C54.9734 66.347 54.8617 66.347 55.1969 65.2855C55.5321 64.2799 56.2584 63.3302 56.2584 63.3302C56.2584 63.3302 57.0405 64.8386 54.9734 66.347Z" fill="#A3523F"/>
<g style="mix-blend-mode:multiply" opacity="0.6">
<path d="M54.1349 62.4922C53.7997 62.995 54.4701 64.6151 54.8612 64.5593C55.2522 64.5034 56.0902 63.2743 55.9785 62.4922C55.9226 61.7101 55.2522 60.928 54.1349 62.4922Z" fill="#904F81"/>
</g>
<path d="M43.7441 74.5035C43.7441 74.5035 46.3698 72.1571 48.1017 70.1459C49.8335 68.1347 51.7888 64.2241 51.7888 64.2241C51.7888 64.2241 48.1017 71.766 46.8726 73.1068C45.6995 74.4476 43.7441 74.5035 43.7441 74.5035Z" fill="#86413F"/>
<g style="mix-blend-mode:soft-light" opacity="0.2">
<path d="M37.5992 61.9895C37.7668 62.7716 39.3869 62.604 40.169 62.0454C40.8953 61.4867 42.0685 58.1348 41.9567 57.9672C41.845 57.8554 36.8171 58.6376 37.5992 61.9895Z" fill="#C5CFEA"/>
</g>
<g style="mix-blend-mode:soft-light">
<path d="M41.3975 74.8945C32.1796 72.6599 26.7047 59.0845 32.012 51.6543C31.3416 52.8275 30.1126 55.4532 30.783 60.537C32.3472 72.0454 41.3975 74.8945 41.3975 74.8945Z" fill="#81CEFF"/>
</g>
<g style="mix-blend-mode:multiply" opacity="0.3">
<path d="M38.046 12.7716C37.8225 14.3358 36.2024 14.0565 35.9789 14.8945C35.8672 14.4475 35.8113 13.9447 35.8113 13.5537C35.8672 11.4308 33.856 10.0341 32.627 9.69892C33.1856 9.69892 33.5767 7.18495 35.6437 7.12909C37.7108 7.01735 38.3253 11.2632 38.046 12.7716Z" fill="#904F98"/>
</g>
<g style="mix-blend-mode:multiply" opacity="0.3">
<path d="M36.2578 15.7325C37.3751 14.1682 41.174 18.0789 41.174 18.0789C41.174 18.0789 39.2187 19.0844 38.3807 18.9168C37.5427 18.6934 36.2578 15.7325 36.2578 15.7325Z" fill="#904F98"/>
</g>
<g style="mix-blend-mode:multiply" opacity="0.3">
<path d="M32.7383 9.64309C33.1852 9.64309 33.9673 7.46431 35.5874 7.85538C37.2634 8.24644 36.8165 11.6543 36.4813 12.0453C36.0902 12.3805 34.9729 10.7604 33.8556 10.2017C32.7383 9.64309 32.7383 9.64309 32.7383 9.64309Z" fill="#904F98"/>
</g>
<path d="M30.1127 61.1515C30.1127 61.1515 28.8278 53.442 34.0792 49.4196C34.0792 49.4196 29.4423 52.1571 28.9954 57.9671C28.8837 58.9727 29.6099 58.8051 30.1127 61.1515Z" fill="#81CEFF"/>
<path d="M35.6436 15.0621C35.6436 15.0621 35.6994 15.8442 36.2022 16.6822C36.705 17.4643 38.0458 18.9168 38.0458 18.9168C38.0458 18.9168 36.6491 16.738 35.9787 14.7269L35.6436 15.0621Z" fill="#81CEFF"/>
<path d="M46.4812 49.699C46.4812 49.699 47.0399 49.5872 47.4868 49.3638C47.9337 49.1403 49.7773 47.4643 49.7773 47.4643C49.7773 47.4643 47.0958 47.185 46.6488 47.7437C46.2019 48.3023 46.4812 49.699 46.4812 49.699Z" fill="url(#paint19_linear_39_4599)"/>
<path d="M46.4819 49.699L49.0518 48.0789C49.0518 48.0789 48.102 49.0845 47.7668 49.4197C47.4317 49.7549 46.4819 49.699 46.4819 49.699Z" fill="#A3523F"/>
<defs>
<linearGradient id="paint0_linear_39_4599" x1="56.3781" y1="68.4499" x2="51.119" y2="42.3465" gradientUnits="userSpaceOnUse">
<stop stop-color="#450039"/>
<stop offset="1" stop-color="#BA662C"/>
</linearGradient>
<linearGradient id="paint1_linear_39_4599" x1="45.7096" y1="71.5431" x2="40.2656" y2="44.5231" gradientUnits="userSpaceOnUse">
<stop stop-color="#450039"/>
<stop offset="1" stop-color="#BA662C"/>
</linearGradient>
<linearGradient id="paint2_linear_39_4599" x1="50.1732" y1="70.6633" x2="44.9223" y2="44.6018" gradientUnits="userSpaceOnUse">
<stop stop-color="#5F0E3D"/>
<stop offset="1" stop-color="#631D00"/>
</linearGradient>
<linearGradient id="paint3_linear_39_4599" x1="59.698" y1="63.0213" x2="57.7652" y2="53.428" gradientUnits="userSpaceOnUse">
<stop offset="0.006" stop-color="#56183B"/>
<stop offset="1" stop-color="#861D15"/>
</linearGradient>
<linearGradient id="paint4_linear_39_4599" x1="37.066" y1="67.1432" x2="27.2258" y2="18.3012" gradientUnits="userSpaceOnUse">
<stop stop-color="#2A1036"/>
<stop offset="1" stop-color="#493F5D"/>
</linearGradient>
<linearGradient id="paint5_linear_39_4599" x1="38.0245" y1="29.347" x2="35.1587" y2="15.1229" gradientUnits="userSpaceOnUse">
<stop stop-color="#2A1036"/>
<stop offset="1" stop-color="#493F5D"/>
</linearGradient>
<linearGradient id="paint6_linear_39_4599" x1="38.9897" y1="20.2017" x2="38.0761" y2="15.6665" gradientUnits="userSpaceOnUse">
<stop stop-color="#604B60"/>
<stop offset="1" stop-color="#686383"/>
</linearGradient>
<linearGradient id="paint7_linear_39_4599" x1="39.1742" y1="18.7732" x2="38.7994" y2="16.9129" gradientUnits="userSpaceOnUse">
<stop stop-color="#1D2048"/>
<stop offset="0.403" stop-color="#1E1136"/>
<stop offset="1" stop-color="#2A1036"/>
</linearGradient>
<linearGradient id="paint8_linear_39_4599" x1="24.2739" y1="21.9141" x2="21.3242" y2="7.27271" gradientUnits="userSpaceOnUse">
<stop stop-color="#681C48"/>
<stop offset="1" stop-color="#934B29"/>
</linearGradient>
<linearGradient id="paint9_linear_39_4599" x1="37.113" y1="63.1292" x2="29.9261" y2="24.0101" gradientUnits="userSpaceOnUse">
<stop stop-color="#2A1036"/>
<stop offset="1" stop-color="#493F5D"/>
</linearGradient>
<linearGradient id="paint10_linear_39_4599" x1="34.0358" y1="64.9795" x2="26.0021" y2="25.1034" gradientUnits="userSpaceOnUse">
<stop stop-color="#2A1036"/>
<stop offset="1" stop-color="#493F5D"/>
</linearGradient>
<linearGradient id="paint11_linear_39_4599" x1="45.3513" y1="61.4694" x2="38.1644" y2="22.3503" gradientUnits="userSpaceOnUse">
<stop stop-color="#543E55"/>
<stop offset="1" stop-color="#5A5477"/>
</linearGradient>
<linearGradient id="paint12_linear_39_4599" x1="59.8011" y1="49.8113" x2="55.8117" y2="28.0989" gradientUnits="userSpaceOnUse">
<stop stop-color="#1D2034"/>
<stop offset="0.403" stop-color="#1E1136"/>
<stop offset="1" stop-color="#2A1036"/>
</linearGradient>
<linearGradient id="paint13_linear_39_4599" x1="35.5775" y1="76.1353" x2="29.8968" y2="47.9375" gradientUnits="userSpaceOnUse">
<stop stop-color="#340039"/>
<stop offset="1" stop-color="#C57536"/>
</linearGradient>
<linearGradient id="paint14_linear_39_4599" x1="24.0534" y1="79.4761" x2="18.173" y2="50.2884" gradientUnits="userSpaceOnUse">
<stop stop-color="#340039"/>
<stop offset="1" stop-color="#C57536"/>
</linearGradient>
<linearGradient id="paint15_linear_39_4599" x1="28.8673" y1="78.5371" x2="23.1937" y2="50.3768" gradientUnits="userSpaceOnUse">
<stop stop-color="#681C48"/>
<stop offset="1" stop-color="#934B29"/>
</linearGradient>
<linearGradient id="paint16_linear_39_4599" x1="36.5677" y1="68.7566" x2="34.0791" y2="56.4029" gradientUnits="userSpaceOnUse">
<stop stop-color="#BA662C"/>
<stop offset="1" stop-color="#450039"/>
</linearGradient>
<linearGradient id="paint17_linear_39_4599" x1="37.5772" y1="67.8594" x2="35.5718" y2="57.9064" gradientUnits="userSpaceOnUse">
<stop stop-color="#2A1036"/>
<stop offset="1" stop-color="#493F5D"/>
</linearGradient>
<linearGradient id="paint18_linear_39_4599" x1="38.1642" y1="79.4482" x2="35.8102" y2="76.4284" gradientUnits="userSpaceOnUse">
<stop stop-color="#4F1F11"/>
<stop offset="0.994" stop-color="#48001B"/>
</linearGradient>
<linearGradient id="paint19_linear_39_4599" x1="45.9226" y1="50.09" x2="46.5236" y2="46.3108" gradientUnits="userSpaceOnUse">
<stop stop-color="#4F1F11"/>
<stop offset="0.994" stop-color="#48001B"/>
</linearGradient>
</defs>
</svg>
