<svg width="110" height="80" viewBox="0 0 110 80" fill="none" xmlns="http://www.w3.org/2000/svg">
<path d="M51.6128 12.404L59.4707 11.2095C59.4707 11.2095 60.0994 9.70083 61.8595 8.75788C63.6197 7.75206 68.8374 6.62052 70.6604 7.12343C72.4835 7.62633 75.0609 12.404 75.0609 12.404C75.0609 12.404 56.7047 12.3411 56.8305 12.2154C57.019 12.1525 51.6128 12.404 51.6128 12.404Z" fill="#68B3DB"/>
<path d="M85.2445 62.3804C84.4902 62.6318 67.8314 63.4491 66.5112 63.3233C65.1282 63.1976 54.9444 44.59 54.8186 30.8229C54.7558 24.8509 65.8197 -1.42599 81.8499 28.3084C82.0175 28.6018 82.1642 28.8742 82.2899 29.1256L65.6311 46.6017L87.5076 44.4643C89.5821 53.3909 85.6846 62.1918 85.2445 62.3804Z" fill="url(#paint0_linear_39_3998)"/>
<path d="M63.4317 19.0046C62.7611 19.2561 62.1115 19.6961 61.4829 20.3248C58.5283 23.4679 56.3281 32.1431 57.3968 36.9207C57.8368 38.9323 59.2827 42.3898 60.9171 45.6587C61.8391 44.7786 62.7611 43.8985 63.6831 43.0185C62.1115 39.7496 60.6657 36.3549 60.2256 34.3433C59.3455 30.1314 60.98 22.8393 63.4317 19.0046Z" fill="url(#paint1_linear_39_3998)"/>
<path d="M85.7474 26.4225L77.0094 29.3142C76.4436 26.7368 75.8149 24.4109 75.2492 23.0279C72.9232 17.5588 68.0199 13.9127 64.4367 17.7474C64.0595 18.0826 63.7242 18.5017 63.4309 19.0046C62.7603 19.2561 62.1107 19.6961 61.4821 20.3248C58.5275 23.4679 56.3273 32.1431 57.396 36.9207C57.7731 38.8066 59.1561 42.0755 60.7277 45.1558L59.7848 46.0988C58.5275 43.6471 57.396 41.1326 56.5159 38.6809C52.9955 29.3771 55.7615 17.1187 60.2877 10.8952C60.4972 10.56 60.7277 10.2666 60.9792 10.0152C61.7335 9.13507 68.0827 7.1863 69.9686 7.31202C81.7241 7.75207 85.3073 23.5937 85.7474 26.4225Z" fill="url(#paint2_linear_39_3998)"/>
<path d="M59.2196 40.7554C59.4082 41.0697 60.3512 43.3328 61.357 45.2187C65.7574 41.1326 70.0321 36.7321 74.3697 32.3945C73.6782 29.6914 73.0496 27.4912 73.0496 27.4912C73.0496 27.4912 58.591 39.3095 59.2196 40.7554Z" fill="url(#paint3_linear_39_3998)"/>
<path d="M59.2192 40.4411C59.2192 40.4411 59.2821 40.001 61.4823 37.4236C63.6197 34.7833 72.7977 26.7997 72.7977 26.7997L73.0492 27.4912C73.0492 27.4912 62.9282 36.2292 61.168 38.2408C59.4707 40.1896 59.2192 40.4411 59.2192 40.4411Z" fill="url(#paint4_linear_39_3998)"/>
<g style="mix-blend-mode:multiply">
<path d="M57.145 35.4748C57.5221 38.0522 61.4825 37.4236 61.4825 37.4236L72.7979 26.7997C72.7979 26.7997 69.2147 16.3644 63.1798 18.6903C57.145 21.0791 56.9564 34.029 57.145 35.4748Z" fill="#AB6377"/>
</g>
<g style="mix-blend-mode:soft-light" opacity="0.2">
<path d="M63.0537 8.94647C63.0537 8.94647 67.5799 7.81493 71.1631 11.6496C74.6206 15.4214 75.1235 16.6158 75.8778 17.4959C76.5693 18.376 82.8557 19.5704 83.1071 19.1303C83.4215 18.6903 80.7183 11.7125 75.5007 8.94647C71.666 6.93484 65.2539 6.93484 63.0537 8.94647Z" fill="#F6F4EA"/>
</g>
<g style="mix-blend-mode:multiply" opacity="0.5">
<path d="M53.8129 25.4167C53.1843 27.9941 55.7617 31.0744 55.9502 31.3259C56.2017 31.5773 56.3903 22.525 61.6708 19.1303C66.8885 15.7357 69.7173 19.4447 72.7977 25.291C75.8151 30.9487 76.2551 22.6507 75.4379 18.8789C74.6207 15.0442 67.1399 8.19211 62.991 9.82656C58.7791 11.461 55.0073 20.199 53.8129 25.4167Z" fill="#772781"/>
</g>
<path d="M66.5112 33.2118C66.5112 33.2118 67.7685 31.703 69.7173 29.6914C71.666 27.6798 72.7347 27.4283 72.7347 27.4283C72.7347 27.4283 71.9804 28.4341 70.0316 30.2572C68.0828 32.0802 66.5112 33.2118 66.5112 33.2118Z" fill="#65637D"/>
<g style="mix-blend-mode:soft-light">
<path d="M54.568 36.4807C52.6192 25.4167 57.6483 14.7928 57.6483 14.7928C57.6483 14.7928 51.6763 24.7881 52.4306 35.412C52.8078 40.0639 54.6937 45.0301 56.8311 49.2419C57.2502 48.9067 57.6483 48.5714 58.0255 48.2361C56.6425 44.59 55.2595 40.5039 54.568 36.4807Z" fill="#81CEFF"/>
</g>
<g style="mix-blend-mode:soft-light">
<path d="M67.643 8.00352C66.7001 8.19211 68.6488 8.56929 71.4777 8.82075C74.3065 9.0722 72.4835 7.06057 67.643 8.00352Z" fill="#C5CFEA"/>
</g>
<g style="mix-blend-mode:soft-light" opacity="0.3">
<path d="M77.1355 13.8498C75.5639 13.9755 77.5127 16.05 78.0785 16.05C78.6442 16.05 80.4673 13.6612 77.1355 13.8498Z" fill="#C5CFEA"/>
</g>
<path d="M78.707 28.2455C77.7012 29.3771 76.9468 30.1943 76.9468 30.1943L74.4323 32.7088C73.7408 29.8171 72.9864 27.114 72.3578 25.6053C70.409 21.0791 66.7001 17.8102 63.4312 19.0046C62.7606 19.2561 62.111 19.6961 61.4824 20.3247C58.5278 23.4679 56.3276 32.1431 57.3963 36.9207C57.8363 38.9323 59.3451 42.3898 60.9166 45.6587L57.2706 49.2419C55.8876 46.6017 54.6303 43.8357 53.6245 41.1954C49.9155 31.5144 55.3847 16.7415 60.288 10.8952C65.2542 4.98607 73.8037 11.3981 76.9468 21.2677C77.6383 23.4051 78.2041 25.7939 78.707 28.2455Z" fill="url(#paint5_linear_39_3998)"/>
<path d="M57.271 49.2419C57.271 49.2419 64.0602 47.9218 65.6947 47.0417C67.3291 46.1616 85.7481 26.4225 85.7481 26.4225C85.7481 26.4225 79.0846 27.114 78.5188 27.3655C78.0159 27.6169 57.271 49.2419 57.271 49.2419Z" fill="#1A0D2D"/>
<path d="M49.2234 29.88L76.7576 25.9196C76.7576 25.9196 72.7343 13.8498 66.0079 11.7753C60.7902 10.1409 40.7368 14.3527 40.7368 14.3527C40.7368 14.3527 46.5203 19.8218 49.2234 29.88Z" fill="url(#paint6_linear_39_3998)"/>
<path d="M76.7576 25.9196L57.2699 49.2419L30.4272 53.2652L48.7205 29.88L76.7576 25.9196Z" fill="url(#paint7_linear_39_3998)"/>
<path d="M33.4453 51.0021L55.7618 48.1104L71.4148 29.1256L47.5896 32.3945L33.4453 51.0021Z" fill="url(#paint8_linear_39_3998)"/>
<path d="M89.4562 43.2699C89.3933 43.2699 89.3305 43.5842 89.4562 43.2699C88.5761 43.5214 87.0045 43.4585 85.9358 43.7099C85.9358 43.7099 85.9358 43.8985 85.8101 43.7728C85.1186 43.8357 84.6157 43.7099 84.4271 43.7728C84.469 43.7309 84.469 43.7099 84.4271 43.7099C84.4271 43.7519 84.4271 43.7728 84.4271 43.7728C84.4271 43.8147 84.4271 43.8566 84.4271 43.8985C83.7566 44.0662 83.0441 44.2338 82.2898 44.4014C82.2898 46.4759 82.2898 48.739 82.2269 50.8135C82.0383 54.9625 81.724 58.4829 81.4097 58.9858C81.3468 59.1115 81.0325 59.3001 80.5924 59.4887C80.5505 59.4887 80.5086 59.4887 80.4667 59.4887C80.2572 59.5725 80.0267 59.6563 79.7752 59.7401C78.7065 60.0544 77.1978 60.4316 75.6262 60.7459C71.6658 61.5632 67.0768 62.3175 66.6996 62.1289C66.5739 62.1289 66.3853 61.6889 66.071 60.9974C66.071 60.9555 66.071 60.9136 66.071 60.8717C66.071 60.8717 66.05 60.8717 66.0081 60.8717C65.9662 60.704 65.9243 60.5364 65.8824 60.3688C65.7148 59.9497 65.5262 59.4468 65.3166 58.86C65.149 58.4409 64.9814 57.959 64.8137 57.4142C64.5623 56.4712 64.248 55.4654 63.9336 54.3967C63.3679 52.448 62.8021 50.3735 62.2992 48.3618C60.8743 48.6133 59.4703 48.8647 58.0873 49.1162C57.5844 49.2 57.0815 49.2838 56.5786 49.3677C57.3958 52.5108 58.3388 55.654 59.2817 58.4829C59.6589 59.5306 60.0151 60.5364 60.3504 61.5003C60.3923 61.6679 60.4552 61.8146 60.539 61.9403C61.482 64.5177 62.3621 66.5922 62.9907 67.8495C62.9907 67.8495 63.0116 67.8705 63.0535 67.9124C63.0955 68.0381 63.1583 68.1429 63.2421 68.2267C63.4936 68.7925 63.745 69.1068 63.8708 69.1068C64.248 69.1696 65.0023 69.1068 66.071 68.9811C68.3341 68.6667 71.9173 67.9752 75.4376 67.158C80.9068 65.9636 86.313 64.5806 86.7531 64.0148C87.3188 63.1347 89.079 52.888 89.4562 43.2699Z" fill="url(#paint9_linear_39_3998)"/>
<path d="M82.2904 44.4014C82.1647 44.4434 82.0599 44.4643 81.9761 44.4643C80.8027 44.7158 79.6082 44.9882 78.3929 45.2815C78.4557 46.9788 78.4557 48.8019 78.3929 50.5621C78.3929 50.604 78.3929 50.6459 78.3929 50.6878C78.3929 51.1488 78.3929 51.5679 78.3929 51.9451C78.33 53.0766 78.2672 54.1453 78.2672 55.0882C78.2252 55.8007 78.1624 56.4293 78.0786 56.9741C78.0786 57.2256 78.0786 57.4561 78.0786 57.6656C78.0367 58.0847 77.9947 58.441 77.9528 58.7343C77.9109 58.7762 77.89 58.8181 77.89 58.86C77.8271 59.4258 77.7642 59.7401 77.6385 59.9287C77.5128 60.1173 76.7584 60.4316 75.6269 60.7459C71.6665 61.9403 63.2428 63.3233 62.7399 63.1348C62.6142 63.0719 62.2998 62.5061 61.9855 61.626C61.9017 61.5003 61.8388 61.3536 61.7969 61.186C61.4826 60.3688 61.1054 59.3629 60.7283 58.2314C60.4139 57.2256 60.0368 56.1569 59.7224 55.0254V54.9625C59.1567 53.0766 58.528 51.065 58.088 49.1162C57.5851 49.2 57.0822 49.2838 56.5793 49.3677C55.1125 49.6191 53.6666 49.8496 52.2417 50.0592C53.1218 53.3281 54.1276 56.5341 55.1334 59.4258C55.5106 60.4316 55.8668 61.3955 56.2021 62.3175C56.2859 62.5271 56.3697 62.7576 56.4535 63.009C57.5222 65.7122 58.4652 67.9124 59.1567 69.1068C59.1986 69.1487 59.2195 69.1906 59.2195 69.2325C59.5339 69.7983 59.7853 70.1126 59.911 70.1126C61.3569 70.3012 69.4663 68.6667 75.4383 67.158C78.9587 66.2779 81.7875 65.4607 82.039 65.0207C82.2904 64.7063 82.6047 63.1976 82.9819 60.8717C82.9819 60.8298 82.9819 60.8088 82.9819 60.8088C82.9819 60.8088 82.9819 60.7879 82.9819 60.7459C83.0238 60.6202 83.0657 60.4735 83.1076 60.3059C83.1495 60.0544 83.1915 59.7611 83.2334 59.4258C83.2334 59.2582 83.2543 59.0696 83.2962 58.86C83.422 57.98 83.5477 57.037 83.6734 56.0312C83.6734 56.0312 83.6734 56.0102 83.6734 55.9683C83.7991 54.9206 83.9039 53.831 83.9877 52.6994C83.9877 52.6575 83.9877 52.6156 83.9877 52.5737C83.9877 52.5737 84.0087 52.5527 84.0506 52.5108C84.0506 52.5108 84.0506 52.4899 84.0506 52.448C84.1344 51.4422 84.1973 50.3944 84.2392 49.3048C84.3649 47.4818 84.4278 45.6587 84.4278 43.8985C83.7572 44.0662 83.0448 44.2338 82.2904 44.4014ZM84.4278 43.7728C84.4697 43.7309 84.4697 43.7099 84.4278 43.7099C84.4278 43.7519 84.4278 43.7728 84.4278 43.7728Z" fill="url(#paint10_linear_39_3998)"/>
<path d="M78.3924 45.2815C79.6078 44.9882 80.8022 44.7158 81.9756 44.4643C81.9128 46.7274 81.7871 48.9905 81.6613 51.0021C81.4727 53.1395 81.2841 55.0254 81.0327 56.6598C81.0327 56.7436 81.0327 56.8065 81.0327 56.8484C80.8651 57.8542 80.7184 58.7343 80.5926 59.4887C80.3412 60.7459 80.0897 61.5632 79.9011 61.8146C78.8325 63.2605 69.6544 66.4665 63.2423 68.2267C63.1166 68.2686 63.0118 68.2896 62.928 68.2896C61.4822 68.6667 60.2249 69.0439 59.2191 69.2325C58.7581 69.3163 58.339 69.4001 57.9618 69.484C56.956 69.6097 45.452 61.186 36.2739 52.5737L36.5882 52.6366C36.5882 52.6366 43.3775 51.5679 52.2412 50.0592C53.6661 49.8496 55.112 49.6191 56.5788 49.3677C57.0817 49.2838 57.5846 49.2 58.0875 49.1162C59.4705 48.8648 60.8745 48.6133 62.2994 48.3619C67.8314 47.356 73.4891 46.2874 78.3924 45.2815Z" fill="url(#paint11_linear_39_3998)"/>
<g style="mix-blend-mode:multiply">
<path d="M62.8025 69.6097C62.8025 69.6097 74.8094 67.2837 78.2669 65.6493C81.7244 64.0777 83.9246 53.3281 83.9875 52.5737C84.0503 51.8193 83.1702 50.4363 83.1702 50.4363C83.1702 50.4363 80.9071 51.505 76.381 52.448C71.7919 53.3909 59.7222 54.9625 59.7222 54.9625L62.111 59.4258C62.111 59.4258 78.8327 56.6598 79.587 56.9113C80.4042 57.1627 79.6499 61.4374 78.8955 62.3804C78.0783 63.3233 63.0539 67.0323 63.0539 67.0323L62.8025 69.6097Z" fill="#AB6377"/>
</g>
<g style="mix-blend-mode:multiply" opacity="0.2">
<path d="M57.9615 69.4211C57.9615 69.4211 54.1269 60.4945 54.4412 59.7401C54.7555 58.9858 79.2094 54.8996 80.278 54.7739C81.2839 54.7111 80.781 60.6202 79.4608 62.0032C78.0778 63.3233 57.9615 69.4211 57.9615 69.4211Z" fill="#AB6377"/>
</g>
<path d="M53.8756 62.8204C53.8756 62.8204 72.0431 59.1744 76.255 58.1685C80.404 57.0999 81.1583 56.597 81.1583 56.597L80.1525 58.2943C80.1525 58.2943 73.3633 59.6144 66.134 60.8717C58.8418 62.0661 53.687 63.8262 53.687 63.8262L53.8756 62.8204Z" fill="#4F0E0A"/>
<path d="M63.9966 61.3117C63.9966 61.3117 71.3516 60.3059 73.7404 59.803C76.3178 59.3001 79.7753 58.42 79.7753 58.42C79.7753 58.42 74.2433 59.4258 72.7346 59.6773C71.2259 59.8659 63.9966 61.3117 63.9966 61.3117Z" fill="#8B3E29"/>
<path d="M83.7359 56.0312C83.4216 55.8426 82.3529 57.037 82.29 58.42C82.29 59.8659 82.8558 60.8088 83.0444 60.8088C83.233 60.8717 85.8104 57.3513 83.7359 56.0312Z" fill="#1B0A37"/>
<g style="mix-blend-mode:multiply">
<path d="M83.7365 56.0312C83.2336 56.0312 82.4792 56.9113 82.6678 58.1685C82.7935 59.3629 83.8622 58.86 84.3022 58.0428C84.8052 57.1627 84.0508 55.9683 83.7365 56.0312Z" fill="#AB6377"/>
</g>
<path d="M82.2899 58.42C82.4157 58.0428 83.4215 59.7401 83.4844 59.9916C83.4844 60.3059 83.0443 60.8088 82.9814 60.8088C82.8557 60.8088 82.0385 59.3629 82.2899 58.42Z" fill="#3A294E"/>
<path d="M76.1924 49.2419C76.1924 49.2419 77.7011 50.5621 78.5183 50.5621C79.2727 50.5621 81.2215 49.1791 81.2215 49.1791C81.2215 49.1791 79.7756 50.3106 79.0841 50.6249C78.4555 50.9392 77.0725 50.5621 76.1924 49.2419Z" fill="#685B7F"/>
<path d="M82.8558 60.6831C82.6672 60.4316 83.7359 59.9287 83.7359 59.9287C83.7359 59.9287 83.0444 61.3746 82.8558 60.6831Z" fill="#65637D"/>
<g style="mix-blend-mode:multiply" opacity="0.3">
<path d="M84.2386 55.4654C83.7356 55.1511 84.05 48.0475 84.7415 47.2303C85.433 46.3502 88.7647 45.6587 89.079 45.7216C89.3305 45.7216 88.4504 54.3967 88.0732 56.0312C87.696 57.6028 84.2386 55.4654 84.2386 55.4654Z" fill="#AF7FB5"/>
</g>
<path d="M83.862 43.8357C83.9039 43.7938 83.9248 43.7728 83.9248 43.7728C83.7362 46.6017 83.1705 49.5563 82.5418 50.5621C81.1588 52.5737 52.6817 56.3455 52.6817 56.3455C52.6817 56.3455 52.0531 53.5166 51.2987 50.4992C51.2568 50.4573 51.2358 50.4363 51.2358 50.4363C68.9005 47.2303 82.919 44.0243 83.862 43.8357Z" fill="url(#paint12_linear_39_3998)"/>
<path d="M83.8613 43.8357C72.6716 47.1046 55.3213 49.8706 51.2981 50.4992C50.7323 50.5621 50.418 50.6249 50.418 50.6249C50.7113 50.583 50.9837 50.5202 51.2352 50.4363C68.8998 47.2303 82.9184 44.0243 83.8613 43.8357Z" fill="url(#paint13_linear_39_3998)"/>
<g style="mix-blend-mode:multiply" opacity="0.3">
<path d="M69.78 48.739C68.2712 49.4934 67.5169 50.2478 68.4598 50.5621C70.0943 51.1907 71.4144 52.1337 73.9918 51.1907C74.4109 50.9812 74.8719 50.7926 75.3748 50.6249C77.575 49.8077 79.8381 48.8648 78.5808 47.7961C78.5808 47.7961 77.3236 46.476 73.8032 47.2932C73.2165 47.4608 72.6717 47.6284 72.1688 47.7961C71.2887 48.0475 70.4715 48.4247 69.78 48.739Z" fill="#4F2A6F"/>
</g>
<g style="mix-blend-mode:multiply" opacity="0.5">
<path d="M72.1698 47.7961L71.8555 47.9218C71.8555 47.9218 73.6156 47.356 75.2501 47.356C76.9474 47.356 78.3304 47.6075 78.0789 48.5504C77.7646 49.5563 75.3758 50.6249 75.3758 50.6249C77.576 49.8077 79.8391 48.8648 78.5819 47.7961C78.5819 47.7961 77.3246 46.476 73.8042 47.2932C73.2175 47.4608 72.6727 47.6284 72.1698 47.7961Z" fill="#4F2A6F"/>
</g>
<path d="M77.8897 27.0511C77.8897 27.0511 75.7524 29.4399 75.3123 29.6914C74.9351 29.88 48.9097 34.2804 48.9097 34.2804L50.7956 31.3887L77.8897 27.0511Z" fill="#1A0D2D"/>
<g style="mix-blend-mode:multiply" opacity="0.5">
<path d="M55.7615 48.1104L52.6812 31.703L71.4145 29.1256L55.7615 48.1104Z" fill="#AB6377"/>
</g>
<g style="mix-blend-mode:multiply" opacity="0.2">
<path d="M50.23 20.7019C49.8528 19.0675 56.9564 21.3934 64.8772 20.8905C72.5465 20.3876 69.6548 26.5482 58.7794 27.8684C47.4011 29.1885 50.23 20.7019 50.23 20.7019Z" fill="#AB6377"/>
</g>
<g style="mix-blend-mode:soft-light" opacity="0.3">
<path d="M43.0635 14.7299C43.0635 14.7299 46.521 14.9814 51.2986 18.6903C55.8248 22.2107 72.1692 18.376 72.0435 18.0617C71.9807 17.6845 69.969 12.2782 64.2485 12.0896C58.3393 11.8382 51.8015 12.7183 43.0635 14.7299Z" fill="#FFD8BA"/>
</g>
<path d="M45.6406 25.291C45.6406 25.291 56.7675 24.0966 63.2424 22.3992C70.5974 20.5133 74.5578 20.7648 74.5578 20.7648L74.6835 21.2677C74.6835 21.2677 67.3285 22.2735 62.8652 22.965C58.339 23.5936 54.5044 24.4737 51.6127 24.8509C48.6581 25.291 45.8921 25.4796 45.8921 25.4796L45.6406 25.291Z" fill="#661F0A"/>
<path d="M36.1484 17.1816C36.1484 17.1816 52.2415 14.5413 59.5965 13.5355C66.8887 12.5925 68.2088 13.0326 68.2088 13.0326L69.4661 13.6612C69.4661 13.6612 62.0482 13.3469 56.3276 14.2899C50.4813 15.2957 41.869 17.3702 40.7375 17.5588C39.6688 17.7473 38.1601 17.9359 38.1601 17.9359L36.1484 17.1816Z" fill="#661F0A"/>
<path d="M51.0464 15.7986C51.0464 15.7986 56.264 14.9185 59.03 14.4156C61.796 13.9127 64.3106 13.6612 64.3106 13.6612C64.3106 13.6612 61.8589 13.4726 57.8985 14.1641C54.0638 14.8556 51.0464 15.7986 51.0464 15.7986Z" fill="#B0703F"/>
<g style="mix-blend-mode:multiply">
<path d="M67.8315 21.6449C67.8315 21.6449 69.4031 21.8335 71.4148 21.7078C73.3635 21.582 74.5579 20.7648 74.5579 20.7648C74.5579 20.7648 71.6662 20.3248 67.8315 21.6449Z" fill="#AB6377"/>
</g>
<path d="M56.3278 20.3247C53.6247 21.3934 59.5967 22.2735 62.2999 21.5192C65.003 20.7648 61.8598 18.2503 56.3278 20.3247Z" fill="url(#paint14_linear_39_3998)"/>
<g style="mix-blend-mode:multiply" opacity="0.6">
<path d="M56.2024 20.6391C55.0708 21.3306 58.5912 22.0221 61.2943 21.0791C63.9974 20.1362 59.5341 18.6274 56.2024 20.6391Z" fill="#904F81"/>
</g>
<path d="M55.9507 21.2048C55.9507 21.2048 57.5223 21.582 59.9739 21.2677C62.4256 21.0162 62.7399 21.3306 62.7399 21.3306C62.7399 21.3306 62.0484 21.8335 59.8482 21.8963C57.5851 22.0221 55.9507 21.2048 55.9507 21.2048Z" fill="#B5643F"/>
<path d="M42.1204 22.9022C42.1204 22.9022 30.4278 14.667 26.5303 15.2328C24.8958 15.4843 17.2894 23.2165 15.4663 38.8066C14.5862 46.3502 28.4791 70.5526 30.4278 72.4385C32.4395 74.3244 51.3614 70.6784 51.3614 70.6784L27.9762 52.1337L42.1204 22.9022Z" fill="#68B3DB"/>
<path d="M53.3108 68.4782C52.6193 68.7296 32.0001 70.1126 30.68 69.9869C29.9256 69.924 26.2167 63.5119 23.1992 55.4026L51.0477 51.505C53.1851 60.6831 53.8137 68.2896 53.3108 68.4782Z" fill="url(#paint15_linear_39_3998)"/>
<path d="M23.1361 55.214C23.178 55.2978 23.199 55.3606 23.199 55.4025L22.8218 55.4654L23.1361 55.214Z" fill="url(#paint16_linear_39_3998)"/>
<path d="M53.75 51.2536C54.8815 57.0999 55.5101 63.8891 55.0701 64.5806C54.7558 65.0207 51.8012 65.335 48.4066 65.5236H48.3437C43.7547 66.1522 34.0109 66.3408 33.3822 66.0893C32.8164 65.9007 29.6733 60.3688 27.033 54.8996L25.4614 55.0882C29.6733 63.6377 34.8281 71.747 35.7082 71.9356C37.0283 72.25 43.1889 72.0614 49.2867 71.6842C55.7616 71.307 62.2365 70.6784 62.6137 70.1755C63.1795 69.4211 63.6195 59.4258 62.3623 50.0592L53.75 51.2536Z" fill="url(#paint17_linear_39_3998)"/>
<path d="M56.3269 51.3793C54.7554 51.7565 53.4981 52.0079 53.4981 52.0079L49.3491 52.5737C50.4178 58.2314 51.0464 64.3292 50.6064 64.9578C50.4178 65.2092 49.6006 65.3978 48.4062 65.5236H48.3433C43.7543 66.1522 34.0104 66.3408 33.3818 66.0893C32.816 65.9007 29.9243 60.746 27.3469 55.4654L21.312 56.2826C25.461 64.5177 30.3643 72.1242 31.2444 72.3128C32.9417 72.69 42.3713 72.3128 49.2862 71.6842C53.3724 71.3699 56.6413 70.9298 56.8927 70.5526C57.5213 69.7983 57.7728 60.4316 56.3269 51.3793Z" fill="url(#paint18_linear_39_3998)"/>
<path d="M33.3824 66.0893C34.0111 66.3408 43.7549 66.1522 48.3439 65.5236C43.692 65.8379 38.3486 65.9007 37.8457 65.7121C37.3428 65.4607 34.3882 60.243 31.8108 54.8996C30.3021 55.1092 28.7934 55.2978 27.2847 55.4654C29.9249 60.7459 32.8167 65.9007 33.3824 66.0893Z" fill="url(#paint19_linear_39_3998)"/>
<path d="M28.0391 55.3397C29.0449 57.1627 30.1136 58.7972 30.8679 59.0486C35.897 60.4316 50.2299 58.42 50.2299 58.42C50.167 56.597 49.7269 54.3339 49.2869 52.2594C42.2462 53.3909 35.2055 54.5853 28.0391 55.3397Z" fill="url(#paint20_linear_39_3998)"/>
<g style="mix-blend-mode:multiply">
<path d="M28.0391 55.3397L28.1019 55.4654C28.1019 55.4654 36.6514 54.3967 43.252 53.2023C38.2229 54.0195 33.1939 54.7739 28.0391 55.3397Z" fill="#AB6363"/>
</g>
<g style="mix-blend-mode:multiply">
<path d="M27.5986 54.5225L28.0387 55.3397C33.1935 54.7739 38.2226 54.0196 43.2516 53.2023C45.7662 52.7623 47.9664 52.3222 49.4122 51.9451C49.4122 51.9451 38.0968 54.1453 27.5986 54.5225Z" fill="#AB6363"/>
</g>
<g style="mix-blend-mode:multiply">
<path d="M21.187 56.0941C21.187 56.0941 24.5188 55.9055 27.2219 55.5911L27.3476 55.4025C25.7132 55.6121 24.0578 55.7797 22.3814 55.9055L21.187 56.0941Z" fill="#AB6363"/>
</g>
<g style="mix-blend-mode:multiply">
<path d="M27.5985 54.5225L27.1585 55.0882L22.3809 55.9055C24.0572 55.7797 25.7126 55.6121 27.3471 55.4025L27.85 55.0254L27.5985 54.5225Z" fill="#AB6363"/>
</g>
<g style="mix-blend-mode:multiply">
<path d="M30.5537 58.9229C30.5537 58.9229 33.0682 61.8775 36.0857 63.0719C39.1031 64.2663 50.1042 61.186 50.2928 60.8088C50.4814 60.4316 50.23 58.42 50.23 58.42C50.23 58.42 40.4233 59.2372 30.5537 58.9229Z" fill="#AB6377"/>
</g>
<path d="M33.3823 66.0893C33.3823 66.0893 36.3369 65.6493 37.9714 65.4607C39.6687 65.2721 50.6069 64.9578 50.6069 64.9578C50.6069 64.9578 50.4812 65.5864 45.3264 66.0893C40.2344 66.5922 33.3823 66.0893 33.3823 66.0893Z" fill="url(#paint21_linear_39_3998)"/>
<g style="mix-blend-mode:multiply" opacity="0.3">
<path d="M57.9626 70.1126C57.3339 69.7983 57.1453 61.7518 58.0254 60.4945C58.9684 59.1744 62.7402 57.9171 63.0545 57.9799C63.3688 58.0428 63.0545 67.598 62.4259 68.9182C61.7972 70.3012 57.9626 70.1126 57.9626 70.1126Z" fill="#AF7FB5"/>
</g>
<path d="M54.5044 70.9927C54.5044 70.9927 57.0189 67.0323 57.3961 63.7005C57.3961 63.7005 58.2133 69.4839 57.9619 70.1126C57.7104 70.7412 54.5044 70.9927 54.5044 70.9927Z" fill="#332049"/>
<g style="mix-blend-mode:soft-light">
<path d="M29.0449 69.6725C29.0449 69.6725 25.5246 63.3862 22.6328 55.9055C22.0042 55.9474 21.3546 55.9893 20.6841 56.0312C24.0787 62.6947 28.1648 68.4781 29.0449 69.6725Z" fill="#81CEFF"/>
</g>
<g style="mix-blend-mode:soft-light" opacity="0.3">
<path d="M58.5282 60.6831C58.151 61.3117 57.7109 62.0032 58.9682 61.7518C60.2255 61.5003 60.0997 62.6318 59.7226 63.2605C59.3454 63.8263 58.5281 60.7459 58.3396 63.3233C58.0881 65.8379 58.2138 69.3582 58.9682 69.6725C59.7226 69.9869 61.1684 70.6155 61.7342 68.3524C62.2371 66.0265 61.6085 66.8437 61.4827 65.8379C61.4199 64.7692 62.2371 67.5352 62.6771 65.5864C63.0543 63.6377 62.9286 60.1173 62.5514 59.3629C62.1742 58.5457 58.9053 59.9287 58.5282 60.6831Z" fill="#F6F4EA"/>
</g>
<g style="mix-blend-mode:soft-light" opacity="0.3">
<path d="M57.7732 52.9509C56.8302 52.448 58.0246 55.1511 57.8989 56.8484C57.836 58.6086 58.3389 57.6656 58.779 57.6656C59.1562 57.6028 59.4076 54.3339 60.3506 55.5911C61.2935 56.8484 62.7394 56.9113 62.1108 53.831C61.4193 50.7507 57.7732 52.9509 57.7732 52.9509Z" fill="#F6F4EA"/>
</g>
<g style="mix-blend-mode:soft-light" opacity="0.2">
<path d="M54.1898 52.3851C52.9326 52.1965 52.3039 53.5167 51.2981 54.3339C50.2295 55.214 51.9896 56.597 52.0525 61.1231C52.1154 65.7122 50.9838 71.1813 53.3098 68.4782C55.6986 65.7122 56.8301 67.158 56.5787 60.8088C56.2643 54.5225 54.7556 52.5108 54.1898 52.3851Z" fill="#F6F4EA"/>
</g>
<g style="mix-blend-mode:soft-light" opacity="0.3">
<path d="M33.3819 67.4723C31.3074 66.9066 31.9989 69.6097 31.7474 70.9927C31.496 72.3757 34.8277 71.4956 35.2049 71.2441C35.5821 71.0555 33.759 70.7412 35.2049 70.1755C36.7136 69.6097 37.5937 69.6725 37.2794 70.4898C36.9651 71.307 39.4796 71.747 41.0512 71.0555C42.6857 70.364 45.5774 68.2267 44.2572 67.5981C42.9371 66.9694 38.0966 66.5922 36.7765 66.718C35.4564 66.7808 33.3819 67.4723 33.3819 67.4723Z" fill="#F6F4EA"/>
</g>
<path d="M62.3618 50.0592C62.3618 50.0592 43.2514 51.065 36.525 51.8822C29.8614 52.6994 21.312 56.2826 21.312 56.2826C21.312 56.2826 52.8695 53.3281 56.1384 52.7623C59.4073 52.1965 62.3618 50.0592 62.3618 50.0592Z" fill="#7E687F"/>
<path d="M49.5388 34.5948L23.4505 55.1511C21.1874 49.3048 19.3015 42.5155 19.3015 36.6064C19.2386 30.5715 32.6914 3.35162 49.0988 33.7775C49.2664 34.0709 49.4131 34.3433 49.5388 34.5948Z" fill="url(#paint22_linear_39_3998)"/>
<path d="M28.1016 24.5995C27.3892 24.809 26.7186 25.2491 26.09 25.9196C23.0726 29.1256 20.8723 37.9894 21.8781 42.8927C22.3182 44.9044 23.8898 48.4876 25.5242 51.8193C26.4881 50.9392 27.4311 50.0382 28.3531 49.1162C26.7815 45.7844 25.2728 42.327 24.8327 40.2525C23.9526 35.9149 25.5871 28.4341 28.1016 24.5995Z" fill="url(#paint23_linear_39_3998)"/>
<path d="M53.0586 31.8288L41.9946 35.0977C41.4288 32.4574 40.7373 30.0686 40.1716 28.6856C37.8456 23.0907 32.8166 19.3818 29.1076 23.2165C28.7723 23.5937 28.4371 24.0546 28.1018 24.5995C27.3893 24.809 26.7188 25.2491 26.0902 25.9196C23.0727 29.1256 20.8725 37.9894 21.8783 42.8927C22.3184 44.8415 23.7642 48.1104 25.3358 51.3164L24.33 52.2594C23.0727 49.8077 21.9412 47.1674 20.9982 44.6529C17.4779 35.1605 20.3067 22.5878 24.8958 16.2386C25.1053 15.9453 25.3358 15.6519 25.5873 15.3585C26.3416 14.4785 32.8794 12.4668 34.7653 12.5926C46.7722 13.0326 52.6814 28.937 53.0586 31.8288Z" fill="url(#paint24_linear_39_3998)"/>
<path d="M23.7646 46.7903C23.9532 47.1674 24.959 49.4934 26.0277 51.3793C30.491 47.2303 41.3035 37.235 45.704 32.7717C45.0125 30.0686 37.9089 33.2746 37.9089 33.2746C37.9089 33.2746 23.136 45.2815 23.7646 46.7903Z" fill="url(#paint25_linear_39_3998)"/>
<path d="M23.8271 46.4759C23.8271 46.4759 23.8271 46.0359 26.0902 43.3956C28.2905 40.6925 37.6571 32.5203 37.6571 32.5203L37.9086 33.2746C37.9086 33.2746 27.599 42.2012 25.7759 44.2129C24.0157 46.2245 23.8271 46.4759 23.8271 46.4759Z" fill="url(#paint26_linear_39_3998)"/>
<g style="mix-blend-mode:multiply">
<path d="M21.6891 41.384C22.0663 44.0243 26.0896 43.3956 26.0896 43.3956L37.6564 32.5203C37.6564 32.5203 34.0104 21.8963 27.8497 24.2851C21.6891 26.674 21.5005 39.9381 21.6891 41.384Z" fill="#AB6377"/>
</g>
<g style="mix-blend-mode:soft-light" opacity="0.2">
<path d="M27.7251 14.227C27.7251 14.227 32.377 13.1583 36.0231 17.0559C39.5434 20.8905 40.1092 22.0849 40.8007 23.0279C41.555 23.908 44.5725 21.9592 44.8868 21.5192C45.2011 21.0791 45.7669 17.1187 40.4864 14.2899C36.526 12.2154 29.9882 12.2154 27.7251 14.227Z" fill="#F6F4EA"/>
</g>
<g style="mix-blend-mode:multiply" opacity="0.5">
<path d="M18.2327 31.1373C17.6041 33.7147 20.2443 36.9207 20.4958 37.1722C20.6844 37.3607 20.873 28.1198 26.2792 24.6623C31.6855 21.2677 34.5143 25.0395 37.7203 31.0115C40.8007 36.795 41.1778 28.3084 40.3606 24.4109C39.5434 20.5133 31.9369 13.4726 27.6622 15.1699C23.3246 16.8044 19.49 25.731 18.2327 31.1373Z" fill="#772781"/>
</g>
<path d="M31.3076 39.1209C31.3076 39.1209 32.5649 37.5493 34.5137 35.4748C36.5253 33.4003 37.594 33.1489 37.594 33.1489C37.594 33.1489 36.8396 34.2176 34.828 36.0406C32.8163 37.9265 31.3076 39.1209 31.3076 39.1209Z" fill="#65637D"/>
<g style="mix-blend-mode:soft-light">
<path d="M19.049 42.4527C17.0374 31.0744 22.1922 20.2619 22.1922 20.2619C22.1922 20.2619 16.0945 30.4458 16.8488 41.3211C17.226 46.0988 19.1748 51.1907 21.375 55.4654C21.7941 55.1301 22.1922 54.7949 22.5694 54.4596C21.1235 50.7507 19.7405 46.5388 19.049 42.4527Z" fill="#81CEFF"/>
</g>
<g style="mix-blend-mode:soft-light">
<path d="M32.3762 13.3469C31.4961 13.4726 33.4448 13.9127 36.3366 14.1641C39.2283 14.4156 37.3424 12.3411 32.3762 13.3469Z" fill="#C5CFEA"/>
</g>
<g style="mix-blend-mode:soft-light">
<path d="M36.5251 14.5413C34.8907 14.667 36.9023 15.6729 37.4681 15.6729C38.0339 15.61 39.9198 14.3527 36.5251 14.5413Z" fill="#C5CFEA"/>
</g>
<path d="M46.143 32.7089C45.1372 33.8404 41.9312 36.0406 41.9312 36.0406L39.2909 38.5551C38.6623 35.6006 37.9079 32.8346 37.2164 31.3259C35.2677 26.674 31.433 23.3422 28.1012 24.5995C27.3888 24.809 26.7182 25.2491 26.0896 25.9196C23.0721 29.1256 20.8719 37.9894 21.8777 42.8927C22.3178 44.9044 23.8894 48.4247 25.5238 51.8193L21.752 55.4654C20.369 52.8252 19.1118 49.9963 18.0431 47.2932C14.2713 37.3607 19.8661 22.2735 24.8952 16.2386C32.9417 7.37488 44.8858 27.3655 46.143 32.7089Z" fill="url(#paint27_linear_39_3998)"/>
<path d="M21.752 55.4654C21.752 55.4654 28.7298 54.1453 30.4271 53.2652C32.1244 52.3851 53.0579 31.8288 53.0579 31.8288C53.0579 31.8288 46.2687 32.5203 45.7029 32.7717C45.1372 33.086 21.752 55.4654 21.752 55.4654Z" fill="#1A0D2D"/>
<path d="M37.531 18.7532C37.0909 19.1303 37.0909 22.525 38.3482 24.0337C39.5426 25.4795 41.0513 25.291 41.2399 24.9138C41.4285 24.5995 40.7999 15.8614 37.531 18.7532Z" fill="#1B0A37"/>
<g style="mix-blend-mode:multiply">
<path d="M37.5308 18.7532C37.0907 19.6961 37.1536 22.1478 38.4109 23.0279C39.6682 23.908 40.2339 21.3306 39.9196 19.5075C39.6681 17.6845 37.8451 18.0617 37.5308 18.7532Z" fill="#AB6377"/>
</g>
<path d="M38.3477 24.0337C38.0963 23.405 40.6108 23.0279 40.9251 23.2793C41.1766 23.5308 41.1766 24.8509 41.1137 25.0395C40.988 25.291 38.9135 25.4795 38.3477 24.0337Z" fill="#442C4E"/>
<path d="M40.0454 25.1652C40.0454 25.1024 40.9884 24.7252 41.0512 24.788C41.177 24.788 41.2398 24.9138 41.2398 24.9138C41.2398 24.9138 41.2398 25.0395 40.8626 25.1652C40.4855 25.291 40.0454 25.1652 40.0454 25.1652Z" fill="#65637D"/>
<g style="mix-blend-mode:soft-light">
<path d="M21.3758 55.4654C21.3758 55.4654 23.0731 53.7681 23.3874 53.2023C23.7017 52.5737 19.4899 36.6064 19.3013 33.0232C19.0499 29.5028 19.1127 28.1198 19.1127 28.1198C19.1127 28.1198 16.221 35.6006 16.9125 41.8869C17.604 48.1732 21.3758 55.4654 21.3758 55.4654Z" fill="#81CEFF"/>
</g>
<path d="M58.7164 51.4422C58.7164 51.4422 80.4672 46.916 89.4566 43.2699C89.4566 43.2699 71.1005 44.7158 63.054 46.3502C55.0703 47.9218 33.4453 52.3851 33.4453 52.3851C33.4453 52.3851 54.5674 52.1337 58.7164 51.4422Z" fill="#7E687F"/>
<path d="M33.5713 53.0766C33.5713 53.0766 55.1963 51.3793 57.648 50.8135C60.0997 50.2478 81.096 45.4073 81.096 45.4073C81.096 45.4073 66.2603 46.5388 61.1683 47.356C56.0764 48.1104 33.5713 53.0766 33.5713 53.0766Z" fill="#1A0D2D"/>
<path d="M51.4243 26.9883C51.4243 26.9883 76.5068 23.1536 76.884 23.3422C77.2612 23.4679 77.8898 26.674 77.8898 27.0511C77.8898 27.4283 52.933 31.263 52.933 31.263L51.4243 26.9883Z" fill="url(#paint28_linear_39_3998)"/>
<g style="mix-blend-mode:multiply">
<path d="M52.2411 22.7764C52.2411 22.7764 51.4239 23.6565 51.4239 24.4737C51.361 25.291 53.2469 30.8229 53.2469 30.8229L54.7557 30.5086L52.2411 22.7764Z" fill="#AB6377"/>
</g>
<path d="M74.9975 17.9988C74.7461 18.2503 74.7461 20.5762 75.5633 21.582C76.3805 22.5878 77.3863 22.3992 77.5121 22.2107C77.6378 21.9592 77.2606 16.05 74.9975 17.9988Z" fill="#1B0A37"/>
<g style="mix-blend-mode:multiply">
<path d="M74.9977 17.9988C74.7462 18.6274 74.7462 20.3247 75.6263 20.8905C76.5064 21.5192 76.8207 19.759 76.695 18.5017C76.5064 17.3073 75.2491 17.5588 74.9977 17.9988Z" fill="#AB6377"/>
</g>
<path d="M75.5629 21.582C75.3744 21.142 77.1345 20.8905 77.3231 21.0791C77.5117 21.2048 77.5117 22.1478 77.4488 22.2735C77.386 22.3993 76.003 22.525 75.5629 21.582Z" fill="#442C4E"/>
<path d="M76.7573 22.3364C76.7573 22.2735 77.386 22.0849 77.4488 22.0849C77.5117 22.0849 77.5117 22.2107 77.5117 22.2107C77.5117 22.2107 77.5745 22.2735 77.3231 22.3364C77.0716 22.4621 76.7573 22.3364 76.7573 22.3364Z" fill="#65637D"/>
<path d="M55.3848 11.9011C55.3848 11.9011 63.8713 11.3353 66.1344 11.7753C66.1344 11.7753 64.0599 10.8324 61.4825 10.8952C58.9051 10.9581 55.3848 11.9011 55.3848 11.9011Z" fill="#68B3DB"/>
<mask id="mask0_39_3998" style="mask-type:luminance" maskUnits="userSpaceOnUse" x="32" y="29" width="61" height="25">
<path d="M80.4362 45.665C80.4362 45.665 58.7043 51.065 56.5795 51.3541C54.4547 51.6433 32.88 53.3218 32.88 53.3218L32.4399 51.2536L50.1423 34.1987L73.7852 29.836L92.594 32.2688L90.268 42.3584L80.4362 45.665Z" fill="white"/>
</mask>
<g mask="url(#mask0_39_3998)">
<path d="M37.5321 38.2408C37.2178 37.0464 39.9209 27.8055 44.3213 26.2968C45.5786 25.9196 50.4191 28.7485 50.4191 28.7485C50.4191 28.7485 53.688 34.4062 53.7508 38.2408C53.7508 39.1209 51.9907 43.8357 51.2992 44.0243C46.8987 45.1558 37.8464 39.3095 37.5321 38.2408Z" fill="url(#paint29_linear_39_3998)"/>
<g style="mix-blend-mode:multiply" opacity="0.8">
<path d="M39.2299 37.7379C38.224 36.1663 41.6187 27.4912 45.3276 27.3026C49.0365 27.0511 53.2484 38.0522 52.2426 41.4469C51.0482 45.5959 41.1158 40.8182 39.2299 37.7379Z" fill="#FFDE8F"/>
</g>
<path opacity="0.5" d="M50.2303 28.6856C50.1046 28.497 48.533 28.0569 48.1559 28.1827C47.8415 28.2455 47.7158 33.4632 47.9673 34.5319C48.2187 35.6006 51.9905 39.6238 51.9905 39.6238C51.9905 39.6238 53.7507 37.9894 53.6878 37.7379C53.625 37.4865 53.2478 33.7147 50.2303 28.6856Z" fill="#FFFFD6"/>
<g style="mix-blend-mode:soft-light" opacity="0.5">
<path d="M44.3211 26.2968C43.7553 26.674 41.7437 36.2292 41.7437 36.6064C41.8065 36.9836 48.0929 34.7205 48.0929 34.7205C48.0929 34.7205 47.6528 28.6227 47.7785 28.057C47.9043 27.4283 44.3211 26.2968 44.3211 26.2968Z" fill="#FFEFA9"/>
</g>
<path opacity="0.5" d="M41.9952 36.9207C41.7438 37.5493 50.2303 43.2699 50.7332 43.6471C51.299 44.0243 51.9905 39.6238 51.9905 39.6238C51.9905 39.6238 48.2187 35.0977 47.5901 35.0348C46.9614 35.0348 41.9952 36.9207 41.9952 36.9207Z" fill="#FFFF38"/>
<path d="M47.9049 33.086C47.9049 33.086 47.7792 32.0802 48.4707 34.4062C48.8478 35.5377 48.8478 36.1035 48.8478 36.1035C48.8478 36.1035 47.9049 35.0348 47.9049 34.9091C47.842 34.7833 47.9049 33.086 47.9049 33.086Z" fill="#FFEFA9"/>
<g style="mix-blend-mode:overlay" opacity="0.5">
<path d="M37.7212 38.178C37.7212 38.178 42.0588 36.9207 42.3731 36.795C42.6245 36.6692 47.3393 34.9091 47.5908 35.0348C47.8422 35.1605 48.408 35.6634 48.408 35.6634C48.408 35.6634 48.2194 35.2234 46.8993 35.4748C45.5791 35.6634 42.2474 37.235 42.1216 37.2979C41.933 37.3607 37.7212 38.178 37.7212 38.178Z" fill="#FFEFA9"/>
</g>
<path d="M53.1857 35.4748C53.1857 35.4748 52.9971 35.3491 53.1228 36.1663C53.3114 36.9836 53.6257 37.1093 53.6257 37.1093C53.6257 37.1093 53.5629 36.2921 53.1857 35.4748Z" fill="#FFEFA9"/>
<g style="mix-blend-mode:multiply">
<path d="M41.4298 36.8578C41.6183 36.6692 43.5043 27.6169 43.5043 27.6169C43.5043 27.6169 41.7441 28.7484 39.7953 31.5773C37.9094 34.469 37.5322 38.2408 37.5322 38.2408L41.4298 36.8578Z" fill="#EBB851"/>
</g>
<path d="M42.4353 36.795C42.7496 36.6692 43.1897 37.4865 43.0011 37.5493C42.8753 37.6751 41.8695 37.5493 41.4923 37.3607C41.178 37.1722 42.4353 36.795 42.4353 36.795Z" fill="#FFEFA9"/>
<g style="mix-blend-mode:multiply" opacity="0.3">
<path d="M50.1676 29.1256C49.8533 28.6227 48.7218 28.6227 48.5332 28.6856C48.3446 28.7485 49.2247 34.5319 49.4132 35.6634C49.6018 36.8578 51.7392 38.8066 51.9906 38.9952C52.1164 39.0581 52.745 38.178 52.5564 36.2292C52.3678 34.3433 51.1734 30.8858 50.1676 29.1256Z" fill="#56A200"/>
</g>
<g style="mix-blend-mode:overlay" opacity="0.3">
<path d="M44.132 26.7368C44.132 26.7368 42.9376 28.497 42.3718 30.32C41.6175 32.646 41.7432 36.6064 41.7432 36.6064C41.7432 36.6064 43.3777 28.5599 44.132 26.7368Z" fill="#FFEFA9"/>
</g>
<g style="mix-blend-mode:soft-light" opacity="0.9">
<path d="M42.7495 37.8637C42.7495 37.8637 43.6925 40.1896 45.7041 41.4469C47.7786 42.7041 50.356 43.3956 50.356 43.3956C50.356 43.3956 45.1383 39.6867 42.7495 37.8637Z" fill="#FFE7DB"/>
</g>
<path d="M62.8665 47.356C61.7978 47.8589 52.1797 46.8531 49.9166 42.767C49.288 41.6354 51.2996 36.4178 51.2996 36.4178C51.2996 36.4178 56.203 32.1431 59.9748 31.4516C60.8548 31.263 65.8211 32.1431 66.1354 32.7717C68.0213 36.8578 63.8723 46.916 62.8665 47.356Z" fill="url(#paint30_linear_39_3998)"/>
<g style="mix-blend-mode:multiply" opacity="0.8">
<path d="M62.1123 45.7844C60.7293 47.0417 51.6141 45.2815 50.734 41.6355C49.8539 38.0522 59.9121 31.8916 63.3695 32.3317C67.7071 32.7717 64.7525 43.3956 62.1123 45.7844Z" fill="#FFDE8F"/>
</g>
<path opacity="0.5" d="M51.2364 36.5435C51.0478 36.6692 50.8593 38.3037 51.0478 38.6809C51.2364 38.9952 56.3284 38.178 57.3342 37.7379C58.4029 37.2979 61.6718 32.8974 61.6718 32.8974C61.6718 32.8974 59.723 31.4516 59.4715 31.5773C59.283 31.703 55.6369 32.7088 51.2364 36.5435Z" fill="#FFFFD6"/>
<g style="mix-blend-mode:soft-light" opacity="0.5">
<path d="M49.9165 42.767C50.4194 43.2699 60.1632 43.5842 60.5404 43.4585C60.9176 43.3328 57.523 37.6122 57.523 37.6122C57.523 37.6122 51.6138 39.058 51.048 39.058C50.4194 39.1209 49.9165 42.767 49.9165 42.767Z" fill="#FFEFA9"/>
</g>
<path opacity="0.5" d="M60.7918 43.207C61.4205 43.3328 65.5695 33.9661 65.8838 33.4003C66.1352 32.7717 61.6719 32.8974 61.6719 32.8974C61.6719 32.8974 57.8373 37.4236 57.963 37.9894C58.0258 38.618 60.7918 43.207 60.7918 43.207Z" fill="#FFFF38"/>
<path d="M55.9513 38.0522C55.9513 38.0522 55.0084 38.3665 57.1457 37.235C58.2144 36.7321 58.7802 36.6064 58.7802 36.6064C58.7802 36.6064 57.9001 37.7379 57.7744 37.7379C57.6486 37.8008 55.9513 38.0522 55.9513 38.0522Z" fill="#FFEFA9"/>
<g style="mix-blend-mode:overlay" opacity="0.5">
<path d="M62.8035 47.2303C62.8035 47.2303 60.7919 43.1442 60.6033 42.8927C60.4776 42.5784 57.9002 38.3037 57.963 37.9894C58.0259 37.7379 58.4031 37.1093 58.4031 37.1093C58.4031 37.1093 58.0259 37.3607 58.4659 38.618C58.906 39.9381 61.0434 42.8927 61.1691 43.0184C61.2319 43.207 62.8035 47.2303 62.8035 47.2303Z" fill="#FFEFA9"/>
</g>
<path d="M57.397 32.3945C57.397 32.3945 57.2713 32.646 58.0257 32.3317C58.8429 32.0802 58.9057 31.7659 58.9057 31.7659C58.9057 31.7659 58.1514 31.9545 57.397 32.3945Z" fill="#FFEFA9"/>
<g style="mix-blend-mode:multiply">
<path d="M60.7913 43.7728C60.6027 43.5842 51.3618 43.3956 51.3618 43.3956C51.3618 43.3956 52.8077 44.9043 55.9508 46.2873C59.094 47.6703 62.8658 47.356 62.8658 47.356L60.7913 43.7728Z" fill="#EBB851"/>
</g>
<path d="M60.6027 42.767C60.4141 42.5155 61.1056 41.9498 61.2313 42.0755C61.357 42.2012 61.4199 43.207 61.2942 43.6471C61.1685 43.9614 60.6027 42.767 60.6027 42.767Z" fill="#FFEFA9"/>
<g style="mix-blend-mode:multiply" opacity="0.3">
<path d="M51.676 36.5435C51.2359 36.9207 51.4245 38.0522 51.4874 38.2408C51.6131 38.3666 57.1451 36.5435 58.2138 36.1663C59.3453 35.7263 60.9169 33.3375 61.0426 32.9603C61.1055 32.8346 60.0997 32.3945 58.2138 32.8974C56.3907 33.4003 53.1847 35.2234 51.676 36.5435Z" fill="#56A200"/>
</g>
<g style="mix-blend-mode:overlay" opacity="0.3">
<path d="M50.3564 42.9556C50.3564 42.9556 52.3052 43.7728 54.1911 44.0243C56.6428 44.3386 60.5403 43.4585 60.5403 43.4585C60.5403 43.4585 52.3052 43.3328 50.3564 42.9556Z" fill="#FFEFA9"/>
</g>
<g style="mix-blend-mode:soft-light" opacity="0.9">
<path d="M61.5469 42.2641C61.5469 42.2641 63.6842 40.9439 64.5643 38.7437C65.4444 36.4806 65.633 33.8404 65.633 33.8404C65.633 33.8404 62.9927 39.6238 61.5469 42.2641Z" fill="#FFE7DB"/>
</g>
<path style="mix-blend-mode:color-dodge" d="M72.4215 39.1838C73.1758 44.15 68.964 48.8647 63.0548 49.682C57.1457 50.5621 51.8023 47.2303 51.0479 42.3269C50.3564 37.3607 54.5054 32.646 60.4146 31.7659C66.3237 30.9487 71.73 34.2176 72.4215 39.1838Z" fill="url(#paint31_radial_39_3998)"/>
<path d="M50.1046 52.0708C48.9731 51.6307 43.4411 44.5272 44.6984 40.3153C45.0756 39.1209 49.916 37.0464 49.916 37.0464C49.916 37.0464 56.0138 37.6122 58.9055 39.6867C59.597 40.1896 62.2373 44.0871 61.9858 44.7786C60.4771 48.6762 50.9847 52.3851 50.1046 52.0708Z" fill="url(#paint32_linear_39_3998)"/>
<g style="mix-blend-mode:multiply" opacity="0.3">
<path d="M50.6078 50.4992C48.8476 50.3735 44.1328 43.0813 45.9559 40.1267C47.8418 37.1722 58.5286 39.9382 60.5402 42.5784C63.0547 45.7845 54.0024 50.7507 50.6078 50.4992Z" fill="#FFAF8F"/>
</g>
<path opacity="0.4" d="M49.7285 37.1093C49.5399 37.1093 48.3455 38.0522 48.2198 38.4294C48.094 38.7437 51.9916 41.6355 52.9345 42.0755C53.8775 42.4527 59.0323 41.7612 59.0323 41.7612C59.0323 41.7612 58.718 39.561 58.5294 39.4981C58.2779 39.3724 55.1976 37.5493 49.7285 37.1093Z" fill="white"/>
<g style="mix-blend-mode:soft-light" opacity="0.5">
<path d="M44.6987 40.3153C44.6987 41.0068 50.7965 47.7332 51.1108 47.9218C51.488 48.1104 53.1224 42.0755 53.1224 42.0755C53.1224 42.0755 48.2819 39.0581 47.9048 38.6809C47.5276 38.2408 44.6987 40.3153 44.6987 40.3153Z" fill="#FFEFA9"/>
</g>
<path opacity="0.5" d="M51.4883 47.9218C51.8026 48.4247 60.8549 45.1558 61.4207 44.9672C61.9865 44.7786 59.0319 41.7612 59.0319 41.7612C59.0319 41.7612 53.4999 42.1384 53.1227 42.6413C52.8084 43.0813 51.4883 47.9218 51.4883 47.9218Z" fill="#FFFF38"/>
<path d="M51.8019 41.3211C51.8019 41.3211 50.9847 40.8811 53.122 41.6355C54.1907 41.9498 54.6307 42.2641 54.6307 42.2641C54.6307 42.2641 53.3106 42.3898 53.1849 42.327C53.0592 42.327 51.8019 41.3211 51.8019 41.3211Z" fill="#FFEFA9"/>
<g style="mix-blend-mode:overlay" opacity="0.5">
<path d="M50.105 51.8822C50.105 51.8822 51.5508 47.9218 51.6137 47.6075C51.6766 47.2932 52.9338 42.767 53.1224 42.6413C53.3739 42.5155 54.0654 42.3269 54.0654 42.3269C54.0654 42.3269 53.6253 42.2641 53.0596 43.3956C52.4938 44.5272 51.8652 47.8589 51.8652 48.0475C51.8023 48.2361 50.105 51.8822 50.105 51.8822Z" fill="#FFEFA9"/>
</g>
<path d="M56.5171 38.618C56.5171 38.618 56.3286 38.6809 57.0201 38.9952C57.7744 39.3724 58.0259 39.1838 58.0259 39.1838C58.0259 39.1838 57.3344 38.8066 56.5171 38.618Z" fill="#FFEFA9"/>
<g style="mix-blend-mode:multiply" opacity="0.5">
<path d="M51.1112 48.299C51.1112 48.0475 45.2649 41.6983 45.2649 41.6983C45.2649 41.6983 45.1392 43.6471 46.2707 46.6645C47.4023 49.682 50.1054 52.0708 50.1054 52.0708L51.1112 48.299Z" fill="#C77E8F"/>
</g>
<path d="M51.6764 47.4818C51.6764 47.2303 52.5565 47.356 52.5565 47.4818C52.5565 47.6703 51.9279 48.3618 51.5507 48.5504C51.2364 48.6762 51.6764 47.4818 51.6764 47.4818Z" fill="#FFEFA9"/>
<g style="mix-blend-mode:multiply" opacity="0.3">
<path d="M50.0419 37.4236C49.4762 37.3607 48.8475 38.2408 48.7847 38.4294C48.7847 38.618 53.6251 41.1325 54.631 41.5726C55.5739 42.0755 58.2142 41.5097 58.5285 41.4469C58.7171 41.384 58.3399 40.3782 56.7683 39.4981C55.1967 38.5551 51.9278 37.6122 50.0419 37.4236Z" fill="#FFFC4D"/>
</g>
<g style="mix-blend-mode:overlay">
<path d="M44.8877 40.7554C44.8877 40.7554 45.5163 42.8927 46.7107 44.2757C47.8423 45.6587 51.1112 47.9218 51.1112 47.9218C51.1112 47.9218 45.8935 42.327 44.8877 40.7554Z" fill="#FFEFA9"/>
</g>
<g style="mix-blend-mode:soft-light" opacity="0.9">
<path d="M52.6201 47.8589C52.6201 47.8589 54.8832 48.4247 56.9577 47.5446C59.0951 46.6645 60.981 45.093 60.981 45.093C60.981 45.093 55.3232 47.0417 52.6201 47.8589Z" fill="#FFE7DB"/>
</g>
<path d="M74.6841 48.9276C73.804 49.7448 64.9403 51.3793 61.7971 48.299C60.917 47.4189 61.2942 42.2012 61.2942 42.2012C61.2942 42.2012 64.626 37.0464 67.832 35.412C68.5864 35.0348 73.2383 34.469 73.7412 34.9719C76.5072 38.178 75.4385 48.299 74.6841 48.9276Z" fill="url(#paint33_linear_39_3998)"/>
<g style="mix-blend-mode:multiply" opacity="0.3">
<path d="M73.553 47.7332C72.6729 49.2419 63.9978 50.122 62.2376 47.1046C60.4774 44.0243 67.8953 35.852 71.1014 35.2862C75.1246 34.5947 75.3132 44.9044 73.553 47.7332Z" fill="#FFAF8F"/>
</g>
<g style="mix-blend-mode:multiply">
<path d="M61.2935 42.3269C61.2306 42.5155 61.4821 44.0243 61.7335 44.2757C61.985 44.59 66.3225 42.4527 67.1398 41.7612C67.957 41.1325 69.7172 36.2921 69.7172 36.2921C69.7172 36.2921 67.6427 35.5377 67.3912 35.6634C67.2026 35.852 64.248 37.6751 61.2935 42.3269Z" fill="#C7A98F"/>
</g>
<g style="mix-blend-mode:soft-light" opacity="0.8">
<path d="M61.7968 48.299C62.4254 48.6133 71.2263 46.3502 71.5406 46.0988C71.8549 45.9102 67.2659 41.6355 67.2659 41.6355C67.2659 41.6355 62.3625 44.5272 61.7968 44.7158C61.2938 44.8415 61.7968 48.299 61.7968 48.299Z" fill="#FFEFA9"/>
</g>
<path opacity="0.5" d="M71.7299 45.7844C72.2957 45.7216 73.553 36.2292 73.6158 35.6006C73.7416 34.9719 69.7183 36.2921 69.7183 36.2921C69.7183 36.2921 67.5181 41.3211 67.7695 41.8869C68.021 42.3898 71.7299 45.7844 71.7299 45.7844Z" fill="#FFFF38"/>
<path d="M66.0085 42.4527C66.0085 42.4527 65.1913 43.0184 66.8257 41.384C67.643 40.6296 68.1459 40.3782 68.1459 40.3782C68.1459 40.3782 67.643 41.6354 67.5172 41.6983C67.4544 41.7612 66.0085 42.4527 66.0085 42.4527Z" fill="#4C7A04"/>
<g style="mix-blend-mode:overlay" opacity="0.5">
<path d="M74.5588 48.8648C74.5588 48.8648 71.6671 45.7216 71.4785 45.533C71.227 45.3444 67.7695 42.1384 67.7695 41.8869C67.7695 41.6355 67.8953 40.944 67.8953 40.944C67.8953 40.944 67.6438 41.2583 68.3982 42.3269C69.0897 43.3328 71.8557 45.4073 71.9814 45.533C72.1071 45.6587 74.5588 48.8648 74.5588 48.8648Z" fill="#FFEFA9"/>
</g>
<path d="M65.7571 36.9836C65.7571 36.9836 65.6943 37.235 66.3229 36.795C66.9515 36.2921 66.9515 35.9777 66.9515 35.9777C66.9515 35.9777 66.3229 36.3549 65.7571 36.9836Z" fill="#4C7A04"/>
<g style="mix-blend-mode:multiply" opacity="0.5">
<path d="M71.855 46.2873C71.6664 46.2245 63.2427 48.4876 63.2427 48.4876C63.2427 48.4876 64.94 49.4934 68.146 49.8706C71.3521 50.2477 74.6838 48.9276 74.6838 48.9276L71.855 46.2873Z" fill="#C79D45"/>
</g>
<path d="M71.3529 45.4701C71.1643 45.2815 71.6672 44.5272 71.7929 44.6529C71.9186 44.7157 72.2958 45.6587 72.233 46.0359C72.233 46.3502 71.3529 45.4701 71.3529 45.4701Z" fill="#FFEFA9"/>
<g style="mix-blend-mode:multiply" opacity="0.3">
<path d="M61.6715 42.2641C61.42 42.7041 61.9229 43.6471 62.0487 43.7728C62.1744 43.8985 66.6377 40.7554 67.5178 40.1267C68.3979 39.4352 69.1522 36.8578 69.2151 36.5435C69.2151 36.3549 68.1464 36.2292 66.6377 37.235C65.129 38.178 62.7402 40.6296 61.6715 42.2641Z" fill="#FFFC4D"/>
</g>
<g style="mix-blend-mode:overlay">
<path d="M62.2373 48.299C62.2373 48.299 64.5004 48.8019 66.2606 48.3618C68.0207 47.9847 71.5411 46.0988 71.5411 46.0988C71.5411 46.0988 64.1232 48.1733 62.2373 48.299Z" fill="#FFEFA9"/>
</g>
<g style="mix-blend-mode:soft-light" opacity="0.9">
<path d="M72.1069 44.7158C72.1069 44.7158 73.6785 43.0184 73.8671 40.7554C74.1186 38.4923 73.5528 36.0406 73.5528 36.0406C73.5528 36.0406 72.6727 42.0126 72.1069 44.7158Z" fill="#FFE7DB"/>
</g>
<path style="mix-blend-mode:screen" d="M61.483 45.2187C62.1745 50.1849 57.9626 54.8996 52.0535 55.7169C46.2072 56.597 40.8009 53.2652 40.1094 48.3618C39.355 43.3956 43.5669 38.6809 49.4761 37.8008C55.3852 36.9207 60.7286 40.2525 61.483 45.2187Z" fill="url(#paint34_radial_39_3998)"/>
<path style="mix-blend-mode:color-dodge" d="M82.0396 45.0301C82.7311 49.9963 78.5821 54.711 72.673 55.5911C66.7638 56.4084 61.3575 53.1395 60.666 48.1732C59.9117 43.207 64.1235 38.4923 70.0327 37.6122C75.9419 36.795 81.2852 40.0639 82.0396 45.0301Z" fill="url(#paint35_radial_39_3998)"/>
<path d="M74.81 49.7448C73.6156 49.3677 67.455 41.8869 68.7122 37.4236C69.0894 36.1663 74.1814 33.8404 74.1814 33.8404C74.1814 33.8404 80.6563 34.2176 83.8623 36.3549C84.6167 36.8578 87.5713 40.944 87.3198 41.6355C85.8111 45.9102 75.8158 50.122 74.81 49.7448Z" fill="url(#paint36_linear_39_3998)"/>
<g style="mix-blend-mode:multiply" opacity="0.8">
<path d="M75.3127 48.1104C73.4897 48.0475 68.1463 40.3782 70.095 37.1721C71.9809 33.9661 83.485 36.6692 85.6852 39.3724C88.4512 42.7041 78.8959 48.2361 75.3127 48.1104Z" fill="#FFDE8F"/>
</g>
<path opacity="0.9" d="M73.9932 33.9033C73.8047 33.9033 72.5474 34.9091 72.4217 35.2862C72.2959 35.6634 76.5707 38.618 77.5765 39.0581C78.5823 39.4352 84.0514 38.5551 84.0514 38.5551C84.0514 38.5551 83.6742 36.2292 83.4228 36.1035C83.1713 36.0406 79.8395 34.2176 73.9932 33.9033Z" fill="#FFFFD6"/>
<g style="mix-blend-mode:soft-light" opacity="0.5">
<path d="M68.7124 37.4236C68.7124 38.1151 75.4388 45.1558 75.816 45.3444C76.1932 45.533 77.7647 39.058 77.7647 39.058C77.7647 39.058 72.5471 35.9777 72.107 35.5377C71.667 35.1605 68.7124 37.4236 68.7124 37.4236Z" fill="#FFEFA9"/>
</g>
<path opacity="0.3" d="M76.1934 45.3444C76.5705 45.9102 86.0629 42.0755 86.6916 41.8869C87.3202 41.6354 84.0513 38.5551 84.0513 38.5551C84.0513 38.5551 78.1421 39.1209 77.8278 39.6238C77.4506 40.1267 76.1934 45.3444 76.1934 45.3444Z" fill="#FFFF38"/>
<path d="M76.3191 38.3037C76.3191 38.3037 75.439 37.8008 77.7649 38.5551C78.8965 38.9323 79.7766 39.1209 79.7766 39.1209C79.7766 39.1209 77.9535 39.3724 77.8278 39.3724C77.7021 39.3095 76.3191 38.3037 76.3191 38.3037Z" fill="#C9EF86"/>
<g style="mix-blend-mode:overlay" opacity="0.5">
<path d="M74.8726 49.6191C74.8726 49.6191 76.2556 45.2815 76.3184 44.9672C76.3813 44.6529 77.5757 39.8124 77.8271 39.6238C78.0157 39.4981 78.7701 39.3095 78.7701 39.3095C78.7701 39.3095 78.33 39.2466 77.7643 40.441C77.1356 41.6354 76.6327 45.2815 76.5699 45.4701C76.507 45.6587 74.8726 49.6191 74.8726 49.6191Z" fill="#FFEFA9"/>
</g>
<path d="M81.2856 35.2234C81.2856 35.2234 81.097 35.3491 81.8514 35.6634C82.6057 36.0406 82.9201 35.852 82.9201 35.852C82.9201 35.852 82.1657 35.4748 81.2856 35.2234Z" fill="#C9EF86"/>
<g style="mix-blend-mode:multiply">
<path d="M75.8157 45.7844C75.8157 45.4701 69.3408 38.8695 69.3408 38.8695C69.3408 38.8695 69.2779 40.944 70.5981 44.15C71.8553 47.356 74.8099 49.7448 74.8099 49.7448L75.8157 45.7844Z" fill="#EBB851"/>
</g>
<path d="M76.3188 44.9044C76.3817 44.59 77.3246 44.6529 77.3246 44.8415C77.3246 45.0301 76.6331 45.7844 76.2559 45.973C75.9416 46.0988 76.3188 44.9044 76.3188 44.9044Z" fill="#C9EF86"/>
<g style="mix-blend-mode:multiply" opacity="0.3">
<path d="M74.3066 34.2176C73.7408 34.1547 73.1122 35.0977 73.0493 35.2862C73.0493 35.4748 78.267 37.9894 79.3357 38.4923C80.4043 38.9952 83.1703 38.3665 83.5475 38.2408C83.6732 38.178 83.2961 37.1093 81.5359 36.1663C79.9014 35.2862 76.3811 34.3433 74.3066 34.2176Z" fill="#56A200"/>
</g>
<g style="mix-blend-mode:overlay" opacity="0.3">
<path d="M68.9639 37.8636C68.9639 37.8636 69.7811 39.8124 70.9126 41.3211C72.4214 43.207 75.816 45.3444 75.816 45.3444C75.816 45.3444 70.0325 39.4981 68.9639 37.8636Z" fill="#FFEFA9"/>
</g>
<g style="mix-blend-mode:soft-light" opacity="0.9">
<path d="M77.3877 45.2187C77.3877 45.2187 79.7136 45.0929 81.9139 44.15C84.1141 43.1442 86.2514 42.0126 86.2514 42.0126C86.2514 42.0126 81.2224 43.3328 77.3877 45.2187Z" fill="#FFE7DB"/>
</g>
<path d="M42.5609 57.2884C41.4922 56.8484 35.8973 49.7448 37.2175 45.5958C37.5946 44.4014 42.3723 42.327 42.3723 42.327C42.3723 42.327 48.47 42.8299 51.4246 44.9044C52.0532 45.4073 54.7564 49.3048 54.5049 49.9963C52.9333 53.8938 43.5038 57.6028 42.5609 57.2884Z" fill="url(#paint37_linear_39_3998)"/>
<g style="mix-blend-mode:multiply" opacity="0.5">
<path d="M43.1275 55.7169C41.3673 55.5911 36.5897 48.299 38.4756 45.3444C40.3615 42.3898 50.5454 42.0126 52.8713 47.1674C55.323 52.3851 46.4593 55.9683 43.1275 55.7169Z" fill="#FFAF8F"/>
</g>
<g style="mix-blend-mode:multiply">
<path d="M42.2475 42.3898C42.0589 42.327 40.8017 43.2699 40.7388 43.6471C40.6131 43.9614 44.5106 46.8531 45.4536 47.2932C46.3965 47.6703 51.4885 46.9788 51.4885 46.9788C51.4885 46.9788 51.237 44.7786 50.9856 44.7158C50.7341 44.59 47.7167 42.8299 42.2475 42.3898Z" fill="#C7A98F"/>
</g>
<g style="mix-blend-mode:soft-light" opacity="0.5">
<path d="M37.2178 45.5958C37.1549 46.2245 43.3155 52.9509 43.6298 53.1395C43.9441 53.328 45.6415 47.2932 45.6415 47.2932C45.6415 47.2932 40.801 44.2757 40.4238 43.8985C39.9838 43.4585 37.2178 45.5958 37.2178 45.5958Z" fill="#FFEFA9"/>
</g>
<path opacity="0.3" d="M44.0073 53.1395C44.3216 53.7052 53.3111 50.3735 53.9397 50.1849C54.5055 49.9963 51.4881 46.9788 51.4881 46.9788C51.4881 46.9788 46.019 47.4189 45.6418 47.8589C45.2646 48.299 44.0073 53.1395 44.0073 53.1395Z" fill="#FFFF38"/>
<path d="M44.3213 46.5388C44.3213 46.5388 43.4412 46.0988 45.6414 46.8531C46.7101 47.2303 47.3388 47.4189 47.3388 47.4189C47.3388 47.4189 45.83 47.6075 45.7043 47.6075C45.5786 47.5446 44.3213 46.5388 44.3213 46.5388Z" fill="#4C7A04"/>
<g style="mix-blend-mode:overlay" opacity="0.5">
<path d="M42.6245 57.1627C42.6245 57.1627 44.0075 53.1395 44.0704 52.8251C44.1961 52.5108 45.3905 47.9847 45.642 47.8589C45.8305 47.7332 46.5849 47.5446 46.5849 47.5446C46.5849 47.5446 46.1449 47.4818 45.5791 48.6133C44.9505 49.7448 44.3847 53.0766 44.3218 53.2652C44.259 53.4538 42.6245 57.1627 42.6245 57.1627Z" fill="#FFEFA9"/>
</g>
<path d="M49.0358 43.8357C49.0358 43.8357 48.7844 43.8985 49.5387 44.2128C50.2302 44.59 50.4817 44.4014 50.4817 44.4014C50.4817 44.4014 49.8531 44.0243 49.0358 43.8357Z" fill="#4C7A04"/>
<g style="mix-blend-mode:multiply">
<path d="M43.6296 53.5795C43.6296 53.3281 37.7205 46.916 37.7205 46.916C37.7205 46.916 37.5947 48.8647 38.7263 51.8822C39.9207 54.8996 42.561 57.2885 42.561 57.2885L43.6296 53.5795Z" fill="#B0BD00"/>
</g>
<path d="M44.1331 52.6994C44.1959 52.448 45.076 52.5737 45.076 52.6994C45.076 52.888 44.3845 53.6424 44.0073 53.7681C43.7559 53.8938 44.1331 52.6994 44.1331 52.6994Z" fill="#FFEFA9"/>
<g style="mix-blend-mode:multiply" opacity="0.3">
<path d="M42.4987 42.6413C41.9958 42.5784 41.3672 43.4585 41.3043 43.6471C41.2415 43.8357 46.0819 46.3502 47.0878 46.8531C48.0936 47.356 50.7338 46.7903 51.0481 46.6645C51.1739 46.6017 50.8596 45.5959 49.2251 44.7158C47.7164 43.8357 44.4475 42.8299 42.4987 42.6413Z" fill="#FFFC4D"/>
</g>
<g style="mix-blend-mode:overlay" opacity="0.3">
<path d="M37.4072 45.973C37.4072 45.973 38.0359 48.1733 39.1674 49.4934C40.3618 50.8764 43.6307 53.1395 43.6307 53.1395C43.6307 53.1395 38.3502 47.5446 37.4072 45.973Z" fill="#FFEFA9"/>
</g>
<g style="mix-blend-mode:soft-light" opacity="0.9">
<path d="M44.9502 53.1395C44.9502 53.1395 47.2133 52.8252 49.3506 52.1337C51.7394 51.3793 53.4996 50.3106 53.4996 50.3106C53.4996 50.3106 48.4705 51.6307 44.9502 53.1395Z" fill="#FFE7DB"/>
</g>
<path d="M65.4435 57.6028C64.4376 58.3571 54.8195 59.0486 51.865 55.4654C51.0477 54.3967 52.0535 48.9276 52.0535 48.9276C52.0535 48.9276 56.1397 43.8357 59.7229 42.4527C60.5401 42.1383 65.5692 42.0755 66.0092 42.7041C68.5866 46.4131 66.3235 56.9741 65.4435 57.6028Z" fill="url(#paint38_linear_39_3998)"/>
<g style="mix-blend-mode:multiply" opacity="0.8">
<path d="M64.3756 56.2198C63.2441 57.7285 53.9403 57.6028 52.4315 54.2081C50.9228 50.8135 59.7237 42.9556 63.2441 42.7041C67.5188 42.3898 66.5758 53.3909 64.3756 56.2198Z" fill="#FFDE8F"/>
</g>
<path opacity="0.6" d="M51.9917 49.1162C51.866 49.2419 51.9917 50.8764 52.2432 51.1907C52.4946 51.505 57.3351 49.7448 58.278 49.1791C59.1581 48.5504 61.6098 43.5842 61.6098 43.5842C61.6098 43.5842 59.4725 42.5784 59.2839 42.7041C59.0324 42.8299 55.6378 44.5272 51.9917 49.1162Z" fill="#FFFFC0"/>
<g style="mix-blend-mode:soft-light" opacity="0.5">
<path d="M51.8659 55.4654C52.4316 55.8426 62.0498 54.3967 62.4269 54.2081C62.7413 54.0824 58.4037 48.9905 58.4037 48.9905C58.4037 48.9905 52.8717 51.505 52.3059 51.6307C51.6773 51.7565 51.8659 55.4654 51.8659 55.4654Z" fill="#FFEFA9"/>
</g>
<path opacity="0.3" d="M62.6152 53.8938C63.2439 53.9567 65.6956 43.9614 65.8213 43.3328C66.0099 42.7041 61.6094 43.5842 61.6094 43.5842C61.6094 43.5842 58.7177 48.739 58.9063 49.3048C59.0949 49.9334 62.6152 53.8938 62.6152 53.8938Z" fill="#FFFF38"/>
<path d="M56.9581 49.7448C56.9581 49.7448 56.0151 50.1849 58.0268 48.739C58.9697 47.9846 59.5355 47.5446 59.5355 47.5446C59.5355 47.5446 58.7811 49.0533 58.6554 49.1162C58.5925 49.1791 56.9581 49.7448 56.9581 49.7448Z" fill="#C9EF86"/>
<g style="mix-blend-mode:overlay" opacity="0.5">
<path d="M65.3183 57.477C65.3183 57.477 62.6152 53.8938 62.4266 53.6424C62.1751 53.3909 58.9062 49.6191 58.9062 49.3048C58.9062 49.0533 59.1577 48.299 59.1577 48.299C59.1577 48.299 58.8434 48.6761 59.5349 49.8706C60.1635 51.0021 62.8038 53.5166 62.9295 53.7052C63.0552 53.831 65.3183 57.477 65.3183 57.477Z" fill="#FFEFA9"/>
</g>
<path d="M57.3355 43.8985C57.3355 43.8985 57.2726 44.15 57.9641 43.7099C58.7185 43.2699 58.7185 42.9556 58.7185 42.9556C58.7185 42.9556 58.027 43.3328 57.3355 43.8985Z" fill="#C9EF86"/>
<path d="M62.3006 53.5166C62.1121 53.328 62.7407 52.5737 62.8664 52.6994C62.9921 52.8251 63.2436 53.831 63.1807 54.271C63.1179 54.5853 62.3006 53.5166 62.3006 53.5166Z" fill="#FFEFA9"/>
<g style="mix-blend-mode:multiply" opacity="0.3">
<path d="M52.4318 48.9905C52.0546 49.4934 52.4947 50.5621 52.6204 50.6878C52.7461 50.8135 54.9463 50.8135 58.8439 47.4189C59.7239 46.6645 60.9184 44.15 61.0441 43.8357C61.1069 43.6471 59.9754 43.3956 58.2152 44.2757C56.5179 45.0929 53.7519 47.4189 52.4318 48.9905Z" fill="#92BE00"/>
</g>
<g style="mix-blend-mode:soft-light" opacity="0.9">
<path d="M63.1812 52.888C63.1812 52.888 64.4384 50.6249 65.0042 48.299C65.5071 46.2873 65.6957 43.8357 65.6957 43.8357C65.6957 43.8357 64.1241 48.4247 63.1812 52.888Z" fill="#FFE7DB"/>
</g>
<path d="M59.1576 34.469C59.1576 34.469 59.1576 36.1035 58.3403 36.2921C59.409 36.2921 59.5976 37.2979 59.5976 37.2979C59.5976 37.2979 59.409 36.2921 60.4148 35.9777C59.5976 36.0406 59.1576 34.469 59.1576 34.469Z" fill="white"/>
</g>
<path d="M57.3344 34.8462C55.8885 34.0918 51.8024 21.9592 51.9281 21.4563C52.0539 20.9534 54.6941 17.4959 56.2657 17.1187C57.8373 16.6787 69.5299 14.9185 70.5357 14.9814C72.2959 15.1071 75.6276 28.1198 75.0619 29.0628C74.7476 29.5657 63.495 31.8288 62.0491 31.9545C60.7919 32.0802 58.0887 35.2234 57.3344 34.8462Z" fill="url(#paint39_linear_39_3998)"/>
<g style="mix-blend-mode:multiply" opacity="0.6">
<path d="M51.9274 21.4563C51.8017 21.142 55.5735 17.1187 56.265 17.1187C56.9565 17.0559 62.1741 31.4516 61.7969 31.8288C61.3569 32.1431 57.5851 35.2234 57.3336 34.8462C54.3162 30.4458 52.0531 21.7706 51.9274 21.4563Z" fill="#770081"/>
</g>
<g style="mix-blend-mode:multiply" opacity="0.3">
<path d="M56.3914 17.6216C55.3227 17.1187 52.8711 20.5133 52.3682 21.582C51.9281 22.5878 54.0026 28.057 56.0771 30.3829C58.2145 32.7088 60.4147 29.1256 59.346 24.6623C58.2773 20.2619 56.58 17.6845 56.3914 17.6216Z" fill="#B62781"/>
</g>
<g style="mix-blend-mode:multiply" opacity="0.3">
<path d="M62.0488 31.9545C62.0488 31.9545 65.0663 30.4458 68.5238 29.5028C71.9812 28.497 74.9358 28.8113 74.7472 29.2514C74.5587 29.6914 69.6553 30.8229 62.0488 31.9545Z" fill="#B62781"/>
</g>
<g style="mix-blend-mode:soft-light" opacity="0.5">
<path d="M56.2646 17.1187C56.2646 17.1187 57.6476 17.1187 62.9282 16.3015C68.2716 15.4843 69.8432 15.5471 70.1575 15.3585C70.4718 15.2328 70.4718 15.2328 70.4718 15.2328C70.4718 15.2328 63.8083 15.3585 56.2646 17.1187Z" fill="#FFD8BA"/>
</g>
<path d="M69.2775 21.3934C69.5918 22.525 69.4033 24.2223 68.3974 24.8509C67.9574 25.1652 67.4545 25.2281 66.763 25.1024C66.6373 25.0605 66.5325 25.0395 66.4487 25.0395C66.4068 24.9976 66.3439 24.9766 66.2601 24.9766C66.2182 24.9347 66.1763 24.9138 66.1344 24.9138C65.7153 24.7461 65.3381 24.5366 65.0028 24.2851C63.1169 22.9021 62.4254 20.4505 64.2485 19.2561C64.458 19.1303 64.7095 19.0046 65.0028 18.8789C66.1344 18.5017 68.6489 19.2561 69.2775 21.3934Z" fill="#982C29"/>
<path d="M68.3982 24.8509C68.7125 25.7939 68.5867 26.9883 67.9581 26.9883C67.3295 26.9883 66.7637 26.1082 66.5122 25.2281C66.5122 25.1443 66.4913 25.0814 66.4494 25.0395C66.3237 24.4109 66.3865 23.9708 66.7008 23.8451C66.9523 23.8032 67.1828 23.8032 67.3923 23.8451C67.8324 23.9708 68.2096 24.4109 68.3982 24.8509Z" fill="#982C29"/>
<path d="M67.3288 21.8335C67.5174 22.4621 67.5174 23.2165 67.3916 23.8451C67.2659 24.348 67.0773 24.7881 66.763 25.1024C66.6792 25.1443 66.5954 25.1862 66.5115 25.2281C66.5115 25.1443 66.4906 25.0814 66.4487 25.0395C66.4068 24.9976 66.3439 24.9766 66.2601 24.9766C66.2182 24.9347 66.1763 24.9138 66.1344 24.9138C65.7153 24.7461 65.3381 24.5366 65.0028 24.2851C63.1169 22.9021 62.4254 20.4505 64.2485 19.2561C65.4429 19.4447 66.8887 20.2619 67.3288 21.8335Z" fill="#5E002C"/>
<path d="M66.2597 24.9766C66.2178 24.9347 66.1759 24.9138 66.134 24.9138C65.7149 24.7461 65.3377 24.5366 65.0024 24.2851C65.5682 24.2223 66.0083 24.4737 66.2597 24.9766Z" fill="#59002C"/>
<g style="mix-blend-mode:multiply">
<path d="M63.5572 19.8847C63.18 20.3248 63.1172 22.0849 64.6259 23.0907C66.1975 24.1594 67.4547 22.2107 66.889 21.0163C66.3232 19.8218 64.563 18.7532 63.5572 19.8847Z" fill="#AB6377"/>
</g>
<path d="M57.8992 20.0733C57.082 19.759 56.7676 22.7764 58.6535 24.0337C60.5394 25.3538 59.9108 20.7019 57.8992 20.0733Z" fill="#982C22"/>
<g style="mix-blend-mode:multiply">
<path d="M57.7112 20.0733C57.2083 20.0733 57.1454 22.0849 58.1512 22.9022C59.1571 23.7194 59.5971 22.3992 58.9056 21.3306C58.277 20.2619 58.0884 20.0104 57.7112 20.0733Z" fill="#B34377"/>
</g>
<path d="M57.8367 23.1536C57.7739 22.6507 59.4083 23.3422 59.5969 23.908C59.7855 24.2851 58.7168 24.6623 57.8367 23.1536Z" fill="#FF833D"/>
<g style="mix-blend-mode:multiply" opacity="0.3">
<path d="M58.0257 17.3702C56.8313 17.6216 58.9058 19.5075 60.2259 21.582C61.6089 23.7194 62.049 19.3189 65.1921 18.6274C68.3982 17.8731 69.9698 21.2677 71.1642 24.2223C72.3586 27.3026 73.9302 21.8335 72.6729 18.816C71.3528 15.8614 70.9756 15.61 70.4098 15.4214C69.9069 15.17 65.8208 15.6729 58.0257 17.3702Z" fill="#D789BA"/>
</g>
<g style="mix-blend-mode:multiply">
<path d="M68.3975 24.8509L66.8888 25.1024C66.8888 25.1024 66.5116 25.291 66.5745 25.3538C66.5745 25.4167 67.2659 27.1769 68.146 26.8625C69.0261 26.6111 68.3975 24.8509 68.3975 24.8509Z" fill="#CE6377"/>
</g>
<path d="M57.3345 34.8462C57.7117 35.2234 71.1016 32.5831 71.8559 32.2688C72.6103 31.9545 74.9991 29.3142 75.062 29.0628C75.1877 28.8113 63.1179 31.1373 61.7978 31.6402C60.4148 32.2059 57.3345 34.8462 57.3345 34.8462Z" fill="#5E002C"/>
<g style="mix-blend-mode:soft-light" opacity="0.3">
<path d="M59.4711 34.2804C58.6539 34.029 62.4886 31.9545 67.3291 30.823C72.2324 29.6285 72.7982 30.3829 72.9239 30.3829C73.1125 30.32 71.2266 32.1431 66.889 33.1489C62.5514 34.1547 59.4711 34.2804 59.4711 34.2804Z" fill="#FFD8BA"/>
</g>
<path style="mix-blend-mode:screen" opacity="0.5" d="M88.0108 36.9836C87.2564 37.8636 93.0398 25.731 95.0515 24.348C97.0631 22.9021 91.2797 33.4003 88.0108 36.9836Z" fill="url(#paint40_linear_39_3998)"/>
<path style="mix-blend-mode:screen" opacity="0.5" d="M37.217 44.9672C37.7828 46.6017 32.8794 41.9498 31.8107 39.6867C30.8049 37.3607 36.0855 41.4469 37.217 44.9672Z" fill="url(#paint41_linear_39_3998)"/>
<path style="mix-blend-mode:screen" opacity="0.5" d="M85.3072 33.2746C84.6157 37.1722 88.8276 28.9999 88.7019 26.2339C88.5133 23.4679 85.9359 29.5028 85.3072 33.2746Z" fill="url(#paint42_linear_39_3998)"/>
<path d="M55.4471 48.1732C55.4471 48.1732 55.4471 50.3106 54.3784 50.5621C55.7614 50.5621 56.0129 51.8822 56.0129 51.8822C56.0129 51.8822 55.8243 50.5621 57.1444 50.122C56.0129 50.2477 55.4471 48.1732 55.4471 48.1732Z" fill="white"/>
<defs>
<linearGradient id="paint0_linear_39_3998" x1="34.4182" y1="69.7807" x2="27.1786" y2="20.1739" gradientUnits="userSpaceOnUse">
<stop offset="0.006" stop-color="#48001B"/>
<stop offset="1" stop-color="#702C11"/>
</linearGradient>
<linearGradient id="paint1_linear_39_3998" x1="53.6325" y1="53.5361" x2="49.6487" y2="32.6548" gradientUnits="userSpaceOnUse">
<stop stop-color="#403D5B"/>
<stop offset="0.575" stop-color="#352349"/>
<stop offset="1" stop-color="#210633"/>
</linearGradient>
<linearGradient id="paint2_linear_39_3998" x1="64.243" y1="48.8189" x2="57.526" y2="13.6077" gradientUnits="userSpaceOnUse">
<stop stop-color="#625484"/>
<stop offset="1" stop-color="#675574"/>
</linearGradient>
<linearGradient id="paint3_linear_39_3998" x1="56.9433" y1="63.1926" x2="74.6885" y2="1.64534" gradientUnits="userSpaceOnUse">
<stop stop-color="#1D2048"/>
<stop offset="0.403" stop-color="#1E1136"/>
<stop offset="1" stop-color="#2A1036"/>
</linearGradient>
<linearGradient id="paint4_linear_39_3998" x1="66.1361" y1="34.0485" x2="65.9202" y2="32.9879" gradientUnits="userSpaceOnUse">
<stop stop-color="#524F6A"/>
<stop offset="1" stop-color="#5A4668"/>
</linearGradient>
<linearGradient id="paint5_linear_39_3998" x1="45.0097" y1="39.2768" x2="65.9101" y2="-11.0333" gradientUnits="userSpaceOnUse">
<stop stop-color="#1D2048"/>
<stop offset="0.403" stop-color="#1E1136"/>
<stop offset="1" stop-color="#2A1036"/>
</linearGradient>
<linearGradient id="paint6_linear_39_3998" x1="63.555" y1="68.1041" x2="52.4583" y2="12.3864" gradientUnits="userSpaceOnUse">
<stop stop-color="#681C48"/>
<stop offset="1" stop-color="#934B29"/>
</linearGradient>
<linearGradient id="paint7_linear_39_3998" x1="50.878" y1="50.2622" x2="47.9177" y2="29.9762" gradientUnits="userSpaceOnUse">
<stop offset="0.006" stop-color="#48001B"/>
<stop offset="1" stop-color="#511611"/>
</linearGradient>
<linearGradient id="paint8_linear_39_3998" x1="50.2361" y1="48.9408" x2="47.813" y2="32.336" gradientUnits="userSpaceOnUse">
<stop offset="0.006" stop-color="#360014"/>
<stop offset="1" stop-color="#2A0211"/>
</linearGradient>
<linearGradient id="paint9_linear_39_3998" x1="62.8417" y1="69.1332" x2="62.8417" y2="43.2448" gradientUnits="userSpaceOnUse">
<stop stop-color="#625484"/>
<stop offset="1" stop-color="#675574"/>
</linearGradient>
<linearGradient id="paint10_linear_39_3998" x1="57.5379" y1="70.1308" x2="57.5379" y2="43.7345" gradientUnits="userSpaceOnUse">
<stop stop-color="#161236"/>
<stop offset="1" stop-color="#361E47"/>
</linearGradient>
<linearGradient id="paint11_linear_39_3998" x1="57.2647" y1="69.5607" x2="54.196" y2="48.5329" gradientUnits="userSpaceOnUse">
<stop stop-color="#681C48"/>
<stop offset="1" stop-color="#934B29"/>
</linearGradient>
<linearGradient id="paint12_linear_39_3998" x1="67.6859" y1="54.1792" x2="66.5422" y2="46.3421" gradientUnits="userSpaceOnUse">
<stop stop-color="#625484"/>
<stop offset="1" stop-color="#675574"/>
</linearGradient>
<linearGradient id="paint13_linear_39_3998" x1="67.239" y1="48.1525" x2="66.9667" y2="46.2867" gradientUnits="userSpaceOnUse">
<stop stop-color="#161236"/>
<stop offset="1" stop-color="#301741"/>
</linearGradient>
<linearGradient id="paint14_linear_39_3998" x1="59.0033" y1="22.3068" x2="58.5801" y2="19.698" gradientUnits="userSpaceOnUse">
<stop stop-color="#883411"/>
<stop offset="0.994" stop-color="#48001B"/>
</linearGradient>
<linearGradient id="paint15_linear_39_3998" x1="34.6422" y1="71.2039" x2="32.1487" y2="54.117" gradientUnits="userSpaceOnUse">
<stop offset="0.006" stop-color="#48001B"/>
<stop offset="1" stop-color="#702C11"/>
</linearGradient>
<linearGradient id="paint16_linear_39_3998" x1="22.9607" y1="55.4579" x2="22.9299" y2="55.2466" gradientUnits="userSpaceOnUse">
<stop offset="0.006" stop-color="#48001B"/>
<stop offset="1" stop-color="#702C11"/>
</linearGradient>
<linearGradient id="paint17_linear_39_3998" x1="37.8826" y1="72.0915" x2="37.8826" y2="50.0441" gradientUnits="userSpaceOnUse">
<stop stop-color="#625484"/>
<stop offset="1" stop-color="#675574"/>
</linearGradient>
<linearGradient id="paint18_linear_39_3998" x1="13.434" y1="68.4436" x2="51.5393" y2="35.463" gradientUnits="userSpaceOnUse">
<stop stop-color="#1D2048"/>
<stop offset="0.403" stop-color="#1E1136"/>
<stop offset="1" stop-color="#2A1036"/>
</linearGradient>
<linearGradient id="paint19_linear_39_3998" x1="34.4071" y1="67.5685" x2="32.5255" y2="54.6746" gradientUnits="userSpaceOnUse">
<stop stop-color="#403D5B"/>
<stop offset="0.575" stop-color="#352349"/>
<stop offset="1" stop-color="#210633"/>
</linearGradient>
<linearGradient id="paint20_linear_39_3998" x1="21.947" y1="72.3461" x2="54.8994" y2="34.1981" gradientUnits="userSpaceOnUse">
<stop stop-color="#1D2048"/>
<stop offset="0.403" stop-color="#1E1136"/>
<stop offset="1" stop-color="#2A1036"/>
</linearGradient>
<linearGradient id="paint21_linear_39_3998" x1="42.0801" y1="66.3628" x2="41.8772" y2="65.1275" gradientUnits="userSpaceOnUse">
<stop stop-color="#524F6A"/>
<stop offset="1" stop-color="#796985"/>
</linearGradient>
<linearGradient id="paint22_linear_39_3998" x1="18.3353" y1="55.9174" x2="13.4561" y2="22.4822" gradientUnits="userSpaceOnUse">
<stop offset="0.006" stop-color="#48001B"/>
<stop offset="1" stop-color="#702C11"/>
</linearGradient>
<linearGradient id="paint23_linear_39_3998" x1="18.0737" y1="59.8809" x2="13.998" y2="38.5214" gradientUnits="userSpaceOnUse">
<stop stop-color="#403D5B"/>
<stop offset="0.575" stop-color="#352349"/>
<stop offset="1" stop-color="#210633"/>
</linearGradient>
<linearGradient id="paint24_linear_39_3998" x1="29.9651" y1="55.9042" x2="22.7868" y2="18.2766" gradientUnits="userSpaceOnUse">
<stop stop-color="#625484"/>
<stop offset="1" stop-color="#675574"/>
</linearGradient>
<linearGradient id="paint25_linear_39_3998" x1="21.35" y1="77.8115" x2="46.3933" y2="-9.04826" gradientUnits="userSpaceOnUse">
<stop stop-color="#1D2048"/>
<stop offset="0.403" stop-color="#1E1136"/>
<stop offset="1" stop-color="#2A1036"/>
</linearGradient>
<linearGradient id="paint26_linear_39_3998" x1="30.8641" y1="39.9469" x2="30.6433" y2="38.862" gradientUnits="userSpaceOnUse">
<stop stop-color="#524F6A"/>
<stop offset="1" stop-color="#5A4668"/>
</linearGradient>
<linearGradient id="paint27_linear_39_3998" x1="9.598" y1="46.4081" x2="32.584" y2="-8.92372" gradientUnits="userSpaceOnUse">
<stop stop-color="#1D2048"/>
<stop offset="0.403" stop-color="#1E1136"/>
<stop offset="1" stop-color="#2A1036"/>
</linearGradient>
<linearGradient id="paint28_linear_39_3998" x1="64.6552" y1="29.5544" x2="64.005" y2="25.0986" gradientUnits="userSpaceOnUse">
<stop stop-color="#625484"/>
<stop offset="1" stop-color="#675574"/>
</linearGradient>
<linearGradient id="paint29_linear_39_3998" x1="31.1062" y1="37.7467" x2="49.9929" y2="24.5474" gradientUnits="userSpaceOnUse">
<stop stop-color="#6DFF00"/>
<stop offset="0.438" stop-color="#32761E"/>
<stop offset="1" stop-color="#005700"/>
</linearGradient>
<linearGradient id="paint30_linear_39_3998" x1="63.5423" y1="53.77" x2="47.1902" y2="37.5349" gradientUnits="userSpaceOnUse">
<stop stop-color="#6DFF00"/>
<stop offset="0.438" stop-color="#32761E"/>
<stop offset="1" stop-color="#005700"/>
</linearGradient>
<radialGradient id="paint31_radial_39_3998" cx="0" cy="0" r="1" gradientUnits="userSpaceOnUse" gradientTransform="translate(61.7416 40.7428) rotate(-8.29996) scale(10.7955)">
<stop stop-color="#56FF00"/>
<stop offset="1"/>
</radialGradient>
<linearGradient id="paint32_linear_39_3998" x1="46.1669" y1="56.6768" x2="46.4646" y2="35.0574" gradientUnits="userSpaceOnUse">
<stop stop-color="#6DFF00"/>
<stop offset="0.785" stop-color="#32761E"/>
<stop offset="1" stop-color="#002C42"/>
</linearGradient>
<linearGradient id="paint33_linear_39_3998" x1="76.9912" y1="54.557" x2="57.9516" y2="44.3131" gradientUnits="userSpaceOnUse">
<stop stop-color="#8DFF00"/>
<stop offset="0.751" stop-color="#32BB1E"/>
<stop offset="1" stop-color="#002C42"/>
</linearGradient>
<radialGradient id="paint34_radial_39_3998" cx="0" cy="0" r="1" gradientUnits="userSpaceOnUse" gradientTransform="translate(50.771 46.7733) rotate(-8.29997) scale(10.7955)">
<stop stop-color="#56FF00"/>
<stop offset="1"/>
</radialGradient>
<radialGradient id="paint35_radial_39_3998" cx="0" cy="0" r="1" gradientUnits="userSpaceOnUse" gradientTransform="translate(71.3453 46.6004) rotate(-8.29997) scale(10.7955 10.7955)">
<stop stop-color="#56FF00"/>
<stop offset="1"/>
</radialGradient>
<linearGradient id="paint36_linear_39_3998" x1="70.7566" y1="54.8028" x2="70.4564" y2="31.7627" gradientUnits="userSpaceOnUse">
<stop stop-color="#6DFF00"/>
<stop offset="0.438" stop-color="#32761E"/>
<stop offset="1" stop-color="#003900"/>
</linearGradient>
<linearGradient id="paint37_linear_39_3998" x1="38.6564" y1="61.9045" x2="38.9542" y2="40.2852" gradientUnits="userSpaceOnUse">
<stop stop-color="#6DFF00"/>
<stop offset="0.438" stop-color="#007600"/>
<stop offset="1" stop-color="#002C42"/>
</linearGradient>
<linearGradient id="paint38_linear_39_3998" x1="67.2193" y1="63.8187" x2="48.2229" y2="50.778" gradientUnits="userSpaceOnUse">
<stop stop-color="#6DFF00"/>
<stop offset="0.438" stop-color="#32761E"/>
<stop offset="1" stop-color="#002725"/>
</linearGradient>
<linearGradient id="paint39_linear_39_3998" x1="61.6902" y1="35.698" x2="54.3021" y2="18.0188" gradientUnits="userSpaceOnUse">
<stop stop-color="#D65752"/>
<stop offset="1" stop-color="#FF931D"/>
</linearGradient>
<linearGradient id="paint40_linear_39_3998" x1="86.2814" y1="25.5298" x2="95.43" y2="24.1949" gradientUnits="userSpaceOnUse">
<stop stop-color="#007700"/>
<stop offset="1"/>
</linearGradient>
<linearGradient id="paint41_linear_39_3998" x1="31.6152" y1="39.0593" x2="34.8779" y2="37.9619" gradientUnits="userSpaceOnUse">
<stop stop-color="#0EC000"/>
<stop offset="1"/>
</linearGradient>
<linearGradient id="paint42_linear_39_3998" x1="82.1848" y1="29.4846" x2="88.4423" y2="25.4494" gradientUnits="userSpaceOnUse">
<stop stop-color="#0EC000"/>
<stop offset="1"/>
</linearGradient>
</defs>
</svg>
