<svg width="110" height="80" viewBox="0 0 110 80" fill="none" xmlns="http://www.w3.org/2000/svg">
<path d="M53.8158 71.7604C51.7489 71.9605 44.8149 71.3604 43.6815 70.8937C42.548 70.427 40.5478 68.2934 40.5478 68.2934C40.5478 68.2934 36.1474 67.4267 33.9472 66.4266C31.8136 65.4265 26.3464 57.7591 26.0797 56.959C25.813 56.1589 26.7465 54.6254 26.7465 54.6254C26.7465 54.6254 24.3462 46.6246 24.0795 41.0907C24.0795 41.0907 23.3461 40.6907 22.9461 39.6906C22.546 38.6905 21.746 32.4899 22.0793 30.8897C22.4127 29.2896 24.9463 27.4227 24.9463 27.4227C24.9463 27.4227 26.0131 20.3554 27.3465 18.6219C28.6133 16.955 36.3474 13.9547 37.0141 13.8881C37.6809 13.8214 39.6811 14.5548 40.0144 14.6215C40.4145 14.6881 40.4811 12.6879 40.4811 12.1546C40.4145 11.6878 49.082 9.82099 55.2826 9.22093C61.4165 8.68754 62.4166 9.2876 62.4166 9.2876L62.35 10.7544L65.617 9.35428L76.2847 54.5587C76.2847 54.5587 60.8832 71.027 53.8158 71.7604Z" fill="#68B3DB"/>
<path d="M85.3521 32.8232C80.4183 16.6216 75.5512 12.8213 75.5512 12.8213L50.5487 14.3548L27.4131 20.8221C27.4131 20.8221 24.4795 25.4892 24.7461 41.8908C25.0128 56.6923 39.6143 67.8934 43.4813 69.9603C47.0817 71.8271 55.5492 72.0271 59.5496 71.4937C63.8167 70.827 72.6842 67.9601 75.6178 65.0931C78.6181 62.0261 89.6859 47.0247 85.3521 32.8232Z" fill="url(#paint0_linear_39_4510)"/>
<path style="mix-blend-mode:screen" opacity="0.5" d="M83.6186 33.2233C78.6848 17.0217 75.5512 12.8213 75.5512 12.8213L50.5487 14.3548L27.4131 20.8221C27.4131 20.8221 24.4795 25.4892 24.7461 41.8908C25.0128 56.6923 39.6143 67.8934 43.4813 69.9603C47.0817 71.8271 55.5492 72.0271 59.5496 71.4937C63.8167 70.827 72.6842 67.9601 75.6178 65.0931C78.6181 62.0261 87.9524 47.4914 83.6186 33.2233Z" fill="url(#paint1_linear_39_4510)"/>
<path d="M75.6845 13.2214C76.4179 18.3552 66.2169 23.1557 53.1489 25.8893C38.6142 28.8896 22.6793 23.289 28.6798 18.8219C31.2134 16.9551 34.1471 15.4216 37.214 14.1548L38.2808 14.3548L39.0809 14.4881L39.6143 14.5548L41.0811 14.8215L40.7477 12.8213C48.0151 10.4211 55.9492 9.28763 62.4165 9.28763L62.3498 11.0878L63.2833 10.5544L63.8833 10.2211L65.6168 9.3543C71.3507 9.68767 75.3511 11.0878 75.6845 13.2214Z" fill="#BB6334"/>
<path d="M37.8809 18.5552C34.2139 21.2221 43.8148 24.6225 52.549 22.8223C60.4165 21.1555 66.6171 18.2885 66.1503 15.1549C65.617 11.5545 47.1485 11.7545 37.8809 18.5552Z" fill="url(#paint2_linear_39_4510)"/>
<path d="M40.2148 22.2222C40.2148 22.2222 42.8151 19.4886 52.2827 18.0885C61.7503 16.6217 64.7506 18.0218 64.7506 18.0218C64.7506 18.0218 62.0837 21.3555 52.5494 22.8223C43.0151 24.2224 40.2148 22.2222 40.2148 22.2222Z" fill="#A64C34"/>
<path d="M38.8808 21.6888C38.8808 21.6888 33.2802 24.4224 32.8802 25.0225C32.4801 25.6892 31.0133 37.7571 34.4137 50.1583C37.8807 62.5595 49.0151 71.4271 49.0151 71.4271C49.0151 71.4271 38.6141 62.4262 35.0137 49.1582C31.3467 35.8902 33.0802 27.5561 34.0136 25.6226C34.9471 23.689 39.7475 22.0889 39.7475 22.0889L38.8808 21.6888Z" fill="url(#paint3_linear_39_4510)"/>
<path d="M40.7476 12.8213C40.7032 12.8657 40.6587 12.8879 40.6143 12.8879L40.7476 12.8213Z" fill="url(#paint4_linear_39_4510)"/>
<path d="M45.8152 19.3553C45.6819 18.8219 45.0818 16.555 43.9484 15.3549C43.9484 15.3549 42.5482 15.0882 41.0814 14.8215L40.748 12.8213C41.0147 12.9546 44.5484 14.8881 44.7484 15.0882C44.9485 15.2882 45.6819 18.6885 45.8152 19.3553Z" fill="url(#paint5_linear_39_4510)"/>
<path d="M65.0835 17.6884C65.0835 17.6884 71.2174 18.6219 71.7508 19.1553C72.3509 19.6886 77.3514 30.7564 77.7514 43.6243C78.1515 56.4256 70.1507 68.2268 70.1507 68.2268C70.1507 68.2268 77.3514 56.559 76.8847 42.8243C76.4846 29.0896 72.3509 21.5555 70.8841 20.022C69.4173 18.4885 64.3501 18.3552 64.3501 18.3552L65.0835 17.6884Z" fill="url(#paint6_linear_39_4510)"/>
<path d="M62.4172 9.28763L62.3505 11.0878C60.417 12.0879 58.3501 13.1547 58.3501 13.2214C57.6167 14.6882 57.75 16.9551 57.75 17.4884C57.6834 16.8217 57.35 13.4214 57.4833 13.1547C57.6167 12.888 62.4172 9.28763 62.4172 9.28763Z" fill="url(#paint7_linear_39_4510)"/>
<path d="M52.0819 22.8889C52.0819 22.8889 51.6818 25.4892 51.6818 26.0226C51.6152 26.6226 51.6818 32.6899 53.8821 45.2245C56.0823 57.8257 59.5493 71.4937 59.5493 71.4937C59.5493 71.4937 57.8158 53.5586 56.749 44.2244C55.7489 34.8901 54.0821 26.8893 53.8821 25.8226C53.6154 24.7558 53.082 22.7556 53.082 22.7556L52.0819 22.8889Z" fill="url(#paint8_linear_39_4510)"/>
<path d="M40.7476 12.8213C40.7032 12.8657 40.6587 12.8879 40.6143 12.8879L40.7476 12.8213Z" fill="url(#paint9_linear_39_4510)"/>
<path d="M53.0826 22.7556L52.6159 23.4223L52.0825 22.8889C52.0825 22.8889 52.4159 22.3556 53.0826 22.7556Z" fill="#A64C34"/>
<g style="mix-blend-mode:multiply" opacity="0.2">
<path d="M60.4166 71.2938C59.5498 71.4938 58.3497 56.1589 59.2831 52.5586C60.1499 48.9582 75.5514 41.4241 76.2181 41.6242C76.8849 41.8242 76.6848 53.492 73.6179 60.8261C70.5509 68.2268 60.4166 71.2938 60.4166 71.2938Z" fill="#AB6377"/>
</g>
<g style="mix-blend-mode:multiply" opacity="0.2">
<path d="M71.2173 67.36C71.2173 67.36 76.7512 57.7591 77.6179 47.6247C78.4847 37.4237 85.0187 35.9569 85.552 36.2903C86.1521 36.557 87.7522 42.2242 84.0852 51.1584C80.3515 60.0926 73.1508 66.76 71.2173 67.36Z" fill="#AB6377"/>
</g>
<g style="mix-blend-mode:multiply" opacity="0.2">
<path d="M55.9488 33.69C55.9488 33.69 54.7487 27.8894 55.6821 26.8227C56.5489 25.8226 69.6835 21.4221 70.4169 21.4888C71.217 21.4888 73.5505 26.6893 73.0838 27.8228C72.6171 28.8895 60.3492 33.69 55.9488 33.69Z" fill="#AB6377"/>
</g>
<g style="mix-blend-mode:multiply" opacity="0.2">
<path d="M74.685 26.2893C74.685 26.2893 72.4847 19.9553 72.7514 19.2886C72.9514 18.6219 75.9517 15.4215 76.2851 14.6881C76.6851 13.9547 79.8188 18.5552 79.7521 20.2887C79.7521 21.9555 74.685 26.2893 74.685 26.2893Z" fill="#AB6377"/>
</g>
<path d="M69.2168 18.4219L72.3504 20.222C72.3504 20.222 72.6838 18.9553 72.4171 18.6886C72.2171 18.4219 70.0169 18.0218 69.2168 18.4219Z" fill="#9E4834"/>
<path d="M53.0825 22.7556C53.0825 22.7556 53.1492 25.6225 53.4159 26.3559C53.6826 27.0893 54.3493 28.3561 54.3493 28.3561C54.3493 28.3561 54.0159 24.2224 53.0825 22.7556Z" fill="#9E4834"/>
<path d="M32.614 26.2226C32.614 26.4893 34.0808 24.1557 34.0808 24.1557C34.0808 24.1557 32.2806 24.4891 32.1473 24.7558C32.0139 25.0891 32.614 26.2226 32.614 26.2226Z" fill="#9E4834"/>
<path d="M43.2817 14.2214L45.0819 16.0882C45.0819 16.0882 45.4153 15.0881 45.0819 14.8881C44.8152 14.6881 43.2817 14.2214 43.2817 14.2214Z" fill="#9E4834"/>
<path d="M57.55 14.8215L58.4168 12.3546C58.4168 12.3546 57.2167 12.6213 57.0833 12.8213C56.8833 13.088 57.55 14.8215 57.55 14.8215Z" fill="#9E4834"/>
<g style="mix-blend-mode:multiply" opacity="0.5">
<path d="M48.0818 70.4936C48.0818 70.4936 38.4142 63.3596 35.9473 50.1583C33.4803 37.0237 42.2812 39.0905 49.7486 50.9584C57.2827 62.8262 48.6819 65.2264 44.1481 59.1592C39.6143 53.0919 38.2142 49.4249 42.2812 50.0916C46.415 50.6917 48.6152 54.7587 47.6818 55.1588C46.6817 55.5588 44.8815 52.2252 45.0815 54.3587C45.2148 56.4922 49.0819 61.7594 51.8822 59.5592C54.6824 57.4257 44.6815 44.8244 40.281 44.2244C35.8139 43.691 35.0805 54.3587 44.0814 61.4261C53.0823 68.4934 53.4823 66.7599 55.4825 69.2268C57.416 71.6937 49.4153 71.6937 48.0818 70.4936Z" fill="#E09781"/>
</g>
<g style="mix-blend-mode:multiply" opacity="0.5">
<path d="M55.8829 55.6922C55.8829 55.6922 47.6154 48.0248 43.0817 38.4905C38.6146 28.8896 51.6825 27.7561 51.7492 28.3562C51.7492 28.8896 52.0826 32.3566 52.0826 32.3566C52.0826 32.3566 47.6154 31.6232 45.6819 34.6901C43.8151 37.7571 55.4162 52.4252 55.4162 52.4252L55.8829 55.6922Z" fill="#E09781"/>
</g>
<g style="mix-blend-mode:multiply" opacity="0.5">
<path d="M57.8827 54.5587C57.8827 54.5587 60.3496 46.8913 65.3501 40.0906C70.3506 33.29 54.2157 26.3559 54.2157 26.3559L53.8823 25.8226C53.8823 25.8226 64.9501 29.4896 67.017 35.5568C69.0838 41.5574 61.9498 47.158 60.483 51.3584C58.9495 55.5588 58.4161 59.3592 58.4161 59.3592L57.8827 54.5587Z" fill="#E09781"/>
</g>
<g style="mix-blend-mode:multiply" opacity="0.5">
<path d="M65.6836 69.9602C65.6836 69.9602 62.8166 59.3592 65.9503 48.5581C69.0172 37.8237 76.818 40.2906 76.818 40.2906L76.418 42.2908C76.418 42.2908 69.9507 40.3573 67.2171 49.1582C64.4835 57.959 68.4838 68.9601 68.4838 68.9601L65.6836 69.9602Z" fill="#E09781"/>
</g>
<g style="mix-blend-mode:multiply">
<path d="M41.0811 67.2934C41.0811 67.2934 45.6148 72.2272 59.9496 70.227C74.2843 68.1601 78.8181 59.6259 78.8181 59.6259L41.0811 67.2934Z" fill="#AB6377"/>
</g>
<g style="mix-blend-mode:multiply" opacity="0.5">
<path d="M75.6182 65.0931C75.6182 65.0931 79.8852 50.5584 81.4187 40.9574C82.9522 31.2898 76.4182 13.6881 76.4182 13.6881C76.4182 13.6881 80.352 18.0218 81.0187 21.2221C81.6854 24.4225 84.2857 37.6904 83.0856 45.4245C81.8854 53.1586 76.6183 63.893 76.6183 63.893L75.6182 65.0931Z" fill="#E09781"/>
</g>
<path d="M79.085 58.4258C79.085 58.4258 85.5523 49.9583 83.0187 34.3568C83.0187 34.3568 84.8855 46.8913 79.085 58.4258Z" fill="#A3523F"/>
<g style="mix-blend-mode:multiply">
<path d="M24.4132 38.6238C24.4132 38.6238 24.2132 40.9574 24.7466 41.8908C25.28 42.8242 36.8811 51.8918 54.9495 49.4249C73.0847 47.0247 84.2191 32.1565 84.4858 30.8231C84.6858 29.4896 83.8857 27.0227 83.8857 27.0227L54.0161 38.4905L24.4132 38.6238Z" fill="#AB6377"/>
</g>
<path d="M84.8852 27.8894C84.7519 28.8229 79.8181 40.7574 56.7491 44.2244C33.7469 47.6914 23.9459 41.2241 23.4792 39.7573C23.0791 38.2905 23.0125 33.2233 23.2792 31.7565C23.4792 30.5564 24.6793 29.5563 25.146 29.2229C25.2349 29.1784 25.2794 29.1562 25.2794 29.1562C25.3238 29.1118 25.346 29.0895 25.346 29.0895C25.346 29.0895 25.0793 31.5565 25.2794 32.0232C25.4794 32.4232 35.547 36.757 55.949 33.69C74.5509 30.8897 80.4848 21.4221 80.4181 20.6887C80.4181 19.9553 79.7514 18.6885 79.7514 18.6885C79.7514 18.6885 82.285 18.8885 82.4183 19.1552C82.485 19.3553 84.9519 26.956 84.8852 27.8894Z" fill="url(#paint10_linear_39_4510)"/>
<path d="M88.2194 44.4244C88.9528 49.4249 85.0858 54.4921 84.5524 55.4921C84.019 56.4922 77.085 66.0932 60.4167 68.6268C43.7484 71.1604 34.4141 66.5599 33.414 65.4265C32.4139 64.293 29.1469 60.3593 28.1468 58.3591C28.1468 58.3591 28.1468 58.3369 28.1468 58.2924C28.0579 58.2035 27.9913 58.1146 27.9468 58.0257C27.9024 57.8924 27.8579 57.7813 27.8135 57.6924C27.1467 55.9589 28.3469 54.5587 28.3469 54.5587C28.3469 54.5587 30.3471 57.4923 30.8138 57.9591C31.2138 58.4924 42.3482 62.8929 59.95 60.2259C76.0182 57.8257 85.1525 46.8246 85.5525 45.7579C85.7525 45.2245 85.8859 44.3577 85.9525 43.691C86.0859 43.1576 86.0859 42.6909 86.0859 42.6909C86.0859 42.6909 87.2193 43.491 87.8194 44.0244C88.0194 44.1577 88.1528 44.3577 88.2194 44.4244Z" fill="url(#paint11_linear_39_4510)"/>
<path d="M82.4185 19.1552C82.6185 22.3555 75.3511 33.5567 54.9491 36.6903C47.615 37.7571 41.4144 37.6237 36.4806 36.957C35.1471 36.7347 33.9248 36.5125 32.8136 36.2903C32.7691 36.2458 32.7469 36.2236 32.7469 36.2236C27.6131 35.0901 24.4794 33.3566 23.546 32.2899C23.3682 32.0676 23.2793 31.8898 23.2793 31.7565C23.346 30.5564 24.6794 29.5563 25.1461 29.2229C25.235 29.1784 25.2795 29.1562 25.2795 29.1562C25.3239 29.1118 25.3462 29.0895 25.3462 29.0895C25.3462 29.0895 25.0795 31.5565 25.2795 32.0232C25.4128 32.3565 31.5468 35.0235 43.8813 34.7568C47.415 34.6901 51.4154 34.3567 55.9492 33.69C74.551 30.8897 80.4849 21.4221 80.4183 20.6887C80.4183 19.9553 79.7515 18.6885 79.7515 18.6885C79.7515 18.6885 82.2851 18.8885 82.4185 19.1552Z" fill="url(#paint12_linear_39_4510)"/>
<path d="M88.2189 44.4244C88.4189 48.0914 77.0178 60.8927 59.8828 63.4263C54.3489 64.293 49.1484 64.2263 44.6813 63.7596C35.347 62.6929 28.8797 59.6259 28.1463 58.3591C28.1463 58.3591 28.1463 58.3369 28.1463 58.2924C28.0574 58.2035 27.9907 58.1146 27.9463 58.0257C27.2795 56.2256 28.3463 54.5587 28.3463 54.5587C28.3463 54.5587 30.3465 57.4923 30.8132 57.9591C31.1466 58.4258 38.6807 61.4261 51.0152 61.026C53.7488 60.9594 56.7491 60.6927 59.9494 60.2259C76.0177 57.8257 85.1519 46.8246 85.552 45.7579C85.752 45.2245 86.0187 43.3576 86.0853 42.6909C86.9521 42.7576 87.4855 43.8243 87.8188 44.0244C88.0411 44.1133 88.1744 44.2466 88.2189 44.4244Z" fill="url(#paint13_linear_39_4510)"/>
<g style="mix-blend-mode:multiply" opacity="0.5">
<path d="M50.2159 13.6214C47.2156 14.1548 43.2152 17.5551 43.4819 20.3554C43.6819 21.7555 46.2822 19.2886 52.9495 18.5552C59.5502 17.8885 63.3505 18.9553 63.3505 18.9553C63.3505 18.9553 66.4842 17.3551 66.0175 14.8882C65.5508 12.4213 56.3498 12.4213 50.2159 13.6214Z" fill="#AB6377"/>
</g>
<g style="mix-blend-mode:soft-light" opacity="0.5">
<path d="M43.8813 34.7568C42.3478 35.9569 39.8809 37.2237 36.4806 36.957C35.2805 36.8236 34.0137 36.5569 32.8136 36.2903C32.7691 36.2458 32.7469 36.2236 32.7469 36.2236C28.0798 34.9568 23.8794 32.4899 23.546 32.2899C23.3682 32.0676 23.2793 31.8898 23.2793 31.7565C23.346 30.5564 24.6794 29.5562 25.1461 29.2229C25.235 29.1784 25.2795 29.1562 25.2795 29.1562C25.3239 29.1118 25.3462 29.0895 25.3462 29.0895C25.3462 29.0895 25.0795 31.5564 25.2795 32.0232C25.4128 32.3565 31.5468 35.0235 43.8813 34.7568Z" fill="#81CEFF"/>
</g>
<g style="mix-blend-mode:soft-light" opacity="0.5">
<path d="M51.0152 61.026C49.6151 61.8928 47.5482 62.9595 44.6813 63.7596C35.347 62.6928 28.8797 59.6259 28.1463 58.3591C28.1463 58.3591 28.1463 58.3369 28.1463 58.2924C28.0574 58.2035 27.9907 58.1146 27.9463 58.0257C27.2795 56.2255 28.3463 54.5587 28.3463 54.5587C28.3463 54.5587 30.3465 57.4923 30.8132 57.959C31.1466 58.4258 38.6807 61.426 51.0152 61.026Z" fill="#81CEFF"/>
</g>
<g style="mix-blend-mode:multiply" opacity="0.3">
<path d="M31.6806 43.8244C30.2138 43.3577 26.3468 35.4902 26.4134 35.0902C26.4801 34.6902 29.9471 36.6904 39.6814 37.2904C49.4824 37.8905 56.4831 36.957 57.4832 37.3571C58.55 37.7571 58.2166 42.7576 55.2163 43.9577C52.2827 45.1579 34.881 44.8245 31.6806 43.8244Z" fill="#4F2A6F"/>
</g>
<g style="mix-blend-mode:multiply" opacity="0.3">
<path d="M32.2135 61.0927C31.7468 61.026 33.0803 64.493 36.814 66.3599C40.481 68.2934 46.7483 69.0935 50.482 68.8935C54.2824 68.6268 55.8158 65.5598 56.0825 65.0264C56.3492 64.5597 50.282 65.2264 43.4146 63.9596C36.6139 62.6262 32.2135 61.0927 32.2135 61.0927Z" fill="#4F2A6F"/>
</g>
<g style="mix-blend-mode:soft-light" opacity="0.2">
<path d="M60.4825 43.5576C59.3491 43.3576 61.0826 37.4237 62.5494 36.2903C63.9495 35.1568 71.7503 31.9565 73.4172 31.6231C75.0173 31.3564 72.0837 37.9571 69.4834 39.8906C66.8832 41.8908 60.4825 43.5576 60.4825 43.5576Z" fill="#C5CFEA"/>
</g>
<g style="mix-blend-mode:soft-light" opacity="0.2">
<path d="M72.2842 38.8239C71.8841 38.9572 74.351 32.7566 75.4178 30.8231C76.4846 28.8896 78.6181 27.8228 78.9515 27.6894C79.2849 27.4894 78.2181 36.557 72.2842 38.8239Z" fill="#C5CFEA"/>
</g>
<g style="mix-blend-mode:soft-light" opacity="0.2">
<path d="M65.1502 67.2933C63.8834 67.0933 69.0173 62.3595 70.9508 60.826C72.8843 59.2259 79.285 56.4256 79.285 56.4256C79.285 56.4256 76.7514 61.7594 73.4844 63.8263C70.2174 65.8265 65.1502 67.2933 65.1502 67.2933Z" fill="#C5CFEA"/>
</g>
<g style="mix-blend-mode:soft-light" opacity="0.2">
<path d="M77.7518 61.4261C77.4184 61.5594 79.752 56.7589 81.5522 54.8921C83.3524 53.0252 85.0192 51.8251 85.0192 51.8251C85.0192 51.8251 82.0189 59.0258 77.7518 61.4261Z" fill="#C5CFEA"/>
</g>
<path d="M47.8145 37.0236C45.481 38.2904 51.2149 38.8905 53.6151 37.9571C56.0154 36.957 52.615 34.4234 47.8145 37.0236Z" fill="#3C1F4A"/>
<g style="mix-blend-mode:multiply" opacity="0.6">
<path d="M47.749 37.3569C46.8156 38.157 50.2159 38.6903 52.6162 37.4902C55.0164 36.2901 50.4826 34.9567 47.749 37.3569Z" fill="#904F81"/>
</g>
<path d="M47.6152 37.957C47.6152 37.957 49.1487 38.2237 51.4156 37.8236C53.6825 37.4236 54.0159 37.7569 54.0159 37.7569C54.0159 37.7569 53.3491 38.757 51.2823 38.9571C49.2154 39.1571 47.6152 37.957 47.6152 37.957Z" fill="#7C7495"/>
<path d="M32.7475 60.3593C31.2806 60.9594 34.2809 63.0262 35.6811 62.7595C37.1479 62.4262 35.6811 59.0925 32.7475 60.3593Z" fill="#3C1F4A"/>
<g style="mix-blend-mode:multiply" opacity="0.6">
<path d="M32.6803 60.6261C32.0136 61.1595 33.8138 62.5596 35.2139 62.0263C36.6807 61.5595 34.4805 59.0926 32.6803 60.6261Z" fill="#904F81"/>
</g>
<path d="M32.4805 61.2261C32.4805 61.2261 33.2805 61.8929 34.5473 62.0262C35.8141 62.2262 35.9475 62.6263 35.9475 62.6263C35.9475 62.6263 35.4141 63.4263 34.2806 63.093C33.1472 62.7596 32.4805 61.2261 32.4805 61.2261Z" fill="#7C7495"/>
<g style="mix-blend-mode:soft-light" opacity="0.2">
<path d="M59.3499 63.5596C58.0831 63.2929 67.4174 59.0258 74.0847 55.5588C80.752 52.0918 84.0857 51.1584 84.0857 51.1584C84.0857 51.1584 76.2849 60.8927 59.3499 63.5596Z" fill="#C5CFEA"/>
</g>
<g style="mix-blend-mode:soft-light" opacity="0.2">
<path d="M59.2832 35.7569C59.2832 35.7569 62.2835 33.5567 66.7506 30.8898C71.2177 28.2895 78.6184 25.2892 78.6184 25.2892C78.6184 25.2892 72.5512 32.89 59.2832 35.7569Z" fill="#C5CFEA"/>
</g>
<path d="M56.0825 36.4236C56.0825 36.4236 58.2161 36.2903 59.8829 35.6236C61.5497 34.8902 63.4833 33.8234 65.4168 33.29C67.2836 32.7566 70.2172 31.9565 70.2172 31.9565C70.2172 31.9565 66.8836 34.0234 62.8165 35.2235C58.8161 36.4903 56.0825 36.4236 56.0825 36.4236Z" fill="#6D6B84"/>
<path d="M52.0825 64.093C52.0825 64.093 54.6828 63.2929 56.0162 63.2929C57.3497 63.2929 61.7501 63.1596 61.7501 63.1596C61.7501 63.1596 55.8829 65.0264 52.0825 64.093Z" fill="#6D6B84"/>
<path d="M80.5522 54.292C80.5522 54.292 80.8856 53.9586 81.819 52.9585C82.7525 51.9584 84.6193 50.5583 84.6193 50.5583C84.6193 50.5583 83.0192 53.0919 80.5522 54.292Z" fill="#8E8C9F"/>
<path d="M30.2139 46.4913C30.2139 46.4913 32.2807 49.6916 33.4142 50.8917C34.5476 52.1585 35.3477 52.8919 35.3477 52.8919L34.681 51.025C34.681 51.025 32.6141 49.5582 30.2139 46.4913Z" fill="url(#paint14_linear_39_4510)"/>
<g style="mix-blend-mode:soft-light" opacity="0.6">
<path d="M34.9474 25.4892C34.214 25.2891 37.9477 23.0889 39.4812 22.8889C41.0814 22.6222 42.8149 23.7557 46.0152 23.6223C49.2155 23.489 51.6157 23.3556 51.6157 23.3556C51.6157 23.3556 51.5491 25.2225 50.1489 25.8892C48.7488 26.5559 41.6147 27.4227 34.9474 25.4892Z" fill="#FFD8BA"/>
</g>
<g style="mix-blend-mode:soft-light" opacity="0.6">
<path d="M32.0139 24.2224C31.2139 24.2224 27.6802 22.0222 27.6802 20.7554C27.6802 19.5553 31.3472 16.355 34.6142 15.2882C37.8812 14.2881 40.6815 15.2215 41.1482 15.3549C41.6149 15.5549 37.9479 17.4884 37.0144 18.6219C36.1477 19.7553 38.0145 21.3555 37.7478 21.8889C37.4811 22.3556 33.8808 24.2224 32.0139 24.2224Z" fill="#FFD8BA"/>
</g>
<g style="mix-blend-mode:soft-light" opacity="0.6">
<path d="M54.4163 25.2225C53.8162 25.2892 53.7496 24.0224 53.8162 23.489C53.8162 23.0223 61.217 20.8221 62.8171 19.822C64.3506 18.8219 64.5506 18.8219 65.4174 18.6885C66.2841 18.4885 69.1511 19.1552 69.4178 19.7553C69.6845 20.422 61.7504 24.2891 54.4163 25.2225Z" fill="#FFD8BA"/>
</g>
<g style="mix-blend-mode:soft-light" opacity="0.3">
<path d="M61.6836 11.8212C61.0169 12.3546 65.6173 13.0213 66.0174 14.8882C66.4841 16.6883 65.9507 16.2883 66.4841 16.6883C67.0175 17.1551 72.2846 16.555 74.2182 14.0214C76.1517 11.4878 68.1509 9.95435 66.8841 9.68765C65.6173 9.35429 62.1503 11.4878 61.6836 11.8212Z" fill="#FFD8BA"/>
</g>
<path d="M62.3497 13.0213C62.283 12.7546 64.4165 12.5546 65.0833 12.7546C65.8167 13.0213 66.3501 14.9548 66.15 15.1549C65.8834 15.3549 62.3497 13.288 62.3497 13.0213Z" fill="url(#paint15_linear_39_4510)"/>
<g style="mix-blend-mode:soft-light" opacity="0.5">
<path d="M39.3478 64.5597C37.681 64.6264 38.6144 67.7601 41.8148 67.4934C44.9484 67.2267 40.8147 64.4931 39.3478 64.5597Z" fill="#C5CFEA"/>
</g>
<g style="mix-blend-mode:soft-light" opacity="0.5">
<path d="M43.4156 64.9598C42.6155 65.0265 42.6155 66.76 44.4823 66.4933C46.3492 66.2266 44.0156 64.9598 43.4156 64.9598Z" fill="#C5CFEA"/>
</g>
<g style="mix-blend-mode:soft-light" opacity="0.5">
<path d="M45.4153 40.824C42.8817 41.7575 43.4817 42.8909 46.9487 42.8909C50.4157 42.8909 47.0154 40.2906 45.4153 40.824Z" fill="#C5CFEA"/>
</g>
<g style="mix-blend-mode:soft-light" opacity="0.5">
<path d="M53.1492 40.824C51.0823 43.4243 53.6159 43.491 54.416 41.5574C55.2161 39.6239 53.6826 40.1573 53.1492 40.824Z" fill="#C5CFEA"/>
</g>
<g style="mix-blend-mode:multiply" opacity="0.5">
<path d="M25.3464 29.0895C25.3464 29.0895 29.4801 33.69 32.2137 34.0234C32.2137 34.0234 26.6132 32.8232 25.4131 32.2899C24.2129 31.7565 25.3464 29.0895 25.3464 29.0895Z" fill="#AB6377"/>
</g>
<g style="mix-blend-mode:multiply" opacity="0.5">
<path d="M28.3462 54.5587C28.3462 54.5587 35.2135 59.1592 39.3473 60.3593C39.3473 60.3593 34.0801 59.9592 31.8132 59.0925C29.4796 58.1591 28.3462 54.5587 28.3462 54.5587Z" fill="#AB6377"/>
</g>
<path d="M23.5459 39.8906C23.5459 39.8906 24.6793 41.6908 28.4797 42.8242C32.2134 43.9576 33.5469 44.1577 33.5469 44.1577C33.5469 44.1577 24.8794 43.4909 23.5459 39.8906Z" fill="#68B3DB"/>
<path d="M60.75 23.8224C60.75 23.8224 60.8167 22.9556 61.15 23.0223C61.5501 23.089 62.5502 23.8891 62.8169 24.0224C64.3504 24.7558 62.1501 24.3558 61.6167 24.1557C61.0834 23.9557 60.75 23.8224 60.75 23.8224Z" fill="url(#paint16_linear_39_4510)"/>
<g style="mix-blend-mode:multiply" opacity="0.3">
<path d="M73.8847 48.4248C73.3513 48.5581 72.4179 51.2917 72.0845 52.4252C71.8179 53.5586 74.2181 52.0918 74.9515 50.5583C75.7516 48.9582 74.4181 48.2248 73.8847 48.4248Z" fill="#AB6377"/>
</g>
<g style="mix-blend-mode:multiply" opacity="0.3">
<path d="M73.6181 43.4243C71.8846 42.6242 69.151 44.4244 67.7508 51.2917C66.284 58.2257 71.8846 50.4917 73.1513 47.2913C74.4181 44.091 73.6181 43.4243 73.6181 43.4243Z" fill="#AB6377"/>
</g>
<g style="mix-blend-mode:multiply" opacity="0.3">
<path d="M34.0804 28.3562C32.0802 30.8898 35.8805 30.8231 36.814 29.0896C37.8141 27.4228 35.4805 26.756 34.0804 28.3562Z" fill="#AB6377"/>
</g>
<path d="M60.9492 23.889C60.9492 23.889 61.0826 24.1557 61.816 24.4224C62.5494 24.6891 63.0161 24.4224 63.0161 24.4224C63.0161 24.4224 61.5493 24.1557 60.9492 23.889Z" fill="#9E4834"/>
<path d="M60.0828 26.2893C59.1494 26.4226 59.016 27.4894 61.4829 28.3561C63.9498 29.2895 65.8834 29.0229 66.1501 28.8895C66.4167 28.7562 63.6165 25.6225 60.0828 26.2893Z" fill="url(#paint17_linear_39_4510)"/>
<path d="M59.4824 27.0227C59.4824 27.0227 59.6824 27.9561 61.4159 28.6228C63.0828 29.3563 65.3497 29.0229 65.3497 29.0229C65.3497 29.0229 61.5493 28.6228 59.4824 27.0227Z" fill="#9E4834"/>
<path d="M44.6815 38.2905C42.8814 38.4905 46.215 40.224 47.1484 40.424C48.1485 40.6907 46.015 38.1571 44.6815 38.2905Z" fill="#1C0B38"/>
<path d="M44.2155 38.4238C44.0155 38.8905 46.7491 40.2907 46.7491 40.2907C46.7491 40.2907 43.6155 39.4906 44.2155 38.4238Z" fill="#65637D"/>
<path d="M72.0177 59.8926C71.751 61.6928 74.3512 59.0925 74.8846 58.2257C75.418 57.4257 72.4844 56.6256 72.0177 59.8926Z" fill="#1C0B38"/>
<path d="M72.0181 60.3593C72.3514 60.6927 74.6183 58.6258 74.6183 58.6258C74.6183 58.6258 72.7515 61.2928 72.0181 60.3593Z" fill="#65637D"/>
<g style="mix-blend-mode:soft-light" opacity="0.2">
<path d="M33.8804 37.4904C30.6134 36.0902 31.4135 39.8239 31.6802 41.1574C31.9468 42.4909 32.2135 39.8239 32.6136 40.7574C33.0803 41.6908 32.2802 42.3575 34.4138 42.2908C36.5473 42.2242 38.6142 41.5574 37.8808 39.8906C37.214 38.1571 35.3472 38.7572 35.6806 38.1571C36.0139 37.6237 33.8804 37.4904 33.8804 37.4904Z" fill="#C5CFEA"/>
</g>
<g style="mix-blend-mode:soft-light" opacity="0.2">
<path d="M63.7497 37.157C62.4829 37.2904 63.4163 39.5572 63.0163 40.7574C62.6162 41.9575 68.7502 40.624 69.4836 39.8906C70.2837 39.2239 71.4171 37.0237 70.217 36.957C69.0169 36.957 71.6171 37.0237 72.0838 35.0235C72.5506 33.0899 71.3504 33.69 69.2169 34.3567C67.0834 35.0901 63.7497 37.157 63.7497 37.157Z" fill="#C5CFEA"/>
</g>
<g style="mix-blend-mode:soft-light" opacity="0.2">
<path d="M54.4825 68.8935C53.6824 68.8268 54.8826 68.1601 55.2826 67.4933C55.616 66.8266 56.2827 66.5599 56.2827 67.16C56.2827 67.76 57.0828 67.96 57.4828 67.6933C57.8828 67.4267 56.416 67.16 56.4827 66.4932C56.5494 65.8265 55.3493 65.4931 57.4161 64.9597C59.5497 64.493 60.8831 63.6263 60.6831 64.093C60.5498 64.6264 60.4164 65.0264 61.5499 64.3597C62.6166 63.6929 65.2169 63.1596 66.017 63.1596C66.8171 63.1596 65.2169 65.0931 64.4835 66.3599C63.7501 67.6267 62.0166 68.0267 59.883 68.2267C57.6828 68.4267 54.4825 68.8935 54.4825 68.8935Z" fill="#C5CFEA"/>
</g>
<path d="M69.4175 32.1565C68.8174 32.2899 71.0177 29.2229 72.6178 28.0895C74.1513 26.956 77.4183 26.0893 77.9517 26.0226C78.4851 26.0226 73.4179 31.3564 69.4175 32.1565Z" fill="#8E8C9F"/>
<defs>
<linearGradient id="paint0_linear_39_4510" x1="4.7135" y1="28.9589" x2="73.0549" y2="-7.37945" gradientUnits="userSpaceOnUse">
<stop stop-color="#771C48"/>
<stop offset="0.236" stop-color="#762A34"/>
<stop offset="1" stop-color="#934B29"/>
</linearGradient>
<linearGradient id="paint1_linear_39_4510" x1="21.0604" y1="18.8405" x2="80.3549" y2="9.85667" gradientUnits="userSpaceOnUse">
<stop stop-color="#007C9C"/>
<stop offset="0.145"/>
</linearGradient>
<linearGradient id="paint2_linear_39_4510" x1="36.4394" y1="15.6776" x2="65.5363" y2="11.2693" gradientUnits="userSpaceOnUse">
<stop stop-color="#893A15"/>
<stop offset="1" stop-color="#681C48"/>
</linearGradient>
<linearGradient id="paint3_linear_39_4510" x1="-65.8469" y1="88.8015" x2="-73.4372" y2="38.7011" gradientUnits="userSpaceOnUse">
<stop stop-color="#681C2C"/>
<stop offset="1" stop-color="#52161A"/>
</linearGradient>
<linearGradient id="paint4_linear_39_4510" x1="40.6709" y1="12.8919" x2="40.6653" y2="12.8546" gradientUnits="userSpaceOnUse">
<stop stop-color="#681C2C"/>
<stop offset="1" stop-color="#52161A"/>
</linearGradient>
<linearGradient id="paint5_linear_39_4510" x1="37.4737" y1="20.5827" x2="36.402" y2="13.5053" gradientUnits="userSpaceOnUse">
<stop stop-color="#681C2C"/>
<stop offset="1" stop-color="#52161A"/>
</linearGradient>
<linearGradient id="paint6_linear_39_4510" x1="184.959" y1="50.8017" x2="177.369" y2="0.701294" gradientUnits="userSpaceOnUse">
<stop stop-color="#681C2C"/>
<stop offset="1" stop-color="#52161A"/>
</linearGradient>
<linearGradient id="paint7_linear_39_4510" x1="55.9658" y1="17.7658" x2="54.855" y2="10.4364" gradientUnits="userSpaceOnUse">
<stop stop-color="#681C2C"/>
<stop offset="1" stop-color="#52161A"/>
</linearGradient>
<linearGradient id="paint8_linear_39_4510" x1="-311.323" y1="127.657" x2="-318.68" y2="79.0717" gradientUnits="userSpaceOnUse">
<stop stop-color="#681C2C"/>
<stop offset="1" stop-color="#52161A"/>
</linearGradient>
<linearGradient id="paint9_linear_39_4510" x1="40.6709" y1="12.8919" x2="40.6653" y2="12.8546" gradientUnits="userSpaceOnUse">
<stop stop-color="#681C2C"/>
<stop offset="1" stop-color="#52161A"/>
</linearGradient>
<linearGradient id="paint10_linear_39_4510" x1="16.6385" y1="28.2828" x2="92.416" y2="16.8017" gradientUnits="userSpaceOnUse">
<stop stop-color="#6568B1"/>
<stop offset="0.111" stop-color="#2A1036"/>
<stop offset="0.597" stop-color="#3D3252"/>
<stop offset="1" stop-color="#4D506F"/>
</linearGradient>
<linearGradient id="paint11_linear_39_4510" x1="21.9536" y1="52.4332" x2="96.791" y2="41.0944" gradientUnits="userSpaceOnUse">
<stop stop-color="#6568B1"/>
<stop offset="0.111" stop-color="#2A1036"/>
<stop offset="0.597" stop-color="#3D3252"/>
<stop offset="1" stop-color="#4D506F"/>
</linearGradient>
<linearGradient id="paint12_linear_39_4510" x1="22.5952" y1="27.38" x2="82.2872" y2="18.3362" gradientUnits="userSpaceOnUse">
<stop stop-color="#543E55"/>
<stop offset="1" stop-color="#726D8B"/>
</linearGradient>
<linearGradient id="paint13_linear_39_4510" x1="26.9248" y1="51.6804" x2="87.8975" y2="42.4418" gradientUnits="userSpaceOnUse">
<stop stop-color="#543E55"/>
<stop offset="1" stop-color="#726D8B"/>
</linearGradient>
<linearGradient id="paint14_linear_39_4510" x1="30.2432" y1="46.4959" x2="34.2563" y2="45.8879" gradientUnits="userSpaceOnUse">
<stop stop-color="#681C2C"/>
<stop offset="1" stop-color="#52161A"/>
</linearGradient>
<linearGradient id="paint15_linear_39_4510" x1="63.3304" y1="15.6142" x2="62.9017" y2="12.784" gradientUnits="userSpaceOnUse">
<stop stop-color="#4F1F11"/>
<stop offset="0.994" stop-color="#48001B"/>
</linearGradient>
<linearGradient id="paint16_linear_39_4510" x1="60.74" y1="23.027" x2="63.3376" y2="23.027" gradientUnits="userSpaceOnUse">
<stop stop-color="#4F1F11"/>
<stop offset="0.994" stop-color="#48001B"/>
</linearGradient>
<linearGradient id="paint17_linear_39_4510" x1="59.4747" y1="26.1819" x2="66.1701" y2="26.1819" gradientUnits="userSpaceOnUse">
<stop stop-color="#4F1F11"/>
<stop offset="0.994" stop-color="#48001B"/>
</linearGradient>
</defs>
</svg>
