<svg width="110" height="80" viewBox="0 0 110 80" fill="none" xmlns="http://www.w3.org/2000/svg">
<path d="M83.5601 12.72C84.2001 23.44 84.0401 56.72 83.5601 68C80.6001 68.4 76.6801 68.56 72.7601 68.56C68.8401 68.56 64.9201 68.4 61.8801 68C61.4801 61.44 61.3201 48 61.4001 35.6C59.1601 35.52 57.1601 35.44 55.4001 35.36C54.8401 30.56 53.8001 17.04 54.3601 12.4C57.4001 12.16 62.2801 12 67.2401 12C73.5601 12 80.0401 12.24 83.5601 12.72Z" fill="white"/>
<path d="M50.3775 12.72C51.0175 23.44 50.8575 56.72 50.3775 68C47.4175 68.4 43.4975 68.56 39.5775 68.56C35.6575 68.56 31.7375 68.4 28.6975 68C28.2975 61.44 28.1375 48 28.2175 35.6C25.9775 35.52 23.9775 35.44 22.2175 35.36C21.6575 30.56 20.6175 17.04 21.1775 12.4C24.2175 12.16 29.0975 12 34.0575 12C40.3775 12 46.8575 12.24 50.3775 12.72Z" fill="white"/>
</svg>
