<svg width="110" height="80" viewBox="0 0 110 80" fill="none" xmlns="http://www.w3.org/2000/svg">
<path d="M23.5978 19.133C20.3983 19.7995 17.9987 19.1996 15.1992 21.5992C12.4663 23.9988 9.60011 32.864 15.2658 41.8625C20.465 50.0611 30.9299 43.0623 32.8629 42.0625C34.7959 41.1293 35.6624 48.3281 35.4624 49.5279C35.2625 50.7277 41.4614 52.0608 41.4614 52.5274C41.5281 52.994 36.129 53.6605 35.2625 54.1938C34.3293 54.6604 32.9962 64.0588 35.1292 67.8581C37.1955 71.7242 53.3928 66.9916 55.5924 66.2584C57.8587 65.4586 48.8602 21.6659 43.5944 18.3331C38.3286 15.067 23.5978 19.133 23.5978 19.133Z" fill="#68B3DB"/>
<path d="M24.997 44.662C27.9965 44.7954 47.06 35.5302 57.3249 33.3306C67.5899 31.131 69.2563 32.7974 70.9893 27.8649C72.789 22.999 64.9237 15.4003 58.2581 14.0005C51.5259 12.5341 26.4635 21.1327 18.998 24.5987C11.466 28.0648 17.3983 38.1965 19.198 40.4628C20.9311 42.729 24.997 44.662 24.997 44.662Z" fill="url(#paint0_linear_39_3943)"/>
<path d="M42.3276 68.9913C42.3276 68.9913 78.9215 66.6584 95.7187 57.2599C95.7187 57.2599 62.6576 62.5257 57.8584 63.4589C53.0592 64.3921 42.3276 68.9913 42.3276 68.9913Z" fill="#7C2F45"/>
<path d="M17.5326 41.8625C11.267 35.4636 12.0002 22.1325 18.1325 20.1995C18.4436 20.1106 18.8213 20.0439 19.2656 19.9995C23.1983 19.7329 31.7969 22.1991 36.1295 30.7977C38.5291 35.4636 39.3289 42.3958 39.9288 48.5947C39.9733 49.4835 40.0399 50.35 40.1288 51.1943C39.8622 51.1054 39.5734 51.0165 39.2623 50.9277C37.6626 50.3278 36.0628 49.8612 36.0628 49.8612C36.1295 43.5956 35.263 36.8633 31.6636 31.6642C24.7314 21.5326 17.1993 26.3984 18.4658 34.8637C19.7322 43.3956 25.5313 41.7959 26.1312 39.6629C26.7977 37.5966 23.9982 38.1965 23.6649 38.0631C23.3316 37.8632 21.7319 32.9307 23.265 32.1308C24.798 31.2643 32.7967 31.2643 32.5967 37.0633C32.3968 42.8623 23.8649 48.2614 17.5326 41.8625Z" fill="url(#paint1_linear_39_3943)"/>
<path d="M55.5928 65.7252C47.1276 69.2579 33.8631 71.3243 34.663 64.5254C34.9296 62.1258 35.5295 58.6597 35.8628 54.6604C35.8628 54.6604 37.5292 54.2605 39.1956 53.7272C39.5955 53.6383 39.9732 53.5272 40.3287 53.3939C40.3731 53.6161 40.3954 53.8383 40.3954 54.0605C40.7953 57.9932 41.3285 60.926 42.4617 61.5926C45.4612 63.3923 53.5931 60.3928 54.5263 60.0595C54.6152 60.015 54.6596 59.9928 54.6596 59.9928C56.0594 62.7924 55.5928 65.7252 55.5928 65.7252Z" fill="url(#paint2_linear_39_3943)"/>
<path d="M97.3853 50.861C97.3853 50.861 97.452 54.1271 96.2522 56.7267C95.0524 59.2596 67.5237 66.6584 55.5924 65.7252C55.5924 65.7252 56.1256 62.4591 54.6592 59.9928C54.6592 59.9928 86.0539 58.4597 97.3853 50.861Z" fill="url(#paint3_linear_39_3943)"/>
<path d="M97.3857 50.861C76.1893 63.7255 54.6595 59.9928 54.6595 59.9928C54.6595 59.9928 54.6151 60.015 54.5262 60.0595C53.2598 60.5927 38.5289 66.5251 39.0621 57.4599C39.1066 56.4379 39.151 55.4158 39.1955 54.3938V53.7272C39.5954 53.6383 39.9731 53.5272 40.3286 53.3939C41.4617 53.0606 42.3949 52.7274 42.5949 52.5274C42.8615 52.3274 41.5951 51.7942 40.1286 51.1943C39.862 51.1054 39.5732 51.0165 39.2621 50.9277C39.2621 50.0834 39.2399 49.2613 39.1955 48.4614C38.9955 41.2626 37.6624 33.9305 33.6631 28.4648C27.2641 19.8662 18.1323 20.1995 18.1323 20.1995C18.5323 20.1551 18.91 20.0884 19.2655 19.9995C33.3298 17.4666 42.2616 15.4003 50.7269 12.8007C56.9258 10.9344 65.2578 9.46796 70.9901 14.0005C70.9901 14.0005 69.5904 15.467 69.3237 16.1335C69.1238 16.8667 73.8563 17.1333 73.8563 17.1333C74.8561 18.5331 75.656 20.2661 76.2559 22.2658C80.4552 36.0635 73.923 51.2609 79.4554 53.5939C84.9878 55.9268 97.3857 50.861 97.3857 50.861Z" fill="url(#paint4_linear_39_3943)"/>
<path d="M40.3949 54.0605C39.795 54.2605 39.395 54.3271 39.1951 54.3938C38.3286 54.6604 35.8623 54.6604 35.8623 54.6604C35.8623 54.6604 37.5287 54.2605 39.1951 53.7272C39.595 53.6383 39.9727 53.5273 40.3282 53.3939C41.4614 53.0607 42.3945 52.7274 42.5945 52.5274C42.8611 52.3275 41.5947 51.7942 40.1283 51.1943C39.8616 51.1054 39.5728 51.0166 39.2617 50.9277C37.662 50.3278 36.0623 49.8612 36.0623 49.8612C36.0623 49.8612 37.9953 48.3948 39.1951 48.4614C39.3728 48.4614 39.6172 48.5059 39.9283 48.5947C41.6613 48.9947 45.1941 50.4611 46.9271 51.061C48.5269 51.5942 42.9944 53.3273 40.3949 54.0605Z" fill="url(#paint5_linear_39_3943)"/>
<path d="M36.0625 49.8612C36.0625 49.8612 41.5949 51.5942 42.1281 52.0608C42.5947 52.5274 47.194 51.3276 47.194 51.3276C47.194 51.3276 40.1951 48.2615 39.1953 48.4614C38.1955 48.6614 36.0625 49.8612 36.0625 49.8612Z" fill="#AD434F"/>
<path d="M70.9901 14.0005L71.1234 16.8667C71.1234 16.8667 69.5903 16.6668 69.1237 16.3335C68.7905 16.0002 70.9901 14.0005 70.9901 14.0005Z" fill="#AD434F"/>
<g style="mix-blend-mode:multiply" opacity="0.5">
<path d="M18.532 35.4636C19.5318 39.8629 22.5313 37.5966 22.6646 36.5301C22.798 35.3969 21.3982 33.3306 23.9311 31.8642C26.464 30.3978 30.53 30.1312 30.53 30.1312C30.53 30.1312 27.0639 25.5319 22.4647 26.1985C17.8655 26.9317 18.3987 34.8637 18.532 35.4636Z" fill="#AB6377"/>
</g>
<g style="mix-blend-mode:multiply" opacity="0.5">
<path d="M28.3965 43.7955C30.0629 42.929 32.4625 40.1295 32.7957 38.9963C33.0624 37.8632 34.5288 37.5299 34.5288 37.5299C34.5288 37.5299 35.262 40.3294 35.3953 41.0627C35.3953 41.0627 29.5296 43.4622 28.3965 43.7955Z" fill="#AB6377"/>
</g>
<path d="M32.7292 27.265C32.2627 27.3983 35.2622 31.8642 35.8621 32.1975C36.5286 32.5974 39.0615 25.7986 32.7292 27.265Z" fill="url(#paint6_linear_39_3943)"/>
<g style="mix-blend-mode:multiply" opacity="0.5">
<path d="M32.7297 27.265C32.3298 27.3983 34.1295 29.7979 34.796 30.1978C35.4626 30.5977 36.5291 28.5981 36.1958 27.9982C35.7959 27.3983 33.9962 26.9983 32.7297 27.265Z" fill="#AB6377"/>
</g>
<path d="M35.3291 31.6642C35.1291 30.8644 36.8621 28.998 36.8621 28.998C36.8621 28.998 36.7288 33.5972 35.3291 31.6642Z" fill="#FFBBA1"/>
<g style="mix-blend-mode:multiply" opacity="0.2">
<path d="M40.395 47.6615C39.5285 47.3282 37.0623 32.7974 36.729 31.0643C36.3957 29.3979 70.59 20.1328 73.1895 19.7329C75.7891 19.3996 77.4555 30.3978 77.0556 32.9973C76.6556 35.5302 57.7921 40.0628 57.7921 40.0628C57.7921 40.0628 75.5225 35.5969 76.0557 35.5969C76.6556 35.5302 76.1224 43.9288 75.9891 45.6619C75.8557 47.4616 79.1885 50.4611 66.524 54.8603C53.8594 59.1929 42.0614 59.8595 41.1282 58.8596C40.1284 57.7932 39.4619 56.1268 40.1284 55.5269C40.7283 54.8603 49.1936 52.0608 54.326 50.661C59.5252 49.2613 71.9897 45.7285 71.9897 45.7285C71.9897 45.7285 60.2584 48.728 53.4595 49.5279C46.594 50.2611 40.395 47.6615 40.395 47.6615Z" fill="#DD819F"/>
</g>
<g style="mix-blend-mode:multiply" opacity="0.2">
<path d="M37.7286 30.6644C35.3956 31.4643 37.7952 33.9305 38.3951 35.197C38.995 36.3968 46.3271 38.863 56.8587 37.7299C67.3236 36.5967 73.056 29.6646 73.9225 24.6654C74.789 19.6662 40.928 29.5979 37.7286 30.6644Z" fill="#DD819F"/>
</g>
<g style="mix-blend-mode:multiply" opacity="0.5">
<path d="M40.7953 68.9913C37.1959 68.3914 38.3957 62.7923 38.4623 61.9258C38.4623 60.9926 41.4618 62.9923 44.8613 62.9256C48.2607 62.9256 53.1266 60.8593 53.9931 60.726C54.9262 60.6594 56.326 64.6587 55.5261 65.3919C54.6596 66.1251 44.528 69.6578 40.7953 68.9913Z" fill="#DEC3CB"/>
</g>
<g style="mix-blend-mode:multiply" opacity="0.5">
<path d="M36.4619 49.5946C36.4619 49.5946 40.9278 51.6609 41.9277 51.9275C42.8608 52.1941 46.7269 51.1276 46.7269 51.1276C46.7269 51.1276 40.3279 48.6614 39.4614 48.5947C38.6615 48.5281 36.4619 49.5946 36.4619 49.5946Z" fill="#AB6377"/>
</g>
<path d="M20.0654 39.463C20.0654 39.463 21.7985 41.1293 23.7315 40.9294C25.6645 40.7294 26.1977 39.3963 26.1977 39.3963C26.1977 39.3963 26.3977 41.196 23.9314 41.5959C21.4652 41.9959 20.0654 39.463 20.0654 39.463Z" fill="#D98674"/>
<path d="M23.2642 32.1308C23.2642 32.1308 26.2637 30.0645 30.5296 30.1312C30.5296 30.1312 31.996 31.6642 32.1293 32.2641C32.196 32.864 29.9964 32.5308 28.5966 32.1308C27.1968 31.7309 24.9305 31.7976 23.2642 32.1308Z" fill="#D98674"/>
<g style="mix-blend-mode:soft-light" opacity="0.5">
<path d="M54.6592 59.9928C54.6592 59.9928 61.9246 56.9933 74.9891 54.5937C79.9883 53.6606 83.2544 55.1936 91.9196 52.7274C91.9196 52.7274 83.0544 58.1265 71.8563 59.5262C60.7248 60.9927 54.6592 59.9928 54.6592 59.9928Z" fill="#FFFFE0"/>
</g>
<path d="M20.998 20.4661C20.998 20.4661 25.7972 20.7327 29.6633 23.3323C33.5293 25.9319 32.7294 27.265 32.7294 27.265C32.7294 27.265 27.7969 22.2658 20.998 20.4661Z" fill="#DF8F66"/>
<g style="mix-blend-mode:multiply" opacity="0.3">
<path d="M59.8588 43.7956C59.1923 46.2618 59.7255 48.6614 61.5252 48.2615C63.5915 47.7949 66.1245 47.8615 66.4577 45.5286C66.5244 45.1287 66.591 44.6621 66.6577 44.2621C66.991 42.2625 67.1243 40.1295 64.5914 40.0628C64.5914 40.0628 61.5252 39.7296 60.3254 42.4624C60.1032 42.9068 59.9477 43.3512 59.8588 43.7956Z" fill="#CD72A4"/>
</g>
<g style="mix-blend-mode:multiply" opacity="0.5">
<path d="M59.8589 43.7956V44.1288C59.8589 44.1288 60.2588 42.6624 61.4586 41.6626C62.6584 40.6627 64.0582 39.9962 65.3913 40.996C66.7244 41.9292 66.6577 44.2621 66.6577 44.2621C66.991 42.2625 67.1243 40.1295 64.5914 40.0628C64.5914 40.0628 61.5253 39.7296 60.3255 42.4624C60.1033 42.9068 59.9478 43.3512 59.8589 43.7956Z" fill="#CD72A4"/>
</g>
<g style="mix-blend-mode:multiply" opacity="0.3">
<path d="M66.0572 48.0615C64.5908 49.0613 63.7243 50.3944 64.7241 50.7277C65.8572 51.1943 66.9904 51.9275 68.1902 50.9277C68.4124 50.7499 68.6568 50.5499 68.9234 50.3278C69.9899 49.4612 71.0564 48.4614 69.9899 47.6615C69.9899 47.6615 68.7901 46.5951 66.9237 47.5949C66.6127 47.7282 66.3238 47.8837 66.0572 48.0615Z" fill="#CD72A4"/>
</g>
<g style="mix-blend-mode:soft-light" opacity="0.5">
<path d="M18.1323 20.1995C18.1323 20.1995 22.9315 19.2663 31.5301 24.2655C34.9962 26.2652 41.8617 28.4648 48.3939 26.6651C58.1923 23.9322 67.6573 16.6001 69.5237 14.7338C71.9233 12.4008 62.3249 9.60128 53.6597 12.0009C46.061 14.1339 25.3978 18.9997 18.1323 20.1995Z" fill="#FFE0E0"/>
</g>
<g style="mix-blend-mode:multiply" opacity="0.5">
<path d="M66.0576 48.0615L65.9243 48.2614C65.9243 48.2614 66.7908 47.5949 67.7907 47.4616C68.7905 47.3949 69.7903 47.5282 69.9236 48.3948C70.057 49.1946 68.9238 50.3278 68.9238 50.3278C69.9903 49.4612 71.0568 48.4614 69.9903 47.6615C69.9903 47.6615 68.7905 46.5951 66.9241 47.5949C66.6131 47.7282 66.3242 47.8837 66.0576 48.0615Z" fill="#CD72A4"/>
</g>
<path d="M53.3265 20.1995C52.06 20.2661 50.8602 22.999 50.5936 23.5323C50.2603 24.1322 58.259 30.6644 59.8587 31.2643C61.4585 31.8642 63.3915 29.198 63.3915 28.7314C63.4581 28.1982 54.1264 20.1995 53.3265 20.1995Z" fill="url(#paint7_linear_39_3943)"/>
<path d="M58.725 19.333C59.9248 18.933 62.2578 20.9327 62.7244 21.3993C63.191 21.7992 58.2585 30.8644 56.992 32.0642C55.7256 33.1973 52.9927 31.4643 52.7261 30.9977C52.5261 30.5311 57.9918 19.5996 58.725 19.333Z" fill="url(#paint8_linear_39_3943)"/>
<path d="M55.2594 18.7997C54.3929 18.6664 51.0601 16.8667 50.7269 16.8001C50.3936 16.6668 52.3932 15.8669 53.6597 15.6003C54.8595 15.3337 58.3256 17.4666 58.4589 17.7333C58.6589 17.9332 55.8593 18.9331 55.2594 18.7997Z" fill="#C26854"/>
<path d="M48.1271 15.9335C47.8605 15.9335 40.5283 15.9335 39.4619 16.0002C38.3954 16.1335 44.9943 14.4671 46.1274 14.1338C47.2606 13.8006 50.9266 14.0672 51.7931 14.1338C52.593 14.2005 48.7936 16.0002 48.1271 15.9335Z" fill="#C26854"/>
<path d="M57.992 34.9304C57.7254 34.797 56.259 38.3964 56.1923 38.9297C56.059 39.5296 58.2587 39.9295 58.7252 40.1961C59.2585 40.4628 60.9915 36.3968 61.0582 35.9302C61.0582 35.4636 57.992 34.9304 57.992 34.9304Z" fill="#C26854"/>
<path d="M54.9924 40.0628C54.5925 39.7296 51.0598 44.7954 51.1264 45.1287C51.2597 46.0618 53.6593 46.5951 54.2592 46.6617C54.8591 46.6617 57.392 42.3958 57.392 42.0625C57.392 41.7292 54.9924 40.0628 54.9924 40.0628Z" fill="#C26854"/>
<path d="M51.9268 50.1945C51.5268 50.661 54.5263 56.2601 54.8596 56.86C55.1262 57.5266 58.5257 55.9935 58.659 54.9936C58.7923 54.0605 55.5262 49.7279 55.1262 49.3279C54.6596 48.8613 52.46 49.5946 51.9268 50.1945Z" fill="#C26854"/>
<g style="mix-blend-mode:multiply" opacity="0.5">
<path d="M33.73 17.9999C35.7963 18.1998 37.7293 19.133 39.4624 20.2662C41.262 21.466 42.7285 22.999 43.9283 24.7321C44.1949 25.1987 44.5282 25.5986 44.7281 26.0652L45.528 27.465C45.9946 28.3981 46.3279 29.398 46.6611 30.3978C47.261 32.3975 47.7276 34.4638 48.1276 36.5301C48.8608 40.6627 49.3274 44.7954 49.794 48.928C50.0606 50.9943 50.3272 53.0607 50.6605 55.0603C50.7938 56.1268 50.9938 57.1266 51.2604 58.1265C51.3937 58.5931 51.527 59.1263 51.7936 59.5929C51.9936 59.9928 52.3269 60.5261 52.8601 60.5927C52.3269 60.5261 51.9269 60.0595 51.6603 59.5929C51.3937 59.193 51.2604 58.6597 51.0604 58.1931C50.7271 57.1933 50.5272 56.1935 50.2605 55.127C49.8606 53.1273 49.594 51.061 49.2607 48.9947C48.6608 44.862 48.1942 40.7294 47.3944 36.6634C46.6611 32.5974 45.7946 28.4648 43.4617 25.0654C42.3285 23.3323 40.9288 21.7992 39.2624 20.5328C37.6627 19.333 35.7296 18.3998 33.73 17.9999Z" fill="#AB6377"/>
<path d="M53.3936 13.2673C58.1927 13.7339 62.9253 16.2668 65.5915 20.3995C66.9913 22.4658 67.7911 24.7987 68.5243 27.1317C69.1909 29.398 69.7241 31.7976 70.1907 34.1305C71.1239 38.9297 71.7238 43.7289 72.2571 48.4614C72.3904 49.6612 72.5459 50.861 72.7236 52.0608C72.857 53.2606 73.0569 54.4604 73.7235 55.3936C74.0568 55.8602 74.5233 56.1935 75.0566 56.5267C75.5898 56.7934 76.1231 56.9933 76.723 57.06C77.3007 57.1489 77.9006 57.1711 78.5227 57.1266C79.1004 57.0822 79.678 56.9711 80.2557 56.7934C79.1226 57.1933 77.9228 57.3933 76.723 57.26C76.0564 57.1933 75.4565 56.9933 74.9233 56.7934C74.39 56.4601 73.8568 56.1268 73.4569 55.5936C72.657 54.5937 72.457 53.3273 72.2571 52.1275C72.0793 50.9277 71.9016 49.7279 71.7238 48.5281C71.0573 43.7955 70.4574 38.9964 69.4575 34.2638C69.0576 31.9309 68.5243 29.5979 67.8578 27.265C67.1912 24.9987 66.3914 22.7324 65.1249 20.7327C64.525 19.6663 63.7252 18.7997 62.9253 17.9332C62.0588 17.1334 61.1256 16.4001 60.1258 15.8002C58.0594 14.4671 55.7932 13.6673 53.3936 13.2673Z" fill="#AB6377"/>
<path d="M41.9282 37.0634L49.9269 35.4636C52.5931 34.9304 55.2593 34.3971 57.8589 33.7972C60.5251 33.1751 63.1691 32.553 65.7909 31.9309C67.124 31.5976 68.4571 31.2643 69.7236 30.8644C70.3901 30.6644 71.0567 30.4645 71.7232 30.2645C72.3453 30.0867 72.9897 29.8868 73.6562 29.6646C71.19 30.7977 68.5904 31.6643 65.9909 32.4641C63.3246 33.264 60.7251 33.8639 58.0588 34.4638C55.3926 35.0415 52.7042 35.5525 49.9935 35.9969C47.3273 36.4635 44.6611 36.8634 41.9282 37.0634Z" fill="#AB6377"/>
<path d="M46.4609 55.5936C47.6607 55.5269 48.9272 55.4603 50.127 55.3269C51.3268 55.1936 52.5266 55.0603 53.7264 54.927C56.126 54.5937 58.5256 54.3271 60.9252 53.8605C63.2803 53.4162 65.6355 52.8829 67.9907 52.2608C68.5906 52.1275 69.1238 51.9275 69.7237 51.7276C70.3014 51.5498 70.8791 51.3498 71.4568 51.1277C72.5899 50.7944 73.6564 50.2611 74.7895 49.7945C72.7232 51.061 70.4569 51.9942 68.124 52.794C65.791 53.5939 63.4581 54.1271 61.0585 54.5937C58.6589 54.9937 56.2371 55.2825 53.793 55.4603C51.3268 55.6602 48.9272 55.7269 46.4609 55.5936Z" fill="#AB6377"/>
<path d="M31.73 22.1325C34.5739 21.5549 37.4401 20.9327 40.3285 20.2662C43.1947 19.5996 46.0609 18.9997 48.8604 18.2665C50.3269 17.9332 51.7266 17.5333 53.1264 17.2L57.3923 16.0669C58.8143 15.667 60.2363 15.267 61.6583 14.8671C63.0581 14.4672 64.4578 14.0672 65.8576 13.6673C63.1469 14.7338 60.3696 15.7114 57.5256 16.6001C54.7261 17.4667 51.9266 18.1999 49.0604 18.9331C46.1942 19.5996 43.328 20.2662 40.3952 20.7994C37.529 21.3327 34.5962 21.7993 31.73 22.1325Z" fill="#AB6377"/>
</g>
<g style="mix-blend-mode:multiply" opacity="0.5">
<path d="M15.1327 37.3299C16.8657 40.0628 16.1992 32.5974 18.2655 28.4648C20.3318 24.3321 26.4641 26.5318 28.4638 27.1983C30.3968 27.8649 24.6644 19.7329 18.6654 20.5994C12.7331 21.4659 11.6 31.8642 15.1327 37.3299Z" fill="#DEC3CB"/>
</g>
<path d="M83.6538 56.5934C83.6538 56.5934 85.8534 58.9263 88.3864 57.9265C90.8526 56.9266 91.3858 53.9938 91.3858 53.9938C91.3858 53.9938 83.6538 54.1938 83.6538 56.5934Z" fill="url(#paint9_linear_39_3943)"/>
<g style="mix-blend-mode:multiply" opacity="0.5">
<path d="M83.6541 56.5934C83.7207 56.9933 88.4533 56.2601 89.6531 55.4602C90.8529 54.6604 91.3861 53.9938 91.3861 53.9938C91.3861 53.9938 83.3208 54.2604 83.6541 56.5934Z" fill="#AB6377"/>
</g>
<g style="mix-blend-mode:multiply" opacity="0.2">
<path d="M56.1255 60.526C55.3257 60.526 56.3255 63.4589 56.9921 64.9253C57.6586 66.3917 64.7908 65.6585 66.4571 65.1253C68.1902 64.592 60.9914 60.5927 56.1255 60.526Z" fill="#C4919F"/>
</g>
<path d="M65.458 60.4594C65.458 60.4594 70.1239 60.3261 72.5235 59.8595C74.9231 59.3263 77.9892 58.7264 77.9892 58.7264C77.9892 58.7264 70.1239 58.8597 65.458 60.4594Z" fill="#FFBBA1"/>
<path d="M39.3958 48.4614C39.0625 48.3281 39.0625 45.3286 39.0625 45.3286C39.0625 45.3286 40.4623 47.3949 41.1288 48.0615C41.862 48.7947 44.5282 50.1945 44.5282 50.1945L39.3958 48.4614Z" fill="#FFBBA1"/>
<path d="M39.0623 58.2598C39.0623 58.2598 39.7288 55.5269 40.1954 54.927C40.662 54.3271 45.1946 52.5274 45.1946 52.5274C45.1946 52.5274 39.3956 54.3937 39.1956 54.3937C39.0623 54.4604 38.9956 57.7932 39.0623 58.2598Z" fill="#FFBBA1"/>
<path d="M69.1235 16.3335C69.9901 17.4 72.9229 17.4666 73.9894 18.6664C74.9892 19.9329 76.5889 23.5323 76.5889 23.5323C76.5889 23.5323 75.6558 19.4663 73.8561 17.1333C73.8561 17.1333 69.9234 16.9334 69.1235 16.3335Z" fill="#FFC8B3"/>
<path d="M69.2568 15.8002C69.2568 15.8002 69.5901 15.3337 69.5234 14.2672C69.4568 13.2007 66.2573 11.6676 66.2573 11.6676C66.2573 11.6676 69.3901 12.4008 70.9899 14.0005C70.9899 14.0005 69.4568 15.467 69.2568 15.8002Z" fill="#FFC8B3"/>
<g style="mix-blend-mode:soft-light">
<path d="M14.1324 24.5988C14.1324 24.5988 12.9993 31.1976 16.932 37.9965C20.8646 44.862 25.1972 44.6621 25.1972 44.6621C25.1972 44.6621 19.9315 46.8617 15.7322 39.9962C11.4662 33.1307 13.5325 25.8652 14.1324 24.5988Z" fill="#369FFF"/>
</g>
<defs>
<linearGradient id="paint0_linear_39_3943" x1="40.2505" y1="41.7485" x2="35.5073" y2="17.4506" gradientUnits="userSpaceOnUse">
<stop stop-color="#9D4643"/>
<stop offset="1" stop-color="#AB234D"/>
</linearGradient>
<linearGradient id="paint1_linear_39_3943" x1="4.49812" y1="58.1711" x2="-2.14587" y2="24.1382" gradientUnits="userSpaceOnUse">
<stop stop-color="#B3524F"/>
<stop offset="1" stop-color="#C25A66"/>
</linearGradient>
<linearGradient id="paint2_linear_39_3943" x1="39.9908" y1="69.7179" x2="36.9348" y2="54.0625" gradientUnits="userSpaceOnUse">
<stop stop-color="#B3524F"/>
<stop offset="1" stop-color="#C25A66"/>
</linearGradient>
<linearGradient id="paint3_linear_39_3943" x1="54.2979" y1="59.2549" x2="97.3669" y2="50.8487" gradientUnits="userSpaceOnUse">
<stop stop-color="#D57B66"/>
<stop offset="1" stop-color="#ED8466"/>
</linearGradient>
<linearGradient id="paint4_linear_39_3943" x1="45.3884" y1="65.1233" x2="35.6951" y2="15.469" gradientUnits="userSpaceOnUse">
<stop stop-color="#E39C7C"/>
<stop offset="1" stop-color="#F0B896"/>
</linearGradient>
<linearGradient id="paint5_linear_39_3943" x1="40.2542" y1="54.2091" x2="39.1258" y2="48.4281" gradientUnits="userSpaceOnUse">
<stop stop-color="#BF6F6A"/>
<stop offset="1" stop-color="#DE777F"/>
</linearGradient>
<linearGradient id="paint6_linear_39_3943" x1="31.7514" y1="33.0533" x2="30.7027" y2="27.6816" gradientUnits="userSpaceOnUse">
<stop stop-color="#DE7C78"/>
<stop offset="1" stop-color="#BF634F"/>
</linearGradient>
<linearGradient id="paint7_linear_39_3943" x1="51.6821" y1="33.0887" x2="49.3183" y2="20.9801" gradientUnits="userSpaceOnUse">
<stop stop-color="#87251F"/>
<stop offset="0.994" stop-color="#AC251D"/>
</linearGradient>
<linearGradient id="paint8_linear_39_3943" x1="65.2699" y1="30.6404" x2="62.9061" y2="18.5318" gradientUnits="userSpaceOnUse">
<stop stop-color="#87251F"/>
<stop offset="0.994" stop-color="#AC251D"/>
</linearGradient>
<linearGradient id="paint9_linear_39_3943" x1="83.3692" y1="55.1983" x2="91.3299" y2="53.6446" gradientUnits="userSpaceOnUse">
<stop stop-color="#DE7C78"/>
<stop offset="1" stop-color="#BF634F"/>
</linearGradient>
</defs>
</svg>
