<svg width="110" height="80" viewBox="0 0 110 80" fill="none" xmlns="http://www.w3.org/2000/svg">
<path d="M54.6363 11.12C65.5963 11.12 81.7563 14.8 81.7563 40.16C81.7563 65.04 59.0363 68.32 42.6363 68.32C37.7563 68.32 33.5163 68 30.4763 67.92C29.8363 63.92 30.1563 53.52 31.5163 48.48C37.2763 48.48 43.5963 49.2 48.8763 49.2C55.6763 49.2 60.7963 48 60.7963 42.4C59.0363 42.96 52.6363 44.48 45.8363 44.48C36.4763 44.48 26.2363 41.52 26.2363 29.2C26.2363 16.32 41.2763 11.12 54.6363 11.12ZM60.7163 34.64V30.32C60.7163 28.4 57.9163 27.44 54.7963 27.44C50.5563 27.44 45.5963 29.2 45.5963 32.88C45.5963 35.44 48.7163 36.32 52.2363 36.32C55.4363 36.32 58.9563 35.6 60.7163 34.64Z" fill="white"/>
</svg>
