<svg width="110" height="80" viewBox="0 0 110 80" fill="none" xmlns="http://www.w3.org/2000/svg">
<path d="M32.0206 40.4568C32.0206 40.4568 24.9721 42.056 21.4182 45.4322C17.9235 48.7492 19.8189 55.5608 22.3659 59.6478C24.9128 63.7348 28.9406 64.4455 32.1391 63.3201C35.3968 62.1947 40.4315 57.7524 40.4315 57.7524L32.0206 40.4568Z" fill="#68B3DB"/>
<path d="M32.0203 40.4568C29.118 41.1676 23.1356 44.1291 21.7732 46.8538C18.634 53.0139 22.8394 63.1424 29.4733 63.6755C31.6649 63.9125 38.0027 61.5432 39.1281 61.0693C40.3127 60.5955 32.0203 40.4568 32.0203 40.4568Z" fill="url(#paint0_linear_39_4889)"/>
<path d="M31.5473 40.6345C24.8541 43.7738 29.0003 62.4317 38.6551 61.1286C48.0137 59.8255 40.3136 36.5475 31.5473 40.6345Z" fill="url(#paint1_linear_39_4889)"/>
<path d="M32.6722 43.8922C28.2891 47.6831 32.1984 57.4563 37.7069 58.5817C41.7939 59.3517 59.741 53.9616 60.3926 53.0139C60.9849 52.1254 55.2394 34.1783 53.9364 33.349C52.6333 32.5198 36.9961 40.1607 32.6722 43.8922Z" fill="url(#paint2_linear_39_4889)"/>
<path d="M43.8669 31.5721C40.7869 32.2236 34.3899 35.5998 33.146 39.0945C30.2437 47.1499 35.8707 61.0101 43.2746 62.4317C45.7623 62.9055 52.5147 60.2993 53.7586 59.8255C55.0024 59.2924 43.8669 31.5721 43.8669 31.5721Z" fill="url(#paint3_linear_39_4889)"/>
<path d="M43.3933 31.809C36.2855 35.3037 42.6233 60.6548 53.2257 59.8255C63.532 59.0555 52.7519 27.1297 43.3933 31.809Z" fill="url(#paint4_linear_39_4889)"/>
<path d="M77.9249 52.1846C77.2733 53.3692 55.4761 57.9893 52.3961 56.7454C50.323 55.9162 48.4276 53.9023 47.006 51.3554C46.9271 51.1579 46.8283 50.9605 46.7099 50.7631C45.3476 48.1569 44.4591 45.1361 44.1629 42.293C44.1629 42.1745 44.1629 42.0758 44.1629 41.9968C43.926 39.3906 44.2814 36.9621 45.3476 35.2444C46.7691 32.9936 67.2632 22.9835 68.8032 24.2866C70.4025 25.5897 78.5172 51 77.9249 52.1846Z" fill="url(#paint5_linear_39_4889)"/>
<path d="M48.6651 50.8816C48.1123 51.0395 47.5594 51.1975 47.0066 51.3554C46.9276 51.158 46.8289 50.9605 46.7104 50.7631C47.5002 50.6446 48.2702 50.5064 49.0205 50.3485C56.3652 48.9269 65.2499 45.0176 66.6122 45.2546C68.0338 45.4323 58.0829 48.0977 48.6651 50.8816Z" fill="url(#paint6_linear_39_4889)"/>
<path d="M62.821 33.8229C62.821 33.8229 50.8562 39.3906 44.6369 42.0561C44.479 42.135 44.321 42.214 44.1631 42.293C44.1631 42.1745 44.1631 42.0758 44.1631 41.9968C45.7623 41.1676 47.2431 40.3976 48.487 39.6868C54.884 36.1329 62.821 33.8229 62.821 33.8229Z" fill="url(#paint7_linear_39_4889)"/>
<path d="M76.267 16.1719C71.1139 16.5273 58.9122 22.3319 56.306 27.3074C51.3898 36.8437 57.9053 54.7316 67.2639 56.7455C71.9432 57.8116 85.0333 53.1323 86.5141 52.4808C88.0541 51.8885 76.267 16.1719 76.267 16.1719Z" fill="url(#paint8_linear_39_4889)"/>
<path d="M75.5559 16.4088C66.6712 20.1996 72.8313 52.6585 85.7438 52.5993C98.3601 52.54 87.2838 11.4926 75.5559 16.4088Z" fill="url(#paint9_linear_39_4889)"/>
<path d="M77.8067 23.4573C72.4166 25.8266 76.1482 45.5507 84.026 45.4914C93.4438 45.4322 85.6253 20.0219 77.8067 23.4573Z" fill="url(#paint10_linear_39_4889)"/>
<path d="M77.3329 24.8197C72.6536 26.8336 76.089 44.7215 82.9006 44.7215C91.963 44.603 83.4337 22.1543 77.3329 24.8197Z" fill="url(#paint11_linear_39_4889)"/>
<path d="M71.1728 22.1543C70.7582 22.0358 69.8105 23.9905 70.1066 25.7082C70.4028 27.3667 71.3505 28.2551 71.5874 28.1959C71.7651 28.1367 73.8975 22.8058 71.1728 22.1543Z" fill="#2C1C46"/>
<g style="mix-blend-mode:multiply">
<path d="M71.1729 22.1543C70.5805 22.3912 69.929 23.8128 70.4621 25.1751C70.9359 26.5966 72.0021 25.4712 72.3575 24.2866C72.7129 23.0427 71.5282 21.9766 71.1729 22.1543Z" fill="#AB6377"/>
</g>
<path d="M70.106 25.7082C70.1652 25.1751 71.7644 26.7151 71.8829 27.0705C71.9421 27.3667 71.5868 28.1367 71.4683 28.1959C71.3498 28.2551 70.0467 26.8928 70.106 25.7082Z" fill="#442C4E"/>
<path d="M70.8174 27.5443C70.8174 27.4851 71.4689 27.9589 71.5282 28.0182C71.5874 28.0774 71.5874 28.1959 71.5874 28.1959C71.5874 28.1959 71.5282 28.2551 71.2912 28.0774C71.0543 27.8997 70.8174 27.5443 70.8174 27.5443Z" fill="#65637D"/>
<g style="mix-blend-mode:soft-light" opacity="0.3">
<path d="M77.5701 41.1084C78.7547 43.1222 75.9116 43.1815 75.2008 42.6484C74.4901 42.1745 71.5285 30.8613 71.7654 29.6174C72.0023 28.3144 73.0685 27.189 73.0093 25.0566C72.8908 22.9835 72.417 23.0428 72.7723 20.9696C73.0685 18.8373 75.7339 15.0465 78.9916 16.2311C82.3086 17.4158 87.1064 24.4643 89.1795 30.5652C91.1933 36.666 89.9495 40.516 89.5941 40.6937C89.1795 40.9307 88.7649 34.119 85.211 28.9067C81.5978 23.6943 79.9394 21.9766 77.0962 23.6943C74.2531 25.412 73.4831 34.0006 77.5701 41.1084Z" fill="#C5CFEA"/>
</g>
<g style="mix-blend-mode:multiply" opacity="0.2">
<path d="M84.3223 52.4808C82.7823 52.1846 84.2038 47.5054 85.9808 45.8469C87.8169 44.1884 88.587 42.2338 88.7054 40.9899C88.8239 39.8053 90.2454 43.5368 90.6008 46.7353C91.0154 49.9339 88.2908 53.1916 84.3223 52.4808Z" fill="#904F98"/>
</g>
<g style="mix-blend-mode:multiply" opacity="0.2">
<path d="M67.9147 56.3901C65.3677 56.2124 59.2669 53.4285 58.2007 48.0385C57.7861 46.0246 72.1201 41.4638 72.8901 41.5822C73.7194 41.7007 76.9771 48.0385 79.5241 49.8746C82.0118 51.6516 84.3218 52.4808 84.3218 52.4808C84.3218 52.4808 73.5417 56.6863 67.9147 56.3901Z" fill="#904F98"/>
</g>
<g style="mix-blend-mode:soft-light" opacity="0.3">
<path d="M57.2531 46.3207C57.3715 47.0907 70.9355 40.8714 71.5871 39.8053C72.2386 38.6799 70.8171 28.6697 70.7578 28.0182C70.6986 27.3667 61.9324 29.1436 58.6154 31.3944C55.2984 33.7044 55.0023 42.293 57.2531 46.3207Z" fill="#C5CFEA"/>
</g>
<g style="mix-blend-mode:soft-light" opacity="0.3">
<path d="M55.1208 32.1644C55.18 32.6974 68.6848 26.952 69.0994 26.3597C69.5141 25.7674 70.4025 20.3773 70.5802 19.785C70.8172 19.1334 72.6533 17.4157 72.4756 17.238C72.2979 17.0603 63.8871 21.2658 60.5701 23.2796C57.2531 25.3527 55.0616 30.802 55.1208 32.1644Z" fill="#C5CFEA"/>
</g>
<g style="mix-blend-mode:soft-light" opacity="0.3">
<path d="M41.7346 47.7422C42.0307 49.5192 44.1631 50.8815 44.9923 51C45.8215 51.1184 43.2154 46.143 43.5115 40.4568C43.8669 34.7705 48.4277 32.4013 48.4277 32.4013C48.4277 32.4013 45.2885 30.2097 42.09 33.4082C38.8322 36.6067 41.4977 46.2022 41.7346 47.7422Z" fill="#C5CFEA"/>
</g>
<g style="mix-blend-mode:soft-light" opacity="0.3">
<path d="M28.6441 51.3554C29.4141 54.317 32.4349 56.1532 32.8495 56.2716C33.2642 56.3309 29.888 50.7039 30.9541 47.0315C31.9611 43.2999 32.7311 40.9307 32.7311 40.9307C32.7311 40.9307 26.8079 43.833 28.6441 51.3554Z" fill="#C5CFEA"/>
</g>
<g style="mix-blend-mode:multiply" opacity="0.2">
<path d="M41.2607 60.9509C39.543 60.3586 37.0553 58.1078 36.4037 56.5678C35.693 55.0277 41.7938 51.9477 42.1492 51.5923C42.4454 51.2369 47.4208 58.167 48.7239 59.1147C50.0862 60.1216 43.3931 61.7209 41.2607 60.9509Z" fill="#904F98"/>
</g>
<g style="mix-blend-mode:multiply" opacity="0.2">
<path d="M28.763 63.6163C27.1637 63.7348 25.3868 62.4317 24.2021 60.8917C23.0175 59.3516 28.6445 56.0347 28.9999 56.0939C29.4145 56.0939 31.2507 59.0555 34.4492 60.3586C37.6477 61.6024 30.1845 63.4386 28.763 63.6163Z" fill="#904F98"/>
</g>
<g style="mix-blend-mode:soft-light" opacity="0.2">
<path d="M35.9304 55.1462C35.3381 55.3239 32.6135 47.3276 32.495 43.3591C32.3173 39.3314 37.7074 36.2513 39.1289 35.1852C40.5505 34.0598 40.7874 33.8821 41.0244 34.0005C41.2613 34.119 39.6028 36.3698 40.3136 42.1153C41.0244 47.8607 42.209 50.5854 41.9721 51.1185C41.7944 51.5923 35.9304 55.1462 35.9304 55.1462Z" fill="#C5CFEA"/>
</g>
<g style="mix-blend-mode:soft-light" opacity="0.2">
<path d="M22.3659 57.4562C23.0174 58.937 27.4006 56.1531 28.3483 55.4423C29.3552 54.7316 27.9337 50.2892 27.9337 47.7423C27.9337 45.1953 28.526 44.3068 28.2298 43.8922C27.9337 43.4776 23.1359 45.7876 21.892 47.7423C20.589 49.6969 20.4113 53.3692 22.3659 57.4562Z" fill="#C5CFEA"/>
</g>
<g style="mix-blend-mode:multiply">
<path d="M32.3756 43.8922C32.3756 43.8922 31.0725 47.8015 32.5533 53.0731C34.0341 58.3447 36.6995 60.9509 37.4695 61.1878C38.2987 61.3655 39.898 60.8917 39.898 60.8917C39.898 60.8917 33.501 56.3901 32.3756 43.8922Z" fill="#AB6377"/>
</g>
<g style="mix-blend-mode:soft-light" opacity="0.3">
<path d="M46.2959 34.4152C44.9336 35.4221 44.1636 39.5091 45.289 44.3068C46.3551 49.1046 50.5013 45.1361 52.1006 39.3906C53.6406 33.6452 54.7068 30.7428 54.7068 30.7428C54.7068 30.7428 51.449 30.5059 46.2959 34.4152Z" fill="#FFD8BA"/>
</g>
<path d="M80.1167 43.7145C80.1167 43.7145 81.8936 45.4914 84.4998 44.4253C87.0468 43.2999 87.9353 40.516 88.113 40.516C88.2906 40.5752 88.5868 43.2999 86.0991 45.0176C83.6114 46.7353 80.8867 44.5437 80.1167 43.7145Z" fill="#65637D"/>
<g style="mix-blend-mode:multiply">
<path d="M75.0223 32.9936C75.0223 32.9936 74.3707 28.4328 77.1546 26.0043C79.5239 23.9312 83.7886 29.0843 84.7363 30.6244C85.7432 32.1052 86.454 30.5651 86.454 30.5651C86.454 30.5651 82.6632 21.7989 78.6946 23.3389C74.6669 24.8197 75.0223 31.9275 75.0223 32.9936Z" fill="#AB6377"/>
</g>
<path d="M44.2221 54.1392C43.9259 54.3169 44.459 56.39 45.8805 57.4562C47.2429 58.5224 48.546 58.5224 48.6052 58.3447C48.7237 58.167 46.769 52.7769 44.2221 54.1392Z" fill="#2C1C46"/>
<g style="mix-blend-mode:multiply">
<path d="M44.2228 54.1392C43.9858 54.6723 44.4597 56.1531 45.7628 56.8639C47.0659 57.5747 47.1251 56.0346 46.592 54.9092C46.0589 53.7246 44.4005 53.7246 44.2228 54.1392Z" fill="#AB6377"/>
</g>
<path d="M45.8807 57.4562C45.5253 57.0416 47.7761 57.1008 48.0723 57.2785C48.3684 57.4562 48.6054 58.2855 48.5461 58.4039C48.4869 58.5224 46.6507 58.4039 45.8807 57.4562Z" fill="#442C4E"/>
<path d="M47.5991 58.3447C47.5991 58.2855 48.3691 58.2262 48.4876 58.2262C48.5468 58.2855 48.6061 58.3447 48.6061 58.3447C48.6061 58.3447 48.6653 58.4039 48.3691 58.4632C48.073 58.5224 47.5991 58.3447 47.5991 58.3447Z" fill="#65637D"/>
<path d="M74.0156 40.9307C74.0156 40.9307 75.7926 42.0561 77.2141 44.4253C78.6357 46.7946 78.5172 48.8677 78.5172 48.8677C78.5172 48.8677 76.9772 48.1569 75.4964 45.4323C74.0156 42.7669 74.0156 40.9307 74.0156 40.9307Z" fill="#3C2A51"/>
<path d="M43.3339 51.8293C43.3339 51.8293 41.7346 50.6447 41.0238 48.3346C40.2538 45.9654 40.9054 44.4253 40.9054 44.4253C40.9054 44.4253 43.5708 48.69 43.3339 51.8293Z" fill="#3C2A51"/>
<path d="M31.4871 57.6932C31.4871 57.6932 29.651 56.8047 28.881 55.4424C28.1702 54.08 28.3479 49.5784 28.3479 49.5784C28.3479 49.5784 29.1771 54.6131 31.4871 57.6932Z" fill="#3C2A51"/>
<path d="M28.5851 44.84C28.5851 44.84 28.4666 43.9515 28.6443 43.063C28.822 42.2338 30.3028 41.4638 30.3028 41.4638C30.3028 41.4638 28.9997 44.4846 28.5851 44.84Z" fill="#65637D"/>
<path d="M40.1356 39.746C40.1356 39.746 40.9057 38.3837 40.9649 36.666C41.0833 35.0075 40.9649 34.4744 40.9649 34.4744C40.9649 34.4744 38.6549 35.659 40.1356 39.746Z" fill="#65637D"/>
<g style="mix-blend-mode:multiply">
<path d="M48.7833 32.7567C48.7833 32.7567 46.2363 33.6452 45.0517 37.9691C43.8079 42.2337 44.7556 47.5646 47.8948 52.4808C50.9749 57.397 56.2465 56.8639 56.2465 56.8639C56.2465 56.8639 53.3441 57.4562 51.8633 56.9232C50.3233 56.3901 45.5256 51.7108 44.1632 45.1953C42.8009 38.7391 44.8148 34.889 46.414 33.5267C48.0133 32.1644 48.7833 32.7567 48.7833 32.7567Z" fill="#AB6377"/>
</g>
<g style="mix-blend-mode:multiply">
<path d="M37.233 58.2263C37.233 58.2263 33.2052 57.0416 31.7837 52.0662C30.3029 47.0315 32.376 43.8922 32.376 43.8922L32.2575 43.0038C32.2575 43.0038 28.8221 46.2615 31.3098 52.3031C33.7383 58.404 37.9437 59.1147 37.9437 59.1147L37.233 58.2263Z" fill="#AB6377"/>
</g>
<g style="mix-blend-mode:multiply" opacity="0.3">
<path d="M58.1418 39.5683C58.7342 42.2337 60.1557 44.603 61.3404 43.8922C62.7619 43.0037 64.7165 42.5299 64.0058 40.0421C63.8873 39.6078 63.7491 39.1537 63.5911 38.6798C62.9988 36.5475 62.2288 34.3559 60.215 34.7113C60.215 34.7113 57.7272 34.9482 57.9642 38.0875C58.0036 38.5614 58.0629 39.055 58.1418 39.5683Z" fill="#4F2A6F"/>
</g>
<g style="mix-blend-mode:multiply" opacity="0.5">
<path d="M58.1418 39.5683L58.2603 39.8645C58.2603 39.8645 57.9642 38.2652 58.438 36.9621C58.9711 35.7182 59.8003 34.7705 61.2219 35.5406C62.6434 36.2513 63.5911 38.6798 63.5911 38.6798C62.9988 36.5475 62.2288 34.3559 60.215 34.7113C60.215 34.7113 57.7272 34.9482 57.9642 38.0875C58.0036 38.5614 58.0629 39.055 58.1418 39.5683Z" fill="#4F2A6F"/>
</g>
<g style="mix-blend-mode:multiply" opacity="0.3">
<path d="M34.7454 49.5785C34.9824 51.4147 35.6931 53.0731 36.2855 52.5401C36.937 51.9477 37.8847 51.5924 37.5293 49.9339C37.4898 49.618 37.4306 49.3021 37.3516 48.9862C37.0555 47.4461 36.7001 45.9654 35.6931 46.2023C35.6931 46.2023 34.5085 46.38 34.627 48.5123C34.627 48.8677 34.6665 49.2231 34.7454 49.5785Z" fill="#4F2A6F"/>
</g>
<g style="mix-blend-mode:multiply" opacity="0.5">
<path d="M34.7454 49.5785L34.8047 49.8154C34.8047 49.8154 34.627 48.6308 34.8639 47.7423C35.1008 46.9131 35.5155 46.2615 36.2262 46.7946C36.8778 47.2685 37.3516 48.9862 37.3516 48.9862C37.0555 47.4461 36.7001 45.9654 35.6931 46.2023C35.6931 46.2023 34.5085 46.38 34.627 48.5123C34.627 48.8677 34.6665 49.2231 34.7454 49.5785Z" fill="#4F2A6F"/>
</g>
<g style="mix-blend-mode:multiply" opacity="0.3">
<path d="M66.1973 45.0176C65.8419 45.6692 65.8419 46.7946 66.4934 47.4461C67.3227 48.2753 68.2112 49.46 68.4481 48.69C68.4876 48.5715 68.5468 48.4333 68.6258 48.2753C68.8035 47.683 68.9812 46.913 68.0927 45.7284C68.0927 45.7284 67.0265 44.1884 66.4342 44.7215C66.3157 44.7609 66.2368 44.8597 66.1973 45.0176Z" fill="#4F2A6F"/>
</g>
<g style="mix-blend-mode:multiply" opacity="0.5">
<path d="M66.1974 45.0176L66.1382 45.1361C66.1382 45.1361 66.3751 44.7215 66.9082 44.8992C67.382 45.0768 67.9151 45.4915 68.3297 46.4392C68.7444 47.4461 68.6259 48.2753 68.6259 48.2753C68.8036 47.683 68.9813 46.913 68.0928 45.7284C68.0928 45.7284 67.0267 44.1884 66.4343 44.7215C66.3159 44.7609 66.2369 44.8597 66.1974 45.0176Z" fill="#4F2A6F"/>
</g>
<g style="mix-blend-mode:multiply" opacity="0.5">
<path d="M64.7752 37.5544C64.4198 37.7321 65.3083 41.0491 65.5452 41.3453C65.7229 41.6414 67.3222 40.7529 67.6183 39.9237C67.9737 39.0945 67.5591 36.8437 67.3222 36.7252C67.0853 36.666 65.1899 37.3175 64.7752 37.5544Z" fill="#C195C5"/>
</g>
<g style="mix-blend-mode:multiply" opacity="0.5">
<path d="M21.8333 57.1601C21.8333 57.1601 23.9656 56.8047 24.4395 54.4946C24.9133 52.1254 24.2026 49.6377 23.9064 49.46C23.6102 49.223 23.1956 51 22.5441 50.7631C21.8925 50.5261 21.5371 48.3346 21.5964 48.2753C21.5964 48.2161 21.1818 48.2161 21.1818 48.2161C21.1818 48.2161 19.5233 51.7108 21.8333 57.1601Z" fill="#C195C5"/>
</g>
<g style="mix-blend-mode:multiply" opacity="0.5">
<path d="M24.498 48.4531C24.4387 49.2231 25.3272 48.4531 25.268 47.8015C25.268 47.2092 24.5572 47.7423 24.498 48.4531Z" fill="#C195C5"/>
</g>
<path d="M72.5352 36.2514C72.5352 36.2514 74.3713 40.3383 75.2006 41.286C76.0298 42.1745 77.9252 44.4253 78.5768 46.3799C79.2283 48.3346 79.8799 49.9338 80.6499 50.6446C81.3607 51.2962 82.6045 51.8885 82.6045 51.8885C82.6045 51.8885 80.7091 51.5923 78.5175 48.8677C78.5175 48.8677 78.4583 47.3869 77.2737 44.8399C76.089 42.293 73.9567 40.753 73.9567 40.753C73.9567 40.753 72.9498 37.9691 72.5352 36.2514Z" fill="#625373"/>
<path d="M43.3335 51.8293C43.3335 51.8293 44.1035 52.777 44.8735 53.2508C45.6435 53.6655 47.0058 53.9616 48.1312 55.6793C49.2566 57.397 50.2044 58.9963 51.5667 59.5294C52.929 60.0032 53.9359 59.7663 53.9359 59.7663C53.9359 59.7663 50.7967 60.714 48.5459 58.404C48.5459 58.404 48.5459 57.1601 47.302 55.4424C46.0581 53.7839 44.5181 53.9616 44.5181 53.9616C44.5181 53.9616 43.5704 52.3031 43.3335 51.8293Z" fill="#625373"/>
<path d="M42.6825 48.0977C42.6825 48.0977 41.9718 46.3207 41.261 44.3068C40.5502 42.3522 40.3725 39.2129 40.3725 39.2129C40.3725 39.2129 39.9579 41.7599 40.8464 44.5438C40.8464 44.5438 41.9718 46.2615 42.6825 48.0977Z" fill="#8A7E95"/>
<path d="M71.6465 31.4536C71.6465 31.4536 71.7057 29.1435 72.2388 28.0774C72.7126 27.0704 73.3049 26.2412 73.1272 24.4643C72.9496 22.6281 72.0611 22.0358 72.1203 21.4434C72.1795 20.8511 72.4757 20.1403 72.4757 20.1403C72.4757 20.1403 71.4688 21.5619 71.4095 21.8581C71.3503 22.1542 72.0018 22.2135 72.4165 23.5758C72.8903 24.8789 71.8242 27.8404 71.5872 28.1958C71.3503 28.6105 71.6465 31.4536 71.6465 31.4536Z" fill="#7C6F89"/>
<path d="M28.9404 52.0662C28.9404 52.0662 28.2889 49.6969 28.5258 47.6831C28.7627 45.6692 29.6512 42.9446 29.6512 42.9446C29.6512 42.9446 28.822 44.4846 28.585 44.84C28.2889 45.1954 28.1704 47.8015 28.2297 48.8677C28.3481 49.8746 28.9404 52.0662 28.9404 52.0662Z" fill="#8A7E95"/>
<path d="M30.5991 56.3309C30.5991 56.3309 31.1322 57.3378 32.7907 58.5224C34.4492 59.7071 36.1669 61.0102 36.1669 61.0102C36.1669 61.0102 32.2576 60.5955 30.5991 56.3309Z" fill="#625373"/>
<g style="mix-blend-mode:soft-light" opacity="0.5">
<path d="M65.4271 22.8058C64.1833 25.1158 66.6118 24.7604 67.6779 22.8058C68.7441 20.7919 65.9602 21.8581 65.4271 22.8058Z" fill="#C5CFEA"/>
<path d="M63.6503 22.5096C61.8733 25.4712 64.8349 22.9835 65.368 21.6804C65.8419 20.3773 64.1241 21.6804 63.6503 22.5096Z" fill="#C5CFEA"/>
<path d="M34.6855 40.0422C32.257 43.7145 36.5216 42.8853 37.4694 40.3383C38.4763 37.7914 35.6332 38.5614 34.6855 40.0422Z" fill="#C5CFEA"/>
<path d="M37.9436 42.7668C37.0552 44.4845 38.8321 43.2406 38.9506 42.8852C39.0098 42.5891 38.1806 42.3522 37.9436 42.7668Z" fill="#C5CFEA"/>
<path d="M26.9855 60.6548C25.1493 61.8394 28.7032 63.1425 30.954 62.254C33.2048 61.3063 29.8879 58.7001 26.9855 60.6548Z" fill="#C5CFEA"/>
</g>
<path d="M47.125 51.3554C47.125 51.3554 48.665 51.5331 49.7312 51.1777C50.7973 50.8816 54.4697 49.2231 54.4697 49.2231C54.4697 49.2231 47.6581 51.3554 47.125 51.3554Z" fill="#91432C"/>
<path d="M44.5186 42.1745C44.5186 42.1745 47.5394 40.8714 50.0271 39.9237C52.4556 38.9168 53.9364 38.0283 53.9364 38.0283C53.9364 38.0283 47.8948 40.4568 44.5186 42.1745Z" fill="#91432C"/>
<g style="mix-blend-mode:multiply">
<path d="M55.6542 28.8474C55.6542 28.8474 51.8042 36.5475 51.8042 42.4707C51.8042 52.4216 54.825 54.6724 57.1943 55.9755C59.5635 57.2786 64.4797 55.6793 64.4797 55.6793C64.4797 55.6793 51.508 45.373 55.6542 28.8474Z" fill="#AB6377"/>
</g>
<g style="mix-blend-mode:multiply" opacity="0.4">
<path d="M75.9708 28.1367C74.9047 29.8544 75.6154 34.6521 76.8593 37.1991C78.1624 39.746 83.8486 40.1607 85.2702 39.5091C86.6325 38.7983 85.4479 31.5721 82.6047 28.0774C79.7024 24.5828 77.0962 26.3597 75.9708 28.1367Z" fill="#904F98"/>
</g>
<path d="M81.4193 28.4328C80.5308 28.4328 81.597 30.8613 82.7224 31.2759C83.907 31.6905 83.137 28.492 81.4193 28.4328Z" fill="#C5CFEA"/>
<g style="mix-blend-mode:soft-light">
<path d="M77.0959 35.1852C76.5036 35.126 76.9775 36.8437 77.6882 37.1991C78.399 37.5545 78.2213 35.4221 77.0959 35.1852Z" fill="#C5CFEA"/>
</g>
<g style="mix-blend-mode:soft-light" opacity="0.3">
<path d="M79.1095 42.3522C77.8064 38.9168 84.1441 39.746 85.6249 40.2199C87.1057 40.753 86.2172 43.833 83.7887 44.3069C81.3602 44.84 79.1095 42.3522 79.1095 42.3522Z" fill="#C5CFEA"/>
</g>
<path d="M84.7368 27.3074C84.7368 27.3074 85.6845 27.3667 86.9876 29.499C88.2907 31.6906 87.6984 34.4152 87.6984 34.4152C87.6984 34.4152 84.9145 30.8021 84.7368 27.3074Z" fill="url(#paint12_linear_39_4889)"/>
<path d="M87.6986 34.4152C87.6986 34.4152 86.9286 33.6452 86.6916 32.9344C86.4547 32.1644 87.6986 31.2167 87.6986 31.2167C87.6986 31.2167 88.2316 32.6975 87.6986 34.4152Z" fill="#363457"/>
<path d="M58.0236 25.1158C58.0236 25.1158 55.299 26.952 54.4105 30.7428C53.5812 34.5336 54.7659 41.2268 56.3059 43.9514C56.3059 43.9514 51.5674 32.579 58.0236 25.1158Z" fill="#68B3DB"/>
<path d="M32.7912 47.2684C32.7912 47.2684 31.6658 42.6483 32.7912 39.3906C34.272 35.0667 39.3067 33.4082 39.3067 33.4082C39.3067 33.4082 34.8643 36.1329 33.502 38.5021C31.725 41.6414 32.7912 47.2684 32.7912 47.2684Z" fill="#68B3DB"/>
<path d="M60.452 32.1644C59.8596 31.8682 65.6051 33.1713 66.1382 33.2898C66.7305 33.4082 61.5181 32.7567 60.452 32.1644Z" fill="#2C1C46"/>
<path d="M63.8282 30.2097C63.1174 30.2097 67.6782 31.809 70.2844 32.4013C72.8314 33.0528 72.239 32.4013 72.239 32.4013C72.239 32.4013 70.4621 30.2097 63.8282 30.2097Z" fill="#2C1C46"/>
<path d="M60.4521 32.1644C60.4521 32.1644 61.2222 32.7567 62.466 32.9344C63.7691 33.0528 65.3684 33.2305 65.3684 33.2305C65.3684 33.2305 62.1699 32.8159 60.4521 32.1644Z" fill="#5C4C6D"/>
<path d="M64.124 30.4466C64.124 30.4466 65.6048 31.2759 67.7371 32.0459C69.8695 32.7567 71.8241 32.6974 71.8241 32.6974C71.8241 32.6974 67.3818 30.802 64.124 30.4466Z" fill="#5C4C6D"/>
<path d="M68.0333 32.1052C67.6779 31.809 69.4549 31.809 70.1064 32.0459C70.758 32.2828 71.2911 32.6382 71.2911 32.6382C71.2911 32.6382 69.0995 32.4605 68.0333 32.1052Z" fill="#7C6F89"/>
<path d="M62.2285 32.8751C62.2285 32.8751 62.7024 32.7567 63.2354 32.8751C63.7685 32.9936 64.3016 33.1121 64.3016 33.1121C64.3016 33.1121 62.7616 32.9936 62.2285 32.8751Z" fill="#7C6F89"/>
<g style="mix-blend-mode:soft-light">
<path d="M25.2682 61.8986C25.2682 61.8986 21.5959 56.8047 21.6551 51.8292C21.7736 46.8538 23.4321 44.8991 23.4321 44.8991C23.4321 44.8991 21.0628 45.8468 20.6482 50.3484C20.1743 54.7908 22.129 59.0555 25.2682 61.8986Z" fill="#81CEFF"/>
</g>
<g style="mix-blend-mode:soft-light" opacity="0.5">
<path d="M56.8384 45.4915C56.8384 45.4915 61.9323 50.7631 67.9147 53.1916C73.8378 55.6793 78.3986 55.1462 78.3986 55.1462C78.3986 55.1462 71.3501 57.5155 67.2631 56.7455C63.1762 56.0347 59.3261 50.5261 56.8384 45.4915Z" fill="#81CEFF"/>
</g>
<g style="mix-blend-mode:soft-light" opacity="0.5">
<path d="M36.1079 55.857C36.1079 55.857 39.0103 59.3516 42.2088 60.8324C45.4665 62.3132 49.7312 61.247 49.7312 61.247C49.7312 61.247 45.1111 62.6094 43.2749 62.4317C41.498 62.1948 37.9441 60.1217 36.1079 55.857Z" fill="#81CEFF"/>
</g>
<defs>
<linearGradient id="paint0_linear_39_4889" x1="9.49397" y1="73.7182" x2="0.324698" y2="48.4855" gradientUnits="userSpaceOnUse">
<stop stop-color="#2A1036"/>
<stop offset="0.597" stop-color="#3D3252"/>
<stop offset="1" stop-color="#656883"/>
</linearGradient>
<linearGradient id="paint1_linear_39_4889" x1="11.5596" y1="70.7081" x2="4.56033" y2="49.8503" gradientUnits="userSpaceOnUse">
<stop stop-color="#543E55"/>
<stop offset="1" stop-color="#686383"/>
</linearGradient>
<linearGradient id="paint2_linear_39_4889" x1="35.0166" y1="62.6894" x2="27.2073" y2="42.3938" gradientUnits="userSpaceOnUse">
<stop stop-color="#531047"/>
<stop offset="1" stop-color="#933B27"/>
</linearGradient>
<linearGradient id="paint3_linear_39_4889" x1="22.0757" y1="73.9261" x2="9.49173" y2="39.3004" gradientUnits="userSpaceOnUse">
<stop stop-color="#2A1036"/>
<stop offset="0.597" stop-color="#3D3252"/>
<stop offset="1" stop-color="#656883"/>
</linearGradient>
<linearGradient id="paint4_linear_39_4889" x1="23.8943" y1="70.0246" x2="14.2655" y2="41.3352" gradientUnits="userSpaceOnUse">
<stop stop-color="#543E55"/>
<stop offset="1" stop-color="#686383"/>
</linearGradient>
<linearGradient id="paint5_linear_39_4889" x1="50.5386" y1="62.2546" x2="40.1519" y2="33.356" gradientUnits="userSpaceOnUse">
<stop stop-color="#531047"/>
<stop offset="1" stop-color="#933B27"/>
</linearGradient>
<linearGradient id="paint6_linear_39_4889" x1="46.4522" y1="50.0239" x2="66.704" y2="45.1139" gradientUnits="userSpaceOnUse">
<stop stop-color="#701F1E"/>
<stop offset="0.994" stop-color="#430822"/>
</linearGradient>
<linearGradient id="paint7_linear_39_4889" x1="43.4878" y1="40.2513" x2="62.7901" y2="33.7739" gradientUnits="userSpaceOnUse">
<stop stop-color="#701F1E"/>
<stop offset="0.994" stop-color="#430822"/>
</linearGradient>
<linearGradient id="paint8_linear_39_4889" x1="54.5048" y1="67.4261" x2="38.4942" y2="23.372" gradientUnits="userSpaceOnUse">
<stop stop-color="#2A1036"/>
<stop offset="0.597" stop-color="#3D3252"/>
<stop offset="1" stop-color="#656883"/>
</linearGradient>
<linearGradient id="paint9_linear_39_4889" x1="51.0975" y1="64.9757" x2="38.8477" y2="28.4755" gradientUnits="userSpaceOnUse">
<stop stop-color="#543E55"/>
<stop offset="1" stop-color="#686383"/>
</linearGradient>
<linearGradient id="paint10_linear_39_4889" x1="64.6111" y1="51.3619" x2="58.1088" y2="29.2126" gradientUnits="userSpaceOnUse">
<stop stop-color="#1D2048"/>
<stop offset="0.403" stop-color="#1E1136"/>
<stop offset="1" stop-color="#2A1036"/>
</linearGradient>
<linearGradient id="paint11_linear_39_4889" x1="66.4153" y1="49.72" x2="60.546" y2="29.73" gradientUnits="userSpaceOnUse">
<stop stop-color="#4F66FF"/>
<stop offset="1" stop-color="#003184"/>
</linearGradient>
<linearGradient id="paint12_linear_39_4889" x1="73.2305" y1="39.2449" x2="70.7978" y2="31.9968" gradientUnits="userSpaceOnUse">
<stop stop-color="#1D2048"/>
<stop offset="0.403" stop-color="#1E1136"/>
<stop offset="1" stop-color="#2A1036"/>
</linearGradient>
</defs>
</svg>
