<svg width="177" height="151" viewBox="0 0 177 151" fill="none" xmlns="http://www.w3.org/2000/svg">
<path fill-rule="evenodd" clip-rule="evenodd" d="M142.39 109.43C149.233 107.499 157.407 105.193 166.095 99.9904C191.095 85.0904 167.195 27.4904 142.795 8.19038C124.395 -6.30962 52.9949 0.0903783 31.9949 15.6904C10.2949 31.7904 -2.10511 66.1904 0.294892 82.6904C1.5433 91.1795 10.3972 95.2799 19.5348 99.5116C27.5495 103.223 35.7824 107.036 39.2929 114H129.913C133.165 112.033 137.427 110.83 142.39 109.43ZM127.198 120H40.8528C40.3187 123.157 38.4359 128.488 36.6164 133.64L36.6162 133.641C35.6995 136.237 34.7988 138.787 34.0949 140.99C33.2949 143.59 32.6949 145.69 32.7949 146.79C32.8949 149.49 84.3949 148.49 92.5949 148.09H92.9949C93.5949 148.024 94.1616 147.824 94.6949 147.49C95.5949 146.89 96.3949 145.79 96.9949 144.49C97.0616 144.29 97.1616 144.124 97.2949 143.99C97.8949 142.49 98.3949 140.79 98.8949 139.09C98.9616 138.824 99.0282 138.524 99.0949 138.19C99.1616 138.19 99.1949 138.157 99.1949 138.09C99.3282 137.624 99.4282 137.124 99.4949 136.59C99.6282 136.124 99.7616 135.624 99.8949 135.09C100.095 134.357 100.262 133.657 100.395 132.99C100.595 132.124 100.795 131.29 100.995 130.49C101.062 130.357 101.095 130.257 101.095 130.19C101.228 129.857 101.328 129.557 101.395 129.29C101.895 127.99 102.295 127.19 102.895 126.79C103.595 126.29 104.095 126.99 104.495 128.39C104.562 128.724 104.628 129.09 104.695 129.49C105.062 131.397 105.307 134.017 105.56 136.713L105.56 136.713L105.56 136.713C105.997 141.369 106.455 146.254 107.595 148.09C107.662 148.224 107.728 148.324 107.795 148.39L107.995 148.59C108.262 148.857 108.762 149.09 109.495 149.29C115.895 151.19 137.395 150.19 137.995 148.59C138.095 148.19 137.795 147.09 137.195 145.39C136.127 142.382 134.259 137.796 132.368 133.152L132.367 133.151L132.367 133.151C130.363 128.23 128.331 123.243 127.198 120ZM104.595 23.9903C94.0953 30.3903 95.4953 55.4903 105.295 64.6904C119.295 77.8904 157.895 77.6903 151.595 52.1903C145.495 27.8903 114.995 17.6903 104.595 23.9903ZM73.1944 64.6904C69.3944 70.1904 36.3944 78.4904 25.6944 71.8904C15.1944 65.3904 34.1944 28.4904 59.6944 28.4904C80.8944 28.4904 78.6944 56.8904 73.1944 64.6904ZM90.995 89.9903C88.495 88.2904 86.095 69.2904 87.995 68.8904C91.295 68.1904 108.595 86.8903 105.095 89.2903C101.695 91.6903 93.495 91.7904 90.995 89.9903ZM86.0951 69.2903C86.0951 67.4903 68.7951 82.8903 69.6951 87.8903C70.5951 92.7903 79.795 92.1903 83.795 88.9903C87.2321 86.1701 86.3974 73.8741 86.1508 70.242C86.1176 69.7529 86.0951 69.4208 86.0951 69.2903Z" fill="black"/>
</svg>
