<svg width="110" height="80" viewBox="0 0 110 80" fill="none" xmlns="http://www.w3.org/2000/svg">
<path d="M78.5585 40.72C80.8785 41.68 83.5985 44.48 83.4385 52.64C81.7585 52.64 80.1585 52.64 78.4785 52.88C78.3985 59.12 78.3185 64.64 78.1585 68.08C75.1985 68.48 71.2785 68.64 67.3585 68.64C63.4385 68.64 59.5185 68.48 56.4785 68.08C56.3185 65.2 56.1585 60.96 56.0785 56.08C55.8385 54.64 54.4785 54.16 52.5585 54.16C49.4385 54.16 44.4785 55.44 39.6785 55.44C31.9985 55.44 24.4785 52.24 24.4785 35.92C24.4785 31.2 26.8785 19.44 29.0385 12.8C31.3585 12.56 35.0385 12.4 39.1985 12.4C42.7185 12.4 46.6385 12.56 50.2385 12.8C50.2385 19.2 46.3185 31.36 46.3185 37.6C46.3185 41.2 47.9185 42.24 50.0785 42.24C51.8385 42.24 53.9985 41.52 55.9985 41.12C55.9985 29.84 56.1585 18.48 56.4785 12.72C59.5185 12.32 63.4385 12.16 67.3585 12.16C71.2785 12.16 75.1985 12.32 78.1585 12.72C78.4785 18.24 78.6385 29.52 78.5585 40.72Z" fill="white"/>
</svg>
