<svg width="110" height="80" viewBox="0 0 110 80" fill="none" xmlns="http://www.w3.org/2000/svg">
<path d="M73.626 48.1448C73.626 48.1448 75.1579 45.783 76.0516 44.1872C77.009 42.5914 80.5198 43.6127 81.7326 44.3787C82.9453 45.0809 76.8814 51.9746 76.8814 51.9746L73.626 48.1448Z" fill="#68B3DB"/>
<path d="M27.9872 54.847C27.9872 54.847 26.6468 44.7617 26.8382 42.9744C27.0936 41.1872 28.8808 39.6552 28.8808 39.6552C28.8808 39.6552 28.1149 38.9531 28.1787 37.7403C28.1787 36.4636 29.6468 31.9955 31.6894 29.1869C31.6894 29.1869 28.5617 27.6549 28.434 26.8251C28.3702 25.9953 29.583 24.1442 28.3702 22.8037C27.1574 21.4633 23.9658 24.3357 23.2637 24.4634C22.6254 24.5272 17.9019 21.4633 17.1997 20.2505C15.9869 18.1441 20.6466 14.2504 21.7956 13.4205C22.9445 12.5907 24.0297 13.2929 25.9446 12.5269C27.8595 11.7609 27.7319 9.97366 27.7319 9.97366C27.7319 9.97366 33.6044 6.5906 37.6257 6.84593C39.5407 7.03742 50.3282 21.1441 50.3282 21.1441C50.3282 21.1441 53.9027 13.1014 55.5623 10.8673C57.2219 8.69704 60.9241 5.05865 67.5626 3.01605L69.7329 20.6973L57.5411 30.4635L61.4986 62.5068L49.4345 75.8475C49.4345 75.8475 42.8599 70.741 41.7748 67.6771C40.1152 62.6983 42.2854 59.4429 42.2854 59.4429C42.2854 59.4429 40.3066 55.8045 40.6258 52.7406C40.945 49.6767 42.4131 50.1874 44.5195 50.315C47.2643 50.3789 47.0728 50.698 47.0728 50.698L48.4132 49.2299L49.7537 47.0596C49.7537 47.0596 48.6685 42.3361 48.6685 38.6339C48.6047 35.3147 45.3493 38.5701 45.3493 38.5701L29.6468 54.4002L27.9872 54.847Z" fill="#68B3DB"/>
<path d="M71.584 58.6769C71.584 58.6769 73.0521 48.7192 76.5628 44.8894C80.1374 41.1233 86.2652 47.5703 87.7971 49.5491C91.8823 54.847 90.4142 61.5493 89.9036 62.3791C89.0738 63.6558 85.563 64.9962 82.1161 65.9537C76.6267 67.6133 71.584 58.6769 71.584 58.6769Z" fill="url(#paint0_linear_39_4290)"/>
<path opacity="0.3" d="M80.712 66.1452C82.1163 66.0175 84.9887 59.1876 78.9247 48.6554C78.3502 47.6979 77.3289 46.166 76.6268 45.9107C75.9247 45.7192 72.9884 51.9746 72.4778 54.1449C71.9671 56.379 71.265 58.1663 71.5841 58.6769C71.9033 59.1876 75.9885 66.592 80.712 66.1452Z" fill="#886377"/>
<path d="M76.4358 45.0808C76.1805 45.3362 80.2657 51.9746 80.9678 52.9321C81.7338 53.8896 87.4786 49.8682 87.7978 49.549C88.1807 49.2299 80.9678 40.868 76.4358 45.0808Z" fill="#C26D34"/>
<g style="mix-blend-mode:soft-light">
<path d="M71.584 58.6769C71.584 58.6769 73.6904 55.8045 74.2649 51.9746C74.9032 48.1448 75.9883 45.6553 75.9883 45.6553C75.9883 45.6553 72.6691 49.8682 71.584 58.6769Z" fill="#81CEFF"/>
</g>
<path d="M79.371 50.4427C79.2433 50.5703 81.4774 54.5279 81.4774 54.5279C81.4774 54.5279 83.0732 52.7406 83.2009 52.4214C83.3285 52.1661 79.371 50.4427 79.371 50.4427Z" fill="#CE8455"/>
<g style="mix-blend-mode:multiply" opacity="0.2">
<path d="M83.3928 63.4004C82.4354 62.9536 83.0737 54.5917 83.1375 53.5066C83.2013 52.4214 87.1589 50.8895 87.861 50.7618C88.5632 50.6342 90.0951 58.1663 88.1163 60.9748C86.2014 63.8472 83.3928 63.4004 83.3928 63.4004Z" fill="#C26388"/>
</g>
<g style="mix-blend-mode:multiply" opacity="0.3">
<path d="M77.3922 47.3149C76.1794 46.6766 73.2431 50.7618 74.8389 56.4428C76.4347 62.1876 79.9454 61.8046 80.7752 61.4217C81.5412 61.0387 82.9455 57.4641 80.9667 53.5704C78.9241 49.6767 77.3922 47.3149 77.3922 47.3149Z" fill="#9A4370"/>
</g>
<g style="mix-blend-mode:multiply" opacity="0.3">
<path d="M82.1167 65.9537C82.1167 65.9537 83.521 63.9749 85.6912 62.1876C87.8615 60.4004 89.6488 60.2089 90.0318 60.145C90.4786 60.0812 90.0956 61.6132 89.3935 62.6345C88.6913 63.5919 82.1167 65.9537 82.1167 65.9537Z" fill="#9A4370"/>
</g>
<g style="mix-blend-mode:soft-light" opacity="0.5">
<path d="M81.3498 46.1021C79.4349 46.3575 82.4988 50.4427 84.0308 50.4427C85.4989 50.3788 83.6478 45.8468 81.3498 46.1021Z" fill="#C5CFEA"/>
</g>
<g style="mix-blend-mode:soft-light" opacity="0.5">
<path d="M79.5625 44.5064C78.605 44.8255 80.5199 45.5915 80.9029 45.3362C81.2859 45.017 80.2008 44.251 79.5625 44.5064Z" fill="#C5CFEA"/>
</g>
<path d="M43.3071 70.0389C45.6051 72.8474 47.2008 76.039 48.0306 76.4858C48.8605 76.9327 55.5627 79.8051 67.7545 76.2305C74.6483 74.2517 79.0526 70.358 80.3931 68.5708C81.925 66.4643 80.5846 57.6556 80.0739 56.3151C79.6271 54.9109 43.3071 70.0389 43.3071 70.0389Z" fill="url(#paint1_linear_39_4290)"/>
<path d="M45.2219 70.9964C40.8814 71.124 39.8601 55.3577 52.2434 46.166C66.4139 35.6977 79.5631 53.6342 80.0738 56.3152C80.5844 58.8046 66.5416 70.5495 45.2219 70.9964Z" fill="url(#paint2_linear_39_4290)"/>
<g style="mix-blend-mode:multiply" opacity="0.5">
<path d="M51.478 49.5491C49.4354 51.2725 48.2864 54.4002 48.9886 56.8258C49.6907 59.0599 59.5207 58.1663 65.074 53.1236C71.138 47.6979 59.0101 43.1021 51.478 49.5491Z" fill="#9E4A61"/>
</g>
<g style="mix-blend-mode:multiply" opacity="0.2">
<path d="M49.0526 76.6773C49.0526 76.6773 46.1164 74.1241 45.0951 72.4645C44.01 70.741 55.6272 70.358 59.9678 69.592C64.1806 68.8899 66.3509 75.0177 66.3509 75.0177C66.3509 75.0177 64.4998 70.8687 63.6062 69.1452C62.6487 67.2941 69.734 65.6345 71.0744 66.7835C72.4149 67.8686 73.3723 73.1028 73.3723 73.1028C73.3723 73.1028 63.8615 80.0604 49.0526 76.6773Z" fill="#C26388"/>
</g>
<g style="mix-blend-mode:multiply" opacity="0.2">
<path d="M74.0099 71.5708C74.0099 71.5708 72.6695 65.826 72.7971 65.06C72.861 64.2302 78.6058 59.1876 79.3079 59.1876C79.9462 59.1876 79.3079 66.592 79.0526 67.4856C78.7973 68.3154 74.0099 71.5708 74.0099 71.5708Z" fill="#C26388"/>
</g>
<path d="M46.1794 73.0389C45.5411 71.4432 56.2648 70.0389 59.584 69.6559C64.116 69.0814 65.2012 73.3581 65.2012 73.3581C65.7756 73.7411 63.2224 68.9537 64.3714 68.0601C65.5203 67.1665 69.797 66.1452 70.8183 66.9111C71.7758 67.6133 72.6694 64.6132 74.712 62.8259C76.8185 60.9748 77.7759 59.6982 79.0526 60.0174C80.2653 60.2727 80.0738 56.3152 80.0738 56.3152C80.0738 56.3152 77.0099 61.2302 69.4779 64.8685C62.1373 68.3793 43.4985 70.2304 43.4985 70.2304C43.4985 70.2304 44.456 71.7623 46.1794 73.0389Z" fill="#C4572F"/>
<g style="mix-blend-mode:soft-light" opacity="0.3">
<path d="M53.6481 68.8899C52.8183 69.0176 57.9248 62.5706 65.9037 58.2301C74.3295 53.7619 78.1593 56.1237 78.67 56.8897C79.1806 57.5918 74.4571 66.0175 53.6481 68.8899Z" fill="#FFEABA"/>
</g>
<g style="mix-blend-mode:soft-light">
<path d="M42.6052 68.9537C42.6052 68.9537 42.9244 65.3154 44.201 61.294C45.6053 56.8258 46.9457 51.6555 46.9457 51.6555C46.9457 51.6555 40.3711 59.2514 42.6052 68.9537Z" fill="#81CEFF"/>
</g>
<path d="M48.9884 69.6559C49.1799 69.1452 53.0098 68.3154 54.0949 68.9537C55.1801 69.5282 54.8609 71.9538 52.8183 72.2091C50.7757 72.4644 48.9246 69.975 48.9884 69.6559Z" fill="url(#paint3_linear_39_4290)"/>
<path d="M49.8176 70.8687C49.5623 70.5495 52.8815 70.2942 54.4773 71.124C54.4773 71.124 54.222 72.1453 52.7539 72.2091C51.2858 72.273 49.8176 70.8687 49.8176 70.8687Z" fill="#DD6D2F"/>
<g style="mix-blend-mode:multiply">
<path d="M49.4994 69.3367C49.0526 69.5282 50.9675 70.6134 52.6271 70.6134C54.2867 70.5495 54.2867 69.6559 54.1591 69.2729C53.9676 68.8899 52.308 68.1878 49.4994 69.3367Z" fill="#AB6377"/>
</g>
<path d="M62.457 70.0389C63.606 69.1452 76.6276 63.2089 80.2021 57.0173C80.2021 57.0173 83.1384 56.9535 83.7767 59.8897C83.9682 60.5918 76.7552 66.5282 70.6913 68.8899C64.5635 71.1878 62.457 70.0389 62.457 70.0389Z" fill="url(#paint4_linear_39_4290)"/>
<path d="M83.9682 59.8897C83.9682 59.8897 81.7979 66.2728 81.6064 66.6558C81.4788 67.0388 77.0106 71.5708 71.5849 72.7198C68.4572 73.4219 62.457 70.0389 62.457 70.0389C62.457 70.0389 73.6913 70.2942 83.9682 59.8897Z" fill="url(#paint5_linear_39_4290)"/>
<path d="M64.4355 69.8474C64.4355 69.8474 69.2229 69.3367 69.925 69.5921C70.6272 69.8474 71.9038 68.2516 72.5421 68.0601C73.1804 67.8686 73.9464 70.6133 73.9464 70.6133C73.9464 70.6133 73.4358 68.2516 73.6273 67.8048C73.8826 67.2941 78.6699 65.7622 80.0104 64.5494C81.4147 63.2727 80.3934 67.6133 80.3934 67.6133C80.3934 67.6133 81.0317 63.5919 81.4785 62.8259C81.9891 62.06 83.3296 61.1663 83.3296 61.1663L83.7764 59.8897C83.7764 59.8897 78.2869 64.7409 74.2017 66.9111C70.1804 68.9537 64.4355 69.8474 64.4355 69.8474Z" fill="#C4572F"/>
<path d="M70.1162 68.5069C70.1162 68.5069 71.8397 66.7835 73.6908 65.826C75.6057 64.8047 77.393 64.9324 77.393 64.9324C77.393 64.9324 72.3503 68.4431 70.1162 68.5069Z" fill="#DB672F"/>
<path d="M54.9888 68.6984C54.9888 68.6984 55.1803 68.3793 58.1803 67.4856C61.1804 66.592 61.8187 67.2941 61.8187 67.2941C61.8187 67.2941 60.0953 68.8261 58.2442 69.0176C56.3931 69.2091 54.9888 68.6984 54.9888 68.6984Z" fill="#DB672F"/>
<path d="M76.5635 60.2727C76.5635 60.2727 77.0103 58.8684 77.8401 57.6556C78.6699 56.379 79.8189 56.6981 79.8189 56.6981C79.8189 56.6981 77.8401 60.4642 76.5635 60.2727Z" fill="#DB672F"/>
<g style="mix-blend-mode:soft-light" opacity="0.3">
<path d="M69.8604 65.8898C69.8604 65.8898 74.6477 64.9962 77.7754 63.7196C80.9032 62.3791 82.4351 60.3365 82.4351 60.3365C82.4351 60.3365 82.3713 55.9322 69.8604 65.8898Z" fill="#FFEABA"/>
</g>
<g style="mix-blend-mode:multiply" opacity="0.2">
<path d="M44.6479 64.5494C40.8819 69.7197 50.2012 68.5708 51.5417 64.9324C52.8821 61.3578 47.3288 60.8472 44.6479 64.5494Z" fill="#9E4A61"/>
</g>
<g style="mix-blend-mode:multiply" opacity="0.2">
<path d="M52.4354 62.1238C50.5205 63.7834 54.2227 64.1664 55.0525 62.8898C55.8823 61.677 53.8397 60.9748 52.4354 62.1238Z" fill="#9E4A61"/>
</g>
<g style="mix-blend-mode:multiply" opacity="0.2">
<path d="M52.6271 64.6132C51.7335 65.3154 53.7761 65.1877 54.0314 64.5494C54.2229 63.9111 53.4569 64.0387 52.6271 64.6132Z" fill="#9E4A61"/>
</g>
<g style="mix-blend-mode:multiply" opacity="0.2">
<path d="M68.4561 50.2512C65.3922 52.6768 74.8393 55.4853 76.8819 55.2938C78.8606 55.1023 74.9669 45.017 68.4561 50.2512Z" fill="#9E4A61"/>
</g>
<g style="mix-blend-mode:multiply" opacity="0.2">
<path d="M67.6272 53.5704C66.3506 54.464 68.7124 55.0385 69.606 54.7194C70.4997 54.4002 68.7124 52.8044 67.6272 53.5704Z" fill="#9E4A61"/>
</g>
<path d="M80.7753 18.527C76.6901 20.5058 70.1155 20.1228 68.6473 19.8675C68.5622 19.8675 68.4984 19.8675 68.4558 19.8675C68.8388 20.1228 70.6261 21.5271 71.7751 21.2718C72.9879 21.0165 68.3282 25.5485 64.8175 27.5911C61.2429 29.6975 59.4556 26.7613 59.4556 26.7613C58.8173 26.9528 58.179 26.5698 57.5407 25.8038C55.5619 23.3144 53.9661 17.0589 54.3491 15.5908C54.4342 15.378 54.4768 15.1865 54.4768 15.0163C54.8598 13.4205 54.7321 12.9099 55.1789 12.7184C55.6896 12.5269 56.8385 17.1228 56.8385 17.1228C56.8385 17.1228 56.1364 12.3992 56.5832 11.2503C57.03 10.1651 59.328 6.52676 65.5196 3.84585C70.4984 1.67558 73.307 1.93091 74.7113 2.1224C74.839 2.16495 74.9666 2.20751 75.0943 2.25006C76.1794 2.44156 74.9666 5.82462 74.5836 6.78209C74.5836 6.78209 74.5836 6.80336 74.5836 6.84592C74.5411 6.93102 74.5198 6.99485 74.5198 7.03741C74.7113 6.71825 76.0518 4.42033 78.0305 3.52669C80.2008 2.56922 89.3925 3.90968 92.0096 7.03741C92.7117 7.93105 88.8818 14.5057 80.7753 18.527Z" fill="url(#paint6_linear_39_4290)"/>
<path d="M57.5413 25.8038C57.5413 25.8463 57.52 25.8676 57.4774 25.8676C56.7753 27.3357 54.4774 28.1655 50.456 29.6975C46.4984 31.1656 42.2217 30.3358 43.5622 29.123C44.9027 27.8464 48.9879 22.2931 48.6687 22.4207C48.4134 22.4845 43.9452 27.7825 40.6898 29.5698C39.9877 30.0166 39.2855 30.2081 38.7749 30.1443C37.4344 30.0166 33.03 28.6762 28.6895 26.6974C29.3278 26.0591 30.2215 24.974 30.1576 24.208C30.03 23.059 28.6895 20.059 26.2639 21.0164C25.7533 21.1866 25.3277 21.4207 24.9873 21.7186C23.583 22.676 23.2 23.825 23.2 23.825C20.3276 22.0377 18.3489 20.059 18.668 18.144C18.7106 17.8036 18.8382 17.4419 19.051 17.0589C19.7531 15.6546 21.2851 14.2503 23.2 12.9099C23.2426 12.9099 23.2851 12.9099 23.3277 12.9099C23.9022 13.1652 24.8596 13.3567 26.4554 12.846C29.4555 11.9524 28.2427 10.1651 28.1789 10.0375C28.7746 9.73957 29.3704 9.46297 29.9661 9.20765C30.0087 9.20765 30.03 9.18637 30.03 9.14381C32.9024 7.93102 35.5195 7.10121 36.9238 6.90972C36.9663 6.90972 36.9876 6.90972 36.9876 6.90972C37.0727 6.90972 37.1578 6.88844 37.2429 6.84589C37.2855 6.84589 37.3067 6.84589 37.3067 6.84589C37.5195 6.84589 37.6897 6.86716 37.8174 6.90972C39.2217 7.29271 40.1791 8.31401 40.6898 9.01615C40.5621 8.76083 40.4132 8.5055 40.243 8.25018C39.6047 7.10121 38.9025 5.63309 39.7962 5.50543C39.8387 5.50543 39.8813 5.50543 39.9238 5.50543C41.7749 5.69693 51.6049 9.27148 54.4774 15.0163C54.8603 15.6972 55.0944 16.4206 55.1795 17.1866C59.3285 22.4207 58.2434 24.3995 57.5413 25.8038Z" fill="url(#paint7_linear_39_4290)"/>
<g style="mix-blend-mode:multiply" opacity="0.5">
<path d="M24.9873 21.7186C23.583 22.6761 23.2 23.825 23.2 23.825C20.3276 22.0377 18.3489 20.059 18.668 18.144C18.7106 17.8036 18.8382 17.4419 19.051 17.0589C18.9233 18.144 21.4766 19.8675 24.9873 21.7186Z" fill="#A98636"/>
</g>
<g style="mix-blend-mode:multiply" opacity="0.5">
<path d="M40.6892 29.5698C39.9871 30.0167 39.285 30.2081 38.7743 30.1443C37.4338 30.0167 33.0295 28.6762 28.689 26.6974C29.3273 26.0591 30.2209 24.974 30.1571 24.208C33.5401 25.74 37.0509 27.1443 39.5403 28.1017C40.8169 28.6124 41.0722 29.123 40.6892 29.5698Z" fill="#A98636"/>
</g>
<g style="mix-blend-mode:multiply" opacity="0.7">
<path d="M40.2432 8.25018C39.6049 7.10121 38.9027 5.63309 39.7964 5.50543C39.7964 5.50543 39.8389 5.50543 39.924 5.50543C40.9453 6.01608 45.2859 11.3141 46.1157 12.3354C47.0093 13.4843 42.3496 10.9311 40.2432 8.25018Z" fill="#A98636"/>
</g>
<g style="mix-blend-mode:multiply" opacity="0.7">
<path d="M74.5837 6.78209C74.5837 6.78209 74.5837 6.80337 74.5837 6.84592C73.6901 7.99488 70.2432 10.229 70.2432 10.229C70.2432 10.229 70.4347 8.82469 71.2006 7.48423C71.9666 6.20761 73.4347 2.76072 74.7114 2.12241C74.839 2.16496 74.9667 2.20751 75.0943 2.25007C76.1795 2.44156 74.9667 5.82462 74.5837 6.78209Z" fill="#A98636"/>
</g>
<g style="mix-blend-mode:multiply" opacity="0.5">
<path d="M80.7752 18.527C76.69 20.5058 70.1154 20.1228 68.6473 19.8675C68.4771 19.8249 68.3707 19.8036 68.3281 19.8036C68.6473 19.8675 74.5198 20.6973 78.4135 18.7185C82.4348 16.6759 91.3074 6.97356 92.0095 7.03739C92.7117 7.93103 88.8818 14.5057 80.7752 18.527Z" fill="#A98636"/>
</g>
<g style="mix-blend-mode:multiply" opacity="0.3">
<path d="M57.7325 19.9952C56.3282 18.7185 55.9452 13.1652 59.4559 10.1013C62.9666 7.03741 71.52 5.12247 71.7115 5.56929C71.9668 6.07994 68.9029 11.3779 68.9029 11.3779C68.9029 11.3779 74.3286 6.97358 77.201 5.88844C80.0734 4.73948 84.3501 8.31403 84.6054 10.6758C84.9246 12.9737 81.6692 18.0164 74.1371 20.9526C66.6688 23.9527 59.5197 23.442 57.7325 19.9952Z" fill="#AB6377"/>
</g>
<g style="mix-blend-mode:multiply" opacity="0.5">
<path d="M57.1577 20.059C56.9023 18.2079 56.7108 14.1865 57.5406 12.7184C58.4343 11.1865 65.0727 12.6546 68.3281 17.6972C71.5197 22.7399 61.0514 23.8889 59.1364 23.5697C57.2853 23.2506 57.1577 20.059 57.1577 20.059Z" fill="#AB6377"/>
</g>
<g style="mix-blend-mode:multiply" opacity="0.3">
<path d="M57.2855 19.4207C57.2855 19.4207 54.477 15.0163 49.8173 12.9737C47.5832 12.0162 35.3914 14.5057 33.2211 16.2929C30.987 18.0802 36.285 27.3996 43.3703 27.6549C50.4556 27.8464 57.2855 19.4207 57.2855 19.4207Z" fill="#AB6377"/>
</g>
<path d="M52.8817 54.7832C53.6477 56.8896 62.2011 55.4854 65.3926 52.0385C65.3926 52.0385 63.733 49.2299 62.2011 43.8681C59.8393 35.6338 62.0734 32.3146 62.3287 31.2295C62.5841 30.0805 57.1584 28.3571 53.903 31.2295C50.7114 34.1019 47.2646 39.3999 52.8817 54.7832Z" fill="url(#paint8_linear_39_4290)"/>
<g style="mix-blend-mode:multiply">
<path d="M50.2002 37.7403C50.2002 37.7403 52.4981 40.102 55.945 39.2722C59.3919 38.5062 61.3707 34.5487 61.3707 34.5487L57.5408 30.4635L50.2002 37.7403Z" fill="#AB6377"/>
</g>
<path d="M91.9462 37.8041C91.9462 37.8467 91.9462 37.8679 91.9462 37.8679C92.3292 39.719 89.9674 40.6765 86.5843 41.0595C86.5843 41.0595 84.9886 39.4637 83.6481 41.3148C77.9671 41.5063 71.3287 40.6127 69.7329 39.7829C66.7966 38.1871 65.0732 28.3571 64.8179 28.1017C64.5626 27.8464 65.3285 34.3572 65.8392 36.0807C65.9243 36.3785 65.8817 36.57 65.7115 36.6551C64.9455 37.0381 61.4348 35.187 59.0092 32.2508C56.073 28.7401 54.4134 26.6975 54.541 25.2293C54.6687 24.3357 54.6687 23.1867 56.3283 22.1016C57.2858 21.4633 58.9454 20.825 61.5625 20.3782C66.7328 15.8461 79.8182 18.6547 81.0949 19.6122C82.3077 20.5697 79.1161 23.5059 79.1161 23.5059V23.4421C79.4352 23.3782 81.4778 22.7399 83.6481 23.5697C86.0099 24.3995 90.9887 32.6976 91.9462 37.8041Z" fill="url(#paint9_linear_39_4290)"/>
<g style="mix-blend-mode:multiply" opacity="0.8">
<path d="M59.2645 32.5699C59.2645 32.5699 60.5411 33.0167 61.1794 32.5699C61.8815 32.1231 62.9667 28.3571 62.0092 25.4208C61.1156 22.5484 59.1368 20.8888 59.1368 20.8888L57.541 30.4635L59.2645 32.5699Z" fill="#AB6377"/>
</g>
<g style="mix-blend-mode:multiply" opacity="0.3">
<path d="M58.4984 28.8039C59.9027 32.8891 65.5198 28.74 64.2432 24.6548C62.9666 20.5058 59.9026 20.8249 59.5197 20.8249C59.0728 20.8249 57.7324 26.8251 58.4984 28.8039Z" fill="#AB6377"/>
</g>
<g style="mix-blend-mode:multiply" opacity="0.5">
<path d="M65.7115 36.6552C64.9455 37.0381 61.4348 35.187 59.0092 32.2508C56.073 28.7401 54.4134 26.6975 54.541 25.2294C54.6687 24.3357 54.6687 23.1868 56.3283 22.1016L56.5198 22.1655C54.6687 23.3144 58.3709 29.506 63.0306 34.7402C64.1796 35.953 65.0094 36.336 65.7115 36.6552Z" fill="#A98636"/>
</g>
<g style="mix-blend-mode:multiply" opacity="0.5">
<path d="M91.9462 37.8041C91.9462 37.8466 91.9462 37.8679 91.9462 37.8679C92.3292 39.719 89.9674 40.6765 86.5844 41.0595C86.5844 41.0595 84.9886 39.4637 83.6481 41.3148C77.9671 41.5063 71.3287 40.6127 69.7329 39.7829C66.7967 38.1871 65.0732 28.3571 64.8179 28.1017C64.8179 28.1017 64.4987 26.5698 65.2647 25.8676C65.7115 25.4846 66.4775 29.4422 68.5839 33.2082C70.1159 35.953 72.2862 38.5062 75.6692 39.3999C77.4565 39.8467 79.9459 39.9105 82.3077 39.719C82.3502 39.719 82.3928 39.719 82.4353 39.719C82.7332 39.719 83.0311 39.6977 83.329 39.6552C84.2864 39.5914 85.2439 39.4637 86.1375 39.336C86.3078 39.336 86.478 39.3148 86.6482 39.2722C89.2014 38.8254 91.244 38.2509 91.627 37.8679C91.7121 37.7828 91.8185 37.7615 91.9462 37.8041Z" fill="#A98636"/>
</g>
<path d="M79.1168 23.5059C78.5423 23.6336 74.8401 23.0591 76.2444 22.4846C77.6487 21.9101 81.7977 20.5058 81.0956 19.6122C82.3084 20.5697 79.1168 23.5059 79.1168 23.5059Z" fill="#A98636"/>
<path d="M57.9883 19.7398C57.0946 19.2292 55.7542 19.1654 53.8392 19.8675C52.8179 16.9951 40.6262 20.442 38.0091 22.3569C37.4984 22.6761 37.4984 22.9314 37.7538 23.1229C38.7112 23.7612 44.0731 23.3144 45.605 23.1867C45.7752 23.1867 45.9029 23.1867 45.988 23.1867C45.8603 23.1867 45.6263 23.208 45.2858 23.2506C45.0731 23.2931 44.8603 23.3357 44.6475 23.3782C42.7964 23.7612 39.541 24.4634 36.8601 25.5485C32.9664 27.1443 29.5195 34.2934 28.7535 37.6764C28.711 37.8892 28.711 38.0594 28.7535 38.1871C28.7535 38.3573 28.7748 38.5062 28.8174 38.6339C28.8174 38.6765 28.8387 38.7403 28.8812 38.8254C28.9238 38.8679 28.9663 38.9105 29.0089 38.9531C29.0514 38.9956 29.094 39.0382 29.1365 39.0807C29.2642 39.1658 29.4344 39.2297 29.6472 39.2722C29.7748 39.3148 29.8812 39.336 29.9663 39.336C30.0515 39.336 30.1366 39.336 30.2217 39.336C30.4344 39.336 30.6259 39.336 30.7961 39.336C31.243 39.2722 31.6898 39.1445 32.0728 39.0807C32.2004 39.0382 32.3281 38.9956 32.4558 38.9531C33.2856 38.6977 33.9877 38.4424 34.243 38.3147C34.243 38.3147 34.2218 38.336 34.1792 38.3786C34.0941 38.4211 34.009 38.4637 33.9239 38.5062C33.8388 38.5488 33.7537 38.5701 33.6686 38.5701V38.6339C32.2004 39.2722 29.0089 40.8042 28.3067 41.4425C27.2854 42.2084 27.5408 53.6981 28.1791 55.8045C28.2216 55.9322 28.2855 56.0173 28.3706 56.0598C30.094 56.6981 40.3708 46.6766 44.5837 42.017C48.0944 38.1871 48.9242 33.7827 49.1796 31.9316C49.137 32.0593 49.1157 32.1869 49.1157 32.3146C49.1157 32.4848 49.1157 32.655 49.1157 32.8252C48.9881 34.6764 48.8604 37.5488 48.9242 38.0594L48.9881 38.1871C49.6902 38.5062 56.8393 32.9529 58.6266 28.4847C59.967 25.1655 60.35 20.9526 57.9883 19.7398Z" fill="url(#paint10_linear_39_4290)"/>
<g style="mix-blend-mode:multiply" opacity="0.5">
<path d="M49.0516 30.7826L49.1793 31.7401C49.1793 31.7401 49.1793 31.8039 49.1793 31.9316C48.924 33.7827 48.0941 38.187 44.5834 42.0169C40.3706 46.6766 30.0937 56.6981 28.3703 56.0598C27.9873 54.7832 38.2641 46.1021 42.9876 40.9956C47.5197 36.0806 48.9239 31.1018 49.0516 30.7826Z" fill="#A98636"/>
</g>
<g style="mix-blend-mode:multiply" opacity="0.5">
<path d="M37.2425 37.1019C37.2425 37.1019 35.8382 37.6126 34.1786 38.3786C34.2211 38.336 34.2637 38.3147 34.3063 38.3147C33.7318 38.5701 28.7529 40.6127 28.7529 38.1871C28.8806 37.2296 37.2425 37.1019 37.2425 37.1019Z" fill="#A98636"/>
</g>
<g style="mix-blend-mode:multiply" opacity="0.5">
<path d="M50.3287 21.1441C50.3287 21.1441 47.7754 22.6761 45.6052 23.1867C44.0732 23.3144 38.7114 23.7612 37.7539 23.1229C38.2007 21.6548 44.7753 21.7186 47.1371 21.3995C49.4989 21.0165 50.3287 21.1441 50.3287 21.1441Z" fill="#A98636"/>
</g>
<g style="mix-blend-mode:multiply" opacity="0.5">
<path d="M58.6262 28.4847C56.8389 32.9529 49.6898 38.5062 48.9877 38.1871L48.9238 38.0594C48.9238 38.0594 53.1367 34.2934 55.8176 29.3145C58.4985 24.3357 57.9879 19.7398 57.9879 19.7398C60.3496 20.9526 59.9666 25.1655 58.6262 28.4847Z" fill="#A98636"/>
</g>
<g style="mix-blend-mode:soft-light" opacity="0.3">
<path d="M65.2651 25.8676C65.3928 23.7612 78.925 22.9952 84.4783 28.4847C89.9678 33.9742 89.3934 38.2509 88.6912 38.6339C87.9891 39.0169 70.3078 44.7617 65.2651 25.8676Z" fill="#BFBFBA"/>
</g>
<g style="mix-blend-mode:soft-light" opacity="0.3">
<path d="M30.2852 53.4427C30.2852 53.4427 34.0512 44.3787 38.7109 37.9317C43.3706 31.421 48.6686 30.7188 48.6686 30.7188C48.6686 30.7188 47.3919 36.5913 42.9876 40.9956C38.5832 45.4 30.2852 53.4427 30.2852 53.4427Z" fill="#BFBFBA"/>
</g>
<g style="mix-blend-mode:soft-light" opacity="0.3">
<path d="M49.7535 36.719C48.9237 37.2935 49.1152 32.3146 49.8174 28.6762C50.5834 24.974 53.0728 21.3356 53.9026 20.6335C54.7324 19.8675 57.0941 18.3356 58.0516 20.5058C59.0091 22.7399 56.2643 31.9316 49.7535 36.719Z" fill="#BFBFBA"/>
</g>
<g style="mix-blend-mode:soft-light" opacity="0.3">
<path d="M43.8817 12.3992C43.8817 12.3992 43.0519 12.7184 38.0731 14.2503C33.0304 15.7823 19.0514 17.3142 20.0727 15.9738C20.9663 14.8248 22.1153 13.8035 23.3281 12.9099C23.9025 13.1652 24.86 13.3567 26.4558 12.8461C29.4559 11.9524 28.2431 10.1651 28.1792 10.0375C28.1792 10.0375 28.1154 10.0588 27.9877 10.1013C28.6686 9.76088 29.3282 9.463 29.9665 9.20767C30.0091 9.20767 30.0303 9.1864 30.0303 9.14384C33.2219 7.86722 35.9667 7.10124 36.9241 6.90975C36.9667 6.90975 36.988 6.90975 36.988 6.90975C37.0731 6.86719 37.1582 6.84592 37.2433 6.84592C37.2858 6.84592 37.3071 6.84592 37.3071 6.84592C39.4774 7.03741 43.8817 12.3992 43.8817 12.3992Z" fill="#BFBFBA"/>
</g>
<g style="mix-blend-mode:soft-light" opacity="0.3">
<path d="M56.584 11.2503C56.584 11.2503 59.967 9.33532 65.7757 6.8459C71.5205 4.42032 74.1376 2.37772 74.1376 2.37772C74.1376 2.37772 62.8394 1.35642 56.584 11.2503Z" fill="#BFBFBA"/>
</g>
<g style="mix-blend-mode:multiply" opacity="0.3">
<path d="M29.3918 36.2721C28.7534 38.187 35.7749 37.5487 39.9878 35.0593C44.2644 32.5699 51.0306 23.059 51.0306 23.059C51.0306 23.059 42.158 23.3782 37.0515 25.9953C32.0088 28.6762 29.3918 36.2721 29.3918 36.2721Z" fill="#D8B6BF"/>
</g>
<g style="mix-blend-mode:multiply" opacity="0.3">
<path d="M28.1143 53.5704C28.1143 53.5704 30.7314 51.7831 33.0931 47.3788C35.5187 42.9106 37.7528 37.4211 37.7528 37.4211C37.7528 37.4211 29.9016 40.2935 28.8803 41.4425C27.859 42.6553 28.1143 53.5704 28.1143 53.5704Z" fill="#D8B6BF"/>
</g>
<path d="M49.6899 49.4214C49.7538 50.315 52.1155 54.0172 53.073 55.1024C54.0943 56.1875 57.988 56.0598 61.2434 54.847C64.4988 53.6343 65.3924 52.0385 65.3924 52.0385C65.3924 52.0385 64.435 46.0383 64.2435 45.4639C64.2435 45.4639 62.3924 47.2511 57.8603 48.9746C53.3283 50.6342 49.6899 49.4214 49.6899 49.4214Z" fill="url(#paint11_linear_39_4290)"/>
<path d="M48.9878 39.6552C48.9878 39.6552 49.6899 44.8255 51.0942 48.9746C51.0942 48.9746 53.2645 50.1874 57.222 48.6554C61.2434 47.1235 62.7115 45.783 62.7115 45.783C62.7115 45.783 62.4562 39.8467 62.52 38.1233C62.52 38.1233 60.9242 39.5914 56.5199 40.3574C52.0517 41.1872 48.9878 39.6552 48.9878 39.6552Z" fill="url(#paint12_linear_39_4290)"/>
<path d="M50.8389 48.2086C50.8389 48.2086 49.7537 48.8469 49.6899 49.4214C49.6261 49.9959 52.8176 52.2299 58.3071 50.2512C62.3285 48.7831 64.1158 46.3575 64.2434 45.6553C64.4349 45.017 62.4562 44.6979 62.4562 44.6979L62.7115 45.783C62.7115 45.783 60.9242 47.6341 56.456 48.9107C52.0517 50.1873 51.0942 48.9746 51.0942 48.9746L50.8389 48.2086Z" fill="#9F483B"/>
<path d="M50.0729 38.3786C50.0729 38.3786 49.0516 38.8892 48.9878 39.6552C48.9878 39.9105 51.4772 42.0808 56.0092 41.3148C60.6051 40.5488 62.4562 38.3786 62.52 38.1232C62.6477 37.9317 61.1157 36.6551 61.1157 36.6551L61.1796 37.8041C61.1796 37.8041 57.7965 39.8467 54.9241 40.102C51.9879 40.2935 50.0729 39.336 50.0729 39.336V38.3786Z" fill="#9F483B"/>
<g style="mix-blend-mode:soft-light">
<path d="M49.1157 39.8467C49.1157 39.8467 50.3285 41.3786 51.286 44.3787C52.1796 47.3788 51.0945 48.9746 51.0945 48.9746C51.0945 48.9746 49.3072 43.1659 49.1157 39.8467Z" fill="#81CEFF"/>
</g>
<g style="mix-blend-mode:soft-light">
<path d="M49.6899 49.4214C49.6899 49.4214 49.9453 49.7405 51.6049 51.0171C53.2007 52.2938 53.3922 55.3577 53.3922 55.3577C53.3922 55.3577 53.1368 55.2938 51.6687 53.1874C50.2006 51.1448 49.6899 49.4214 49.6899 49.4214Z" fill="#81CEFF"/>
</g>
<g style="mix-blend-mode:multiply" opacity="0.2">
<path d="M55.4346 55.6769C54.7324 55.4215 52.6898 52.4215 52.4983 51.9108C52.243 51.3363 55.1154 51.081 57.0942 50.698C59.073 50.2512 59.9028 54.7832 59.5198 55.1024C59.073 55.4854 56.775 56.0598 55.4346 55.6769Z" fill="#C26388"/>
</g>
<g style="mix-blend-mode:multiply" opacity="0.2">
<path d="M52.5617 49.3575C52.0511 49.2937 51.0298 42.5914 50.8383 41.8893C50.583 41.251 54.6043 41.6978 56.0724 41.5701C57.5406 41.4425 57.9235 47.2511 57.4129 48.2086C56.9022 49.1022 53.3277 49.549 52.5617 49.3575Z" fill="#C26388"/>
</g>
<g style="mix-blend-mode:soft-light" opacity="0.3">
<path d="M52.3701 41.3148C52.3701 41.3148 53.0723 40.868 57.0298 39.6552C61.0512 38.3786 62.2001 38.5062 62.2001 38.5062C62.2001 38.5062 61.3065 39.9105 57.6681 40.9957C54.0297 42.017 52.3701 41.3148 52.3701 41.3148Z" fill="#FFD8BA"/>
</g>
<g style="mix-blend-mode:soft-light" opacity="0.3">
<path d="M55.3711 50.9533C55.3711 50.9533 56.1371 49.6129 58.1158 48.4639C60.0946 47.2511 62.9032 46.166 62.9032 46.166C62.9032 46.166 64.116 47.1235 60.9244 48.9107C57.7967 50.7619 55.3711 50.9533 55.3711 50.9533Z" fill="#FFD8BA"/>
</g>
<g style="mix-blend-mode:multiply" opacity="0.5">
<path d="M38.3276 23.3144C38.3276 23.3144 39.0298 24.591 39.4128 24.6548C39.7319 24.7187 45.6044 23.1867 45.6044 23.1867C45.6044 23.1867 40.1787 23.7612 38.3276 23.3144Z" fill="#A98636"/>
</g>
<g style="mix-blend-mode:multiply" opacity="0.5">
<path d="M45.987 40.2297C45.221 41.0595 44.5827 39.6552 45.987 37.1658C47.3275 34.6763 48.8594 31.2294 48.8594 31.2294C48.8594 31.2294 48.8594 32.3784 48.9232 33.3359C48.9871 34.3572 46.9445 39.336 45.987 40.2297Z" fill="#A98636"/>
</g>
<g style="mix-blend-mode:multiply" opacity="0.5">
<path d="M30.7958 39.336C30.5404 39.2084 32.4554 37.4211 33.0299 37.2934C33.6682 37.2296 37.2427 37.1019 37.2427 37.1019C37.2427 37.1019 34.5618 38.2509 34.1788 38.3786C33.7958 38.5062 30.9873 39.3999 30.7958 39.336Z" fill="#A98636"/>
</g>
<g style="mix-blend-mode:multiply" opacity="0.5">
<path d="M69.4776 39.5914C70.3075 40.485 69.9883 37.3573 68.7117 34.1019C67.4989 30.8465 65.1371 25.9315 65.1371 25.9315C65.1371 25.9315 64.7541 27.2081 65.0733 28.9954C65.3286 30.7826 67.5627 38.4424 69.4776 39.5914Z" fill="#A98636"/>
</g>
<g style="mix-blend-mode:multiply" opacity="0.5">
<path d="M92.0736 7.73956C92.0736 7.73956 89.3926 8.82469 87.6692 11.3779C85.9457 13.8674 86.0096 15.2078 86.0096 15.2078C86.0096 15.2078 90.4139 11.8248 92.0736 7.73956Z" fill="#A98636"/>
</g>
<path d="M33.605 50.1874C33.605 50.1874 37.1795 46.0383 38.137 44.8894C39.0945 43.8042 42.0945 41.7616 42.0945 41.7616C42.0945 41.7616 35.7114 48.1448 33.605 50.1874Z" fill="#5C9339"/>
<path d="M51.8601 34.9317C51.8601 34.9317 51.4771 34.4848 52.1793 33.1444C52.9452 31.7401 54.7964 31.038 54.7964 31.038C54.7964 31.038 53.1367 33.5912 51.8601 34.9317Z" fill="#5C9339"/>
<path d="M71.0093 36.5275C71.0093 36.5275 79.1797 38.3147 80.6478 39.8467C80.6478 39.8467 74.0093 40.9318 71.0093 36.5275Z" fill="#5C9339"/>
<path d="M70.8822 8.18637C70.8822 8.18637 70.6907 6.33526 71.0098 5.31396C71.3928 4.29266 73.6907 3.07986 73.6907 3.07986C73.6907 3.07986 71.3928 7.61189 70.8822 8.18637Z" fill="#456D29"/>
<g style="mix-blend-mode:soft-light" opacity="0.3">
<path d="M78.2866 4.03735C77.2653 4.35651 84.2868 8.69704 85.6911 9.33535C87.0953 10.0375 90.2869 8.31405 90.9252 7.48424C91.5635 6.59061 84.2868 2.44157 78.2866 4.03735Z" fill="#BFBFBA"/>
</g>
<g style="mix-blend-mode:multiply" opacity="0.3">
<path d="M72.0949 32.7614C73.2438 34.3572 74.9034 35.2509 75.5418 34.0381C76.3716 32.5699 77.6482 31.1018 76.4354 29.7614C76.2226 29.506 76.0099 29.2507 75.7971 28.9954C74.7758 27.7826 73.6268 26.6336 72.2864 28.1018C72.2864 28.1018 70.5629 29.6975 71.5842 31.804C71.7119 32.1444 71.8821 32.4636 72.0949 32.7614Z" fill="#9D746F"/>
</g>
<g style="mix-blend-mode:multiply" opacity="0.5">
<path d="M72.0949 32.7614L72.2864 32.9529C72.2864 32.9529 71.6481 31.9316 71.6481 30.7188C71.6481 29.506 72.031 28.3571 73.2438 28.1018C74.4566 27.7826 75.7971 28.9954 75.7971 28.9954C74.7758 27.7826 73.6268 26.6336 72.2864 28.1018C72.2864 28.1018 70.5629 29.6975 71.5842 31.804C71.7119 32.1444 71.8821 32.4636 72.0949 32.7614Z" fill="#9D746F"/>
</g>
<g style="mix-blend-mode:multiply" opacity="0.3">
<path d="M38.775 30.0167C37.9452 31.804 37.8814 33.5912 38.9665 33.3359C40.3708 33.0806 41.8389 33.1444 42.4772 31.4848C42.5623 31.1869 42.6687 30.8678 42.7964 30.5273C43.3709 29.0592 43.8177 27.5273 42.2857 27.3358C42.2857 27.3358 40.4985 27.0166 39.2857 28.9954C39.0729 29.3358 38.9027 29.6762 38.775 30.0167Z" fill="#9D746F"/>
</g>
<g style="mix-blend-mode:multiply" opacity="0.5">
<path d="M38.7748 30.0167L38.7109 30.2082C38.7109 30.2082 39.2216 29.123 40.1152 28.4209C41.0089 27.7187 41.9663 27.3358 42.6046 28.0379C43.243 28.8039 42.7961 30.5273 42.7961 30.5273C43.3706 29.0592 43.8174 27.5273 42.2855 27.3358C42.2855 27.3358 40.4982 27.0166 39.2854 28.9954C39.0726 29.3358 38.9024 29.6762 38.7748 30.0167Z" fill="#9D746F"/>
</g>
<path d="M23.1992 23.825C23.1992 23.825 26.4546 21.9101 27.9866 22.7399C29.4547 23.5059 28.6887 26.6974 28.6887 26.6974C28.6887 26.6974 30.5398 25.0378 30.6036 24.7186C30.6675 24.3995 30.5398 21.4633 28.4972 20.5058C26.4546 19.5483 23.9014 21.8462 23.1992 23.825Z" fill="url(#paint13_linear_39_4290)"/>
<path d="M28.1788 10.0375L27.7319 12.2716C27.7319 12.2716 29.2001 11.9524 28.1788 10.0375Z" fill="url(#paint14_linear_39_4290)"/>
<path d="M86.6477 39.2722C86.7754 39.5914 86.5839 41.0595 86.5839 41.0595C86.5839 41.0595 84.9881 39.4637 83.6476 41.3148C83.6476 41.3148 83.3923 40.2297 83.3285 39.719C83.3285 39.6765 83.3285 39.6552 83.3285 39.6552C83.3285 39.6126 83.3072 39.5914 83.2646 39.5914C83.2646 39.0807 83.6476 37.6126 83.9668 36.8466C84.2221 36.1445 86.4562 38.8254 86.6477 39.2084C86.6477 39.2509 86.6477 39.2722 86.6477 39.2722Z" fill="url(#paint15_linear_39_4290)"/>
<g style="mix-blend-mode:multiply">
<path d="M86.6478 40.9318C86.6478 40.9318 85.818 40.2935 84.9881 39.4637C84.2222 38.6977 84.2222 36.7828 84.2222 36.7828C84.2222 36.7828 86.3286 38.5701 86.6478 39.2722C86.9669 39.9744 86.6478 40.9318 86.6478 40.9318Z" fill="#AB6377"/>
</g>
<g style="mix-blend-mode:multiply">
<path d="M23.1992 23.825C23.1992 23.825 25.6248 22.2293 27.3483 22.4208C29.1355 22.6761 27.9866 20.6973 27.9866 20.6973C27.9866 20.6973 25.2418 19.4207 23.1992 23.825Z" fill="#AB6377"/>
</g>
<path d="M51.2856 50.5703C51.2856 50.5703 51.8601 50.5065 52.6261 50.5703C53.3921 50.6342 54.2857 51.081 54.2857 51.081C54.2857 51.081 53.1368 51.4002 52.4984 51.4002C51.8601 51.464 51.2856 50.5703 51.2856 50.5703Z" fill="#813B33"/>
<path d="M49.7544 40.2297C49.7544 40.2297 50.7119 40.2297 51.5417 40.6127C52.4353 40.9957 53.6481 41.5701 53.6481 41.5701C53.6481 41.5701 52.0523 42.017 51.2863 41.8255C50.5204 41.6978 49.7544 40.2297 49.7544 40.2297Z" fill="#813B33"/>
<path d="M59.5204 49.549C59.7119 48.7192 60.2864 47.8256 61.6907 47.1873C63.478 46.2936 63.095 49.166 62.2013 50.2512C61.3715 51.2725 59.7119 51.3363 59.7119 51.3363C59.7119 51.3363 59.3289 50.5065 59.5204 49.549Z" fill="url(#paint16_linear_39_4290)"/>
<path d="M59.7117 51.3363C59.7117 51.3363 59.584 51.2725 60.5415 50.5065C61.4352 49.8044 62.7118 49.3575 62.7118 49.3575C62.7118 49.3575 62.4565 51.2086 59.7117 51.3363Z" fill="#A3523F"/>
<g style="mix-blend-mode:multiply" opacity="0.6">
<path d="M61.2439 47.3788C60.6055 47.6341 60.2864 49.549 60.6694 49.6767C61.0524 49.8682 62.5205 49.2299 62.9035 48.4639C63.2865 47.6979 63.2226 46.6128 61.2439 47.3788Z" fill="#904F81"/>
</g>
<g style="mix-blend-mode:multiply" opacity="0.5">
<path d="M57.9236 29.889C57.9236 29.889 57.2853 27.3996 57.2215 26.7613C57.1576 26.123 58.2428 22.0378 58.2428 22.0378C58.2428 22.0378 59.3917 22.8676 59.5832 24.7825C59.7747 26.6336 57.9236 29.889 57.9236 29.889Z" fill="#A98636"/>
</g>
<g style="mix-blend-mode:multiply" opacity="0.5">
<path d="M41.4552 9.59067C41.6467 9.78217 44.4553 11.8248 44.5191 11.8886C44.6468 11.9524 43.8808 10.5481 42.9233 8.8247C41.9659 7.10125 40.1786 6.90976 40.1786 6.90976C40.1786 6.90976 39.4765 7.86723 41.4552 9.59067Z" fill="#A98636"/>
</g>
<g style="mix-blend-mode:multiply" opacity="0.5">
<path d="M43.0518 59.1876C43.0518 59.1876 44.3922 60.4004 46.3072 59.4429C48.2859 58.4216 48.5412 56.5067 48.0944 53.5704C47.6476 50.5704 43.6901 55.3577 43.0518 59.1876Z" fill="#9E4A61"/>
</g>
<path d="M43.0509 59.1875C43.0509 59.1875 40.9445 54.4002 41.3913 52.4214C41.7743 50.5065 46.9446 51.081 47.583 51.4001C48.2213 51.7193 49.2426 55.9322 47.4553 57.5279C45.668 59.1875 43.0509 59.1875 43.0509 59.1875Z" fill="url(#paint17_linear_39_4290)"/>
<path opacity="0.3" d="M41.3916 54.0172C41.2639 52.7406 44.7746 56.4428 45.413 57.3364C45.9874 58.1662 44.9661 58.8684 43.881 58.8684C42.732 58.8684 41.4554 55.0385 41.3916 54.0172Z" fill="#886377"/>
<g style="mix-blend-mode:multiply" opacity="0.2">
<path d="M46.6266 57.3365C46.0521 57.5918 43.1797 54.6555 43.0521 54.0811C42.8606 53.4427 43.7542 52.0385 44.584 51.7831C45.4777 51.5278 47.3926 51.2725 47.7756 51.847C48.1586 52.4853 48.6054 56.6343 46.6266 57.3365Z" fill="#C26388"/>
</g>
<path d="M41.3275 53.6981C41.2636 53.8896 42.1573 53.8896 42.6041 53.7619C43.0509 53.6342 43.9445 51.9108 43.9445 51.5916C43.9445 51.2725 42.1573 51.5278 41.7105 51.847C41.2636 52.2299 41.3913 53.5704 41.3275 53.6981Z" fill="#C26D34"/>
<path d="M42.1578 53.8257C42.094 53.8896 42.9238 54.1449 42.9876 54.0811C42.9876 53.9534 43.1153 53.2513 43.1153 53.2513C43.1153 53.2513 42.4131 53.5066 42.1578 53.8257Z" fill="#CE8455"/>
<g style="mix-blend-mode:soft-light" opacity="0.3">
<path d="M67.18 21.0165C65.7119 22.2931 68.7119 23.0591 71.1375 21.6548C73.4993 20.2505 68.0098 20.3781 67.18 21.0165Z" fill="#C5CFEA"/>
<path d="M69.9876 18.9738C69.4131 19.2292 70.8174 19.4845 71.1366 19.4207C71.3919 19.293 70.8812 18.5908 69.9876 18.9738Z" fill="#C5CFEA"/>
<path d="M72.0307 20.8888C71.6477 21.2079 72.0945 21.9101 73.2435 21.1441C74.3924 20.3781 72.4137 20.442 72.0307 20.8888Z" fill="#C5CFEA"/>
<path d="M71.5204 10.0375C68.2012 12.9099 72.9247 14.6972 75.478 11.2503C78.0312 7.86721 72.4141 9.27149 71.5204 10.0375Z" fill="#C5CFEA"/>
<path d="M75.7964 12.1439C74.9028 14.0588 75.9241 14.4418 77.2007 12.6545C78.5411 10.9311 76.1156 11.4418 75.7964 12.1439Z" fill="#C5CFEA"/>
<path d="M63.4138 8.8885C60.6691 11.9524 65.7118 13.2929 67.3714 10.1013C69.0948 6.97356 64.2437 7.99486 63.4138 8.8885Z" fill="#C5CFEA"/>
<path d="M54.5412 25.2293C53.7114 28.8039 56.3285 27.0166 57.2221 23.7612C58.0519 20.5058 54.8604 24.0804 54.5412 25.2293Z" fill="#C5CFEA"/>
<path d="M53.0729 23.9527C52.8176 25.9315 53.2006 26.1868 53.5836 24.5272C53.9665 22.8037 53.0729 23.6336 53.0729 23.9527Z" fill="#C5CFEA"/>
<path d="M40.6891 16.9951C36.7954 19.9952 43.1147 20.6335 46.3063 18.3356C49.434 15.9738 42.6041 15.527 40.6891 16.9951Z" fill="#C5CFEA"/>
<path d="M35.3277 10.3567C33.6681 11.6333 35.9022 13.2291 38.6469 11.4418C41.4555 9.5907 36.349 9.5907 35.3277 10.3567Z" fill="#C5CFEA"/>
<path d="M32.5835 33.1444C31.3707 34.4849 35.2644 33.7827 35.9666 32.4423C36.6687 31.038 33.0942 32.5699 32.5835 33.1444Z" fill="#C5CFEA"/>
<path d="M40.2428 38.0594C39.6045 40.1659 41.0726 40.8042 41.9024 37.8679C42.6684 34.8679 40.2428 38.0594 40.2428 38.0594Z" fill="#C5CFEA"/>
<path d="M42.9881 36.5275C42.6689 37.4211 42.7966 37.8679 43.1158 36.9743C43.4987 36.1445 42.9881 36.5275 42.9881 36.5275Z" fill="#C5CFEA"/>
<path d="M83.7759 28.74C80.3928 27.3996 83.0099 33.5274 85.4355 33.2082C87.8611 32.9529 85.3078 29.3145 83.7759 28.74Z" fill="#C5CFEA"/>
</g>
<path d="M32.8389 29.123C32.8389 29.123 34.2432 27.0166 35.5836 26.2506C36.8603 25.5485 40.2433 24.3995 40.2433 24.3995C40.2433 24.3995 36.0943 25.2293 34.2432 26.5059C32.3921 27.7826 31.6899 29.1869 31.6899 29.1869L32.8389 29.123Z" fill="#68B3DB"/>
<g style="mix-blend-mode:soft-light">
<path d="M27.9234 53.9534C27.9234 53.9534 29.0723 51.464 29.6468 48.0171C30.1575 44.634 28.5617 41.251 28.5617 41.251C28.5617 41.251 28.051 41.5063 27.8595 41.5701C27.6681 41.634 27.0297 49.8044 27.9234 53.9534Z" fill="#81CEFF"/>
</g>
<defs>
<linearGradient id="paint0_linear_39_4290" x1="71.8738" y1="69.8685" x2="64.2298" y2="48.982" gradientUnits="userSpaceOnUse">
<stop offset="0.006" stop-color="#732E56"/>
<stop offset="1" stop-color="#B36127"/>
</linearGradient>
<linearGradient id="paint1_linear_39_4290" x1="43.0454" y1="69.2512" x2="79.8895" y2="55.767" gradientUnits="userSpaceOnUse">
<stop stop-color="#A03145"/>
<stop offset="1" stop-color="#BD5225"/>
</linearGradient>
<linearGradient id="paint2_linear_39_4290" x1="56.0075" y1="70.4257" x2="47.477" y2="47.1178" gradientUnits="userSpaceOnUse">
<stop stop-color="#FA865F"/>
<stop offset="1" stop-color="#FFAC25"/>
</linearGradient>
<linearGradient id="paint3_linear_39_4290" x1="51.4376" y1="72.7759" x2="50.0963" y2="69.1108" gradientUnits="userSpaceOnUse">
<stop stop-color="#933B27"/>
<stop offset="1" stop-color="#771047"/>
</linearGradient>
<linearGradient id="paint4_linear_39_4290" x1="72.8851" y1="68.0601" x2="70.1963" y2="60.7132" gradientUnits="userSpaceOnUse">
<stop stop-color="#FA865F"/>
<stop offset="1" stop-color="#FFAC25"/>
</linearGradient>
<linearGradient id="paint5_linear_39_4290" x1="61.6987" y1="68.0492" x2="83.9663" y2="59.8994" gradientUnits="userSpaceOnUse">
<stop stop-color="#A03145"/>
<stop offset="1" stop-color="#BD5225"/>
</linearGradient>
<linearGradient id="paint6_linear_39_4290" x1="50.8959" y1="9.1298" x2="87.8325" y2="-4.38816" gradientUnits="userSpaceOnUse">
<stop stop-color="#39462C"/>
<stop offset="1" stop-color="#39750B"/>
</linearGradient>
<linearGradient id="paint7_linear_39_4290" x1="16.7505" y1="13.9312" x2="50.5397" y2="1.56475" gradientUnits="userSpaceOnUse">
<stop offset="0.006" stop-color="#506D1D"/>
<stop offset="1" stop-color="#31680B"/>
</linearGradient>
<linearGradient id="paint8_linear_39_4290" x1="45.2673" y1="33.957" x2="61.2641" y2="28.1026" gradientUnits="userSpaceOnUse">
<stop stop-color="#531047"/>
<stop offset="1" stop-color="#933B27"/>
</linearGradient>
<linearGradient id="paint9_linear_39_4290" x1="53.4336" y1="22.7961" x2="82.7668" y2="12.0607" gradientUnits="userSpaceOnUse">
<stop stop-color="#4F7714"/>
<stop offset="1" stop-color="#408100"/>
</linearGradient>
<linearGradient id="paint10_linear_39_4290" x1="21.9581" y1="56.0566" x2="21.9581" y2="18.7619" gradientUnits="userSpaceOnUse">
<stop stop-color="#4F7714"/>
<stop offset="1" stop-color="#408100"/>
</linearGradient>
<linearGradient id="paint11_linear_39_4290" x1="49.6427" y1="49.4233" x2="63.8047" y2="44.2396" gradientUnits="userSpaceOnUse">
<stop stop-color="#531047"/>
<stop offset="1" stop-color="#933B27"/>
</linearGradient>
<linearGradient id="paint12_linear_39_4290" x1="47.8159" y1="40.0727" x2="61.4202" y2="35.0937" gradientUnits="userSpaceOnUse">
<stop stop-color="#531047"/>
<stop offset="1" stop-color="#933B27"/>
</linearGradient>
<linearGradient id="paint13_linear_39_4290" x1="25.1378" y1="28.0213" x2="22.8514" y2="21.775" gradientUnits="userSpaceOnUse">
<stop stop-color="#39462C"/>
<stop offset="1" stop-color="#31270B"/>
</linearGradient>
<linearGradient id="paint14_linear_39_4290" x1="26.8268" y1="12.6265" x2="26.1518" y2="10.7825" gradientUnits="userSpaceOnUse">
<stop stop-color="#39462C"/>
<stop offset="1" stop-color="#31270B"/>
</linearGradient>
<linearGradient id="paint15_linear_39_4290" x1="82.3429" y1="42.6489" x2="80.6411" y2="38.0001" gradientUnits="userSpaceOnUse">
<stop stop-color="#39462C"/>
<stop offset="1" stop-color="#31270B"/>
</linearGradient>
<linearGradient id="paint16_linear_39_4290" x1="36.7786" y1="53.1153" x2="36.4614" y2="48.9962" gradientUnits="userSpaceOnUse">
<stop stop-color="#4F1F11"/>
<stop offset="0.994" stop-color="#48001B"/>
</linearGradient>
<linearGradient id="paint17_linear_39_4290" x1="42.4279" y1="59.8105" x2="39.7183" y2="52.4074" gradientUnits="userSpaceOnUse">
<stop offset="0.006" stop-color="#732E56"/>
<stop offset="1" stop-color="#B36127"/>
</linearGradient>
</defs>
</svg>
