<svg width="110" height="80" viewBox="0 0 110 80" fill="none" xmlns="http://www.w3.org/2000/svg">
<path d="M78.6304 24.96C78.5504 34.72 68.2304 39.44 68.2304 39.44V41.28C68.2304 41.28 80.0704 43.6 80.0704 53.92C80.0704 64.48 67.7504 69.76 50.8704 69.76C43.9104 69.76 36.1504 68.88 28.1504 67.04L31.8304 50.4C35.1104 51.04 40.7104 51.68 45.6704 51.68C51.1104 51.68 55.8304 50.88 55.8304 48.16C55.8304 45.2 52.2304 44.48 48.3104 44.48C44.8704 44.48 41.0304 45.04 39.4304 45.04V38C39.9104 38 40.7904 38 41.8304 38C46.2304 38 54.3904 37.6 54.3904 33.28C54.3904 32.08 54.3104 31.36 54.3104 31.36C53.1904 31.12 51.8304 31.04 50.2304 31.04C43.9104 31.04 34.7904 32.48 31.8304 32.48L29.7504 13.04C37.9104 12 46.3104 11.6 53.9104 11.6C64.3104 11.6 73.2704 12.4 78.2304 13.76C78.2304 13.76 78.6304 22.16 78.6304 24.96Z" fill="white"/>
</svg>
