<svg width="504" height="215" viewBox="0 0 504 215" fill="none" xmlns="http://www.w3.org/2000/svg">
<path d="M454.369 56.776C454.369 72.904 436.705 79.432 419.681 79.432C412.513 79.432 405.473 78.28 399.841 76.232C399.841 81.864 401.889 86.216 413.921 86.216C427.873 86.216 444.385 82.632 444.385 82.632C445.793 90.44 446.049 98.76 445.665 107.848C433.377 110.792 422.753 112.072 413.793 112.072C380.257 112.072 369.121 93.64 369.121 71.368C369.121 45.128 386.145 29.768 417.249 29.768C438.881 29.768 454.369 40.392 454.369 56.776ZM400.737 64.328C404.449 65.864 408.929 66.76 413.025 66.76C418.657 66.76 423.393 65.096 424.033 61.512C424.801 56.52 420.705 54.216 415.713 54.216C409.441 54.216 401.761 57.8 400.737 64.328Z" fill="white"/>
<path d="M342.48 56.008H340.432C340.432 66.376 340.304 76.104 340.304 77.256C340.304 77.256 340.56 79.816 344.784 79.816C349.008 79.816 360.528 79.56 360.528 79.56C362.448 86.984 363.216 98.376 362.32 107.848C362.32 107.848 347.984 111.944 338.768 111.944C309.328 111.944 307.024 89.544 308.048 54.856L300.88 55.24C300.88 55.24 299.984 40.648 301.648 32.456H308.816C309.072 26.952 309.2 22.344 309.328 16.328C314.192 15.688 319.44 15.432 324.688 15.432C329.936 15.432 335.312 15.688 340.048 16.328C340.304 21.192 340.432 26.696 340.432 32.2C342.608 32.2 345.168 32.2 347.728 32.2C354.256 32.2 361.296 32.328 363.984 32.84C364.88 44.488 365.008 55.24 364.496 63.176C362.32 63.688 360.144 64.072 357.84 64.072C345.04 64.072 342.48 56.008 342.48 56.008Z" fill="white"/>
<path d="M215.864 34.504C230.456 31.816 242.488 30.536 252.472 30.536C299.704 30.536 297.912 60.232 294.584 109C289.848 109.512 284.984 109.768 280.12 109.768C275.256 109.768 270.52 109.512 265.656 109L263.352 97.48H261.176C261.176 97.48 257.208 110.28 239.672 110.28C216.12 110.28 208.312 98.12 208.312 85.32C208.312 69.448 223.928 63.816 239.416 63.816C248.376 63.816 257.464 65.736 263.352 68.68C263.48 65.736 263.608 63.816 263.608 63.176C263.608 61 261.688 57.8 249.528 57.8C235.704 57.8 217.272 60.232 217.272 60.232C215.992 52.168 215.48 43.464 215.864 34.504ZM263.224 82.12C263.224 80.712 263.224 79.944 263.224 78.664C260.792 78.28 257.08 77.896 253.496 77.896C247.096 77.896 240.568 79.048 240.568 83.528C240.568 88.776 244.92 90.952 249.784 90.952C255.672 90.952 262.328 87.624 263.224 82.12Z" fill="white"/>
<path d="M206.587 33.224C207.099 41.288 206.971 55.88 206.075 67.528C203.387 68.04 196.219 68.168 189.435 68.168C181.883 68.168 174.715 68.04 174.715 68.04C174.715 83.272 174.459 99.016 173.947 109C169.467 109.64 163.451 109.896 157.435 109.896C151.547 109.896 145.531 109.64 140.923 109C139.899 89.672 139.899 51.656 140.923 32.84C145.531 32.2 151.035 31.944 156.539 31.944C161.403 31.944 166.395 32.2 170.747 32.712C172.667 38.6 173.819 48.2 173.819 48.2H176.763C176.763 48.2 182.011 32.328 198.011 32.328C200.315 32.328 204.539 32.712 206.587 33.224Z" fill="white"/>
<path d="M93.7114 35.272C98.5754 34.888 104.975 34.76 111.375 34.76C117.647 34.76 124.047 34.888 128.911 35.272C129.935 46.024 129.679 98.12 128.911 109.384C124.047 109.768 117.647 110.024 111.375 110.024C104.975 110.024 98.5754 109.768 93.7114 109.384C92.6874 97.992 92.6874 46.408 93.7114 35.272ZM111.247 29.384C98.0634 29.384 90.1274 26.696 90.1274 15.048C90.1274 3.65597 97.6794 0.839966 111.247 0.839966C125.583 0.839966 132.367 3.65597 132.367 15.048C132.367 26.312 124.687 29.384 111.247 29.384Z" fill="white"/>
<path d="M2.98846 20.552C14.7645 19.4 26.1565 18.504 36.5245 18.504C64.4285 18.504 84.7805 25.032 84.7805 50.888C84.7805 78.152 65.3245 89.928 40.8765 89.928C39.3405 89.928 37.8045 89.928 36.2685 89.8C36.1405 97.736 36.0125 104.52 35.7565 109C31.0205 109.64 25.1325 109.896 19.3725 109.896C13.6125 109.896 7.85246 109.64 2.98846 109C1.96446 90.568 1.96446 38.472 2.98846 20.552ZM36.2685 71.88C36.2685 71.88 38.1885 72.264 40.8765 72.264C46.3805 72.264 54.9565 70.472 54.9565 59.336C54.9565 51.272 49.5805 46.28 40.6205 46.28C39.2125 46.28 37.8045 46.408 36.2685 46.664V71.88Z" fill="white"/>
<path d="M345.638 211.744C340.006 212.384 330.022 212.64 320.934 212.64C312.742 212.64 305.062 212.384 301.734 211.872C301.094 199.968 300.198 126.496 301.478 119.328C306.598 118.688 312.486 118.432 318.374 118.432C324.262 118.432 330.15 118.688 335.27 119.328C335.91 130.464 333.478 162.848 333.35 171.04L337.83 170.912C339.494 160.032 339.366 133.92 366.374 133.92C396.07 133.92 395.942 170.528 393.894 212C388.774 212.64 382.886 212.896 377.126 212.896C371.238 212.896 365.478 212.64 360.358 212C359.974 193.824 363.686 166.816 354.982 166.816C345.382 166.816 347.046 198.944 345.638 211.744Z" fill="white"/>
<path d="M268.138 159.008H266.09C266.09 169.376 265.962 179.104 265.962 180.256C265.962 180.256 266.218 182.816 270.442 182.816C274.666 182.816 286.186 182.56 286.186 182.56C288.106 189.984 288.874 201.376 287.978 210.848C287.978 210.848 273.642 214.944 264.426 214.944C234.986 214.944 232.682 192.544 233.706 157.856L226.538 158.24C226.538 158.24 225.642 143.648 227.306 135.456H234.474C234.73 129.952 234.858 125.344 234.986 119.328C239.85 118.688 245.098 118.432 250.346 118.432C255.594 118.432 260.97 118.688 265.706 119.328C265.962 124.192 266.09 129.696 266.09 135.2C268.266 135.2 270.826 135.2 273.386 135.2C279.914 135.2 286.954 135.328 289.642 135.84C290.538 147.488 290.666 158.24 290.154 166.176C287.978 166.688 285.802 167.072 283.498 167.072C270.698 167.072 268.138 159.008 268.138 159.008Z" fill="white"/>
<path d="M139.521 137.504C154.113 134.816 166.145 133.536 176.129 133.536C223.361 133.536 221.569 163.232 218.241 212C213.505 212.512 208.641 212.768 203.777 212.768C198.913 212.768 194.177 212.512 189.313 212L187.009 200.48H184.833C184.833 200.48 180.865 213.28 163.329 213.28C139.777 213.28 131.969 201.12 131.969 188.32C131.969 172.448 147.585 166.816 163.073 166.816C172.033 166.816 181.121 168.736 187.009 171.68C187.137 168.736 187.265 166.816 187.265 166.176C187.265 164 185.345 160.8 173.185 160.8C159.361 160.8 140.929 163.232 140.929 163.232C139.649 155.168 139.137 146.464 139.521 137.504ZM186.881 185.12C186.881 183.712 186.881 182.944 186.881 181.664C184.449 181.28 180.737 180.896 177.153 180.896C170.753 180.896 164.225 182.048 164.225 186.528C164.225 191.776 168.577 193.952 173.441 193.952C179.329 193.952 185.985 190.624 186.881 185.12Z" fill="white"/>
<path d="M119.465 124.192C120.105 138.016 123.049 203.808 121.769 212C116.649 212.768 110.249 213.024 103.849 213.024C97.4495 213.024 91.0495 212.768 85.9295 212C85.1615 196.768 93.3535 160.032 82.9855 160.032C75.9455 160.032 79.0175 208.544 61.4815 208.544C42.9215 208.544 47.0175 160.032 39.9775 160.032C29.7375 160.032 37.8015 196.768 37.0335 212C31.9135 212.768 25.5135 213.024 19.1135 213.024C12.8415 213.024 6.44146 212.768 1.19346 212C0.0414555 203.808 2.85746 138.016 3.49746 124.192C10.6655 122.912 18.9855 121.888 30.8895 121.888C66.3455 121.888 50.3455 174.112 61.4815 174.112C72.6175 174.112 56.6175 121.888 92.0735 121.888C103.977 121.888 112.297 122.912 119.465 124.192Z" fill="white"/>
<path d="M416.091 131.426C416.091 131.426 393.45 146.234 405.566 178.911C413.154 199.471 437.753 211.22 454.153 208.65C470.675 206.08 416.091 131.426 416.091 131.426Z" fill="#81CEFF"/>
<path d="M480.588 202.164C477.528 203.877 461.863 207.426 457.824 208.038C441.425 210.363 427.962 203.877 418.906 193.719C403.853 176.708 400.548 149.416 414.255 133.384C416.132 131.181 418.335 129.223 420.864 127.509C423.067 126.041 446.687 116.495 454.642 114.414C494.539 103.522 511.796 184.173 480.588 202.164Z" fill="url(#paint0_linear_31_343)"/>
<path d="M452.806 114.904C416.091 127.142 429.798 209.384 477.283 202.776C524.646 196.044 502.739 98.2595 452.806 114.904Z" fill="url(#paint1_linear_31_343)"/>
<path d="M462.842 133.751C443.873 140.237 451.828 186.254 476.182 181.97C501.026 177.687 488.665 125.062 462.842 133.751Z" fill="url(#paint2_linear_31_343)"/>
<path d="M491.725 181.97C491.725 181.97 485.973 185.397 475.815 185.887C462.72 186.621 446.932 172.914 447.055 155.535C447.177 135.709 463.087 124.45 477.161 127.02C477.161 127.02 490.134 139.013 492.459 144.888C494.662 150.64 494.173 158.228 494.173 158.228C494.173 158.228 494.05 165.204 494.05 167.896C494.05 170.711 488.298 168.508 488.665 170.221C488.91 172.057 491.725 181.97 491.725 181.97Z" fill="url(#paint3_linear_31_343)"/>
<path fill-rule="evenodd" clip-rule="evenodd" d="M498.211 162.144C498.456 163.49 496.742 168.018 494.907 169.365C494.539 169.609 494.417 169.977 494.417 170.466C494.417 172.547 497.109 176.218 496.865 177.32C496.62 178.666 492.337 183.072 489.889 182.093C489.644 181.97 489.032 179.278 488.91 178.666C489.032 179.278 489.399 181.848 489.277 182.215C489.155 182.704 486.462 184.907 481.2 185.764C477.528 186.254 476.427 186.254 475.815 185.886C475.57 185.764 475.447 185.397 475.203 185.03C474.468 183.806 476.059 176.585 475.937 175.239C475.815 173.893 473 176.341 468.716 178.054C468.308 178.217 467.9 178.38 467.493 178.543C465.534 179.033 463.699 179.033 462.23 178.543C462.067 178.462 461.944 178.421 461.863 178.421C460.394 177.809 459.17 176.83 458.069 175.606C457.579 174.953 457.09 174.178 456.6 173.281C454.153 168.386 452.439 159.941 452.317 152.231C452.317 152.068 452.317 151.904 452.317 151.741C452.317 151.66 452.317 151.537 452.317 151.374C452.317 151.211 452.317 151.007 452.317 150.762C452.317 150.599 452.317 150.477 452.317 150.395V150.273C452.439 145.622 453.051 141.461 454.52 138.646C454.683 138.483 454.805 138.279 454.887 138.034C455.988 136.199 457.335 134.485 458.803 133.017C458.885 133.017 458.926 132.976 458.926 132.894C465.657 126.408 475.692 123.838 479.364 125.429C479.69 125.51 479.976 125.633 480.22 125.796C483.28 127.387 485.728 130.324 487.686 133.384C489.277 135.831 490.501 138.524 491.48 140.482C491.643 140.89 491.765 141.257 491.847 141.583C492.459 142.685 492.704 143.419 492.948 143.664C494.05 145.01 494.05 153.088 494.417 154.923C494.907 156.759 497.477 160.186 498.089 161.777C498.17 161.94 498.211 162.062 498.211 162.144ZM481.077 159.084C481.322 153.944 480.465 148.437 475.937 147.213C471.042 145.989 462.72 156.147 468.716 166.427C471.409 170.956 480.71 164.469 481.077 159.084ZM488.053 159.207C487.441 160.186 481.567 172.057 484.749 172.057C485.85 171.69 487.686 170.833 488.42 169.732C489.522 168.386 489.522 166.917 489.522 166.55C489.644 167.039 489.644 169.242 490.011 169.242C490.378 169.242 492.704 168.753 492.704 167.406C492.704 166.06 488.543 158.228 488.053 159.207ZM492.948 147.213C491.235 143.542 486.707 144.888 486.34 147.58C485.973 150.395 487.074 159.084 489.644 159.207C491.847 159.207 492.704 158.35 493.56 155.78C493.805 154.679 494.417 150.395 492.948 147.213Z" fill="url(#paint4_linear_31_343)"/>
<g style="mix-blend-mode:multiply" opacity="0.4">
<path d="M421.966 196.901C419.885 195.433 411.074 182.949 409.85 176.341C408.626 169.732 430.288 164.102 431.512 164.714C432.613 165.204 440.446 186.498 446.443 191.761C452.439 196.901 422.822 197.391 421.966 196.901Z" fill="#B35977"/>
</g>
<g style="mix-blend-mode:soft-light" opacity="0.3">
<path d="M433.348 160.186C436.53 173.893 445.709 175.361 448.523 175.851C451.461 176.463 439.712 160.553 449.747 142.563C459.783 124.45 475.815 124.694 480.955 127.999C486.095 131.181 490.134 139.748 491.603 141.706C492.949 143.664 497.844 145.622 498.823 145.867C499.925 146.112 487.197 110.375 464.433 114.047C441.67 117.719 428.82 140.727 433.348 160.186Z" fill="#FFFEBD"/>
</g>
<g style="mix-blend-mode:soft-light" opacity="0.3">
<path d="M406.913 170.466C407.647 172.914 428.207 164.102 429.921 163.245C431.634 162.389 430.655 147.703 432.491 139.013C434.449 130.324 435.306 130.079 435.183 128.978C434.939 127.999 418.417 131.426 414.623 133.873C410.951 136.443 403.363 157.861 406.913 170.466Z" fill="#FFC279"/>
</g>
<g style="mix-blend-mode:soft-light" opacity="0.3">
<path d="M440.568 207.181C440.568 207.181 450.849 202.286 454.887 201.429C459.048 200.573 465.29 204.856 476.549 203.143C476.549 203.143 463.332 207.181 457.825 208.038C452.44 208.895 440.568 207.181 440.568 207.181Z" fill="#FFC279"/>
</g>
<g style="mix-blend-mode:multiply" opacity="0.3">
<path d="M460.15 180.624C462.475 182.215 469.818 177.442 473.245 175.851C476.672 174.26 475.57 179.155 474.714 181.603C473.857 183.928 470.675 184.907 467.615 184.663C464.556 184.418 460.15 180.624 460.15 180.624Z" fill="#940052"/>
</g>
<path d="M423.189 148.804C423.189 147.458 431.022 143.419 434.082 144.398C437.019 145.377 438.12 151.497 433.837 153.088C429.431 154.679 423.189 149.538 423.189 148.804Z" fill="url(#paint5_linear_31_343)"/>
<path d="M425.882 151.252C425.148 150.762 432.369 148.315 436.652 149.661C436.652 149.661 436.897 152.231 433.715 153.088C430.41 154.067 425.882 151.252 425.882 151.252Z" fill="#FF892F"/>
<g style="mix-blend-mode:multiply">
<path d="M424.046 147.703C423.19 148.437 428.33 150.15 432.124 149.171C435.795 148.315 435.061 146.112 434.449 145.255C433.715 144.398 429.431 143.542 424.046 147.703Z" fill="#AB6377"/>
</g>
<g style="mix-blend-mode:multiply" opacity="0.3">
<path d="M448.156 146.846C448.156 146.846 451.705 145.377 452.194 145.377C452.684 145.255 451.583 155.168 453.296 163.001C455.009 170.956 457.947 175.361 457.947 175.361C457.947 175.361 451.583 174.627 449.135 166.427C446.565 158.105 448.156 146.846 448.156 146.846Z" fill="#940052"/>
</g>
<g style="mix-blend-mode:multiply" opacity="0.3">
<path d="M467.493 154.434C469.206 150.395 475.203 151.129 477.161 158.105C479.242 165.204 475.203 168.875 471.409 167.896C467.493 166.917 466.636 156.392 467.493 154.434Z" fill="#940052"/>
</g>
<g style="mix-blend-mode:multiply" opacity="0.3">
<path d="M486.34 149.294C487.931 145.377 492.092 149.171 491.847 154.556C491.602 159.941 486.585 161.41 486.34 149.294Z" fill="#940052"/>
</g>
<path d="M483.158 168.753C482.056 170.099 479.486 169.365 478.507 168.998C477.528 168.753 482.179 162.266 483.158 160.92C484.014 159.574 486.829 158.472 487.441 158.84C488.053 159.207 484.137 167.774 483.158 168.753Z" fill="#FFB068"/>
<g style="mix-blend-mode:soft-light" opacity="0.8">
<path d="M491.48 140.482V140.604C491.48 140.604 485.728 129.1 478.752 127.02C472.021 124.939 459.905 132.282 458.926 132.894C465.657 126.408 475.693 123.838 479.364 125.429C479.691 125.51 479.976 125.633 480.221 125.796C483.28 127.387 485.728 130.324 487.686 133.384C489.277 135.831 490.501 138.524 491.48 140.482Z" fill="#FFFEBD"/>
</g>
<g style="mix-blend-mode:multiply" opacity="0.2">
<path d="M475.203 146.479C477.283 146.112 479.609 149.538 481.444 153.21C483.158 156.759 485.728 153.699 486.095 149.661C486.34 145.745 486.095 145.01 485.606 144.398C485.116 143.909 480.098 143.419 475.203 146.479Z" fill="#C05452"/>
</g>
<g style="mix-blend-mode:multiply" opacity="0.2">
<path d="M458.436 174.382C461.496 175.973 466.269 162.634 464.678 154.067C463.087 145.377 455.989 142.195 454.52 142.807C452.929 143.297 449.747 165.448 458.436 174.382Z" fill="#C05452"/>
</g>
<path d="M471.531 126.285C466.269 129.223 474.713 134.852 481.689 135.342C488.665 135.831 484.626 120.778 471.531 126.285Z" fill="#FFF266"/>
<path d="M469.451 114.047C464.188 115.516 469.206 120.044 477.161 123.471C485.116 126.775 488.053 125.918 488.053 125.918C488.053 125.918 481.444 114.537 469.451 114.047Z" fill="#FFD252"/>
<g style="mix-blend-mode:multiply" opacity="0.2">
<path d="M451.705 195.188C447.789 189.68 466.024 188.212 481.812 186.988C497.722 185.764 498.333 189.069 496.375 191.516C494.417 193.964 472.51 213.79 451.705 195.188Z" fill="#C05452"/>
</g>
<path d="M458.192 200.205C458.192 200.205 448.523 195.922 440.935 181.97C433.225 168.018 433.47 156.147 433.592 155.413C433.837 154.679 438.121 154.679 437.876 149.171C437.631 143.786 435.55 144.154 434.816 141.339C434.204 138.524 438.365 126.897 441.547 122.369C441.547 122.369 433.103 130.814 432.491 142.93C432.491 142.93 436.774 144.031 436.652 147.947C436.53 151.986 433.715 152.965 432.858 153.332C431.879 153.699 432.491 160.431 432.491 160.431C432.491 160.431 435.183 191.394 458.192 200.205Z" fill="#FFB952"/>
<g style="mix-blend-mode:multiply" opacity="0.3">
<path d="M475.57 174.872C477.039 173.893 475.57 183.561 478.507 185.275C479.119 185.642 483.525 185.519 485.606 184.54C487.564 183.561 489.277 182.215 489.277 182.215C489.277 182.215 488.665 185.519 481.322 186.988C474.101 188.457 474.591 185.519 474.591 183.806C476.304 174.382 475.57 174.872 475.57 174.872Z" fill="#940052"/>
</g>
<g style="mix-blend-mode:multiply" opacity="0.3">
<path d="M486.095 164.102C487.197 163.001 487.931 167.896 487.564 169.365C487.074 170.956 484.504 172.057 484.015 171.812C483.525 171.568 483.892 166.427 486.095 164.102Z" fill="#940052"/>
</g>
<g style="mix-blend-mode:soft-light" opacity="0.3">
<path d="M412.787 169.854C411.931 170.099 413.766 165.448 417.805 162.634C421.844 159.819 428.33 162.389 428.697 163.001C429.064 163.613 415.847 169.12 412.787 169.854Z" fill="#FFFEBD"/>
</g>
<g style="mix-blend-mode:multiply" opacity="0.4">
<path d="M417.682 129.957C416.826 130.814 428.942 128.488 432.858 127.509C436.774 126.53 445.096 117.596 445.096 117.596C445.096 117.596 422.455 126.041 417.682 129.957Z" fill="#B35977"/>
</g>
<g style="mix-blend-mode:soft-light" opacity="0.5">
<path d="M430.777 143.052C428.697 144.398 410.217 147.58 409.36 147.336C408.504 146.968 410.217 136.933 413.766 134.852C417.315 132.649 432.98 128.121 434.082 128.856C435.183 129.467 431.634 142.563 430.777 143.052Z" fill="#FFC279"/>
</g>
<g style="mix-blend-mode:multiply" opacity="0.3">
<path d="M440.323 130.691C440.323 135.219 442.404 139.258 445.341 137.667C448.89 135.831 453.418 134.73 452.806 130.446C452.684 129.712 452.684 128.978 452.562 128.121C452.195 124.45 451.46 120.656 446.81 121.635C446.81 121.635 441.302 122.492 440.446 128.121C440.364 128.937 440.323 129.794 440.323 130.691Z" fill="#CD72A4"/>
</g>
<g style="mix-blend-mode:multiply" opacity="0.5">
<path d="M440.323 130.691L440.446 131.181C440.446 131.181 440.446 128.366 442.037 126.041C443.75 123.715 445.953 121.88 448.768 122.981C451.583 123.96 452.562 128.121 452.562 128.121C452.195 124.45 451.46 120.656 446.81 121.635C446.81 121.635 441.302 122.492 440.446 128.121C440.364 128.937 440.323 129.794 440.323 130.691Z" fill="#CD72A4"/>
</g>
<g style="mix-blend-mode:multiply" opacity="0.3">
<path d="M463.821 144.031C463.699 147.213 464.8 150.028 466.391 148.927C468.227 147.58 470.552 146.724 470.308 143.786C470.308 143.215 470.267 142.685 470.185 142.195C470.063 139.503 469.696 136.933 467.248 137.667C467.248 137.667 464.433 138.401 463.944 142.195C463.862 142.848 463.821 143.46 463.821 144.031Z" fill="#CD72A4"/>
</g>
<g style="mix-blend-mode:multiply" opacity="0.5">
<path d="M463.821 144.031L463.944 144.521C463.944 144.521 463.944 142.44 464.8 140.849C465.657 139.136 466.881 137.912 468.35 138.646C469.696 139.258 470.185 142.195 470.185 142.195C470.063 139.625 469.696 136.933 467.37 137.79C467.37 137.79 464.433 138.401 463.944 142.318C463.862 142.889 463.821 143.46 463.821 144.031Z" fill="#CD72A4"/>
</g>
<path d="M442.037 187.11C442.037 187.11 447.789 189.436 450.726 192.618C453.663 195.677 458.192 200.205 458.192 200.205C458.192 200.205 445.708 198.737 442.037 187.11Z" fill="#DB672F"/>
<path d="M456.111 172.302C456.111 172.302 463.087 176.218 464.556 178.911C464.556 178.911 461.251 179.89 459.048 177.687C456.723 175.606 456.111 172.302 456.111 172.302Z" fill="#DB672F"/>
<path d="M471.654 168.018C471.654 168.018 473.122 168.63 476.427 167.162C479.854 165.816 480.465 161.165 480.465 161.165C480.465 161.165 474.469 164.592 471.654 168.018Z" fill="#DB672F"/>
<path d="M491.358 158.962C491.358 158.962 491.358 157.861 491.725 156.637C492.214 155.413 493.805 154.189 493.805 154.189C493.805 154.189 493.805 158.105 491.358 158.962Z" fill="#DB672F"/>
<path d="M446.443 118.086C446.443 118.086 447.177 118.331 452.195 117.229C457.09 116.005 462.597 113.068 462.597 113.068C462.597 113.068 452.562 113.068 446.443 118.086Z" fill="#DB672F"/>
<path d="M442.037 187.11C442.037 187.11 450.971 191.639 458.192 200.205C458.192 200.205 454.887 195.31 449.502 190.537C444.24 185.764 441.058 183.806 440.568 183.806C439.956 183.806 442.037 187.11 442.037 187.11Z" fill="#FFB952"/>
<path d="M454.765 141.216C454.52 142.685 460.639 146.234 462.108 146.234C463.454 146.356 460.272 141.706 458.681 139.136C456.968 136.566 454.887 139.992 454.765 141.216Z" fill="#FFCC52"/>
<g style="mix-blend-mode:soft-light">
<path d="M419.151 193.597L418.906 193.719C403.853 176.708 400.548 149.416 414.255 133.384C412.787 138.279 401.527 169.854 419.151 193.597Z" fill="#81CEFF"/>
</g>
<g style="mix-blend-mode:multiply" opacity="0.4">
<path d="M410.951 173.159C409.727 174.138 412.909 182.582 416.459 185.519C420.008 188.457 436.285 189.068 437.876 186.131C439.467 183.316 432.491 166.183 432.001 165.448C431.512 164.714 419.396 166.427 410.951 173.159Z" fill="#B35977"/>
</g>
<path d="M436.897 201.307C435.673 201.062 447.667 200.45 448.891 200.328C450.114 200.328 439.345 201.796 436.897 201.307Z" fill="#72182A"/>
<path d="M414.623 176.952C413.154 177.32 423.19 177.932 428.697 177.809C434.082 177.687 432.491 176.83 432.491 176.83C432.491 176.83 427.84 173.403 414.623 176.952Z" fill="#72182A"/>
<path d="M436.897 201.307C436.897 201.307 438.732 201.919 441.425 201.674C443.995 201.307 447.299 200.695 447.299 200.695C447.299 200.695 440.691 201.552 436.897 201.307Z" fill="#BB613B"/>
<path d="M415.357 177.197C415.357 177.197 418.784 178.054 423.435 178.421C428.085 178.666 431.879 177.564 431.879 177.564C431.879 177.564 421.966 176.218 415.357 177.197Z" fill="#BB613B"/>
<path d="M423.924 178.421C423.19 177.932 426.616 176.952 428.085 177.075C429.554 177.197 430.777 177.687 430.777 177.687C430.777 177.687 426.372 178.543 423.924 178.421Z" fill="#DB8E63"/>
<path d="M440.935 201.674C440.935 201.674 441.792 201.184 442.893 201.062C443.995 201.062 445.096 201.062 445.096 201.062C445.096 201.062 442.037 201.674 440.935 201.674Z" fill="#DB8E63"/>
<g style="mix-blend-mode:soft-light" opacity="0.8">
<path d="M448.89 144.521C448.89 144.521 452.929 143.052 453.418 141.461C454.03 139.87 455.132 136.688 457.702 134.24C460.149 131.793 464.311 128.366 464.311 128.366C464.311 128.366 451.215 133.628 448.89 144.521Z" fill="#FFFEBD"/>
</g>
<path d="M468.349 165.326C469.206 165.938 474.469 166.795 474.469 166.795C474.469 166.795 472.266 149.906 471.409 149.661C470.552 149.416 468.839 151.619 468.839 151.619C468.839 151.619 464.188 158.228 468.349 165.326Z" fill="#324028"/>
<path d="M444.485 188.089C444.485 188.089 447.055 185.152 453.052 186.376C457.58 187.11 458.804 192.495 458.681 195.31C458.559 197.758 457.702 199.594 456.478 198.737C455.254 197.758 450.481 189.436 444.485 188.089Z" fill="#FFA93C"/>
<path d="M474.469 166.795C473.367 166.55 468.717 162.144 468.105 159.696C467.371 157.249 470.43 149.906 471.409 149.661C472.388 149.416 476.06 151.007 478.63 153.21C481.078 155.413 479.119 163.857 478.385 164.469C477.773 165.081 474.836 166.795 474.469 166.795Z" fill="url(#paint6_linear_31_343)"/>
<g style="mix-blend-mode:soft-light" opacity="0.3">
<path d="M467.982 158.84C467.86 159.696 474.591 159.574 475.57 159.207C476.549 158.717 479.364 156.392 479.364 155.413C479.364 154.434 473.612 149.906 471.776 149.416C470.063 149.049 468.227 157.371 467.982 158.84Z" fill="#AFFFDB"/>
</g>
<g style="mix-blend-mode:multiply">
<path d="M468.349 159.941C467.982 159.207 474.469 159.574 475.081 160.063C475.693 160.431 474.836 166.183 474.346 166.305C473.979 166.55 470.063 162.878 468.349 159.941Z" fill="#D7BDC9"/>
</g>
<g style="mix-blend-mode:soft-light" opacity="0.3">
<path d="M474.836 166.305C474.836 166.305 474.836 164.102 475.57 162.144C476.427 160.186 478.63 159.696 479.119 159.696C479.609 159.696 479.119 163.123 478.018 164.469C476.916 165.693 474.836 166.305 474.836 166.305Z" fill="#AFFFDB"/>
</g>
<path d="M473.612 159.329C473.367 159.084 474.469 158.473 474.958 158.35C475.57 158.228 476.06 158.473 476.06 158.595C476.182 158.595 475.57 159.207 475.081 159.329C474.714 159.329 473.612 159.329 473.612 159.329Z" fill="#AFFFDB"/>
<path d="M490.501 159.084C489.277 159.084 488.543 158.595 488.298 158.35C488.176 157.983 486.462 154.801 486.34 151.619C486.217 148.315 486.34 146.846 486.952 146.234C487.441 145.745 489.522 145.133 489.522 145.133L490.501 159.084Z" fill="#324028"/>
<path d="M490.501 159.084C489.889 158.84 487.196 154.801 486.829 152.72C486.584 150.762 488.91 145.255 489.522 145.133C490.134 145.01 492.337 146.724 493.805 148.804C495.274 150.885 493.56 157.371 493.071 157.738C492.581 158.228 490.746 159.207 490.501 159.084Z" fill="url(#paint7_linear_31_343)"/>
<g style="mix-blend-mode:soft-light" opacity="0.3">
<path d="M486.829 152.108C486.707 152.72 490.991 153.455 491.602 153.21C492.214 152.965 494.05 151.497 494.173 150.64C494.295 149.906 490.868 145.5 489.767 145.01C488.665 144.521 487.074 150.885 486.829 152.108Z" fill="#AFFFDB"/>
</g>
<g style="mix-blend-mode:multiply">
<path d="M487.074 152.965C486.829 152.353 490.868 153.455 491.235 153.822C491.602 154.189 490.746 158.717 490.501 158.84C490.256 158.962 487.931 155.535 487.074 152.965Z" fill="#D7BDC9"/>
</g>
<g style="mix-blend-mode:soft-light" opacity="0.3">
<path d="M490.746 158.84C490.746 158.84 490.868 157.004 491.48 155.658C492.092 154.189 493.56 153.944 493.805 154.067C494.172 154.067 493.683 156.759 492.826 157.738C492.092 158.595 490.746 158.84 490.746 158.84Z" fill="#AFFFDB"/>
</g>
<path d="M490.378 153.088C490.256 152.843 490.868 152.476 491.235 152.476C491.725 152.476 491.969 152.72 491.969 152.72C491.969 152.843 491.602 153.21 491.235 153.21C490.99 153.21 490.378 153.088 490.378 153.088Z" fill="#AFFFDB"/>
<defs>
<linearGradient id="paint0_linear_31_343" x1="418.654" y1="219.46" x2="394.46" y2="130.784" gradientUnits="userSpaceOnUse">
<stop stop-color="#BD5942"/>
<stop offset="0.165" stop-color="#A94041"/>
<stop offset="0.994" stop-color="#E26334"/>
</linearGradient>
<linearGradient id="paint1_linear_31_343" x1="421.929" y1="218.114" x2="397.859" y2="129.892" gradientUnits="userSpaceOnUse">
<stop stop-color="#FF9131"/>
<stop offset="0.994" stop-color="#FF9834"/>
</linearGradient>
<linearGradient id="paint2_linear_31_343" x1="444.231" y1="190.768" x2="431.05" y2="142.456" gradientUnits="userSpaceOnUse">
<stop offset="0.006" stop-color="#E26334"/>
<stop offset="0.835" stop-color="#A94041"/>
</linearGradient>
<linearGradient id="paint3_linear_31_343" x1="414.494" y1="179.627" x2="436.889" y2="106.961" gradientUnits="userSpaceOnUse">
<stop offset="0.165" stop-color="#9E2728"/>
<stop offset="0.994" stop-color="#EA6B20"/>
</linearGradient>
<linearGradient id="paint4_linear_31_343" x1="421.704" y1="188.417" x2="427.124" y2="116.944" gradientUnits="userSpaceOnUse">
<stop stop-color="#FF8C42"/>
<stop offset="0.994" stop-color="#FFD234"/>
</linearGradient>
<linearGradient id="paint5_linear_31_343" x1="427.982" y1="156.955" x2="424.148" y2="142.904" gradientUnits="userSpaceOnUse">
<stop offset="0.006" stop-color="#FF7920"/>
<stop offset="0.835" stop-color="#A94041"/>
</linearGradient>
<linearGradient id="paint6_linear_31_343" x1="467.867" y1="168.326" x2="463.834" y2="151.456" gradientUnits="userSpaceOnUse">
<stop stop-color="#6DFF00"/>
<stop offset="0.438" stop-color="#32761E"/>
<stop offset="1" stop-color="#002C42"/>
</linearGradient>
<linearGradient id="paint7_linear_31_343" x1="486.263" y1="159.606" x2="484.664" y2="145.687" gradientUnits="userSpaceOnUse">
<stop stop-color="#6DFF00"/>
<stop offset="0.438" stop-color="#32761E"/>
<stop offset="1" stop-color="#002C42"/>
</linearGradient>
</defs>
</svg>
