<svg width="110" height="80" viewBox="0 0 110 80" fill="none" xmlns="http://www.w3.org/2000/svg">
<path d="M24.4469 8.62216C24.4469 8.62216 21.5138 8.75549 20.1139 11.222C18.714 13.6218 20.1805 19.8881 20.8472 21.9546C21.5138 24.0211 19.3139 24.6878 19.0473 25.421C18.7806 26.1543 19.7139 27.6209 20.0472 28.6208C20.3805 29.5541 20.3139 31.2207 20.4472 31.8873C20.5805 32.5539 21.8471 36.687 23.1137 38.1535C24.4469 39.6201 25.4469 38.0202 26.4468 39.9534C27.5134 41.9533 32.1131 52.7526 32.1797 53.3525C32.2464 53.8858 29.9132 57.8856 30.3799 58.8188C30.9132 59.8188 31.7798 60.4187 31.9131 61.4853C32.0464 62.5519 31.9798 63.6185 32.8464 64.7518C33.6463 65.885 36.9794 65.7517 37.4461 66.285C37.846 66.8183 38.846 70.1514 39.7792 71.4847C40.7792 72.8179 47.0454 70.3514 47.0454 70.3514L24.4469 8.62216Z" fill="#68B3DB"/>
<path d="M50.5787 66.4184C50.6231 66.8628 50.6454 67.1516 50.6454 67.285C50.4454 70.2848 42.1793 72.018 40.7127 70.5514C40.5794 70.3736 40.3349 69.9292 39.9794 69.2182C36.1797 61.752 21.2473 25.0878 19.9807 16.355C18.5808 6.82231 29.6468 7.08896 34.9131 10.4221C39.9127 13.5552 49.7788 59.0188 50.5787 66.4184Z" fill="url(#paint0_linear_39_4236)"/>
<g style="mix-blend-mode:multiply" opacity="0.9">
<path d="M41.779 71.018C39.7125 70.4181 36.4461 48.4195 36.5127 37.087C36.646 25.7544 42.9123 31.4207 42.9123 31.4207L43.8456 35.0204C43.8456 35.0204 39.7792 26.8876 37.7126 34.6205C35.8461 41.5533 38.7792 59.4188 42.7123 71.0847C42.7123 71.0847 42.2457 71.1514 41.779 71.018Z" fill="#E09781"/>
</g>
<path d="M19.9805 13.4219C19.9805 13.4219 21.3137 12.7552 27.2467 12.022C33.1796 11.2887 35.4461 10.8887 35.4461 10.8887C35.1795 10.0221 31.0464 8.02223 26.1801 8.35554C21.3137 8.75551 20.2471 11.822 19.9805 13.4219Z" fill="#A45934"/>
<g style="mix-blend-mode:multiply" opacity="0.9">
<path d="M44.7792 70.8847C44.7792 70.8847 40.9128 57.0856 41.7794 47.7529C42.646 38.4869 44.1793 36.887 44.1793 36.887L46.4458 46.6196C46.4458 46.6196 44.5126 49.1528 44.7126 58.1522C44.9792 67.1516 47.0457 70.3514 47.0457 70.3514L44.7792 70.8847Z" fill="#E09781"/>
</g>
<g style="mix-blend-mode:multiply" opacity="0.9">
<path d="M34.1132 55.8857C34.1132 55.8857 27.9136 34.4205 28.1802 22.2879C28.4469 10.0887 33.4466 9.6221 33.4466 9.6221C33.4466 9.6221 35.5797 10.3554 36.7797 13.0219C36.7797 13.0219 30.7801 11.822 30.9801 23.7545C31.2467 35.687 36.6463 62.2186 36.6463 62.2186L34.1132 55.8857Z" fill="#E09781"/>
</g>
<path d="M35.1122 54.0858C35.1122 54.0858 34.4456 49.6861 33.6457 42.9532C32.779 36.2203 31.4458 29.7541 31.4458 29.7541C31.4458 29.7541 32.3791 41.02 35.1122 54.0858Z" fill="#8B4334"/>
<path d="M39.2457 58.0189C39.2457 58.0189 37.1792 46.8863 37.3792 39.9534C37.5791 33.0872 39.7123 31.354 39.7123 31.354C39.7123 31.354 37.7791 31.6873 37.2458 37.2203C36.7125 42.8199 37.9125 52.1526 39.2457 58.0189Z" fill="#8B4334"/>
<path d="M45.7792 67.2183C45.7792 67.2183 45.1792 62.152 45.3125 56.7523C45.4458 51.3527 45.9791 47.5529 45.9791 47.5529C45.9791 47.5529 43.1793 52.6192 45.7792 67.2183Z" fill="#8B4334"/>
<g style="mix-blend-mode:multiply" opacity="0.8">
<path d="M42.1125 57.6189C41.9125 55.4857 44.779 53.2859 44.979 48.0195C45.2456 42.6866 43.5124 38.3535 43.5124 38.3535C43.5124 38.3535 40.6459 46.8863 42.1125 57.6189Z" fill="#E09781"/>
</g>
<g style="mix-blend-mode:multiply" opacity="0.8">
<path d="M28.3799 27.0876C28.9132 29.2875 30.3131 18.6215 32.7129 15.0884C35.1794 11.622 36.1794 11.9553 36.1794 11.9553C36.1794 11.9553 34.4462 9.15549 32.5796 9.88877C30.7131 10.6887 26.8467 16.355 28.3799 27.0876Z" fill="#E09781"/>
</g>
<path d="M31.2466 19.2881C31.2466 19.2881 31.5799 18.0215 32.9798 15.555C34.313 13.0885 35.2463 13.1552 35.2463 13.1552C35.2463 13.1552 32.3798 13.1552 31.2466 19.2881Z" fill="#914D3F"/>
<path d="M22.5138 12.7552C21.9805 12.6219 23.7137 11.2887 26.4468 10.822C29.2466 10.4221 30.9799 11.4886 30.5799 11.5553C30.1799 11.622 27.5134 13.6218 22.5138 12.7552Z" fill="#B56D3F"/>
<g style="mix-blend-mode:multiply">
<path d="M43.5792 34.0872C40.3127 30.4207 28.3802 34.6205 29.1135 43.4199L26.7803 37.4203C26.7803 37.4203 28.9135 33.0872 35.1131 30.954C41.3793 28.8208 42.1793 29.4208 42.1793 29.4208L43.5792 34.0872Z" fill="#AB6363"/>
</g>
<g style="mix-blend-mode:multiply">
<path d="M38.3131 65.6851C38.3131 65.6851 40.513 68.5515 46.1792 67.085C51.8455 65.6851 50.0457 64.2185 50.0457 64.2185L49.979 62.2853C49.979 62.2853 41.1796 64.2185 37.6465 64.2185L38.3131 65.6851Z" fill="#AB6363"/>
</g>
<path d="M20.7139 11.3553C20.2473 12.222 22.2471 12.7553 22.2471 12.7553C22.2471 12.7553 20.7139 13.2886 20.1806 13.4885C19.714 13.6885 20.1139 12.0886 20.7139 11.3553Z" fill="#B5723F"/>
<g style="mix-blend-mode:multiply" opacity="0.3">
<path d="M38.3123 35.4871C38.0456 35.9537 37.579 42.3533 38.5789 47.2196C39.5122 52.0859 41.9787 41.7533 42.8453 38.6868C43.7119 35.5537 40.3122 31.954 38.3123 35.4871Z" fill="#E09781"/>
</g>
<g style="mix-blend-mode:multiply" opacity="0.4">
<path d="M35.98 54.6191C35.98 54.6191 33.3135 43.2199 33.1802 35.1537C33.0468 27.021 34.6467 27.021 35.98 26.4877C37.2466 25.8877 36.5799 30.954 36.3133 39.4201C35.98 47.8862 37.7132 55.6857 37.7132 56.2857C37.7799 56.8856 36.5133 57.0856 35.98 54.6191Z" fill="#E09781"/>
</g>
<g style="mix-blend-mode:multiply" opacity="0.4">
<path d="M26.7799 34.0872C26.7799 34.0872 22.5136 23.1546 21.7803 19.7548C20.9803 16.4217 27.1133 13.6885 27.9132 13.3552C28.7132 12.9552 27.1799 18.9548 27.7799 25.4211C28.3798 31.8873 26.7799 34.0872 26.7799 34.0872Z" fill="#E09781"/>
</g>
<path fill-rule="evenodd" clip-rule="evenodd" d="M91.3763 26.5543C91.1985 26.6432 91.0207 26.7321 90.843 26.821C89.2431 27.8209 87.1765 29.5541 86.3766 32.154C86.1544 32.9539 86.0877 33.6872 86.1766 34.3538C86.3099 36.487 87.7098 37.8869 89.7764 37.6203C90.3097 37.5314 90.8874 37.3314 91.5096 37.0203C91.554 36.9759 91.5763 36.9536 91.5763 36.9536C91.6429 38.2869 91.6429 39.6201 91.6429 40.8867C91.6429 41.0645 91.6429 41.22 91.6429 41.3533C91.6429 41.5311 91.6429 41.7089 91.6429 41.8866C91.6429 42.02 91.6429 42.1533 91.6429 42.2866C91.6429 42.4644 91.6429 42.6422 91.6429 42.8199C91.6874 42.9088 91.6874 42.9977 91.6429 43.0866C91.6429 43.3088 91.6651 43.531 91.7096 43.7532C91.7096 43.8421 91.7096 43.9087 91.7096 43.9532C91.7096 44.0421 91.7096 44.1532 91.7096 44.2865C91.7096 44.4198 91.7096 44.5309 91.7096 44.6198C91.7096 44.6198 91.7096 44.642 91.7096 44.6865C91.7096 48.5529 91.7096 51.5527 91.6429 52.7526C91.4429 57.9522 61.3783 62.5519 50.0457 64.2185C40.113 65.6184 36.0466 64.7518 33.3135 63.7519C33.3801 59.2855 31.5802 59.8188 32.1135 57.8856C32.6468 55.5524 33.7134 54.8858 33.7134 54.8858L35.3133 58.7522C35.3133 58.7522 45.7126 59.7521 51.3123 54.2858C56.9119 48.8195 47.5792 50.8194 47.5792 50.8194L44.1794 36.1537C44.1794 36.1537 44.646 35.8204 45.1127 35.0871C45.3349 34.776 45.5126 34.4205 45.646 34.0205C45.9793 33.1539 46.0459 31.954 45.5793 30.4874C44.3794 26.9543 30.3137 32.2206 26.7806 37.3536C26.5139 37.7536 25.314 37.3536 25.314 37.3536C25.314 37.3536 22.7808 35.2871 21.3143 32.3539C20.3143 30.3541 22.3142 31.154 20.1143 26.3543C19.1811 24.3545 28.9804 20.0881 40.8463 16.4217C41.6018 16.1995 42.3573 15.9772 43.1128 15.755C47.1125 14.5551 51.2456 13.4885 55.2453 12.6219C59.1117 11.7775 62.6671 11.0665 65.9113 10.4887C80.177 7.82223 88.1765 7.55559 89.643 8.48886C90.5097 9.08882 91.043 17.2883 91.3763 26.5543ZM85.71 41.02C84.71 42.6866 84.2434 43.8865 84.1767 44.6865C83.9768 46.8863 86.7766 45.7531 88.3098 42.6866C88.8431 41.62 88.9764 40.8867 88.8431 40.4867C88.4431 39.3535 86.1099 40.2867 85.71 41.02Z" fill="url(#paint1_linear_39_4236)"/>
<path fill-rule="evenodd" clip-rule="evenodd" d="M74.111 39.1535C73.9777 40.1534 76.5109 44.2198 75.9109 44.4865C75.3776 44.8198 73.1111 45.5531 72.9778 45.5531C72.8444 45.4864 72.5111 44.2198 72.5111 44.2198C72.5111 44.2198 72.5111 46.2863 72.1112 46.4197C71.6445 46.4863 66.7782 47.8862 66.6449 47.5529C66.5115 47.2196 66.1782 45.2197 66.1782 45.2197C66.1782 45.2197 66.1782 46.8863 65.9116 47.0196C65.6449 47.2196 61.2452 47.6196 61.1786 47.153C61.0452 46.6863 62.3785 42.4866 60.7119 41.6866C59.0454 40.8867 54.8456 43.2865 53.779 39.8868C52.7791 36.5537 52.1125 27.3543 58.7121 23.6878C58.1788 24.9544 60.7119 24.2878 62.1785 23.4212C63.2451 22.7546 64.045 22.0213 64.1117 21.6213C67.3115 20.5547 71.1112 19.8214 72.7778 20.8214C73.5111 21.2213 74.1777 21.9546 74.911 22.8879C72.3778 24.5544 71.7779 26.021 75.4443 24.5544C75.622 24.51 75.7776 24.4433 75.9109 24.3545C78.6441 28.6875 80.9106 35.2871 80.1106 36.5537C79.044 38.2869 74.2444 38.1535 74.111 39.1535ZM71.5779 23.2879C72.6445 22.6212 70.9779 23.0212 70.0446 23.6212C69.3113 24.1545 70.5113 24.0211 71.5779 23.2879ZM63.5117 24.5544C63.845 24.1545 63.4451 23.8212 62.7784 24.2878C62.1118 24.8211 63.2451 24.8878 63.5117 24.5544ZM60.0453 27.9542C57.1122 29.3541 54.579 35.4871 56.7122 37.2869C58.912 39.0202 63.1118 38.8868 63.9117 37.2869C66.1116 33.0206 62.9784 26.4877 60.0453 27.9542ZM70.0446 38.0202C69.978 37.7536 67.1782 34.2205 66.6449 34.9538C66.2449 35.4871 64.7117 39.1535 64.9783 39.2868C65.245 39.3535 67.1115 39.0868 67.3115 39.0202C67.5115 38.9535 67.4448 37.8869 67.3781 37.6202C67.4448 37.8869 67.5781 38.7535 67.8448 38.8868C68.1114 39.0868 70.1113 38.2202 70.0446 38.0202ZM74.9776 31.0873C74.1777 28.4875 69.178 26.621 68.5114 28.5542C67.9114 30.5541 68.7114 33.4872 69.7113 34.0871C73.3777 36.4203 75.7776 33.6205 74.9776 31.0873Z" fill="#BB9AB5"/>
<path style="mix-blend-mode:multiply" opacity="0.5" d="M89.7766 37.6203C89.7322 38.0202 89.621 38.4869 89.4433 39.0202C89.31 39.5535 89.11 40.0423 88.8433 40.4867C88.4433 39.3535 86.1102 40.2867 85.7102 41.02C84.7103 42.6866 84.2436 43.8865 84.177 44.6865C72.6444 51.0194 47.3794 49.6861 47.3794 49.6861L44.5796 36.7536C44.5796 36.6203 44.7796 35.9537 45.1129 35.0871C45.2907 34.776 45.4684 34.4205 45.6462 34.0205C47.7127 30.1541 53.1124 24.0212 63.3783 28.0209C74.3776 32.2206 81.9771 33.1539 86.1768 34.3538C86.3102 36.487 87.7101 37.8869 89.7766 37.6203Z" fill="url(#paint2_linear_39_4236)"/>
<path style="mix-blend-mode:multiply" opacity="0.5" d="M26.7808 37.4203C26.7808 37.4203 24.381 35.8204 23.5144 30.954C22.6478 25.9544 35.1136 12.1553 62.0452 16.955C72.7778 18.8882 48.1127 29.6874 46.6462 29.8208C45.1796 29.9541 46.0462 27.6209 37.5801 30.1541C29.0473 32.6206 26.7808 37.4203 26.7808 37.4203Z" fill="url(#paint3_linear_39_4236)"/>
<path style="mix-blend-mode:multiply" opacity="0.5" d="M38.447 29.8874C38.447 29.8874 34.7806 24.4878 47.4464 18.5548C60.0456 12.5552 76.3778 11.6886 77.4444 12.0886C78.511 12.4886 56.1125 20.1547 50.5796 23.3545C45.0466 26.4876 39.7136 29.4875 38.447 29.8874Z" fill="url(#paint4_linear_39_4236)"/>
<g style="mix-blend-mode:soft-light" opacity="0.2">
<path d="M34.3806 56.5523C34.3806 56.5523 32.8474 59.4188 33.1807 61.552C33.514 63.6185 42.8467 65.0851 61.1122 61.2187C83.844 56.3523 86.2439 49.6194 86.4439 48.6862C86.5772 47.7529 61.6455 51.3527 59.179 52.0859C56.6458 52.8192 54.9793 56.4857 45.3132 59.0188C35.5806 61.552 34.5806 58.3522 34.3806 56.5523Z" fill="#DDFFFF"/>
</g>
<g style="mix-blend-mode:soft-light" opacity="0.2">
<path d="M21.1143 30.6207C21.1143 30.6207 21.5809 27.4876 25.9806 24.1545C30.3803 20.8214 32.7802 20.0881 32.7802 20.0881C32.7802 20.0881 27.2472 24.2212 25.0473 27.421C22.7808 30.6207 21.1143 30.6207 21.1143 30.6207Z" fill="#DDFFFF"/>
</g>
<g style="mix-blend-mode:multiply">
<path d="M50.0454 64.2185C50.0454 64.2185 52.8452 64.0852 67.7776 59.6188C82.7099 55.0858 90.776 54.2858 90.776 54.2858C90.776 54.2858 86.7763 57.4856 75.1771 59.8188C63.5112 62.0853 50.0454 64.2185 50.0454 64.2185Z" fill="#AB6363"/>
</g>
<path d="M34.513 51.3527C34.513 51.3527 34.5797 49.4195 34.4463 46.6197C34.2464 43.8198 32.7798 39.6201 32.7798 39.6201C32.7798 39.6201 33.3131 45.1531 34.513 51.3527Z" fill="#AA5722"/>
<path d="M38.2456 52.6192C38.2456 52.6192 37.3123 45.4864 37.5123 43.8865C37.6456 42.2866 37.179 39.4201 37.179 39.4201C37.179 39.4201 36.9123 45.753 38.2456 52.6192Z" fill="#AA5722"/>
<path d="M50.5788 66.4183C50.6232 66.8627 50.6455 67.1516 50.6455 67.2849C50.4455 70.2847 42.1793 72.018 40.7128 70.5514C40.5795 70.3736 40.335 69.9292 39.9795 69.2181C39.9795 69.2181 43.2459 71.1514 46.4457 70.2847C49.6455 69.4181 50.5788 66.4183 50.5788 66.4183Z" fill="#5E240A"/>
<g style="mix-blend-mode:soft-light">
<path d="M91.5093 37.0203C91.5537 36.9758 91.5759 36.9536 91.5759 36.9536C91.6426 38.4868 91.6426 39.9534 91.6426 41.3533C91.6426 40.1534 91.5759 38.6868 91.5093 37.0203Z" fill="#BAFFFF"/>
</g>
<g style="mix-blend-mode:soft-light">
<path d="M91.3761 26.5543C91.1984 26.6432 91.0206 26.7321 90.8428 26.821C91.2428 19.0882 89.9096 10.0221 86.9097 9.42212C77.777 7.55558 49.7789 14.5551 40.8461 16.4217C39.3796 16.755 38.4463 16.955 38.4463 16.955C39.9129 16.555 41.4683 16.155 43.1126 15.755C50.0455 14.0218 58.1783 12.0886 65.9111 10.4887C80.1769 7.82223 88.1763 7.55559 89.6429 8.48886C90.5095 9.08882 91.0428 17.2883 91.3761 26.5543Z" fill="#BAFFFF"/>
</g>
<path d="M37.0458 37.6869C38.1124 35.5537 39.1123 42.8199 38.979 45.5531C38.779 48.2862 37.4458 48.4195 37.4458 48.4195C37.4458 48.4195 35.1793 41.3533 37.0458 37.6869Z" fill="url(#paint5_linear_39_4236)"/>
<path d="M37.4461 48.4195C37.4461 48.4195 37.3128 48.1529 37.7128 46.2863C38.1128 44.4198 38.9127 43.4199 38.9127 43.4199C38.9127 43.4199 39.646 48.0862 37.4461 48.4195Z" fill="#A3523F"/>
<g style="mix-blend-mode:multiply" opacity="0.6">
<path d="M36.7796 38.2202C36.3796 38.8202 37.0462 43.7532 37.4462 44.1532C37.8462 44.5531 38.7128 43.0866 38.7128 41.0867C38.6461 39.1535 38.0462 36.3537 36.7796 38.2202Z" fill="#904F81"/>
</g>
<path d="M91.5759 36.9536C91.5759 36.9536 90.9093 36.487 89.576 36.7537C86.7762 37.3536 86.1762 35.1538 86.1762 33.4872C86.1762 33.4872 85.9096 35.0204 86.5095 36.2204C87.1762 37.5536 88.7761 38.6202 91.5759 36.9536Z" fill="#4F3C70"/>
<path d="M84.1767 44.6865C84.0434 46.2864 87.9098 43.3532 88.0431 43.1532C88.1098 42.9532 87.5099 45.1531 85.4433 46.0197C83.3768 46.8197 84.1767 44.6865 84.1767 44.6865Z" fill="#4F3C70"/>
<path d="M38.7793 58.7522C38.7793 58.7522 41.1125 59.6854 47.2454 57.5522C53.3117 55.4191 52.9117 52.2859 52.9117 52.2859C52.9117 52.2859 51.7118 55.1524 46.9788 57.0856C42.2457 59.0188 38.7793 58.7522 38.7793 58.7522Z" fill="#4F3C70"/>
<g style="mix-blend-mode:multiply" opacity="0.3">
<path d="M76.9772 15.4884C75.8439 17.8216 75.9106 20.3547 77.7771 20.2881C79.977 20.2214 82.5101 20.7547 83.3101 18.4882C83.4434 18.0882 83.5767 17.6882 83.7767 17.2883C84.4433 15.2884 85.0433 13.2219 82.4435 12.5552C82.4435 12.5552 79.4437 11.622 77.6438 14.2218C77.3771 14.6218 77.1549 15.044 76.9772 15.4884Z" fill="#4F2A6F"/>
</g>
<g style="mix-blend-mode:multiply" opacity="0.5">
<path d="M76.9771 15.4884L76.8438 15.8217C76.8438 15.8217 77.577 14.3551 78.9769 13.5552C80.3769 12.8219 81.9767 12.4886 83.11 13.6885C84.2433 14.8884 83.7766 17.2883 83.7766 17.2883C84.4433 15.2884 85.0432 13.2219 82.4434 12.5552C82.4434 12.5552 79.4436 11.622 77.6437 14.2218C77.3771 14.6218 77.1548 15.044 76.9771 15.4884Z" fill="#4F2A6F"/>
</g>
<g style="mix-blend-mode:multiply" opacity="0.3">
<path d="M82.3763 21.0213C80.7098 21.7546 79.5765 22.8879 80.5098 23.4212C81.5764 24.0878 82.5763 25.0877 84.0429 24.2878C84.2651 24.1545 84.5317 24.0211 84.8428 23.8878C86.1094 23.1545 87.376 22.4212 86.4427 21.3546C86.4427 21.3546 85.4428 20.0214 83.3096 20.6214C82.9985 20.7547 82.6874 20.888 82.3763 21.0213Z" fill="#4F2A6F"/>
</g>
<g style="mix-blend-mode:multiply" opacity="0.5">
<path d="M82.3763 21.0213L82.1763 21.1547C82.1763 21.1547 83.2429 20.688 84.2428 20.7547C85.3094 20.8213 86.2427 21.1547 86.2427 22.0213C86.176 22.9545 84.8428 23.8878 84.8428 23.8878C86.1093 23.1545 87.3759 22.4212 86.4427 21.3546C86.4427 21.3546 85.4427 20.0214 83.3095 20.6214C82.9984 20.7547 82.6873 20.888 82.3763 21.0213Z" fill="#4F2A6F"/>
</g>
<g style="mix-blend-mode:soft-light" opacity="0.5">
<path d="M35.313 58.7522C37.9795 59.2188 36.3796 35.887 35.2463 34.4205C34.113 33.0206 28.3801 38.0202 29.1134 43.4199L35.313 58.7522Z" fill="#FFD8BA"/>
</g>
<g style="mix-blend-mode:soft-light" opacity="0.5">
<path d="M22.0468 23.9545C22.0468 23.9545 26.3798 21.688 27.1798 20.4214C28.0464 19.0881 28.7796 13.8885 28.713 13.2885C28.713 12.7552 22.5134 12.8886 20.9135 13.3552C19.3136 13.8218 19.8469 17.3549 22.0468 23.9545Z" fill="#FFD8BA"/>
</g>
<g style="mix-blend-mode:soft-light" opacity="0.5">
<path d="M38.6465 66.0184C38.6465 66.4183 39.7131 68.9515 40.8463 69.6848C42.0463 70.4181 43.9795 70.618 44.3128 70.4847C44.6461 70.4181 44.1794 67.7516 43.7128 67.6182C43.2462 67.4849 40.913 67.7516 38.6465 66.0184Z" fill="#FFD8BA"/>
</g>
<g style="mix-blend-mode:multiply">
<path d="M44.1792 36.1537C46.1791 33.0872 51.0454 36.5536 53.7119 42.9532C56.4451 49.2861 49.0455 50.8194 47.979 50.5527C46.8457 50.3527 44.1792 36.1537 44.1792 36.1537Z" fill="#AB6363"/>
</g>
<g style="mix-blend-mode:soft-light">
<path d="M64.6443 56.0857C61.3778 58.7522 67.3774 62.0853 69.5106 57.3523C71.6438 52.6193 65.7775 55.1524 64.6443 56.0857Z" fill="#C5CFEA"/>
</g>
<g style="mix-blend-mode:soft-light">
<path d="M73.1104 53.5525C72.2437 56.1524 73.777 56.7523 75.7102 53.5525C77.6434 50.4194 73.4437 52.6859 73.1104 53.5525Z" fill="#C5CFEA"/>
</g>
<defs>
<linearGradient id="paint0_linear_39_4236" x1="1.76861" y1="-1.37915" x2="30.3741" y2="-12.9737" gradientUnits="userSpaceOnUse">
<stop stop-color="#934B29"/>
<stop offset="0.83" stop-color="#611C1F"/>
<stop offset="1" stop-color="#AB4334"/>
</linearGradient>
<linearGradient id="paint1_linear_39_4236" x1="8.18912" y1="53.2819" x2="62.0441" y2="-15.8083" gradientUnits="userSpaceOnUse">
<stop stop-color="#0F0B30"/>
<stop offset="1" stop-color="#45234F"/>
</linearGradient>
<linearGradient id="paint2_linear_39_4236" x1="43.029" y1="29.4115" x2="86.0427" y2="20.2182" gradientUnits="userSpaceOnUse">
<stop stop-color="#0F0030"/>
<stop offset="1" stop-color="white"/>
</linearGradient>
<linearGradient id="paint3_linear_39_4236" x1="21.4332" y1="21.2327" x2="63.413" y2="12.2603" gradientUnits="userSpaceOnUse">
<stop stop-color="#0F0030"/>
<stop offset="1" stop-color="white"/>
</linearGradient>
<linearGradient id="paint4_linear_39_4236" x1="35.9932" y1="19.3695" x2="77.1502" y2="10.5723" gradientUnits="userSpaceOnUse">
<stop stop-color="#0F0030"/>
<stop offset="1" stop-color="white"/>
</linearGradient>
<linearGradient id="paint5_linear_39_4236" x1="19.0423" y1="52.3226" x2="16.7715" y2="41.6981" gradientUnits="userSpaceOnUse">
<stop stop-color="#4F1F11"/>
<stop offset="0.994" stop-color="#48001B"/>
</linearGradient>
</defs>
</svg>
