<svg width="110" height="80" viewBox="0 0 110 80" fill="none" xmlns="http://www.w3.org/2000/svg">
<path d="M75.2113 41.092C75.9447 39.4918 71.2777 39.0251 70.611 37.9584C69.9442 36.825 76.4114 29.4911 78.5449 29.0244C80.6784 28.6243 75.2113 41.092 75.2113 41.092Z" fill="#68B3DB"/>
<path d="M42.2089 6.82265C34.4083 9.15616 29.8079 17.2901 30.4746 23.8906C31.1414 30.5578 40.0087 34.7581 42.8089 35.1582C45.6758 35.6249 45.5425 35.8249 45.6091 36.1582C45.6091 36.4916 39.4087 36.6249 38.5419 37.2917C37.6752 37.9584 40.4754 43.7588 41.8755 44.9589C43.3423 46.159 45.5425 46.359 45.6758 46.6257C45.8091 46.9591 46.0092 50.026 45.8092 51.3594C45.6091 52.6262 44.1424 54.3596 41.3421 54.8263C38.5419 55.293 33.6082 53.2262 33.4749 52.4928C33.4082 51.8261 36.2084 49.0926 36.4084 48.2925C36.5418 47.4924 26.741 43.7588 24.9409 44.2255C23.1407 44.6255 22.674 51.2927 23.2074 56.2264C23.7408 61.2268 26.341 63.3603 27.0077 63.2936C27.7411 63.1603 29.0079 58.8933 30.0746 59.36C31.1414 59.76 34.4083 65.5605 34.4083 65.5605C34.4083 65.5605 36.3418 66.4272 36.7418 68.0273C37.1418 69.5608 37.1418 70.0275 37.1418 70.0275C37.1418 70.0275 38.4753 73.8278 41.5422 74.5612C44.5424 75.2946 49.6094 71.6943 53.5431 72.0277C57.4767 72.361 62.2771 74.0278 62.2771 74.0278L49.9428 32.2246C49.9428 32.2246 39.542 29.8244 37.2085 24.0906C34.875 18.4235 42.2089 6.82265 42.2089 6.82265Z" fill="#68B3DB"/>
<path fill-rule="evenodd" clip-rule="evenodd" d="M87.2121 44.4922C87.2565 44.5366 87.2787 44.5811 87.2787 44.6255C87.2343 44.67 87.2121 44.6922 87.2121 44.6922C86.9454 45.0256 82.9451 42.4254 82.7451 43.4255C82.345 44.8922 82.2783 46.759 82.2117 48.6925C82.2117 53.4262 82.6117 58.76 80.2782 61.2935C78.078 63.6937 71.7442 64.4937 68.4106 67.894C67.1439 69.2274 64.077 73.7611 63.2102 74.0278L63.0769 74.0945C62.2101 74.3612 57.2098 72.161 55.343 71.761C50.7426 70.6942 44.9422 73.4278 41.8086 72.6277C40.2751 72.2277 38.9417 71.0942 37.7416 69.5608C37.6749 69.3608 37.2082 67.9607 36.6082 66.8939C35.9415 65.8272 34.7414 65.2271 34.7414 65.2271C33.6746 63.627 32.6745 61.9602 31.6078 60.6268C31.1189 59.9601 30.6077 59.3822 30.0743 58.8933C29.4743 58.2933 27.8075 61.5602 27.2075 62.2936C27.0741 62.4269 26.9852 62.4491 26.9408 62.3602C25.3406 59.4934 22.0737 46.2923 26.2074 45.0922C27.5408 44.6922 36.3415 47.5591 36.4082 48.2925C36.4082 49.0926 33.9413 51.2927 34.2747 52.0928C34.3413 52.3595 34.8747 52.8262 35.7414 53.2929C37.5416 54.3596 40.7418 55.493 43.4087 54.293C44.3421 53.8263 45.0088 53.3596 45.4089 52.8929C46.7423 51.4261 46.2089 49.8259 46.4089 48.4258C46.7423 46.6257 45.8756 35.4915 45.8756 35.4915C45.8756 35.4915 31.0078 32.8913 32.5412 20.757C32.6301 19.9125 32.7857 19.068 33.0079 18.2235C34.4747 12.9564 38.4083 7.8894 43.2087 6.48929L43.2754 6.42261C48.8758 4.82249 56.0763 7.95607 60.01 12.6231C67.8106 22.0238 56.7431 32.2913 56.7431 32.2913C56.7431 32.2913 61.4101 41.9587 62.6768 43.2921C63.9436 44.6922 64.877 47.2924 69.0107 46.6924C72.7443 46.159 75.0778 41.892 75.4778 40.3586C75.5223 40.1808 75.5445 40.0474 75.5445 39.9585C75.4112 39.2251 72.811 38.6918 71.9442 38.1584H71.8776C71.7887 38.0695 71.722 37.9806 71.6775 37.8917C71.3442 37.2917 77.1446 29.4244 78.5447 29.0243C82.345 27.8909 86.8787 40.9586 87.2121 44.4922ZM52.6761 20.8237C52.6316 20.4237 52.5205 20.0459 52.3427 19.6903C50.9426 16.7567 47.809 16.7567 46.4089 17.1568C45.0088 17.5568 42.342 19.557 42.742 22.7572C42.8087 23.4906 43.142 24.0906 43.542 24.624C45.0088 26.2908 47.809 26.6908 49.0758 26.2908C50.4759 25.8908 52.9428 23.3572 52.6761 20.8237Z" fill="url(#paint0_linear_39_4422)"/>
<g style="mix-blend-mode:multiply">
<path d="M34.2748 52.0928C34.3415 52.3595 34.8749 52.8262 35.7416 53.2929C35.7416 53.2929 31.9413 53.3596 30.9412 53.7596C29.8745 54.2263 31.6079 60.6268 31.6079 60.6268C31.119 59.9601 30.6079 59.3822 30.0745 58.8933C29.4744 58.2933 27.8077 61.5602 27.2076 62.2936L26.9409 62.3603C26.9409 62.3603 27.8743 53.8929 29.2078 51.9595C30.5412 50.0926 35.9416 48.0925 36.4083 48.2925C36.4083 49.0926 33.9415 51.2927 34.2748 52.0928Z" fill="#AB6377"/>
</g>
<g style="mix-blend-mode:multiply">
<path d="M87.2123 44.4922C87.2567 44.5366 87.2789 44.5811 87.2789 44.6255C87.2345 44.67 87.2123 44.6922 87.2123 44.6922C86.9456 45.0256 82.9453 42.4254 82.7452 43.4254C82.3452 44.8922 82.2785 46.759 82.2119 48.6925C81.9452 48.8925 81.7452 49.0259 81.7452 49.0259C81.7452 49.0259 80.7451 40.7586 79.345 39.9585C78.4783 39.3585 76.6114 39.9585 75.478 40.3585C75.5225 40.1807 75.5447 40.0474 75.5447 39.9585C75.4114 39.2251 72.8112 38.6917 71.9444 38.1584H71.8778L71.6777 37.8917C71.8777 37.1583 78.945 35.6248 80.2784 36.4916C81.5452 37.2916 86.8789 43.0921 87.2123 44.4922Z" fill="#AB6377"/>
</g>
<g style="mix-blend-mode:multiply" opacity="0.5">
<path d="M82.7454 43.4254C82.3454 44.8922 82.2787 46.759 82.212 48.6925C82.212 53.4262 82.6121 58.7599 80.2786 61.2935C78.0784 63.6937 71.7446 64.4937 68.411 67.894C67.1442 69.2274 64.0773 73.7611 63.2106 74.0278L63.0772 74.0945C62.2105 74.3611 57.2101 72.161 55.3433 71.7609C50.743 70.6942 44.9425 73.4277 41.8089 72.6277C40.2755 72.2276 38.9421 71.0942 37.742 69.5608C37.6753 69.3608 37.2086 67.9606 36.6085 66.8939C35.9418 65.8272 34.7417 65.2271 34.7417 65.2271C33.675 63.627 32.6749 61.9602 31.6082 60.6268C31.1192 59.96 30.6081 59.3822 30.0747 58.8933C30.0747 58.8933 30.4747 55.1597 30.9414 53.7596C30.9414 53.7596 35.7418 62.5602 41.9423 64.8271C45.6092 66.0938 56.21 63.0269 60.4104 65.2271C62.9439 61.0935 71.6112 57.3598 74.9448 55.493C81.012 52.1594 79.3452 39.9585 79.3452 39.9585C79.3452 39.9585 82.1454 41.892 82.7454 43.4254Z" fill="#AB6377"/>
</g>
<g style="mix-blend-mode:multiply" opacity="0.5">
<path d="M60.3438 64.4937C59.6104 64.6271 44.8759 54.093 45.4093 52.8929C46.7427 51.4261 46.2093 49.826 46.4093 48.4258C46.7427 46.6257 45.876 35.4915 45.876 35.4915C45.876 35.4915 31.0082 32.8913 32.5416 20.7571C32.6305 19.9125 32.7861 19.068 33.0083 18.2235C33.275 18.3569 33.075 18.0235 33.275 18.3569C33.475 18.7569 32.675 24.9574 35.8085 27.8243C38.8754 30.6912 49.8096 30.9578 50.2096 32.0246C50.2763 32.3579 61.0771 64.2937 60.3438 64.4937Z" fill="#AB6377"/>
</g>
<path d="M63.2776 30.3578C57.4771 34.8248 51.9433 36.6916 51.9433 36.6916C51.9433 36.6916 46.6763 38.025 39.3424 37.425C37.6756 37.2916 41.0092 43.9588 42.4093 44.6922C43.8761 45.4256 47.2763 46.8924 55.0769 46.6924C61.2107 42.8921 63.8109 39.5585 64.611 38.1584C65.4777 36.7583 64.611 29.291 63.2776 30.3578Z" fill="url(#paint1_linear_39_4422)"/>
<g style="mix-blend-mode:multiply" opacity="0.5">
<path d="M50.876 31.4912C50.876 31.4912 56.2097 32.8246 56.7431 32.2912C57.2765 31.7579 62.4769 25.5574 62.8102 20.6237C63.0769 15.6233 58.3432 10.8896 58.3432 10.8896C58.3432 10.8896 64.2103 24.8907 50.876 31.4912Z" fill="#AB6377"/>
</g>
<g style="mix-blend-mode:multiply">
<path d="M52.6768 20.8237C52.6324 20.4237 52.5213 20.0459 52.3435 19.6903C50.9434 16.7568 47.8098 16.7568 46.4097 17.1568C45.0096 17.5568 42.3427 19.557 42.7427 22.7572C42.8094 23.4906 43.1428 24.0907 43.5428 24.624C41.1426 22.2905 40.5426 17.5568 45.1429 14.9566C50.41 11.8897 52.8768 17.8235 52.6768 20.8237Z" fill="#AB6377"/>
</g>
<g style="mix-blend-mode:soft-light" opacity="0.3">
<path d="M72.2114 37.225C72.1448 37.4917 78.7453 35.9582 79.2786 35.6249C79.8787 35.2249 78.5453 29.0244 78.5453 29.0244C78.5453 29.0244 74.0782 32.6247 72.2114 37.225Z" fill="#C5CFEA"/>
</g>
<g style="mix-blend-mode:soft-light" opacity="0.3">
<path d="M25.4736 45.4922C24.8069 45.6923 27.9404 50.626 28.3405 51.226C28.8072 51.7594 34.4076 48.6925 35.2743 48.3591C36.1411 48.0258 29.0739 44.2921 25.4736 45.4922Z" fill="#C5CFEA"/>
</g>
<g style="mix-blend-mode:multiply" opacity="0.3">
<path d="M33.3416 20.557C33.2749 20.8237 37.4753 24.7574 39.2754 23.4906C41.3422 22.0238 41.3422 15.09 45.2759 13.9565C53.5432 11.4897 53.6098 25.6908 58.3435 15.2233C58.8102 14.2899 55.1433 4.15578 44.5425 6.55597C33.9417 8.88948 33.5416 19.4236 33.3416 20.557Z" fill="#AB6377"/>
</g>
<g style="mix-blend-mode:soft-light" opacity="0.3">
<path d="M36.5418 24.624C35.2084 24.424 42.7423 31.9579 49.8761 30.9578C56.9434 29.9577 59.4102 20.8904 59.4769 20.357C59.4769 19.7569 53.2764 21.6237 52.943 21.8238C52.6097 22.0904 52.6764 25.5574 48.5427 26.4908C44.4091 27.4242 41.3422 23.9573 41.1421 23.6906C40.9421 23.4239 36.5418 24.624 36.5418 24.624Z" fill="#C5CFEA"/>
</g>
<g style="mix-blend-mode:soft-light" opacity="0.3">
<path d="M61.0775 64.227C60.5441 63.6937 64.4111 52.6261 65.8778 50.5593C67.2779 48.4925 72.8117 45.6256 75.0785 43.2254C77.4121 40.8252 80.1456 42.8254 79.1455 48.4258C78.1454 53.9596 74.8785 55.9597 70.0115 58.0265C65.1444 60.16 61.0775 64.227 61.0775 64.227Z" fill="#C5CFEA"/>
</g>
<g style="mix-blend-mode:soft-light" opacity="0.3">
<path d="M39.4083 63.4937C37.2081 60.8935 33.4078 55.1597 33.4745 54.7597C33.6078 54.3597 39.2749 55.4931 43.2752 55.2931C47.2756 55.093 59.2765 64.7605 59.2765 64.7605C59.2765 64.7605 54.4094 64.1604 49.2757 64.8271C44.0753 65.4938 40.8751 65.2272 39.4083 63.4937Z" fill="#C5CFEA"/>
</g>
<g style="mix-blend-mode:multiply" opacity="0.5">
<path d="M26.6079 61.6269C26.6079 61.6269 28.1413 54.0263 28.0746 52.7595C28.008 51.4928 25.8745 47.9592 25.4744 47.3591C25.0744 46.8258 23.3409 52.0262 26.6079 61.6269Z" fill="#AB6377"/>
</g>
<g style="mix-blend-mode:multiply" opacity="0.5">
<path d="M87.1458 43.8255C87.1458 43.8255 81.6787 37.9584 80.4786 35.6916C79.3452 33.4247 79.3452 29.0244 79.3452 29.0244C79.3452 29.0244 82.0121 29.4244 84.1456 34.9582C86.2791 40.4919 87.1458 43.8255 87.1458 43.8255Z" fill="#AB6377"/>
</g>
<g style="mix-blend-mode:multiply" opacity="0.5">
<path d="M42.2087 44.4922C41.8753 43.5588 41.742 42.3587 41.8753 41.9587C42.0753 41.6253 51.8094 40.8252 52.3428 41.2919C52.9428 41.8253 55.0763 46.6924 55.0763 46.6924C55.0763 46.6924 46.409 47.0924 42.2087 44.4922Z" fill="#AB6377"/>
</g>
<g style="mix-blend-mode:soft-light" opacity="0.3">
<path d="M39.8083 37.425C39.3416 37.425 41.5418 41.8921 41.8752 41.9587C42.2085 42.0921 52.3426 41.3587 53.4094 41.0253C54.4761 40.7586 63.2101 35.5582 63.6768 34.6915C64.1435 33.8914 63.2768 30.3578 63.2768 30.3578C63.2768 30.3578 56.6096 35.3582 52.276 36.625C47.9423 37.8917 39.8083 37.425 39.8083 37.425Z" fill="#C5CFEA"/>
</g>
<g style="mix-blend-mode:multiply" opacity="0.5">
<path d="M42.9428 72.7611C42.3428 72.6277 43.0095 66.3606 44.2096 65.7605C45.4097 65.1605 54.077 64.2271 57.0772 65.2938C60.0775 66.4272 62.8777 73.0944 63.011 73.5611C63.0777 74.0945 55.0104 71.4276 54.2104 70.5609C53.4103 69.7608 45.4097 73.4945 42.9428 72.7611Z" fill="#AB6377"/>
</g>
<g style="mix-blend-mode:multiply" opacity="0.5">
<path d="M45.876 35.4915C45.876 35.4915 49.5429 32.8246 49.9429 32.2246C50.343 31.6912 44.8759 30.9578 42.4757 30.6911C40.0755 30.3578 37.942 29.7577 37.4753 29.9577C37.0753 30.1578 36.6753 33.358 45.876 35.4915Z" fill="#AB6377"/>
</g>
<path d="M35.8081 60.4268C35.8081 60.4268 40.4085 63.627 42.942 64.4938C45.4755 65.4272 55.0762 64.0937 57.0097 64.1604C59.0099 64.1604 60.41 65.2272 60.41 65.2272C60.41 65.2272 56.9431 64.5604 55.543 64.5604C54.1428 64.4938 44.6754 65.8272 42.4086 65.2938C40.1418 64.6938 35.8081 60.4268 35.8081 60.4268Z" fill="#453459"/>
<path d="M61.0771 64.227C61.0771 64.227 65.2108 60.0267 66.6109 58.8933C67.9443 57.8265 74.3448 55.6264 75.8783 54.6263C75.8783 54.6263 75.2116 55.5597 73.0781 56.4931C70.9446 57.4265 66.5442 59.4267 61.0771 64.227Z" fill="#453459"/>
<path d="M77.478 53.0262C77.478 53.0262 77.6114 51.026 78.0781 49.2259C78.4781 47.3591 79.4115 45.2922 79.4115 45.2922C79.4115 45.2922 79.4115 50.2259 77.478 53.0262Z" fill="#453459"/>
<path d="M78.2786 36.1583C78.1452 36.0916 80.0787 34.3581 80.0787 34.3581C80.0787 34.3581 81.2121 35.6249 81.3455 36.3583C81.4788 37.1583 81.6788 37.7584 81.6788 37.7584C81.6788 37.7584 79.5453 36.3583 78.2786 36.1583Z" fill="#3D2B51"/>
<path d="M28.4077 54.0929C27.941 54.1596 27.3409 51.426 27.741 50.8927C28.141 50.426 30.4078 50.6926 30.4745 50.7593C30.6078 50.826 28.4077 54.0929 28.4077 54.0929Z" fill="#3D2B51"/>
<path d="M40.942 40.2918C40.942 40.2918 41.742 41.3586 41.8754 41.9586C42.0087 42.6254 41.8087 43.2921 41.8087 43.2921C41.8087 43.2921 40.742 41.4919 40.942 40.2918Z" fill="#453459"/>
<path d="M47.3423 41.292C47.3423 41.292 52.4093 40.8253 53.6761 40.5586C54.8762 40.3585 57.4764 38.8918 57.4764 38.8918C57.4764 38.8918 54.2762 41.2253 53.3427 41.6253C52.4093 42.0253 47.3423 41.292 47.3423 41.292Z" fill="#453459"/>
<g style="mix-blend-mode:multiply" opacity="0.5">
<path d="M77.6783 63.027C76.8115 62.9603 70.8777 59.5601 68.4776 59.4267C66.0774 59.36 62.2104 63.8271 61.8104 65.1605C61.3437 66.4939 63.6105 73.7612 63.6105 73.7612C63.6105 73.7612 66.7441 69.2941 68.8776 67.094C71.0111 64.8938 77.6783 63.027 77.6783 63.027Z" fill="#AB6377"/>
</g>
<path d="M77.0783 50.6261C76.6116 50.4927 75.3449 52.7595 75.6782 54.8264C75.9449 56.8932 77.0117 57.9599 77.2783 57.8933C77.545 57.8266 80.3452 51.5595 77.0783 50.6261Z" fill="#231234"/>
<g style="mix-blend-mode:multiply">
<path d="M77.0785 50.626C76.4117 50.8927 75.545 52.5595 76.0784 54.2263C76.6118 55.9597 77.9452 54.693 78.4119 53.2262C78.9453 51.8261 77.5452 50.426 77.0785 50.626Z" fill="#AB6377"/>
</g>
<path d="M75.6775 54.8263C75.7442 54.2263 77.611 56.1598 77.6777 56.5598C77.811 56.9598 77.2776 57.8266 77.1443 57.8933C77.0109 57.9599 75.5442 56.2931 75.6775 54.8263Z" fill="#39203E"/>
<path d="M76.4116 57.0931C76.4116 57.0265 77.2117 57.5598 77.2784 57.6932C77.2784 57.7599 77.2784 57.8932 77.2784 57.8932C77.2784 57.8932 77.2784 57.9599 76.945 57.7599C76.6783 57.5598 76.4116 57.0931 76.4116 57.0931Z" fill="#65637D"/>
<path d="M59.0101 15.4899C58.5434 15.3565 57.3433 17.6234 57.61 19.6902C57.8767 21.757 59.0101 22.8904 59.2101 22.7571C59.4768 22.6904 62.277 16.4233 59.0101 15.4899Z" fill="#231234"/>
<g style="mix-blend-mode:multiply">
<path d="M59.0101 15.4899C58.3434 15.7566 57.4767 17.4234 58.01 19.1568C58.5434 20.8236 59.8768 19.5569 60.3435 18.1567C60.8769 16.69 59.4768 15.3565 59.0101 15.4899Z" fill="#AB6377"/>
</g>
<path d="M57.6106 19.6903C57.6773 19.0902 59.5441 21.0237 59.6108 21.4237C59.7441 21.8238 59.2774 22.6905 59.0774 22.7572C58.944 22.8238 57.4773 21.157 57.6106 19.6903Z" fill="#39203E"/>
<path d="M58.3433 21.957C58.4099 21.8904 59.1433 22.4237 59.21 22.5571C59.2767 22.6904 59.21 22.7571 59.21 22.7571C59.21 22.7571 59.21 22.8904 58.9433 22.6238C58.6099 22.4237 58.3433 21.957 58.3433 21.957Z" fill="#65637D"/>
<g style="mix-blend-mode:multiply" opacity="0.3">
<path d="M49.6096 51.3594C49.9429 53.6263 51.0763 55.6931 52.1431 55.093C53.3432 54.4263 55.01 54.093 54.4766 51.9595C54.3877 51.6039 54.2988 51.2261 54.2099 50.8261C53.7432 48.9592 53.2098 47.0924 51.4764 47.3591C51.4764 47.3591 49.3429 47.4258 49.4762 50.0927C49.4762 50.5371 49.5207 50.9594 49.6096 51.3594Z" fill="#4F2A6F"/>
</g>
<g style="mix-blend-mode:multiply" opacity="0.5">
<path d="M49.6096 51.3594L49.6762 51.6261C49.6762 51.6261 49.4762 50.226 49.9429 49.1593C50.4096 48.1592 51.143 47.3591 52.3431 48.0258C53.4765 48.6926 54.2099 50.8261 54.2099 50.8261C53.7432 48.9592 53.2098 47.0924 51.4764 47.3591C51.4764 47.3591 49.3429 47.4258 49.4762 50.0927C49.4762 50.5371 49.5207 50.9594 49.6096 51.3594Z" fill="#4F2A6F"/>
</g>
<g style="mix-blend-mode:multiply" opacity="0.3">
<path d="M52.2765 14.1565C52.6765 16.4233 53.8099 18.4902 54.81 17.8901C56.0768 17.1567 57.7436 16.8901 57.2102 14.7566C57.1213 14.401 57.0324 14.0232 56.9435 13.6231C56.4768 11.7563 55.8768 9.88951 54.21 10.0895C54.21 10.0895 52.0765 10.2229 52.1431 12.8897C52.1876 13.3342 52.232 13.7565 52.2765 14.1565Z" fill="#4F2A6F"/>
</g>
<g style="mix-blend-mode:multiply" opacity="0.5">
<path d="M52.2765 14.1565L52.4098 14.4232C52.4098 14.4232 52.1431 13.0231 52.6098 11.9563C53.0765 10.9563 53.8766 10.1562 55.01 10.8229C56.2101 11.4896 56.9435 13.6231 56.9435 13.6231C56.4768 11.7563 55.8768 9.88951 54.21 10.0895C54.21 10.0895 52.0765 10.2229 52.1431 12.8897C52.1876 13.3342 52.232 13.7565 52.2765 14.1565Z" fill="#4F2A6F"/>
</g>
<g style="mix-blend-mode:multiply" opacity="0.3">
<path d="M54.6768 54.693C54.2101 55.4931 54.2101 56.8932 54.9435 57.6932C55.8769 58.6933 56.877 60.0934 57.2103 59.2267C57.2992 59.0933 57.3659 58.9378 57.4103 58.76C57.7437 58.0266 57.9437 57.1598 56.9436 55.6931C56.9436 55.6931 55.7435 53.8263 55.0101 54.3596C54.8768 54.4485 54.7657 54.5596 54.6768 54.693Z" fill="#4F2A6F"/>
</g>
<g style="mix-blend-mode:multiply" opacity="0.5">
<path d="M54.6768 54.693V54.8263C54.6768 54.8263 54.9434 54.4263 55.5435 54.6263C56.0769 54.8263 56.7436 55.4264 57.2103 56.5598C57.6103 57.7599 57.4103 58.76 57.4103 58.76C57.7437 58.0266 57.9437 57.1598 56.9436 55.6931C56.9436 55.6931 55.7435 53.8263 55.0101 54.3596C54.8768 54.4485 54.7657 54.5597 54.6768 54.693Z" fill="#4F2A6F"/>
</g>
<g style="mix-blend-mode:multiply" opacity="0.8">
<path d="M58.0772 49.2925C57.4771 48.5591 59.2106 48.6258 59.1439 46.6257C59.0106 44.6922 60.9441 45.2922 62.4775 47.7591C64.0776 50.1593 63.7443 57.4932 60.8774 56.9598C58.0105 56.4931 58.0772 49.2925 58.0772 49.2925Z" fill="#D4B6D7"/>
</g>
<g style="mix-blend-mode:multiply">
<path d="M64.8107 37.6917C64.8107 37.6917 63.8773 35.7583 63.8106 34.2248C63.744 32.6913 63.5439 30.3578 63.5439 30.3578C63.5439 30.3578 65.5441 32.758 64.8107 37.6917Z" fill="#AB6377"/>
</g>
<g style="mix-blend-mode:soft-light" opacity="0.3">
<path d="M70.1441 57.0932C68.144 57.6932 68.744 53.5596 70.4775 49.5593C72.1443 45.6256 77.3447 43.7588 77.7447 43.5588C78.0781 43.3588 77.878 48.5592 77.678 49.4259C77.4113 50.226 78.0114 48.8259 76.6113 50.1593C75.2112 51.4261 74.8111 54.6263 74.4778 55.0263C74.1444 55.493 70.1441 57.0932 70.1441 57.0932Z" fill="#C5CFEA"/>
</g>
<g style="mix-blend-mode:soft-light" opacity="0.3">
<path d="M65.9437 58.96C66.8104 58.4266 67.9438 57.2932 68.4772 54.6263C69.0106 51.8928 69.8106 49.0925 69.4106 49.0259C69.0106 48.9592 67.2104 49.2926 65.677 51.6261C64.2102 53.9596 64.0768 58.1599 63.9435 59.2933C63.8102 60.3601 65.9437 58.96 65.9437 58.96Z" fill="#C5CFEA"/>
</g>
<g style="mix-blend-mode:soft-light" opacity="0.3">
<path d="M43.3429 64.227C43.8096 64.2937 45.9431 64.427 49.21 64.1604C52.4769 63.8937 51.8769 62.3602 53.277 62.4936C54.6771 62.5602 53.7437 60.8268 50.6768 58.6266C47.6765 56.3598 44.8097 55.8264 44.4763 56.3598C44.1429 56.8931 46.9432 59.0266 47.0765 59.56C47.1432 60.0267 43.7429 56.5598 41.4761 56.0264C39.1426 55.493 36.7424 56.1597 36.2757 56.3598C35.809 56.4931 38.7425 63.5603 43.3429 64.227Z" fill="#C5CFEA"/>
</g>
<g style="mix-blend-mode:soft-light" opacity="0.3">
<path d="M26.1409 45.4922C25.4741 45.6256 27.4076 48.4925 27.8743 49.5592C28.4077 50.626 30.1412 50.2259 30.3412 50.2926C30.6079 50.2926 33.6748 48.7592 34.4748 48.4258C35.2082 48.0924 27.8743 45.2922 26.1409 45.4922Z" fill="#C5CFEA"/>
</g>
<g style="mix-blend-mode:soft-light" opacity="0.3">
<path d="M34.9412 64.7604C34.2745 64.227 33.2078 60.4268 32.5411 58.4266C31.941 56.3598 36.5414 61.0935 37.5414 62.9603C38.5415 64.8938 38.4082 68.3607 38.2748 68.7607C38.1415 69.1608 36.6747 66.2272 34.9412 64.7604Z" fill="#C5CFEA"/>
</g>
<g style="mix-blend-mode:multiply">
<path d="M62.4101 42.9588C62.4101 42.9588 57.4764 45.759 55.0762 46.6924C55.0762 46.6924 57.0763 45.4923 58.9431 43.9589C60.8766 42.4254 61.61 41.7587 61.61 41.7587L62.4101 42.9588Z" fill="#AB6377"/>
</g>
<g style="mix-blend-mode:multiply">
<path d="M46.4761 48.0258C48.1429 46.359 53.2766 46.6924 53.2766 46.6924L46.4761 46.0923V48.0258Z" fill="#AB6377"/>
</g>
<path d="M58.5435 38.225C58.5435 38.225 60.0769 37.0249 60.4103 36.4916C60.7436 36.0249 62.6104 35.5582 62.6104 35.5582C62.6104 35.5582 62.1437 36.6916 61.1437 37.225C60.0769 37.825 58.5435 38.225 58.5435 38.225Z" fill="#453459"/>
<g style="mix-blend-mode:multiply" opacity="0.5">
<path d="M48.2096 41.6253C45.9427 42.292 48.7429 45.0255 49.743 45.4922C50.7431 45.959 54.2767 45.8256 54.4767 45.8256C54.6767 45.7589 53.3433 42.8254 52.9433 42.3587C52.6099 41.892 48.2096 41.6253 48.2096 41.6253Z" fill="#AB6377"/>
</g>
<g style="mix-blend-mode:multiply" opacity="0.5">
<path d="M56.7432 32.2913C56.7432 32.2913 54.0097 31.3579 53.8097 30.9578C53.6096 30.6245 55.8098 28.491 56.6765 27.6242C57.4766 26.8242 58.3433 28.6243 58.41 28.891C58.5434 29.091 57.61 27.0242 57.5433 26.4242C57.4099 25.8908 58.81 23.6239 59.5434 22.4905C60.3435 21.2904 61.2102 24.2907 61.2769 24.424C61.2769 24.5573 61.7436 23.8906 61.7436 23.8906C61.7436 23.8906 60.6768 28.491 56.7432 32.2913Z" fill="#AB6377"/>
</g>
<g style="mix-blend-mode:soft-light" opacity="0.3">
<path d="M44.609 37.8918C43.6756 38.0918 48.9427 41.6254 52.5429 40.7586C56.1432 39.8252 58.9434 37.3584 60.8769 35.4916C62.8104 33.6248 62.6771 32.0246 62.8104 31.6246C62.8771 31.2246 59.7435 33.1581 55.1431 35.4916C50.4761 37.7584 44.609 37.8918 44.609 37.8918Z" fill="#C5CFEA"/>
</g>
<g style="mix-blend-mode:multiply">
<path d="M43.0762 16.6234C41.8094 19.0902 42.4095 20.0236 42.5428 20.2237C42.6762 20.357 44.1429 17.7568 46.4098 17.1568C48.61 16.5567 50.2768 17.7568 50.4768 17.6235C50.6768 17.5568 49.9434 13.9565 47.6099 14.1565C45.343 14.4232 43.0762 16.6234 43.0762 16.6234Z" fill="#AB6377"/>
</g>
<g style="mix-blend-mode:soft-light" opacity="0.3">
<path d="M72.411 37.825C72.1443 37.9583 75.4112 39.2918 75.9446 39.4918C76.5446 39.6251 79.8782 39.2918 80.5449 39.3584C81.2116 39.3584 79.5448 36.5582 77.878 36.5582C76.2112 36.4916 73.211 37.3583 72.411 37.825Z" fill="#81CEFF"/>
</g>
<g style="mix-blend-mode:soft-light" opacity="0.3">
<path d="M38.075 31.2912C37.875 30.4911 43.4755 30.7578 45.4756 31.4245C47.5424 32.0912 47.4758 34.0247 46.209 34.6914C44.9422 35.4248 38.6751 33.9581 38.075 31.2912Z" fill="#81CEFF"/>
</g>
<path d="M64.4774 65.2272C62.6106 70.2942 67.011 70.3609 69.4778 64.9605C72.0113 59.5601 65.3442 62.7603 64.4774 65.2272Z" fill="url(#paint2_linear_39_4422)"/>
<path d="M69.9442 64.2937C69.4108 65.0271 70.4776 64.7604 71.0776 63.9604C71.6777 63.1603 70.2109 63.8937 69.9442 64.2937Z" fill="url(#paint3_linear_39_4422)"/>
<path d="M73.945 62.7603C71.9448 65.0271 75.4784 64.4271 78.1453 62.2936C80.8122 60.2267 76.6785 59.6267 73.945 62.7603Z" fill="url(#paint4_linear_39_4422)"/>
<path d="M67.0772 60.3601C64.5437 63.027 69.1441 62.4269 70.4775 60.2934C71.7443 58.1599 67.8773 59.56 67.0772 60.3601Z" fill="url(#paint5_linear_39_4422)"/>
<path d="M54.2094 62.0936C53.2093 62.2269 55.2761 63.1603 55.7428 63.227C56.2095 63.227 55.0094 61.9602 54.2094 62.0936Z" fill="url(#paint6_linear_39_4422)"/>
<path d="M49.5421 62.2269C48.8087 62.4936 49.8088 63.827 52.209 63.827C54.6758 63.827 53.2091 60.8935 49.5421 62.2269Z" fill="url(#paint7_linear_39_4422)"/>
<path d="M43.9424 65.4271C43.9424 65.4271 46.1426 64.1604 47.2093 64.4937C48.276 64.7604 48.8094 65.2938 48.8094 65.2938C48.8094 65.2938 47.7427 66.4939 46.4759 66.4272C45.2091 66.3605 43.9424 65.4271 43.9424 65.4271Z" fill="#231234"/>
<path d="M44.6094 65.8271C44.6094 65.8271 46.0095 66.0938 47.0096 65.9605C48.0763 65.8938 48.4763 65.6271 48.4763 65.6271C48.4763 65.6271 47.6096 66.3605 46.6095 66.4939C45.6095 66.6272 44.6094 65.8271 44.6094 65.8271Z" fill="#514F6C"/>
<g style="mix-blend-mode:multiply">
<path d="M44.7428 65.0938C44.4761 65.2272 45.2095 65.7605 46.5429 65.8939C47.8764 66.0272 48.3431 65.2938 48.4098 65.2272C48.4764 65.1605 47.543 63.4937 44.7428 65.0938Z" fill="#AB6377"/>
</g>
<path d="M39.0757 37.4917C40.7425 36.825 45.9429 36.4916 45.9429 36.4916L51.9433 36.6916C51.9433 36.6916 47.343 38.0917 45.4095 38.1584C43.5427 38.2251 39.0757 37.4917 39.0757 37.4917Z" fill="#514F6C"/>
<path d="M52.2764 36.6249C52.2764 36.6249 56.7434 33.158 57.6768 32.6913C58.6769 32.2246 63.3439 30.0911 63.5439 30.3578C63.6772 30.5578 60.077 34.0247 58.0101 34.8915C56.01 35.8249 52.2764 36.6249 52.2764 36.6249Z" fill="#514F6C"/>
<path d="M33.8076 15.6233C33.8076 15.6233 37.8079 11.223 40.8082 9.35618C43.8084 7.4227 47.0086 6.22261 47.0086 6.22261C47.0086 6.22261 43.675 5.22253 39.6081 8.35611C35.6078 11.4897 33.8076 15.6233 33.8076 15.6233Z" fill="#514F6C"/>
<path d="M44.0753 59.36C42.5418 59.9601 45.9421 60.6935 46.8755 60.6268C47.8089 60.5601 45.2087 58.8266 44.0753 59.36Z" fill="#1C0B38"/>
<path d="M43.6756 59.56C43.6756 60.0267 46.4758 60.6268 46.4758 60.6268C46.4758 60.6268 43.4089 60.6934 43.6756 59.56Z" fill="#65637D"/>
<path d="M38.8758 56.8265C32.4086 55.9598 44.5429 58.2266 48.0765 58.8267C51.6101 59.4267 43.8095 57.4932 38.8758 56.8265Z" fill="#1C0B38"/>
<path d="M37.3416 56.6264C36.6082 56.6931 46.4089 58.5599 46.4089 58.5599C46.4089 58.5599 34.8747 56.6264 37.3416 56.6264Z" fill="#65637D"/>
<g style="mix-blend-mode:soft-light" opacity="0.5">
<path d="M81.0119 53.4929C80.4119 54.7597 80.7452 57.0932 81.4119 56.6265C82.0786 56.2265 81.3453 52.8262 81.0119 53.4929Z" fill="#C5CFEA"/>
</g>
<g style="mix-blend-mode:soft-light" opacity="0.5">
<path d="M70.6772 50.3594C69.6772 52.8262 72.144 53.5596 73.0774 50.626C74.0108 47.6258 71.3439 48.8926 70.6772 50.3594Z" fill="#C5CFEA"/>
</g>
<g style="mix-blend-mode:soft-light" opacity="0.5">
<path d="M74.0109 49.1592C73.3441 50.6927 74.0109 50.2927 74.3442 49.4926C74.6109 48.6259 74.0109 49.1592 74.0109 49.1592Z" fill="#C5CFEA"/>
</g>
<g style="mix-blend-mode:soft-light" opacity="0.5">
<path d="M77.145 32.4247C76.4783 36.1583 78.2118 34.8915 78.2784 33.0914C78.3451 31.3579 77.145 32.158 77.145 32.4247Z" fill="#C5CFEA"/>
</g>
<path d="M54.7432 57.4265C54.7432 57.4265 55.8766 58.76 56.4766 59.16C57.01 59.4934 57.2767 59.0933 57.2767 59.0933C57.2767 59.0933 57.21 59.4934 57.01 59.6267C56.5433 59.8934 55.0765 58.2933 54.7432 57.4265Z" fill="#3D2B51"/>
<path d="M50.0757 53.1596C50.0757 53.1596 51.0758 54.9597 51.7425 55.0264C52.3425 55.1597 53.4093 54.3597 53.876 53.9596C54.4094 53.5596 54.6094 52.4262 54.6094 52.4262C54.6094 52.4262 54.676 52.9596 54.476 53.5596C54.3427 54.093 53.1426 54.5597 52.3425 55.093C51.5425 55.6264 50.8091 54.893 50.0757 53.1596Z" fill="#3D2B51"/>
<defs>
<linearGradient id="paint0_linear_39_4422" x1="18.9535" y1="79.5502" x2="18.9535" y2="-3.92351" gradientUnits="userSpaceOnUse">
<stop stop-color="#2A1036"/>
<stop offset="0.597" stop-color="#3D3252"/>
<stop offset="1" stop-color="#656883"/>
</linearGradient>
<linearGradient id="paint1_linear_39_4422" x1="52.142" y1="48.6578" x2="47.5151" y2="32.9406" gradientUnits="userSpaceOnUse">
<stop stop-color="#2A1036"/>
<stop offset="1" stop-color="#3D3252"/>
</linearGradient>
<linearGradient id="paint2_linear_39_4422" x1="62.832" y1="63.7304" x2="69.7371" y2="61.6974" gradientUnits="userSpaceOnUse">
<stop stop-color="#39462C"/>
<stop offset="1" stop-color="#39430B"/>
</linearGradient>
<linearGradient id="paint3_linear_39_4422" x1="69.5989" y1="64.0231" x2="71.1876" y2="63.5556" gradientUnits="userSpaceOnUse">
<stop stop-color="#39462C"/>
<stop offset="1" stop-color="#39430B"/>
</linearGradient>
<linearGradient id="paint4_linear_39_4422" x1="72.8216" y1="61.9669" x2="78.7576" y2="60.2201" gradientUnits="userSpaceOnUse">
<stop stop-color="#39462C"/>
<stop offset="1" stop-color="#39430B"/>
</linearGradient>
<linearGradient id="paint5_linear_39_4422" x1="65.9172" y1="60.2761" x2="70.5237" y2="58.9206" gradientUnits="userSpaceOnUse">
<stop stop-color="#39462C"/>
<stop offset="1" stop-color="#39430B"/>
</linearGradient>
<linearGradient id="paint6_linear_39_4422" x1="53.8893" y1="62.1356" x2="55.4188" y2="61.6856" gradientUnits="userSpaceOnUse">
<stop stop-color="#395A2C"/>
<stop offset="1" stop-color="#395A0B"/>
</linearGradient>
<linearGradient id="paint7_linear_39_4422" x1="49.2468" y1="62.3089" x2="52.913" y2="61.2293" gradientUnits="userSpaceOnUse">
<stop stop-color="#395A2C"/>
<stop offset="1" stop-color="#395A0B"/>
</linearGradient>
</defs>
</svg>
