<svg width="110" height="80" viewBox="0 0 110 80" fill="none" xmlns="http://www.w3.org/2000/svg">
<path d="M68.7025 48.96C73.2625 48.88 85.0225 47.44 92.1425 47.44C92.7825 47.44 93.4225 47.44 93.9825 47.44C94.7025 53.76 94.7025 61.92 93.9825 68.32C92.3825 68.56 87.1025 68.64 80.4625 68.64C68.2225 68.64 51.6625 68.32 46.8625 68.08C46.2225 63.68 46.3025 47.76 46.9425 41.12C54.8625 40.24 74.6225 41.28 74.6225 35.36C74.6225 32.4 69.5825 31.76 63.1825 31.76C58.5425 31.76 53.2625 32.08 48.7025 32.08C48.0625 32.08 47.4225 32.08 46.8625 32.08C46.1425 25.84 46.1425 17.76 46.8625 11.44C52.2225 11.2 57.4225 10.96 62.3025 10.96C80.7825 10.96 94.8625 13.92 94.8625 28.4C94.8625 44.96 75.5025 45.2 68.7025 46.24V48.96Z" fill="white"/>
<path d="M39.44 12.72C40.08 23.44 39.92 56.72 39.44 68C36.48 68.4 32.56 68.56 28.64 68.56C24.72 68.56 20.8 68.4 17.76 68C17.36 61.44 17.2 48 17.28 35.6C15.04 35.52 13.04 35.44 11.28 35.36C10.72 30.56 9.67999 17.04 10.24 12.4C13.28 12.16 18.16 12 23.12 12C29.44 12 35.92 12.24 39.44 12.72Z" fill="white"/>
</svg>
