<svg width="110" height="80" viewBox="0 0 110 80" fill="none" xmlns="http://www.w3.org/2000/svg">
<path d="M31.6657 12.72C35.6657 12.48 47.1057 12.32 57.7457 12.32C66.2257 12.32 74.2257 12.4 77.5857 12.64C78.7057 28.32 67.2657 56.48 62.3057 67.92C59.3457 68.32 55.1057 68.56 50.8657 68.56C46.6257 68.56 42.3857 68.32 39.3457 67.92C39.1857 64.16 53.1057 36.96 53.9857 32.32L53.5857 31.76C46.1457 32.32 39.1057 32.8 34.5457 32.8C33.4257 32.8 32.4657 32.8 31.6657 32.72C31.2657 27.2 31.2657 18.16 31.6657 12.72Z" fill="white"/>
</svg>
