<svg width="110" height="80" viewBox="0 0 110 80" fill="none" xmlns="http://www.w3.org/2000/svg">
<mask id="mask0_39_4697" style="mask-type:alpha" maskUnits="userSpaceOnUse" x="0" y="0" width="110" height="80">
<rect width="110" height="80" rx="10" fill="#D9D9D9"/>
</mask>
<g mask="url(#mask0_39_4697)">
<path d="M59.8612 73.0027C59.8612 73.0027 71.491 69.8725 79.0106 64.0346C86.4736 58.2318 87.2961 47.9169 87.2961 47.9169L59.8612 73.0027Z" fill="url(#paint0_linear_39_4697)"/>
<path d="M56.5951 73.3016C55.6693 73.3264 44.6263 64.8759 43.6269 63.7698C42.5923 62.6069 45.198 59.3445 45.3918 58.5184C45.6208 57.7489 42.4197 53.8502 42.0519 48.1952C41.692 42.3 43.8251 38.7814 43.8251 38.7814C43.8251 38.7814 39.3266 32.1571 39.2258 30.7292C39.1036 29.393 44.4736 21.9854 44.3887 20.077C44.1511 15.5178 39.4837 10.6456 35.6191 12.2567C31.6412 13.9381 28.8831 24.0409 28.5123 26.8593C28.1982 29.6426 32.0081 31.3598 32.0081 31.3598C32.0081 31.3598 26.6182 32.6615 24.4413 30.7948C22.2509 28.7797 22.5816 17.6715 24.3817 12.4768C26.1681 7.13359 29.8899 5.92471 33.0347 5.93631C36.0877 5.92637 49.2703 12.8936 50.4136 15.2441C51.465 17.5731 48.3683 25.611 51.6317 29.8633C54.8464 33.9104 74.9072 63.3622 74.9072 63.3622C74.9072 63.3622 65.0844 72.8241 56.5951 73.3016Z" fill="#68B3DB"/>
<path d="M44.979 63.1669C44.6095 63.7097 54.4568 72.5092 56.5952 73.3015C58.6985 74.0372 69.2235 69.6308 77.379 61.9083C85.4995 54.1292 88.7119 45.392 88.5353 43.462C88.4153 41.497 79.6845 30.8288 79.0419 30.6781C78.4912 30.5488 47.0316 60.4042 44.979 63.1669Z" fill="url(#paint1_linear_39_4697)"/>
<path d="M58.7399 43.7338C47.6082 53.6149 44.8889 60.8698 44.8604 62.8484C44.9452 64.7569 53.8209 64.9027 65.9342 53.315C78.1041 41.6921 80.666 33.0444 79.3799 31.0963C78.0587 29.0914 71.9139 31.9592 58.7399 43.7338Z" fill="url(#paint2_linear_39_4697)"/>
<g style="mix-blend-mode:multiply" opacity="0.5">
<path d="M47.8444 60.4496C47.4024 61.508 52.5371 62.3255 63.7447 52.9465C74.8174 43.7295 77.2922 33.8023 76.873 32.4934C76.4538 31.1844 54.7361 42.8427 47.8444 60.4496Z" fill="#630B51"/>
</g>
<path d="M76.8001 33.009C77.0244 33.4975 75.2698 37.8796 71.9579 42.9133C71.9579 42.9133 71.9391 42.925 71.9013 42.9484C71.7313 43.0538 69.9021 44.6583 69.4759 45.2363C68.9931 45.8493 69.3795 46.4726 69.3795 46.4726C65.7867 51.053 60.8928 55.8123 54.8965 58.6664C54.8965 58.6664 52.9825 58.3626 51.7653 58.8033C50.7181 59.1387 50.6081 60.2266 50.6081 60.2266C49.9856 60.4033 49.3324 60.5729 48.6487 60.7352C46.5623 61.1657 37.63 47.6418 47.172 33.8043C56.9703 19.4943 76.1406 31.6921 76.8001 33.009Z" fill="url(#paint3_linear_39_4697)"/>
<path style="mix-blend-mode:screen" opacity="0.5" d="M76.8001 33.009C77.0244 33.4975 75.2698 37.8796 71.9579 42.9133C71.9579 42.9133 71.9391 42.925 71.9013 42.9484C71.7313 43.0538 69.9021 44.6583 69.4759 45.2363C68.9931 45.8493 69.3795 46.4726 69.3795 46.4726C65.7867 51.053 60.8928 55.8123 54.8965 58.6664C54.8965 58.6664 52.9825 58.3626 51.7653 58.8033C50.7181 59.1387 50.6081 60.2266 50.6081 60.2266C49.9856 60.4033 49.3324 60.5729 48.6487 60.7352C46.5623 61.1657 37.63 47.6418 47.172 33.8043C56.9703 19.4943 76.1406 31.6921 76.8001 33.009Z" fill="url(#paint4_linear_39_4697)"/>
<path d="M71.9582 42.9134C71.9582 42.9134 71.9393 42.9251 71.9015 42.9485C71.7315 43.0539 69.9023 44.6584 69.4762 45.2364C68.9934 45.8494 69.3797 46.4728 69.3797 46.4728C69.3797 46.4728 64.4064 40.2213 60.4255 36.9628C56.5716 33.7826 51.685 32.7327 50.8022 32.574C51.6499 32.6761 56.4039 33.259 60.9537 35.5372C65.6305 37.8937 71.7044 42.757 71.9582 42.9134Z" fill="url(#paint5_linear_39_4697)"/>
<path d="M46.6558 45.4984C46.8917 42.8421 49.4921 35.2687 50.3762 33.1519C49.3844 35.7277 45.8137 45.7851 47.6933 51.6011C49.5106 57.0636 52.4377 58.6221 52.4377 58.6221C52.4377 58.6221 52.9828 58.3626 51.7657 58.8033C50.7185 59.1387 50.6085 60.2266 50.6085 60.2266C47.1999 57.0056 46.5139 47.5474 46.6558 45.4984Z" fill="url(#paint6_linear_39_4697)"/>
<g style="mix-blend-mode:multiply" opacity="0.2">
<path d="M55.2929 58.4207C55.2929 58.4207 48.6543 57.2019 47.8401 49.941C47.6884 48.9369 54.4237 44.9971 59.9272 39.703C62.0487 39.3292 68.1372 45.9876 68.2753 46.8432C68.4351 47.6071 62.5199 55.2742 55.2929 58.4207Z" fill="#AB6377"/>
</g>
<g style="mix-blend-mode:multiply" opacity="0.2">
<path d="M71.9388 42.3761C71.9388 42.3761 64.488 37.1897 63.1645 35.8138C61.841 34.4379 62.1134 29.5627 62.7605 28.4555C63.4077 27.3484 69.8388 29.2449 73.1331 30.8895C76.2789 32.5477 76.0953 32.5047 76.3683 33.1982C76.6629 33.8 73.9516 40.8147 71.9388 42.3761Z" fill="#AB6377"/>
</g>
<g style="mix-blend-mode:soft-light" opacity="0.3">
<path d="M47.3508 48.5186C47.2567 49.126 48.8138 48.4745 53.201 45.049C57.553 41.5669 61.1253 38.7249 61.2681 38.3227C61.3758 37.8637 58.6018 35.0337 56.7852 35.1401C56.3965 35.1457 52.9727 37.974 50.9622 38.9065C48.9166 39.7824 47.4744 47.5791 47.3508 48.5186Z" fill="#FFD8BA"/>
</g>
<g style="mix-blend-mode:soft-light" opacity="0.3">
<path d="M43.2711 51.0477C43.458 52.1085 45.3498 46.9353 45.937 44.8456C46.5594 42.8126 46.8712 40.6583 46.8712 40.6583C46.8712 40.6583 45.4128 39.4445 44.7759 39.6824C44.0823 39.9554 42.0987 45.1071 43.2711 51.0477Z" fill="#FFD8BA"/>
</g>
<g style="mix-blend-mode:soft-light" opacity="0.3">
<path d="M57.2169 33.3043C57.1874 33.6363 61.7747 35.3422 61.837 35.6958C61.8993 36.0494 62.4143 30.5531 62.0709 29.7462C61.7061 29.0311 58.5252 27.3162 57.2169 33.3043Z" fill="#FFD8BA"/>
</g>
<g style="mix-blend-mode:multiply">
<path d="M50.6076 60.2268C50.6076 60.2268 51.2196 59.0629 50.5873 58.043C47.2696 53.1969 47.766 52.7323 47.1837 49.6418C46.5743 46.2544 47.1446 42.9986 47.1446 42.9986C47.1446 42.9986 46.5008 45.1234 46.5743 46.2544C46.6694 47.2937 45.5958 52.9009 50.6076 60.2268Z" fill="#C76377"/>
</g>
<g style="mix-blend-mode:multiply">
<path d="M70.1855 44.4827C69.3627 45.3066 64.5604 40.5963 63.1609 38.7184C61.7264 36.7838 64.8178 37.8482 64.8178 37.8482C64.8178 37.8482 69.4572 40.7769 71.9014 42.9485C71.9014 42.9485 70.5471 44.1802 70.1855 44.4827Z" fill="#C76377"/>
</g>
<g style="mix-blend-mode:multiply" opacity="0.5">
<path d="M73.3446 40.7205C73.3446 40.7205 68.5718 35.6783 65.0963 33.3616C61.5505 30.9316 67.2532 29.1222 71.1039 31.2848C74.7924 33.3125 72.2594 36.0594 70.0723 35.0619C67.8285 34.0996 69.7369 34.0147 70.7602 34.4001C71.8186 34.8422 73.062 33.0517 70.8477 31.7574C68.5416 30.4415 66.4698 32.667 66.616 33.2824C66.8539 33.9193 71.1827 36.7268 72.6163 37.0147C74.0849 37.3594 75.6716 36.3758 75.6716 36.3758L73.3446 40.7205Z" fill="#E09781"/>
</g>
<g style="mix-blend-mode:multiply" opacity="0.5">
<path d="M68.5701 47.4449C68.5701 47.4449 64.349 44.1785 60.1401 43.3361C55.7477 42.4507 51.8182 48.2595 53.0542 52.2781C54.2416 56.0916 55.5979 58.1531 55.5979 58.1531L57.2117 57.4665C57.2117 57.4665 53.3001 52.6748 55.5601 49.2344C57.785 45.7373 65.646 50.8263 65.646 50.8263L68.5701 47.4449Z" fill="#E09781"/>
</g>
<path d="M70.2902 35.1617C70.2902 35.1617 71.8291 35.6196 72.7381 34.4287C73.6471 33.2377 72.0618 31.9456 72.0618 31.9456C72.0618 31.9456 73.6766 32.9056 72.865 34.5069C72.0535 36.1081 70.2902 35.1617 70.2902 35.1617Z" fill="#8B4334"/>
<path d="M66.8828 33.5873C66.68 33.0071 67.7239 31.6541 69.0464 31.3833C69.0464 31.3833 68.3257 31.3595 67.3057 31.9917C66.2642 32.7158 66.5236 33.2609 66.5588 33.3176C66.629 33.4309 66.8828 33.5873 66.8828 33.5873Z" fill="#8B4334"/>
<path d="M55.0499 53.4729C55.0499 53.4729 54.1412 50.7416 56.154 49.1802C58.2235 47.5836 61.1314 48.6049 61.1314 48.6049C61.1314 48.6049 57.9561 47.2787 56.0294 48.473C54.0461 49.7024 54.6771 52.998 55.0499 53.4729Z" fill="#8B4334"/>
<g style="mix-blend-mode:multiply" opacity="0.2">
<path d="M52.9022 49.6274C52.6255 51.8384 54.2565 48.3957 57.6359 48.0265C60.9235 47.6358 63.2863 48.9166 64.5929 49.1264C65.8644 49.2795 68.2172 47.5072 68.3385 47.1967C68.5516 46.9078 62.4731 43.3024 58.7401 43.7338C54.8586 44.1789 53.1789 47.4164 52.9022 49.6274Z" fill="#A6596E"/>
</g>
<g style="mix-blend-mode:soft-light" opacity="0.2">
<path d="M77.8754 61.4438C75.9034 63.4507 70.2269 50.497 70.5341 49.6007C70.8979 48.6691 78.9743 39.427 80.3084 36.0114C81.6777 32.6525 86.9387 41.3927 87.8927 43.3114C88.8117 45.1734 85.2888 53.7893 77.8754 61.4438Z" fill="#C5CFEA"/>
</g>
<g style="mix-blend-mode:multiply" opacity="0.2">
<path d="M58.207 73.2439C57.2732 73.509 47.9472 65.1708 47.7579 64.739C47.5687 64.3072 53.6293 65.0999 58.3498 59.4283C60.7775 56.5115 72.8848 61.8706 73.1602 61.9352C73.4923 61.9647 73.4343 64.2754 73.1566 64.8398C72.8789 65.4041 66.0176 70.9123 58.207 73.2439Z" fill="#904F98"/>
</g>
<path d="M44.7663 38.2761C44.7663 38.2761 44.6427 39.2155 44.5781 39.4909C44.6053 39.7878 47.8793 39.2487 48.106 39.1081C48.3893 38.9325 52.3354 38.2121 54.27 36.7776C56.2964 35.3645 58.7787 29.1194 58.8728 28.5119C58.9885 27.8127 56.5588 27.4363 55.625 27.7014C54.6345 28.0016 47.2043 34.49 44.7663 38.2761Z" fill="url(#paint7_linear_39_4697)"/>
<path d="M52.8978 12.2922C53.0005 12.5423 53.0231 12.7897 52.9657 13.0345C52.1177 16.8546 50.0728 23.2993 50.9476 23.6983C51.8576 24.1539 57.2538 28.8098 57.7558 28.7339C58.2794 28.5662 57.4937 32.74 55.4275 35.3542C54.2273 36.9611 50.9996 38.3343 48.3897 38.9325C46.7487 39.3222 45.4341 39.3527 45.0964 38.9345C45.0964 38.9345 40.7398 30.2613 40.4395 29.2708C40.1178 28.3721 43.8342 22.8523 44.1732 20.9949C44.2397 20.8491 44.2684 20.7267 44.2594 20.6277C43.9886 19.3052 38.5938 12.3737 36.6479 13.0308C34.7938 13.7095 29.9881 21.3949 29.7114 23.6058C29.4347 25.8168 35.0791 30.2404 34.5045 30.8319C34.4667 30.8553 34.429 30.8787 34.3912 30.9021C33.2794 31.5129 24.7957 32.3791 24.1376 28.7866C23.3741 25.0241 23.2144 10.847 29.9928 6.72366C36.2827 2.82464 51.8238 8.4084 52.8978 12.2922Z" fill="url(#paint8_linear_39_4697)"/>
<g style="mix-blend-mode:multiply" opacity="0.5">
<path d="M50.9472 23.6983C51.8572 24.154 57.2534 28.8099 57.7554 28.734C58.279 28.5663 57.4933 32.74 55.4272 35.3543C54.2269 36.9612 50.9993 38.3344 48.3893 38.9325C46.6781 39.2089 44.0575 31.1852 44.5393 28.9255C44.9781 26.8494 51.951 14.0555 52.8974 12.2922C53.0001 12.5423 53.0228 12.7897 52.9653 13.0345C52.1173 16.8547 50.0724 23.2994 50.9472 23.6983Z" fill="#75547C"/>
</g>
<g style="mix-blend-mode:multiply" opacity="0.5">
<path d="M49.5026 13.1418C49.4197 14.5266 44.443 20.6708 44.1733 20.9948C44.2398 20.849 44.2685 20.7266 44.2595 20.6277C43.9887 19.3051 38.5939 12.3737 36.648 13.0308C34.7939 13.7094 29.9882 21.3948 29.7115 23.6058C29.4348 25.8168 35.0792 30.2403 34.5046 30.8319C34.4668 30.8553 34.4291 30.8787 34.3913 30.9021C32.7685 30.1824 27.3133 26.1906 27.088 24.0555C26.7437 21.6019 31.4715 10.1213 34.5914 9.20699C37.6547 8.32784 49.6069 11.6652 49.5026 13.1418Z" fill="#75547C"/>
</g>
<g style="mix-blend-mode:soft-light" opacity="0.3">
<path d="M40.4394 29.2708C40.7827 30.0777 43.0799 29.9872 45.2458 27.1543C47.355 24.3564 50.75 14.0157 50.6685 13.1249C50.6787 12.2557 46.7572 17.8242 44.7454 21.0323C42.7336 24.2404 40.2151 28.7823 40.4394 29.2708Z" fill="#F6F4EA"/>
</g>
<g style="mix-blend-mode:soft-light" opacity="0.2">
<path d="M24.5512 29.7068C24.6406 30.3573 27.1197 23.0945 27.1197 23.0945C27.1197 23.0945 28.6288 14.3934 34.1459 9.24775C34.1459 9.24775 33.2953 4.2058 27.9833 9.30276C22.7279 14.3646 24.2284 27.1615 24.5512 29.7068Z" fill="#F6F4EA"/>
</g>
<g style="mix-blend-mode:multiply" opacity="0.8">
<path d="M29.3933 23.7248C28.8379 24.8535 28.1284 25.607 27.58 24.8488C27.0882 24.0555 27.4183 20.7917 29.8609 15.7478C32.1686 10.8659 33.3745 9.64776 34.5917 9.20703C35.8088 8.76629 35.9921 12.7316 35.0264 13.9577C31.7249 18.1221 29.3933 23.7248 29.3933 23.7248Z" fill="#C186A8"/>
</g>
<g style="mix-blend-mode:multiply" opacity="0.8">
<path d="M44.648 28.4665C44.5403 28.9255 49.5607 28.1666 50.4945 27.9015C51.4283 27.6364 49.9404 26.7546 50.7613 22.6376C51.5821 18.5205 52.8506 13.7337 52.8506 13.7337C52.8506 13.7337 48.1358 19.794 44.648 28.4665Z" fill="#C186A8"/>
</g>
<path d="M60.079 40.707C59.9478 37.9645 65.0063 42.2022 66.306 44.2988C67.5139 46.3739 66.2649 47.7757 66.2649 47.7757C66.2649 47.7757 60.26 45.3012 60.079 40.707Z" fill="url(#paint9_linear_39_4697)"/>
<path d="M66.2654 47.7754C66.2654 47.7754 65.9901 47.7108 65.4519 46.0834C64.8786 44.3993 65.153 42.8173 65.153 42.8173C65.153 42.8173 68.2885 45.3448 66.2654 47.7754Z" fill="#A3523F"/>
<g style="mix-blend-mode:multiply" opacity="0.6">
<path d="M60.1688 41.3573C60.0668 42.2049 63.4346 44.9806 64.0284 44.9262C64.6438 44.7801 64.7641 42.8229 63.6808 41.455C62.5057 40.0655 60.313 38.6794 60.1688 41.3573Z" fill="#904F81"/>
</g>
<path d="M53.8478 61.2775C52.2078 63.3138 57.6839 61.645 59.5211 59.8002C61.3582 57.9554 57.2276 56.9861 53.8478 61.2775Z" fill="#482C4A"/>
<g style="mix-blend-mode:multiply" opacity="0.6">
<path d="M53.9316 61.5393C53.3762 62.668 56.6797 61.7968 58.4115 59.782C60.1433 57.7672 55.5196 58.2802 53.9316 61.5393Z" fill="#904F81"/>
</g>
<path d="M54.021 62.1899C54.021 62.1899 55.5487 61.8704 57.4968 60.5843C59.3532 59.2767 59.7907 59.4762 59.7907 59.4762C59.7907 59.4762 59.5673 60.6344 57.7755 61.6666C55.9838 62.6989 54.021 62.1899 54.021 62.1899Z" fill="#7C7495"/>
<g style="mix-blend-mode:multiply" opacity="0.5">
<path d="M25.2346 30.303C25.0851 28.6699 26.3397 27.6569 27.2248 27.1867C28.0533 26.7516 33.8677 31.0698 33.8677 31.0698C33.8677 31.0698 28.6263 32.3578 25.2346 30.303Z" fill="#C186A8"/>
</g>
<path d="M44.6925 31.5762C44.6925 31.5762 44.993 28.6445 45.3569 27.713C45.6641 26.8166 46.5992 24.2759 46.5992 24.2759C46.5992 24.2759 44.2179 28.0268 43.7 28.5832C43.1821 29.1396 44.6925 31.5762 44.6925 31.5762Z" fill="#77647A"/>
<path d="M48.3306 20.6144C48.3306 20.6144 49.6807 16.7183 49.9448 16.0055C50.1738 15.2361 49.5382 13.1984 49.3841 12.8233C49.2867 12.413 50.4233 12.7282 50.6692 13.1248C50.9717 13.4864 50.2258 16.4589 48.3306 20.6144Z" fill="#77647A"/>
<path d="M31.6832 12.1079C31.6832 12.1079 33.3063 8.90543 33.9297 8.51904C34.4963 8.16778 37.8847 9.205 37.8847 9.205C37.8847 9.205 34.4532 8.35136 31.6832 12.1079Z" fill="#806E86"/>
<g style="mix-blend-mode:multiply" opacity="0.5">
<path d="M37.6248 12.5821C36.631 11.8647 37.1616 9.81012 37.5231 9.50757C37.8846 9.20502 40.3494 9.63814 41.4135 10.4689C42.3858 11.2781 43.3339 16.7303 43.2182 17.4295C43.1377 18.1854 38.3297 13.0865 37.6248 12.5821Z" fill="#C186A8"/>
</g>
<g style="mix-blend-mode:multiply" opacity="0.5">
<path d="M44.7253 18.8486C43.6374 18.7386 42.4865 12.7061 42.8152 11.7179C43.2006 10.6946 47.7471 11.9552 48.5766 13.1667C49.3709 14.3216 44.7253 18.8486 44.7253 18.8486Z" fill="#C186A8"/>
</g>
<g style="mix-blend-mode:multiply" opacity="0.5">
<path d="M51.6908 25.2771C50.5518 25.5909 52.2836 36.9893 52.4944 37.3293C52.7051 37.6693 56.741 33.6772 57.2467 30.6968C57.6957 27.7515 51.6908 25.2771 51.6908 25.2771Z" fill="#C186A8"/>
</g>
<g style="mix-blend-mode:soft-light" opacity="0.2">
<path d="M24.1384 20.9421C24.1384 20.9421 26.2373 19.0135 29.0776 15.3703C31.8827 11.6705 32.3238 8.96541 32.3907 8.06107C32.4792 7.06494 24.4489 7.65016 24.1384 20.9421Z" fill="#F6F4EA"/>
</g>
<g style="mix-blend-mode:soft-light" opacity="0.2">
<path d="M32.9152 5.6178C31.876 5.7129 38.9721 9.31501 43.9153 10.3297C48.6965 11.2095 51.209 10.2011 51.209 10.2011C51.209 10.2011 44.4518 4.74163 32.9152 5.6178Z" fill="#F6F4EA"/>
</g>
<path d="M47.7535 21.8349C47.7535 21.8349 48.2171 20.6847 48.5674 19.6047C48.8259 18.5032 49.651 17.0505 49.651 17.0505C49.651 17.0505 49.0071 19.1753 47.7535 21.8349Z" fill="#8B7B96"/>
<path d="M29.5127 16.1988C29.5127 16.1988 30.1271 14.406 30.8173 13.1153C31.5292 11.7328 32.4709 11.2274 32.4709 11.2274C32.4709 11.2274 30.7527 13.3907 29.5127 16.1988Z" fill="#8B7B96"/>
<path d="M30.7539 28.4506C30.7539 28.4506 28.9068 27.2424 28.0478 26.3629C27.1889 25.4834 27.1153 24.3524 27.1153 24.3524C27.1153 24.3524 27.7158 26.3334 30.7539 28.4506Z" fill="#8B7B96"/>
<g style="mix-blend-mode:soft-light" opacity="0.3">
<path d="M53.4786 44.4848C51.773 45.1499 52.8046 41.3728 55.5531 37.7081C58.3231 33.9516 60.2742 37.6054 60.2775 38.623C60.2593 39.7325 54.6958 44.0441 53.4786 44.4848Z" fill="#FFD8BA"/>
</g>
<g style="mix-blend-mode:soft-light" opacity="0.3">
<path d="M57.9778 33.7735C57.5211 33.0369 59.5724 32.5498 60.6308 32.9918C61.7108 33.3421 61.5282 34.9456 61.6823 35.3208C61.8364 35.6959 58.8208 35.1335 57.9778 33.7735Z" fill="#FFD8BA"/>
</g>
<path d="M75.7289 41.9097C75.7289 41.9097 76.663 37.7223 77.5448 36.2344C78.4266 34.7465 79.4466 34.1143 79.4466 34.1143C79.4466 34.1143 79.7137 38.3414 75.7289 41.9097Z" fill="#63596F"/>
<path d="M75.1667 63.9072C76.8826 62.373 79.359 59.6613 82.52 55.2702C85.0418 51.7459 87.2962 47.9168 87.2962 47.9168C87.2962 47.9168 83.652 56.8432 75.1667 63.9072Z" fill="#392749"/>
<g style="mix-blend-mode:soft-light">
<path d="M76.5503 62.3434C76.5503 62.3434 78.2291 57.4592 80.055 54.837C81.8242 52.2499 83.617 52.8643 83.617 52.8643C83.617 52.8643 79.2636 58.622 76.5503 62.3434Z" fill="#99939F"/>
</g>
<g style="mix-blend-mode:multiply" opacity="0.3">
<path d="M46.3165 33.9425C46.8762 35.4782 47.9674 36.6058 48.7902 35.782C49.8046 34.761 51.1646 33.918 50.5267 32.5093C50.4239 32.2592 50.3212 32.0091 50.2185 31.7591C49.6644 30.6122 49.0401 29.3519 47.5883 30.1734C47.5883 30.1734 45.8181 31.1139 46.1432 33.0302C46.1703 33.3272 46.2281 33.6313 46.3165 33.9425Z" fill="#4F2A6F"/>
</g>
<g style="mix-blend-mode:multiply" opacity="0.5">
<path d="M46.3164 33.9425L46.4218 34.1125C46.4218 34.1125 46.1216 33.122 46.4503 32.1338C46.7575 31.2375 47.3049 30.349 48.3929 30.459C49.4457 30.5124 50.2184 31.7591 50.2184 31.7591C49.6644 30.6121 49.04 29.3519 47.5883 30.1734C47.5883 30.1734 45.818 31.1139 46.1431 33.0302C46.1703 33.3271 46.2281 33.6312 46.3164 33.9425Z" fill="#4F2A6F"/>
</g>
<path d="M47.2432 35.5644C47.659 35.8556 48.7118 35.909 49.4213 35.1554C50.1875 34.3668 50.4788 33.9509 50.4788 33.9509C50.4788 33.9509 49.8236 35.2983 48.917 35.8603C48.0103 36.4223 47.5106 35.8692 47.2432 35.5644Z" fill="#77647A"/>
<path d="M45.4177 34.2643C45.4177 34.2643 44.5929 31.7949 44.3901 31.2146C44.1873 30.6344 44.0819 30.4644 44.0819 30.4644C44.0819 30.4644 44.8321 30.1562 45.4177 34.2643Z" fill="#8B7B96"/>
<g style="mix-blend-mode:multiply" opacity="0.2">
<path d="M62.4999 57.0126C61.9117 57.4556 69.6902 60.0073 71.245 59.9847C72.8214 59.8704 70.015 52.4326 69.7499 51.4987C69.5199 50.6216 63.1097 56.4777 62.4999 57.0126Z" fill="#904F98"/>
</g>
<g style="mix-blend-mode:soft-light">
<path d="M80.7001 40.9456C79.2971 41.9722 81.2188 45.958 82.6874 46.3027C84.2479 46.6688 84.1644 42.4848 83.0811 41.1169C82.0545 39.7138 80.7001 40.9456 80.7001 40.9456Z" fill="#C5CFEA"/>
</g>
<g style="mix-blend-mode:soft-light">
<path d="M77.2387 44.3462C77.4663 45.8523 79.1855 45.3357 78.6553 43.4681C78.0684 41.6355 77.0654 43.4339 77.2387 44.3462Z" fill="#C5CFEA"/>
</g>
<path d="M54.2886 71.9856C54.2886 71.9856 65.525 70.119 68.7334 68.2085C71.9203 66.3899 75.1662 63.9072 75.1662 63.9072C75.1662 63.9072 72.4064 66.7945 65.5873 70.4725C58.7115 74.1856 56.8836 73.5146 56.3895 73.3502C55.8954 73.1859 54.2886 71.9856 54.2886 71.9856Z" fill="#50405E"/>
<path d="M65.9326 61.1595C64.5647 62.2428 68.2546 61.9949 69.21 61.638C70.1087 61.3162 66.9957 60.3436 65.9326 61.1595Z" fill="#1C0B38"/>
<path d="M65.6064 61.5186C65.7038 61.9289 68.7432 61.7705 68.7432 61.7705C68.7432 61.7705 65.6584 62.7414 65.6064 61.5186Z" fill="#65637D"/>
<g style="mix-blend-mode:multiply" opacity="0.2">
<path d="M75.5383 58.8133C74.5071 58.6682 71.4229 51.7947 71.4786 50.1129C71.5296 49.6891 74.4766 43.9403 75.5725 43.8101C76.6468 43.7716 79.102 50.6428 78.7855 54.055C78.5281 56.8032 75.5383 58.8133 75.5383 58.8133Z" fill="#904F98"/>
</g>
<path d="M69.2818 49.9846C69.2818 49.9846 69.9359 46.9906 71.2359 45.1651C72.4793 43.3746 75.2751 42.1906 75.4938 42.2903C75.6774 42.3334 70.1828 49.0339 69.2818 49.9846Z" fill="#99A5BF"/>
</g>
<defs>
<linearGradient id="paint0_linear_39_4697" x1="56.222" y1="67.1737" x2="87.3118" y2="47.9017" gradientUnits="userSpaceOnUse">
<stop stop-color="#934B29"/>
<stop offset="1" stop-color="#681C48"/>
</linearGradient>
<linearGradient id="paint1_linear_39_4697" x1="44.539" y1="63.0138" x2="78.8155" y2="30.3329" gradientUnits="userSpaceOnUse">
<stop stop-color="#5464A2"/>
<stop offset="0.136" stop-color="#392746"/>
<stop offset="1" stop-color="#5E5F68"/>
</linearGradient>
<linearGradient id="paint2_linear_39_4697" x1="41.7732" y1="59.8118" x2="75.8242" y2="27.3445" gradientUnits="userSpaceOnUse">
<stop stop-color="#8D8BA6"/>
<stop offset="1" stop-color="#7A7B83"/>
</linearGradient>
<linearGradient id="paint3_linear_39_4697" x1="60.0492" y1="56.147" x2="42.4797" y2="37.7201" gradientUnits="userSpaceOnUse">
<stop stop-color="#681C48"/>
<stop offset="1" stop-color="#934B29"/>
</linearGradient>
<linearGradient id="paint4_linear_39_4697" x1="33.8949" y1="45.9048" x2="62.8073" y2="18.337" gradientUnits="userSpaceOnUse">
<stop stop-color="#007C9C"/>
<stop offset="0.444"/>
</linearGradient>
<linearGradient id="paint5_linear_39_4697" x1="46.3272" y1="68.438" x2="30.5355" y2="51.8759" gradientUnits="userSpaceOnUse">
<stop stop-color="#681C2C"/>
<stop offset="1" stop-color="#52161A"/>
</linearGradient>
<linearGradient id="paint6_linear_39_4697" x1="49.6974" y1="61.2902" x2="35.9713" y2="46.8944" gradientUnits="userSpaceOnUse">
<stop stop-color="#681C2C"/>
<stop offset="1" stop-color="#52161A"/>
</linearGradient>
<linearGradient id="paint7_linear_39_4697" x1="43.5821" y1="38.4713" x2="56.6678" y2="25.9947" gradientUnits="userSpaceOnUse">
<stop stop-color="#681C2C"/>
<stop offset="1" stop-color="#52161A"/>
</linearGradient>
<linearGradient id="paint8_linear_39_4697" x1="37.6348" y1="52.418" x2="11.0379" y2="24.5227" gradientUnits="userSpaceOnUse">
<stop stop-color="#543E55"/>
<stop offset="1" stop-color="#5A5477"/>
</linearGradient>
<linearGradient id="paint9_linear_39_4697" x1="56.2556" y1="62.4651" x2="48.5068" y2="57.1786" gradientUnits="userSpaceOnUse">
<stop stop-color="#4F1F11"/>
<stop offset="0.994" stop-color="#48001B"/>
</linearGradient>
</defs>
</svg>
