<svg width="110" height="80" viewBox="0 0 110 80" fill="none" xmlns="http://www.w3.org/2000/svg">
<path d="M53.4315 34.64C60.2315 35.6 79.5915 35.84 79.5915 52.48C79.5915 66.96 65.4315 69.92 46.8715 69.92C41.9915 69.92 36.8715 69.68 31.5915 69.44C30.8715 63.12 30.8715 55.04 31.5915 48.72C31.9915 48.72 32.3915 48.72 32.7915 48.72C37.5915 48.72 43.2715 49.12 48.0715 49.12C54.3915 49.12 59.3515 48.48 59.3515 45.52C59.3515 39.6 39.5915 40.64 31.6715 39.76C31.0315 33.12 30.9515 17.2 31.5915 12.8C36.3915 12.56 52.9515 12.24 65.1915 12.24C71.8315 12.24 77.1115 12.32 78.7115 12.56C79.4315 18.88 79.4315 27.12 78.7115 33.36C78.0715 33.36 77.3515 33.44 76.5515 33.44C69.3515 33.44 57.9915 31.92 53.4315 31.84V34.64Z" fill="white"/>
</svg>
