<svg width="110" height="80" viewBox="0 0 110 80" fill="none" xmlns="http://www.w3.org/2000/svg">
<path d="M23.5354 2.24695C23.5354 2.24695 22.4859 2.24695 20.4487 3.91379C18.3497 5.64237 22.7329 16.6929 22.7329 16.6929C22.7329 16.6929 18.967 21.0144 20.8808 24.7802C22.1772 27.2496 24.8936 27.5583 25.2023 27.867C25.5109 28.1757 30.3263 43.3007 30.388 43.7329C30.388 44.2268 21.1277 48.0543 16.9298 50.3385C12.67 52.6227 10.1389 54.7834 10.0154 55.586C9.64503 57.4998 16.0037 67.6861 22.3624 72.6866C28.7211 77.6254 38.537 77.8106 46.5008 77.0698C54.4029 76.329 30.2028 26.1384 30.2028 26.1384L28.0421 13.9766L23.5354 2.24695Z" fill="#68B3DB"/>
<path d="M11.8678 55.5242C10.5096 56.2651 16.6831 69.0442 27.7954 75.156C40.2041 82.0703 69.4665 73.6126 73.0472 70.5876C79.7146 64.7845 80.085 57.9319 82.2457 54.5365C84.1595 51.6967 91.1355 50.3385 91.0738 39.2879C91.0738 37.9915 43.1057 39.3497 11.8678 55.5242Z" fill="url(#paint0_linear_39_4770)"/>
<path d="M11.8679 55.5243C9.46019 57.4998 33.4751 61.883 57.0579 56.3268C80.6407 50.7089 90.8887 42.4982 91.0739 39.288C91.1974 36.1395 38.7843 33.3614 11.8679 55.5243Z" fill="#BB6334"/>
<path d="M21.5606 53.3635C19.2764 54.8452 36.6857 57.685 56.6261 53.0548C73.2328 49.2273 80.4558 43.239 80.7027 41.5104C80.8879 39.8435 46.6867 36.942 21.5606 53.3635Z" fill="url(#paint1_linear_39_4770)"/>
<path d="M29.4624 55.4008C29.4624 55.4008 48.662 45.6466 76.3193 45.6466C76.3193 45.6466 55.5763 58.4258 29.4624 55.4008Z" fill="#B95E2D"/>
<g style="mix-blend-mode:multiply">
<path d="M34.7707 55.586C34.7707 55.586 27.3625 55.8947 24.8314 54.8452C22.3003 53.7957 22.4855 52.8079 27.9799 49.7212C33.4126 46.6962 43.2902 54.1044 43.2902 54.1044C43.2902 54.1044 37.6106 55.586 34.7707 55.586Z" fill="#AB6377"/>
</g>
<g style="mix-blend-mode:multiply">
<path d="M36.6855 54.2895C36.6855 54.2895 44.279 60.6482 73.4796 46.0788C80.2705 42.7451 72.8623 38.115 57.9841 40.9548C45.6989 43.239 36.6855 54.2895 36.6855 54.2895Z" fill="#AB6377"/>
</g>
<path d="M34.401 52.8079C34.401 52.8079 19.3994 8.11175 21.0045 4.46938C22.5478 0.827017 28.7831 1.13569 32.4254 6.01276C36.0678 10.8281 43.7847 51.6967 43.0439 52.561C42.2413 53.4253 34.401 52.8079 34.401 52.8079Z" fill="url(#paint2_linear_39_4770)"/>
<g style="mix-blend-mode:multiply">
<path d="M29.5854 26.941C27.5481 27.8053 33.5364 50.2768 33.8451 51.2029C34.1537 52.0671 42.1793 53.9192 43.0436 51.3263C43.0436 51.3263 39.463 26.2002 36.8701 19.1006C34.2772 12.0011 29.5854 26.941 29.5854 26.941Z" fill="#AB6377"/>
</g>
<path d="M20.943 4.71634C20.8812 5.88931 25.6966 8.23524 29.8328 7.86483C32.5492 7.61789 32.8578 7.00054 32.3022 5.39543C31.8083 3.85205 28.1042 2 25.3262 2C22.5481 2.06174 20.943 3.66685 20.943 4.71634Z" fill="#BB6334"/>
<path d="M64.6509 74.0447C64.6509 74.0447 73.6025 73.5509 79.0969 69.9085C84.5913 66.2044 83.3566 58.1788 84.8382 55.7712C86.3199 53.3635 90.0857 52.314 94.1602 47.6839C98.173 43.0538 99.7164 38.1767 99.099 38.115C98.4817 38.0532 87.5546 43.7946 87.5546 43.7946C87.5546 43.7946 86.8137 47.8074 83.9122 51.6349C79.776 57.1293 79.2821 55.339 78.9734 60.5865C78.6647 65.834 71.8121 71.6988 64.6509 74.0447Z" fill="url(#paint3_linear_39_4770)"/>
<path d="M85.6411 37.6828C85.6411 37.6828 93.4815 35.3986 98.2351 37.1272C98.6672 37.3124 99.2846 38.1767 99.2228 38.4854C98.6672 41.5721 86.3819 44.6589 86.3819 44.6589C86.3819 44.6589 88.2957 38.1767 85.6411 37.6828Z" fill="#BB6334"/>
<g style="mix-blend-mode:multiply" opacity="0.3">
<path d="M13.2879 56.8824C12.3619 56.512 17.4859 64.5376 40.8217 63.3029C64.2193 62.0064 75.5168 59.6605 79.9 56.3268C84.3449 52.9931 87.0613 46.8196 86.9378 45.9553C86.8143 45.1528 86.3822 44.6589 86.3822 44.6589C86.3822 44.6589 82.9867 51.7584 52.4279 57.438C21.8691 63.0559 13.2879 56.8824 13.2879 56.8824Z" fill="#632A6F"/>
</g>
<g style="mix-blend-mode:multiply" opacity="0.3">
<path d="M79.1583 58.4875C79.0348 59.9074 82.1833 57.3146 85.1466 54.3513C88.1716 51.388 89.715 52.8079 92.8017 49.1038C95.9502 45.3997 97.4319 42.4364 97.3084 42.0043C97.2467 41.5721 88.2334 44.4737 87.6777 44.9058C87.1221 45.338 86.5665 48.7334 83.5415 51.6967C80.4547 54.7217 79.2818 57.1911 79.1583 58.4875Z" fill="#4F2A6F"/>
</g>
<g style="mix-blend-mode:multiply" opacity="0.2">
<path d="M38.105 77.7488C38.105 77.7488 52.9214 76.6376 62.7372 72.3779C73.973 67.4391 77.245 65.0932 77.245 65.0932C77.245 65.0932 73.6643 71.2049 61.8112 74.8473C50.0198 78.4279 38.105 77.7488 38.105 77.7488Z" fill="#902A6F"/>
</g>
<g style="mix-blend-mode:multiply" opacity="0.3">
<path d="M65.4536 73.983C65.4536 73.983 73.3557 69.9703 76.5042 66.3896C79.6527 62.809 82.0603 61.9447 82.616 61.7595C83.2333 61.5743 83.3568 65.7106 79.8379 68.9208C75.0843 73.2422 65.4536 73.983 65.4536 73.983Z" fill="#4F2A6F"/>
</g>
<path d="M19.4609 68.6738C19.4609 68.6738 28.9681 73.8596 51.131 71.1432C73.3556 68.4269 78.4179 62.5003 78.4179 62.5003C78.4179 62.5003 75.5163 69.9085 48.7851 71.6988C22.0538 73.4892 19.4609 68.6738 19.4609 68.6738Z" fill="url(#paint4_linear_39_4770)"/>
<path d="M32.425 63.1793C31.1903 63.4879 28.2888 65.1548 27.3627 66.7599C25.0785 70.7727 31.5607 75.9584 38.8455 75.0324C39.8332 74.9089 38.4133 76.514 39.0307 76.1436C45.5128 72.7482 42.4878 61.142 32.425 63.1793Z" fill="url(#paint5_linear_39_4770)"/>
<path d="M30.1416 65.2165C22.5482 66.9451 27.7956 78.1809 36.5003 77.0079C45.2666 75.8967 39.7105 63.0558 30.1416 65.2165Z" fill="url(#paint6_linear_39_4770)"/>
<path d="M36.686 72.9334C36.3156 73.3656 35.8218 73.736 35.0192 73.7977C30.9447 74.3533 28.537 69.1676 32.0559 68.365C32.3852 68.2827 32.7144 68.2415 33.0437 68.2415C36.007 68.3033 37.7973 71.39 36.686 72.9334Z" fill="url(#paint7_linear_39_4770)"/>
<path d="M36.6853 72.9334C33.722 72.8717 31.9317 69.7849 33.0429 68.2415C36.0062 68.3033 37.7965 71.39 36.6853 72.9334Z" fill="url(#paint8_linear_39_4770)"/>
<g style="mix-blend-mode:multiply">
<path d="M30.6348 69.3528C30.0792 69.9084 30.2644 71.5135 31.1904 72.3161C32.1164 73.1187 34.3389 72.8717 34.5858 72.6865C34.8328 72.4396 33.4746 72.0692 32.9807 70.5258C32.4868 68.9824 33.0425 68.2416 33.0425 68.2416C33.0425 68.2416 31.746 68.1181 30.6348 69.3528Z" fill="#AB6377"/>
</g>
<path d="M49.34 61.5742C48.1053 61.8211 45.2037 63.488 44.2777 65.0931C41.9318 69.1059 48.4139 74.2916 55.7604 73.3656C56.6864 73.2421 55.2665 74.8472 55.9456 74.5385C62.4278 71.1431 59.4028 59.5369 49.34 61.5742Z" fill="url(#paint9_linear_39_4770)"/>
<path d="M46.9942 63.5497C39.4008 65.2782 44.6483 76.514 53.4146 75.4028C62.1193 74.2916 56.5631 61.3889 46.9942 63.5497Z" fill="url(#paint10_linear_39_4770)"/>
<path d="M53.5377 71.2666C53.2291 71.7605 52.6735 72.0691 51.8709 72.1926C47.8581 72.6865 45.4505 67.5007 48.9076 66.6982C49.278 66.657 49.6279 66.6364 49.9571 66.6364C52.8587 66.6364 54.649 69.7232 53.5377 71.2666Z" fill="url(#paint11_linear_39_4770)"/>
<path d="M53.5383 71.2666C50.6368 71.2048 48.7847 68.1798 49.9577 66.6364C52.8592 66.6364 54.6495 69.7232 53.5383 71.2666Z" fill="url(#paint12_linear_39_4770)"/>
<g style="mix-blend-mode:multiply">
<path d="M47.4887 67.6859C46.9948 68.2415 47.18 69.8467 48.106 70.7109C48.9703 71.5135 51.2545 71.2666 51.5014 71.0196C51.7484 70.8344 50.3285 70.4023 49.8963 68.8589C49.4024 67.3773 49.9581 66.6364 49.9581 66.6364C49.9581 66.6364 48.5999 66.4512 47.4887 67.6859Z" fill="#AB6377"/>
</g>
<g style="mix-blend-mode:multiply">
<path d="M30.3275 25.521C29.7719 26.5705 31.377 35.5221 34.6489 37.9915C37.9209 40.4609 41.0694 39.1027 41.0694 39.1027C41.0694 39.1027 38.6 25.4593 38.4148 23.9777C38.2295 22.4343 32.4882 21.6935 30.3275 25.521Z" fill="#AB6377"/>
</g>
<g style="mix-blend-mode:multiply" opacity="0.3">
<path d="M30.9434 76.0203C30.9434 76.0203 34.6475 78.2428 37.9812 76.3907C41.3766 74.4769 40.3271 71.5754 40.3271 70.2789C40.3888 68.9208 41.9322 67.6861 41.9322 67.6861C41.9322 67.6861 44.4016 74.23 42.4261 76.7611C40.4506 79.2923 32.5485 77.3785 30.9434 76.0203Z" fill="#4F2A6F"/>
</g>
<g style="mix-blend-mode:multiply" opacity="0.3">
<path d="M44.3398 71.0198C44.3398 71.0198 48.2909 77.7489 55.2669 76.2055C62.243 74.6621 59.4032 66.8835 58.971 66.2662C58.4772 65.7105 56.0695 66.2044 55.946 66.5131C55.8226 66.8835 58.971 71.0198 56.0695 73.5509C53.2297 76.082 47.2414 75.4647 44.3398 71.0198Z" fill="#4F2A6F"/>
</g>
<g style="mix-blend-mode:soft-light" opacity="0.3">
<path d="M25.1406 58.858C25.1406 58.858 34.5243 56.2034 39.1545 55.7095C43.8463 55.2156 52.7362 54.9687 62.2434 52.1906C71.8123 49.4743 77.9241 49.4125 77.9241 49.4125C77.9241 49.4125 69.5898 54.7835 51.6249 57.4381C33.6601 60.031 25.1406 58.858 25.1406 58.858Z" fill="#FFD8BA"/>
</g>
<path d="M21.2514 58.2406C21.7453 57.4381 22.6713 56.6972 24.3999 56.512C26.6224 56.3268 25.1407 59.1667 23.8443 59.9692C22.5479 60.7718 20.6958 60.1544 20.6958 60.1544C20.6958 60.1544 20.6958 59.1667 21.2514 58.2406Z" fill="url(#paint13_linear_39_4770)"/>
<path d="M20.6958 60.1544C20.6958 60.1544 20.6958 60.031 21.9305 59.5988C23.1652 59.2284 24.6468 59.2284 24.6468 59.2284C24.6468 59.2284 23.7208 61.0805 20.6958 60.1544Z" fill="#A3523F"/>
<g style="mix-blend-mode:multiply" opacity="0.6">
<path d="M23.9068 56.6355C23.166 56.6355 22.0547 58.4876 22.4251 58.7962C22.7338 59.1049 24.5241 59.0432 25.2032 58.4258C25.944 57.7467 26.2527 56.5738 23.9068 56.6355Z" fill="#904F81"/>
</g>
<path d="M67.5522 52.8696C67.5522 52.8696 68.0461 53.3635 68.54 53.6722C69.0339 53.9809 71.812 54.7834 71.812 54.7834C71.812 54.7834 70.2686 52.6227 69.466 52.561C68.6017 52.4375 67.5522 52.8696 67.5522 52.8696Z" fill="url(#paint14_linear_39_4770)"/>
<path d="M67.5522 52.8697L70.7007 54.4748C70.7007 54.4748 69.1574 54.0426 68.6017 53.9192C68.1079 53.7957 67.5522 52.8697 67.5522 52.8697Z" fill="#A3523F"/>
<g style="mix-blend-mode:multiply" opacity="0.3">
<path d="M86.9988 45.7084C86.6901 45.2145 78.3559 50.462 75.0222 52.8079C71.7502 55.0921 65.7002 60.8952 65.7002 60.8952C65.7002 60.8952 74.837 59.9074 79.8993 56.3268C85.0233 52.7462 86.9988 45.7084 86.9988 45.7084Z" fill="#632A6F"/>
</g>
<g style="mix-blend-mode:multiply" opacity="0.8">
<path d="M21.0039 6.93881C21.1891 5.58064 25.7575 10.5194 27.6713 16.5077C29.5233 22.4343 29.8937 38.9793 29.8937 38.9793C29.8937 38.9793 22.1151 15.7669 21.0039 6.93881Z" fill="#E09781"/>
</g>
<g style="mix-blend-mode:multiply" opacity="0.5">
<path d="M22.6714 14.9644C22.6714 14.9644 22.4244 9.71689 23.7826 6.81535C25.1408 3.97554 29.0918 2.86431 29.0918 2.86431C29.0918 2.86431 30.1413 3.35819 30.3882 3.48166C30.6352 3.66687 25.6964 4.34595 24.4617 7.18576C23.227 10.0256 25.079 23.6073 25.079 23.6073L22.6714 14.9644Z" fill="#AB6377"/>
</g>
<g style="mix-blend-mode:multiply" opacity="0.5">
<path d="M33.969 9.28472C32.7961 6.13623 28.1042 21.1996 28.0425 33.2379L30.3884 40.5844C30.3884 40.5844 30.8206 17.619 35.7594 15.273C35.7594 15.273 34.2777 10.0873 33.969 9.28472Z" fill="#AB6377"/>
</g>
<path d="M67.9843 42.9922C58.9092 47.0667 39.8948 54.7219 35.7586 54.0428C31.6841 53.3637 32.857 46.8815 36.4377 43.1157C41.9321 37.3126 65.5149 31.8799 68.046 32.0651C72.0588 32.2503 71.5031 41.3871 67.9843 42.9922Z" fill="url(#paint15_linear_39_4770)"/>
<path d="M36.4382 43.1156C41.5004 40.0289 43.7846 46.2641 41.8091 50.1534C39.8953 54.0427 35.9443 54.6601 34.0922 53.2402C32.3019 51.8203 33.7835 44.7207 36.4382 43.1156Z" fill="url(#paint16_linear_39_4770)"/>
<path d="M24.1523 15.8906C20.8803 18.9156 19.5221 24.4718 25.6339 25.7682C31.6839 27.0029 56.6866 18.9773 59.2795 16.8784C61.8106 14.7794 61.8106 6.75381 57.304 7.12422C48.2289 7.8033 27.3007 13.0508 24.1523 15.8906Z" fill="url(#paint17_linear_39_4770)"/>
<path d="M23.4734 24.9657C21.7448 22.4345 19.8927 18.36 26.6836 15.2115C33.4744 12.063 31.9928 21.4468 30.079 23.9779C28.227 26.509 24.3377 26.2004 23.4734 24.9657Z" fill="url(#paint18_linear_39_4770)"/>
<path fill-rule="evenodd" clip-rule="evenodd" d="M68.0467 44.2269C65.9477 48.7953 65.9477 45.8937 59.7742 48.1162C54.2798 50.03 48.9089 52.9315 47.1185 53.4871C46.8716 53.5695 46.6864 53.6106 46.5629 53.6106C45.6369 53.5489 44.2787 52.1907 44.2787 52.1907L45.3282 51.7586C45.3282 51.7586 48.7236 49.104 47.1185 44.1652C45.5134 39.2881 41.9328 39.5968 41.8093 39.5968C41.7476 38.7325 42.9823 38.1769 43.1675 37.3743C43.6614 35.7075 43.2292 33.4233 41.5624 30.5217C38.3522 24.9038 33.2899 24.9038 33.2899 24.9038C33.2899 24.9038 36.994 23.4839 35.3889 18.2364C33.8455 13.0507 30.6353 12.989 30.6353 12.989C30.3266 13.0507 27.9189 13.9767 27.9189 13.9767C27.9189 13.9767 28.7832 11.8777 29.8327 10.7048C30.1414 10.3344 30.5118 10.0874 30.8205 10.0257C31.0674 9.98453 31.4173 9.94337 31.87 9.90222C33.969 9.84048 38.1052 10.0257 44.0935 8.72925C51.3165 7.12414 52.1808 4.83994 54.4033 6.19811C63.1696 11.4456 57.49 18.6069 57.49 18.6069C57.49 18.6069 60.5768 21.0145 61.8732 23.2987C61.3793 23.9778 60.8237 25.1508 61.0707 26.5089C61.1118 26.5501 61.1324 26.6118 61.1324 26.6941C61.5028 28.0523 62.5523 27.9906 63.2931 27.7436C63.3343 27.7436 63.3754 27.7231 63.4166 27.6819C63.4577 27.8465 63.4989 27.9906 63.5401 28.114C63.8487 29.6574 63.9105 30.8304 63.8487 31.6329C63.8487 32.3738 63.787 32.7442 63.787 32.7442C67.8615 33.9789 70.2074 39.6585 68.0467 44.2269ZM55.0206 10.89C56.8109 9.53181 50.5757 7.80323 48.2298 9.40834C45.9456 10.9517 53.1686 12.1864 55.0206 10.89Z" fill="url(#paint19_linear_39_4770)"/>
<path fill-rule="evenodd" clip-rule="evenodd" d="M56.6257 30.3365C56.5639 30.9539 57.0578 33.2381 56.8109 33.4233C56.5639 33.6085 55.6996 34.0406 55.6996 33.9789C55.6379 33.9789 55.6996 33.2381 55.6996 33.2381C55.6996 33.2381 55.4527 34.4728 55.2675 34.4728C55.0823 34.5345 53.2302 35.3988 53.2302 35.1519C53.292 34.9667 53.4772 33.8554 53.4772 33.8554C53.4772 33.8554 53.2302 34.7815 53.1068 34.9049C52.9833 34.9667 51.4399 35.2136 51.5017 34.9667C51.5634 34.658 52.4894 32.2503 51.9955 31.7564C51.5017 31.3243 49.9583 32.6825 49.7114 30.707C49.5261 28.7314 48.2914 23.1753 49.7731 21.2615C49.8966 21.9406 50.6374 21.5702 50.9461 21.138C51.1313 20.7676 51.2547 20.3972 51.1313 20.1503C52.0573 19.6564 53.1685 19.286 54.0328 19.8416C54.4032 20.0885 54.8354 20.5207 55.3292 21.0146C54.8354 21.8788 54.8971 22.6814 55.8849 21.9406C55.926 21.8994 55.9672 21.8788 56.0083 21.8788C57.8604 24.2865 58.9716 28.1141 58.7247 28.8549C58.3543 29.8427 56.7491 29.7192 56.6257 30.3365ZM54.218 21.1998C54.4649 20.8294 53.9711 21.0146 53.7859 21.385C53.6007 21.6319 54.0328 21.5702 54.218 21.1998ZM51.6869 21.7554C51.6869 21.5702 51.5017 21.385 51.3782 21.6319C51.2547 21.8788 51.6251 21.9406 51.6869 21.7554ZM51.1313 23.6692C50.3287 24.4717 50.02 28.1141 50.7608 29.1636C51.5634 30.2131 52.9216 30.1513 53.2302 29.1636C53.9711 26.6942 51.8721 22.8666 51.1313 23.6692ZM55.3292 29.6575C55.2675 29.534 54.2797 27.3733 54.0945 27.8054C53.9711 28.1758 53.4772 30.3365 53.5389 30.3983C53.6624 30.3983 54.2797 30.2748 54.3415 30.2131C54.4032 30.2131 54.4032 29.5957 54.4032 29.4105C54.4032 29.534 54.4649 30.0896 54.5267 30.1513C54.5884 30.2748 55.3292 29.7809 55.3292 29.6575ZM56.6874 25.6447C56.1318 24.163 54.0945 22.9901 54.1563 24.163C54.218 25.2743 54.7119 27.0029 55.144 27.3733C56.5022 28.7314 57.243 27.1263 56.6874 25.6447Z" fill="#BB9AB5"/>
<g style="mix-blend-mode:multiply">
<path d="M47.1185 53.4872C46.8716 53.5695 46.6864 53.6106 46.5629 53.6106C45.6369 53.5489 44.2787 52.1907 44.2787 52.1907L45.3282 51.7586C45.3282 51.7586 48.7236 49.104 47.1185 44.1652C45.5134 39.2881 41.9328 39.5968 41.8093 39.5968C41.7476 38.7325 42.9823 38.1769 43.1675 37.3743C43.6614 35.7075 43.2292 33.4233 41.5624 30.5217C38.3522 24.9038 33.2899 24.9038 33.2899 24.9038C33.2899 24.9038 36.994 23.4839 35.3889 18.2365C33.8455 13.0507 30.6353 12.989 30.6353 12.989C30.3266 13.0507 27.9189 13.9767 27.9189 13.9767C27.9189 13.9767 28.3511 12.0012 29.8327 10.7048C30.1208 10.4578 30.4501 10.2315 30.8205 10.0257C31.1497 9.86108 31.4996 9.81992 31.87 9.90223C34.2159 10.4578 37.3027 15.0262 38.3522 18.4834C39.5869 22.5579 37.1792 24.2865 37.1792 24.2865C37.1792 24.2865 47.1185 29.3488 43.97 38.2386C43.97 38.2386 47.9211 39.9055 49.341 44.659C50.8226 49.4744 50.3905 52.0055 47.1185 53.4872Z" fill="#AB6377"/>
</g>
<g style="mix-blend-mode:multiply" opacity="0.3">
<path d="M38.7832 23.7309C38.7832 23.7309 54.5874 19.1008 57.4889 18.6069C57.4889 18.6069 59.8348 13.3594 58.6619 12.6186C57.4889 11.8778 48.2904 13.2977 44.2159 14.5941C40.1414 15.8905 38.7832 23.7309 38.7832 23.7309Z" fill="#4F2A6F"/>
</g>
<g style="mix-blend-mode:multiply" opacity="0.3">
<path d="M63.8475 31.6329C63.7652 31.921 63.6829 32.1062 63.6006 32.1885C62.9215 32.6824 44.6479 37.7447 44.0923 37.9299C44.4627 37.4977 54.5872 26.3854 59.773 26.3854C60.2669 26.3854 60.699 26.4266 61.0694 26.5089C61.1106 26.5501 61.1312 26.6118 61.1312 26.6941C61.5016 28.0523 62.5511 27.9905 63.2919 27.7436C63.3742 27.8671 63.4565 27.9905 63.5388 28.114C64.2796 29.287 64.1562 30.8304 63.8475 31.6329Z" fill="#4F2A6F"/>
</g>
<g style="mix-blend-mode:multiply" opacity="0.3">
<path d="M49.4019 52.5611C49.4019 52.5611 52.3651 48.1779 57.8595 44.0417C63.354 39.9055 65.6382 41.5106 66.8111 42.6218C67.9841 43.7948 66.5642 46.2642 65.7616 46.6963C64.9591 47.0667 62.3662 47.5606 59.156 48.3014C56.0075 49.104 49.4019 52.5611 49.4019 52.5611Z" fill="#4F2A6F"/>
</g>
<g style="mix-blend-mode:soft-light" opacity="0.3">
<path d="M38.7844 23.7309C37.9819 24.0396 44.6492 31.4478 46.8717 31.5095C49.0942 31.5713 55.6381 26.8177 59.4039 26.6325C63.108 26.4473 59.0335 20.459 57.1197 19.7799C55.2059 19.1008 43.5998 21.9406 38.7844 23.7309Z" fill="#C5CFEA"/>
</g>
<path opacity="0.3" d="M39.0922 42.3131C36.6228 41.6957 33.5978 47.931 35.635 51.3264C37.734 54.7836 41.8703 51.5116 42.4259 48.1779C42.9815 44.8442 41.4999 42.8687 39.0922 42.3131Z" fill="#AB6377"/>
<path opacity="0.3" d="M26.9304 15.0881C25.634 15.5202 22.3003 18.36 22.4237 20.459C22.5472 22.558 26.3748 26.6325 29.2763 24.1631C32.2396 21.6937 32.61 13.3595 26.9304 15.0881Z" fill="#AB6377"/>
<g style="mix-blend-mode:soft-light" opacity="0.3">
<path d="M82.4308 47.1283C80.8874 47.3752 79.344 42.992 82.1838 40.2757C85.0236 37.6211 95.7655 35.8308 97.8028 37.4976C99.9018 39.1645 89.6538 43.3007 87.5548 43.7946C85.4558 44.2885 82.4308 47.1283 82.4308 47.1283Z" fill="#FFD8BA"/>
</g>
<path opacity="0.3" d="M28.29 25.8297C28.29 25.8297 30.0804 23.7925 33.1054 21.1996C44.7733 11.1985 60.9479 12.8654 60.9479 12.8654C60.9479 12.8036 60.9479 15.7669 57.8611 17.619C54.7744 19.5328 30.9446 25.8915 28.29 25.8297Z" fill="#AB6377"/>
<path d="M41.9331 44.0416C42.9826 42.6834 43.8469 45.3997 43.6617 46.6344C43.4765 47.9309 42.2418 48.4865 42.2418 48.4865C42.2418 48.4865 40.2663 46.3258 41.9331 44.0416Z" fill="url(#paint20_linear_39_4770)"/>
<path d="M42.2414 48.4865C42.2414 48.4865 42.118 48.4248 42.4884 47.437C42.8588 46.511 43.6613 45.7702 43.6613 45.7702C43.6613 45.7702 44.2787 47.4988 42.2414 48.4865Z" fill="#A3523F"/>
<g style="mix-blend-mode:multiply" opacity="0.6">
<path d="M41.7472 44.3503C41.3767 44.7824 41.9324 46.6345 42.3028 46.6345C42.6114 46.6962 43.4757 45.7084 43.414 44.8441C43.414 44.0416 42.8584 43.0538 41.7472 44.3503Z" fill="#904F81"/>
</g>
<g style="mix-blend-mode:multiply" opacity="0.5">
<path d="M67.3672 64.5376C67.3672 64.5376 69.034 62.4386 71.1948 61.2039C73.3555 59.9692 75.0841 60.3396 75.0841 60.3396C75.0841 60.3396 71.0713 60.3396 67.3672 64.5376Z" fill="#AB6363"/>
</g>
<g style="mix-blend-mode:multiply" opacity="0.5">
<path d="M71.6885 65.3402C71.6885 65.3402 72.9232 63.9203 73.8492 63.9203C73.8492 63.9203 72.491 64.6611 71.6885 65.3402Z" fill="#AB6363"/>
</g>
<path d="M69.8984 62.3151C69.8984 62.3151 71.1331 61.7595 71.6887 61.5743C72.2444 61.3274 72.6148 60.8952 72.6148 60.8952C72.6148 60.8952 71.0714 61.3891 69.8984 62.3151Z" fill="#A23B34"/>
<path d="M71.9966 65.0932C71.9966 65.0932 72.6757 64.7845 73.1078 64.5376C73.4782 64.2906 73.6017 64.0437 73.6017 64.0437C73.6017 64.0437 72.4287 64.7845 71.9966 65.0932Z" fill="#A23B34"/>
<path d="M60.0195 70.4024C60.0195 70.4024 61.8099 70.279 65.9461 69.1677C66.8721 68.9208 68.1686 68.8591 69.2798 68.4887C75.5768 66.3897 77.3053 63.9203 77.3053 63.9203C77.3053 63.9203 72.1196 68.3035 60.0195 70.4024Z" fill="#91432C"/>
<path d="M21.0039 69.7851C21.0039 69.7851 22.4855 71.0198 23.7202 71.3285C24.9549 71.6371 26.7453 71.3285 26.7453 71.3285C26.7453 71.3285 23.2264 70.8346 21.0039 69.7851Z" fill="#91432C"/>
<path d="M55.9471 66.2661C55.8237 66.2661 53.9099 64.4141 52.49 63.982C51.1318 63.5498 53.663 61.9447 53.9716 61.8212C54.2803 61.6978 56.3793 62.6855 57.1818 63.4881C58.0461 64.2906 58.6635 65.6488 58.6018 65.7105C58.6018 65.834 56.2558 66.3896 55.9471 66.2661Z" fill="#BB6334"/>
<path d="M40.3894 69.4146C39.9572 69.5381 38.4756 67.3157 37.3026 66.3896C36.1296 65.4636 37.7965 63.7968 38.1052 63.7968C38.4138 63.7968 40.5128 65.0932 41.1302 66.081C41.6858 67.0687 41.9327 67.6861 41.871 67.7478C41.7475 67.8713 40.7598 69.2912 40.3894 69.4146Z" fill="#BB6334"/>
<g style="mix-blend-mode:multiply" opacity="0.3">
<path d="M44.1557 71.0198C44.5261 71.5754 47.3659 71.3285 47.6129 71.205C47.8598 71.0198 45.6373 68.4887 47.7363 66.9453C49.8353 65.3402 52.6134 66.8835 54.342 68.7356C56.0706 70.5876 56.1323 67.6861 55.7619 66.5131C55.3915 65.4019 51.1935 62.3152 46.7486 64.1055C42.3037 65.8958 43.1062 69.3529 44.1557 71.0198Z" fill="#A12A6F"/>
</g>
<g style="mix-blend-mode:multiply" opacity="0.3">
<path d="M27.2393 72.5014C27.5479 73.057 30.4495 72.8718 30.6964 72.6866C30.9434 72.5014 28.6592 69.9703 30.7581 68.4269C32.9189 66.8835 35.697 68.3652 37.4255 70.2172C39.0924 72.0693 39.2158 69.1677 38.8454 68.0565C38.475 66.8835 34.277 63.7968 29.8321 65.5871C25.3872 67.3774 26.128 70.8346 27.2393 72.5014Z" fill="#A12A6F"/>
</g>
<path d="M54.2798 64.9697C54.2798 64.9697 54.5267 65.4019 54.9589 65.9575C55.391 66.5748 56.564 67.3774 56.564 67.3774C56.564 67.3774 56.3788 66.5748 56.1318 66.081C55.8849 65.5253 54.2798 64.9697 54.2798 64.9697Z" fill="#964330"/>
<path d="M34.895 65.4018C34.895 65.4018 35.9445 66.3896 36.9323 66.76C37.9818 67.1304 38.4756 67.5008 38.4756 67.5008C38.4756 67.5008 37.1792 66.0809 36.9323 65.834C36.7471 65.6488 34.895 65.4018 34.895 65.4018Z" fill="#964330"/>
<path d="M27.8569 66.2662C27.8569 66.2662 28.4743 66.2044 29.2151 65.8958C29.8942 65.5254 31.1289 65.0315 31.1289 65.0315C31.1289 65.0315 29.0916 64.5376 27.8569 66.2662Z" fill="#BB6334"/>
<path d="M43.5991 66.8835C43.5991 66.8835 43.9695 65.3402 44.5251 64.6611C45.0808 64.0437 46.8093 63.6116 46.8093 63.6116C46.8093 63.6116 44.5251 65.4019 43.5991 66.8835Z" fill="#BB6334"/>
<path d="M49.7109 71.884C49.7109 71.884 52.489 71.4519 53.2916 71.5754C53.2916 71.5754 51.316 73.057 49.7109 71.884Z" fill="#BB6334"/>
<path d="M33.2896 73.6744C33.2896 73.6744 35.3268 73.1805 36.6232 72.9953C36.6232 72.9953 35.5737 74.4152 33.2896 73.6744Z" fill="#BB6334"/>
<g style="mix-blend-mode:soft-light" opacity="0.3">
<path d="M24.2759 15.8286C24.2759 15.8286 27.2392 14.7791 28.7825 14.5939C30.2642 14.4087 31.8076 15.3347 32.6101 15.4582C33.3509 15.5817 32.857 13.2975 30.6346 13.174C28.4739 13.1123 24.2759 15.8286 24.2759 15.8286Z" fill="#FFD8BA"/>
</g>
<g style="mix-blend-mode:soft-light" opacity="0.3">
<path d="M37.2402 42.3747C37.2402 42.3747 39.4627 41.9426 41.1295 42.7451C42.8581 43.5477 46.4388 43.239 46.4388 43.239C46.4388 43.239 46.0683 40.3992 43.2903 40.0288C40.5122 39.6584 37.2402 42.3747 37.2402 42.3747Z" fill="#FFD8BA"/>
</g>
<g style="mix-blend-mode:multiply" opacity="0.3">
<path d="M60.2057 66.8218C61.0082 68.4886 62.5516 69.5381 63.6011 68.4269C64.7741 67.0687 66.5027 65.834 65.5766 64.3524C65.412 64.1054 65.2474 63.8379 65.0827 63.5498C64.2802 62.2534 63.2924 61.0187 61.5021 62.2534C61.5021 62.2534 59.2797 63.6115 59.8353 65.834C59.9176 66.1633 60.0411 66.4925 60.2057 66.8218Z" fill="#9D116F"/>
</g>
<g style="mix-blend-mode:multiply" opacity="0.5">
<path d="M60.2057 66.8218L60.3291 66.9452C60.3291 66.9452 59.897 65.8957 60.2057 64.7228C60.5144 63.6115 61.1934 62.5003 62.5516 62.3768C63.9098 62.2534 65.0827 63.5498 65.0827 63.5498C64.2802 62.2534 63.2924 61.0187 61.5021 62.2534C61.5021 62.2534 59.2797 63.6115 59.8353 65.834C59.9176 66.1633 60.0411 66.4925 60.2057 66.8218Z" fill="#9D116F"/>
</g>
<g style="mix-blend-mode:multiply" opacity="0.3">
<path d="M76.1965 53.9191C75.8261 55.9564 76.2582 57.8084 77.3077 57.3146C78.6042 56.6355 80.2093 56.3268 80.3328 54.413C80.3739 54.0838 80.4151 53.7339 80.4562 53.3635C80.5797 51.6967 80.6414 50.0298 79.0363 50.2768C79.0363 50.2768 77.1225 50.4002 76.4435 52.8079C76.32 53.1783 76.2377 53.5487 76.1965 53.9191Z" fill="#9D116F"/>
</g>
<g style="mix-blend-mode:multiply" opacity="0.5">
<path d="M76.1958 53.9191V54.1661C76.1958 54.1661 76.381 52.9314 77.1218 51.9436C77.8626 51.0176 78.7269 50.3385 79.5912 50.8941C80.3938 51.5115 80.4555 53.3635 80.4555 53.3635C80.579 51.6967 80.6407 50.0298 79.0356 50.2768C79.0356 50.2768 77.1218 50.4002 76.4427 52.8079C76.3193 53.1783 76.237 53.5487 76.1958 53.9191Z" fill="#9D116F"/>
</g>
<g style="mix-blend-mode:soft-light">
<path d="M12.9175 59.537C12.9175 59.537 21.2517 64.8462 23.9063 67.8712C26.4992 70.8345 27.7956 75.156 27.7956 75.156C27.7956 75.156 19.7083 71.5753 12.9175 59.537Z" fill="#81CEFF"/>
</g>
<g style="mix-blend-mode:soft-light">
<path d="M26.1284 27.0644C26.1284 27.0644 28.5978 29.6573 30.0795 35.1517C31.5611 40.6461 33.1045 49.289 33.1045 49.289L26.1284 27.0644Z" fill="#81CEFF"/>
</g>
<path d="M24.5234 7.12405C24.5234 7.12405 26.3755 7.12405 27.6102 7.37099C28.8449 7.61793 29.7092 7.86487 29.7092 7.86487C29.7092 7.86487 29.0301 7.98834 27.5485 7.98834C26.0051 7.98834 24.5234 7.12405 24.5234 7.12405Z" fill="#C27248"/>
<path d="M21.1895 5.21019C21.1895 5.21019 22.0537 5.45713 22.6711 5.88927C23.2884 6.25968 23.7823 6.8153 23.7823 6.8153C23.7823 6.8153 21.992 6.38316 21.1895 5.21019Z" fill="#C27248"/>
<g style="mix-blend-mode:multiply" opacity="0.5">
<path d="M23.042 9.40819C23.042 9.40819 23.4741 7.18573 23.968 6.50664C24.4619 5.76582 26.0053 4.16071 26.993 3.72857C27.9808 3.23469 28.9068 2.98775 29.0303 2.98775C29.092 2.98775 26.4992 4.59286 25.3262 5.88929C24.1532 7.18573 23.042 9.40819 23.042 9.40819Z" fill="#AB6377"/>
</g>
<path d="M24.1535 8.97609C24.1535 8.97609 25.0795 7.55618 25.1413 7.43271C25.203 7.24751 25.1413 6.19801 25.1413 6.19801C25.1413 6.19801 24.0918 6.93883 24.1535 8.97609Z" fill="#C27248"/>
<g style="mix-blend-mode:soft-light" opacity="0.3">
<path d="M66.3175 73.5509C63.9099 74.3534 68.2313 69.4763 71.6885 67.8095C75.0839 66.0809 77.2446 65.0932 77.2446 65.0932C77.2446 65.0932 72.8615 71.2667 66.3175 73.5509Z" fill="#FFD8BA"/>
</g>
<g style="mix-blend-mode:soft-light" opacity="0.3">
<path d="M71.4419 66.5131C71.4419 66.5131 75.0843 60.4013 76.6276 58.9814C78.171 57.4998 79.5909 56.9442 79.5909 56.9442C79.5909 56.9442 79.4674 60.5865 78.7884 61.8212C78.1093 63.0559 73.2322 65.834 71.4419 66.5131Z" fill="#FFD8BA"/>
</g>
<path d="M72.1206 40.1522C72.1206 40.1522 72.1823 42.066 74.9604 42.066C77.7385 42.066 79.5905 40.893 79.5905 40.893C79.5905 40.893 77.9237 36.2012 72.1206 40.1522Z" fill="url(#paint21_linear_39_4770)"/>
<path d="M72.1211 40.1523C72.1211 40.1523 72.9236 41.5722 74.8991 41.6957C76.8746 41.8809 78.418 41.4487 78.418 41.4487C78.418 41.4487 76.6277 42.6217 74.0966 42.5599C71.5654 42.4982 72.1211 40.1523 72.1211 40.1523Z" fill="#A3523F"/>
<g style="mix-blend-mode:multiply">
<path d="M73.1698 39.4732C72.1203 40.0905 73.355 41.6339 76.0096 41.4487C78.6642 41.2635 79.158 40.0288 79.0963 39.9671C79.0346 39.9053 77.0591 37.3742 73.1698 39.4732Z" fill="#AB6377"/>
</g>
<g style="mix-blend-mode:soft-light" opacity="0.3">
<path d="M64.1572 32.6205C64.1572 32.6205 66.4414 34.2257 68.1083 34.7195C69.7751 35.2134 70.4542 34.1639 70.4542 34.1639C70.4542 34.1639 69.343 32.1267 68.0465 32.0649C66.7501 31.9415 64.1572 32.6205 64.1572 32.6205Z" fill="#FFD8BA"/>
</g>
<path d="M48.8467 10.8898C48.4146 10.396 51.6248 9.223 53.6621 9.65515C55.7611 10.0873 55.0202 10.8898 55.0202 10.8898C55.0202 10.8898 55.5141 10.5812 55.5141 9.96382C55.4524 9.34647 54.2177 7.80309 51.1309 8.1735C47.9825 8.54391 47.6738 9.84035 47.7972 10.0873C48.0442 10.6429 48.8467 10.8898 48.8467 10.8898Z" fill="#190024"/>
<path d="M61.8726 23.2986C61.8726 23.2986 61.9344 25.2741 61.6257 26.0149C60.9466 27.3114 62.0578 27.8052 62.0578 27.8052C62.0578 27.8052 59.5884 26.6323 61.8726 23.2986Z" fill="#190024"/>
<path d="M48.8477 10.8898C48.8477 10.8898 54.4038 11.8776 55.3916 10.4577C55.3916 10.4577 55.7002 11.1985 52.8604 11.5689C50.0206 11.9393 48.8477 10.8898 48.8477 10.8898Z" fill="#513B5B"/>
<path d="M61.0083 26.694C61.6874 27.3731 63.416 27.6818 63.416 27.6818C63.416 27.6818 61.6874 28.9165 61.0083 26.694Z" fill="#513B5B"/>
<g style="mix-blend-mode:multiply">
<path d="M49.4021 9.90208C48.8465 10.7046 54.5878 10.8281 55.2052 10.6429C55.8225 10.4577 55.02 8.97606 53.6 8.66738C52.2419 8.35871 50.2664 8.72912 49.4021 9.90208Z" fill="#AB6377"/>
</g>
<path d="M29.277 21.3231C29.1535 20.3971 29.3387 19.2241 30.5117 17.9894C32.1168 16.3843 32.7959 19.471 32.3638 20.9527C31.8699 22.3726 30.1413 23.1134 30.1413 23.1134C30.1413 23.1134 29.4622 22.4343 29.277 21.3231Z" fill="url(#paint22_linear_39_4770)"/>
<path d="M30.1411 23.1135C30.1411 23.1135 30.0176 23.0518 30.6967 21.9405C31.3758 20.7676 32.487 19.8416 32.487 19.8416C32.487 19.8416 32.9809 21.8171 30.1411 23.1135Z" fill="#A3523F"/>
<g style="mix-blend-mode:multiply" opacity="0.6">
<path d="M30.2023 18.3599C29.6467 18.8538 30.0171 20.9528 30.511 21.0145C31.0049 21.0145 32.2396 19.7798 32.3631 18.8538C32.4865 17.866 31.9309 16.8165 30.2023 18.3599Z" fill="#904F81"/>
</g>
<path d="M57.2422 56.2651C57.2422 56.2651 58.6004 55.8329 62.2427 54.5982C65.8851 53.3635 67.9223 53.3018 67.9223 53.3018C67.9223 53.3018 64.6504 55.339 62.4897 55.7712C60.2672 56.2651 57.2422 56.2651 57.2422 56.2651Z" fill="#A3523F"/>
<path d="M25.8813 58.9197C25.8813 58.9197 26.9926 58.3023 29.4002 58.3023C31.7462 58.3023 36.2528 59.0431 36.2528 59.0431C36.2528 59.0431 34.339 59.6605 31.2523 59.9074C28.1038 60.2161 25.8813 58.9197 25.8813 58.9197Z" fill="#A3523F"/>
<path d="M86.9985 44.4737C86.9985 44.4737 88.1715 43.1773 91.0731 41.9426C93.9746 40.7079 97.8639 40.1523 97.8639 40.1523C97.8639 40.1523 95.2093 43.1156 91.4435 43.9798C87.6776 44.9059 86.9985 44.4737 86.9985 44.4737Z" fill="#A3523F"/>
<path d="M23.2256 16.8782C23.2256 16.8782 24.769 15.1496 27.3001 14.2236C27.3001 14.2236 24.0281 15.3965 22.7317 16.693C21.4353 17.9277 21.6205 19.1006 21.6205 19.1006C21.6205 19.1006 22.8552 17.2486 23.2256 16.8782Z" fill="#68B3DB"/>
<path d="M28.7831 38.1767C28.7831 38.1767 29.3388 40.6461 30.0178 42.3747C30.6969 44.0416 32.9811 48.6717 32.9811 48.6717L28.6597 35.2752L28.7831 38.1767Z" fill="#68B3DB"/>
<g style="mix-blend-mode:soft-light" opacity="0.3">
<path d="M32.3633 10.0873C32.3633 10.0873 36.6847 9.90209 39.648 9.90209C42.6113 9.84036 46.0067 11.9394 46.7475 12.4332C47.4884 12.8654 41.6235 15.8904 39.895 16.5077C38.1664 17.0634 36.0056 11.6924 32.3633 10.0873Z" fill="#BFBFBA"/>
</g>
<g style="mix-blend-mode:soft-light" opacity="0.3">
<path d="M45.7592 38.6089C45.6358 38.4237 49.5251 42.9304 50.1424 45.2145C50.7598 47.437 57.6741 43.3008 60.5139 41.387C63.292 39.4115 60.6374 36.5716 55.8838 36.263C51.1302 35.9543 45.7592 38.6089 45.7592 38.6089Z" fill="#D1D1CD"/>
</g>
<g style="mix-blend-mode:soft-light" opacity="0.3">
<path d="M45.0186 8.54392C45.0186 8.54392 45.5124 8.85259 49.34 8.23524C53.1676 7.67963 55.2666 8.72913 55.8839 9.0378C56.563 9.34648 54.8962 6.19799 53.3528 5.95105C51.8094 5.70411 47.7966 8.05004 45.0186 8.54392Z" fill="#BFBFBA"/>
</g>
<g style="mix-blend-mode:soft-light" opacity="0.6">
<path d="M50.2046 52.1288C50.2046 52.1288 54.0322 48.6716 56.9337 46.9431C59.897 45.2762 64.6506 46.5727 65.021 46.5727C65.4531 46.5727 62.6751 47.2517 58.4771 48.4864C54.2791 49.7211 50.2046 52.1288 50.2046 52.1288Z" fill="#EAEAE8"/>
</g>
<defs>
<linearGradient id="paint0_linear_39_4770" x1="50.8226" y1="78.2205" x2="44.5138" y2="42.9562" gradientUnits="userSpaceOnUse">
<stop stop-color="#531047"/>
<stop offset="1" stop-color="#933B27"/>
</linearGradient>
<linearGradient id="paint1_linear_39_4770" x1="51.0002" y1="54.2093" x2="48.8886" y2="42.4056" gradientUnits="userSpaceOnUse">
<stop stop-color="#873E29"/>
<stop offset="1" stop-color="#531047"/>
</linearGradient>
<linearGradient id="paint2_linear_39_4770" x1="7.77096" y1="-6.03607" x2="37.9544" y2="-13.3918" gradientUnits="userSpaceOnUse">
<stop stop-color="#687CB8"/>
<stop offset="0.193" stop-color="#611C1F"/>
<stop offset="1" stop-color="#934B29"/>
</linearGradient>
<linearGradient id="paint3_linear_39_4770" x1="73.9043" y1="72.615" x2="68.7061" y2="43.5569" gradientUnits="userSpaceOnUse">
<stop stop-color="#531040"/>
<stop offset="1" stop-color="#712E29"/>
</linearGradient>
<linearGradient id="paint4_linear_39_4770" x1="19.4467" y1="68.6467" x2="77.6691" y2="58.2316" gradientUnits="userSpaceOnUse">
<stop stop-color="#4F1F11"/>
<stop offset="0.994" stop-color="#430822"/>
</linearGradient>
<linearGradient id="paint5_linear_39_4770" x1="29.6982" y1="77.8728" x2="27.2412" y2="64.138" gradientUnits="userSpaceOnUse">
<stop stop-color="#450039"/>
<stop offset="1" stop-color="#BA662C"/>
</linearGradient>
<linearGradient id="paint6_linear_39_4770" x1="28.976" y1="78.3914" x2="26.7274" y2="65.8234" gradientUnits="userSpaceOnUse">
<stop stop-color="#531047"/>
<stop offset="1" stop-color="#934B29"/>
</linearGradient>
<linearGradient id="paint7_linear_39_4770" x1="31.5151" y1="74.4397" x2="30.4795" y2="68.6509" gradientUnits="userSpaceOnUse">
<stop stop-color="#873E29"/>
<stop offset="1" stop-color="#531047"/>
</linearGradient>
<linearGradient id="paint8_linear_39_4770" x1="31.8194" y1="73.8039" x2="30.8971" y2="68.6465" gradientUnits="userSpaceOnUse">
<stop stop-color="#311947"/>
<stop offset="1" stop-color="#0F0B30"/>
</linearGradient>
<linearGradient id="paint9_linear_39_4770" x1="46.5853" y1="76.2233" x2="44.1284" y2="62.4884" gradientUnits="userSpaceOnUse">
<stop stop-color="#450039"/>
<stop offset="1" stop-color="#BA662C"/>
</linearGradient>
<linearGradient id="paint10_linear_39_4770" x1="45.8632" y1="76.7418" x2="43.6146" y2="64.1738" gradientUnits="userSpaceOnUse">
<stop stop-color="#531047"/>
<stop offset="1" stop-color="#934B29"/>
</linearGradient>
<linearGradient id="paint11_linear_39_4770" x1="48.4008" y1="72.7902" x2="47.3652" y2="67.0014" gradientUnits="userSpaceOnUse">
<stop stop-color="#873E29"/>
<stop offset="1" stop-color="#531047"/>
</linearGradient>
<linearGradient id="paint12_linear_39_4770" x1="48.7063" y1="72.1549" x2="47.7841" y2="66.9976" gradientUnits="userSpaceOnUse">
<stop stop-color="#311947"/>
<stop offset="1" stop-color="#0F0B30"/>
</linearGradient>
<linearGradient id="paint13_linear_39_4770" x1="-3.93894" y1="53.2296" x2="-2.6922" y2="48.794" gradientUnits="userSpaceOnUse">
<stop stop-color="#4F1F11"/>
<stop offset="0.994" stop-color="#48001B"/>
</linearGradient>
<linearGradient id="paint14_linear_39_4770" x1="67.0837" y1="53.1802" x2="71.073" y2="51.5059" gradientUnits="userSpaceOnUse">
<stop stop-color="#4F1F11"/>
<stop offset="0.994" stop-color="#48001B"/>
</linearGradient>
<linearGradient id="paint15_linear_39_4770" x1="43.6779" y1="56.8523" x2="42.8758" y2="29.8007" gradientUnits="userSpaceOnUse">
<stop stop-color="#531047"/>
<stop offset="1" stop-color="#934B29"/>
</linearGradient>
<linearGradient id="paint16_linear_39_4770" x1="29.9257" y1="53.5587" x2="30.6206" y2="41.8025" gradientUnits="userSpaceOnUse">
<stop stop-color="#4A043E"/>
<stop offset="1" stop-color="#591912"/>
</linearGradient>
<linearGradient id="paint17_linear_39_4770" x1="37.6537" y1="25.812" x2="37.1128" y2="7.5718" gradientUnits="userSpaceOnUse">
<stop stop-color="#531047"/>
<stop offset="1" stop-color="#934B29"/>
</linearGradient>
<linearGradient id="paint18_linear_39_4770" x1="20.6292" y1="26.0516" x2="20.2973" y2="14.8448" gradientUnits="userSpaceOnUse">
<stop stop-color="#4A043E"/>
<stop offset="1" stop-color="#591912"/>
</linearGradient>
<linearGradient id="paint19_linear_39_4770" x1="20.4539" y1="53.626" x2="20.4539" y2="5.79004" gradientUnits="userSpaceOnUse">
<stop stop-color="#0F0B30"/>
<stop offset="1" stop-color="#45234F"/>
</linearGradient>
<linearGradient id="paint20_linear_39_4770" x1="25.9573" y1="57.1701" x2="23.9936" y2="53.4929" gradientUnits="userSpaceOnUse">
<stop stop-color="#4F1F11"/>
<stop offset="0.994" stop-color="#48001B"/>
</linearGradient>
<linearGradient id="paint21_linear_39_4770" x1="75.3203" y1="42.1636" x2="74.7168" y2="38.7897" gradientUnits="userSpaceOnUse">
<stop stop-color="#873E29"/>
<stop offset="1" stop-color="#531047"/>
</linearGradient>
<linearGradient id="paint22_linear_39_4770" x1="7.02586" y1="34.1399" x2="5.04302" y2="29.9814" gradientUnits="userSpaceOnUse">
<stop stop-color="#3E0711"/>
<stop offset="0.994" stop-color="#2F001B"/>
</linearGradient>
</defs>
</svg>
