<svg width="110" height="80" viewBox="0 0 110 80" fill="none" xmlns="http://www.w3.org/2000/svg">
<path d="M71.371 41.36C71.371 41.36 80.731 43.6 80.731 54C80.731 65.44 68.891 69.68 54.011 69.68C38.811 69.68 27.291 65.44 27.291 54C27.291 43.6 36.651 41.36 36.651 41.36V39.52C36.651 39.52 28.491 36.96 28.491 27.2C28.491 16.64 39.611 11.12 54.011 11.12C68.251 11.12 79.531 16.64 79.531 27.2C79.531 36.96 71.371 39.52 71.371 39.52V41.36ZM54.011 28.88C50.491 28.88 47.531 30.24 47.531 32.48C47.531 35.52 50.811 36.16 54.011 36.16C57.211 36.16 60.491 35.52 60.491 32.48C60.491 30.24 57.611 28.88 54.011 28.88ZM54.011 51.76C58.171 51.68 61.611 50.8 61.611 48.16C61.611 44.64 57.691 43.84 54.011 43.68C50.331 43.84 46.331 44.64 46.331 48.16C46.331 50.8 49.851 51.68 54.011 51.76Z" fill="white"/>
</svg>
