<svg width="110" height="80" viewBox="0 0 110 80" fill="none" xmlns="http://www.w3.org/2000/svg">
<path d="M47.2763 38.16C49.0363 37.68 55.3563 36.16 62.0763 36.16C71.5163 36.16 81.7563 39.04 81.7563 51.44C81.7563 64.32 66.7963 69.52 53.3563 69.52C42.3963 69.52 26.2363 65.84 26.2363 40.48C26.2363 15.6 48.9563 12.32 65.4363 12.32C70.3163 12.32 74.5563 12.64 77.5963 12.72C78.1563 16.72 77.8363 27.12 76.5563 32.16C70.7163 32.16 64.3963 31.44 59.1163 31.44C52.3163 31.44 47.2763 32.64 47.2763 38.16ZM47.2763 50.24C47.2763 52.24 50.0763 53.2 53.2763 53.2C57.5163 53.2 62.3963 51.44 62.3963 47.76C62.3963 45.2 59.2763 44.32 55.7563 44.32C52.5563 44.32 49.0363 45.04 47.2763 46V50.24Z" fill="white"/>
</svg>
