<svg width="110" height="80" viewBox="0 0 110 80" fill="none" xmlns="http://www.w3.org/2000/svg">
<path d="M70.9982 69.6C53.4782 69.6 42.1182 61.12 42.1182 40.16C42.1182 20 54.4382 10.32 70.9982 10.32C87.7182 10.32 100.038 20 100.038 40.16C100.038 61.12 87.7982 69.6 70.9982 69.6ZM70.9982 28.64C64.1182 28.64 61.5582 33.76 61.5582 40.08C61.5582 45.12 64.1182 50.72 70.9982 50.72C77.4782 50.72 80.4382 45.44 80.4382 39.76C80.4382 34.16 77.9582 28.64 70.9982 28.64Z" fill="white"/>
<path d="M38.4556 12.72C39.0956 23.44 38.9356 56.72 38.4556 68C35.4956 68.4 31.5756 68.56 27.6556 68.56C23.7356 68.56 19.8156 68.4 16.7756 68C16.3756 61.44 16.2156 48 16.2956 35.6C14.0556 35.52 12.0556 35.44 10.2956 35.36C9.73562 30.56 8.69562 17.04 9.25562 12.4C12.2956 12.16 17.1756 12 22.1356 12C28.4556 12 34.9356 12.24 38.4556 12.72Z" fill="white"/>
</svg>
