<svg width="110" height="80" viewBox="0 0 110 80" fill="none" xmlns="http://www.w3.org/2000/svg">
<path d="M71.7866 26.1904C72.1259 25.1726 71.617 21.7234 74.105 19.4616C76.5929 17.1998 83.3783 16.0689 83.3783 16.0689L71.7866 26.1904Z" fill="#68B3DB"/>
<path d="M33.6748 68.1466C33.6748 68.1466 27.5114 69.7299 25.5323 66.9592C23.4967 64.1885 26.2674 58.7036 29.0946 56.3287C31.9219 53.9538 35.6538 54.2931 35.6538 54.2931L33.6748 68.1466Z" fill="#68B3DB"/>
<path d="M60.8171 77.8158C60.8171 77.8158 56.1805 76.5153 54.5407 70.3519C52.9009 64.1885 57.5941 62.0398 58.1595 61.5309C58.725 61.0785 62.3438 70.2954 62.3438 70.2954L60.8171 77.8158Z" fill="#68B3DB"/>
<path d="M28.926 36.3119C28.926 36.3119 26.0987 37.4993 21.971 32.2406C17.7867 27.0385 18.861 24.6071 20.1615 23.3065C21.4621 22.006 27.3427 21.5536 30.6789 22.9673C34.015 24.3809 28.926 36.3119 28.926 36.3119Z" fill="#68B3DB"/>
<path d="M51.4307 2.49802C51.4307 2.49802 49.6778 2.32839 47.7553 6.96506C45.8327 11.6017 45.9458 14.7117 47.7553 17.1997C49.6213 19.6311 53.4663 21.8929 53.4663 21.8929L51.4307 2.49802Z" fill="#68B3DB"/>
<path d="M53.5803 22.6281C51.7143 22.2888 37.1257 23.7024 33.3937 37.047C32.2063 41.1748 33.5634 45.5853 34.4116 48.5821C36.5603 56.555 43.7415 60.7393 49.4525 61.0786C57.2557 61.5309 63.5887 59.5519 63.5887 59.5519L44.3069 43.38L53.5803 22.6281Z" fill="#68B3DB"/>
<path d="M91.3517 55.933C91.069 57.0639 83.0962 58.7602 78.2899 56.3288C75.4626 54.9152 74.8406 52.5968 74.1055 51.6356C73.7097 51.0701 73.3139 50.957 72.4658 51.6356C70.826 49.7696 71.4479 47.3382 74.5014 45.9811C74.9537 48.1863 76.2543 46.6596 78.9684 45.9811C79.3077 45.9057 79.6658 45.8491 80.0428 45.8114C80.6648 45.6984 81.3998 45.6984 82.1349 45.7549C87.0543 46.3204 92.5392 53.6712 91.3517 55.933Z" fill="url(#paint0_linear_39_5054)"/>
<g style="mix-blend-mode:multiply" opacity="0.8">
<path d="M72.4658 51.6356C74.8406 49.7696 74.1056 53.8408 78.2899 56.3288C80.6082 57.7424 83.3224 57.7424 86.1496 57.5162L84.3967 56.4419C84.3967 56.4419 83.3789 56.2157 82.9831 55.2544C82.248 53.6146 92.8219 46.5465 80.0428 45.8114C76.5935 46.2638 75.0103 48.4125 74.5014 45.9811C71.4479 47.3382 70.826 49.7696 72.4658 51.6356Z" fill="#E09781"/>
</g>
<g style="mix-blend-mode:multiply" opacity="0.8">
<path d="M79.0817 55.7068C79.0252 56.1591 76.5372 55.1413 74.954 52.3141C72.1267 47.3947 79.0817 46.2072 79.3645 46.1507C79.5906 46.1507 84.7928 46.3203 84.2273 50.9004C83.6619 56.1026 79.0817 55.7068 79.0817 55.7068Z" fill="#E09781"/>
</g>
<path d="M81.2295 30.2615C79.9855 30.827 78.9112 31.0531 77.8934 31.1662C75.1227 31.3924 73.5394 30.6008 73.8787 32.8626C71.2776 33.3149 69.4682 31.5055 69.8075 28.0563C71.1645 28.5086 71.4473 27.9997 71.6169 26.9819C71.8431 26.0207 71.8996 24.607 72.5782 23.0238C72.8609 22.4018 73.2002 21.7798 73.7091 21.1012C76.8756 16.9169 85.64 14.5986 87.0537 16.9169C87.9018 17.7086 87.4495 27.4908 81.2295 30.2615Z" fill="url(#paint1_linear_39_5054)"/>
<g style="mix-blend-mode:multiply" opacity="0.8">
<path d="M73.8797 32.9192C73.3708 29.8093 76.7069 32.6365 81.2305 30.2616C83.7185 29.0176 84.6797 26.8689 84.6797 24.9464C84.6797 24.9464 85.019 26.5297 83.0965 26.5862C81.2305 26.6428 80.8347 12.1107 72.5791 23.0239C71.1655 26.36 72.2964 28.9046 69.8084 28.0564C69.4692 31.5056 71.2786 33.315 73.8797 32.9192Z" fill="#E09781"/>
</g>
<g style="mix-blend-mode:multiply" opacity="0.8">
<path d="M81.0605 29.3003C81.5128 29.5265 79.1945 31.2228 75.7453 31.1097C69.8646 30.8836 72.4656 24.0982 72.5787 23.872C72.6918 23.6458 73.9924 18.9526 77.6112 20.0835C83.7746 22.006 81.0605 29.3003 81.0605 29.3003Z" fill="#E09781"/>
</g>
<g style="mix-blend-mode:soft-light" opacity="0.3">
<path d="M84.1706 52.9926C82.3612 54.9717 83.6052 55.9895 86.7151 56.4418C89.7686 56.8376 90.2775 53.3319 90.1078 52.3706C89.8817 51.3528 86.6021 50.335 84.1706 52.9926Z" fill="#FFD8BA"/>
</g>
<g style="mix-blend-mode:soft-light" opacity="0.3">
<path d="M77.272 18.6133C76.8762 18.8961 79.4207 19.1788 81.5129 20.4793C83.6616 21.7233 86.715 16.9735 86.715 16.9735C86.715 16.9735 82.7003 14.0897 77.272 18.6133Z" fill="#FFD8BA"/>
</g>
<g style="mix-blend-mode:multiply">
<path d="M74.4448 51.5225C74.3317 51.5602 74.2186 51.5979 74.1055 51.6356C73.7097 51.0701 73.3139 50.957 72.4658 51.6356C70.826 49.7696 71.4479 47.3382 74.5014 45.9811C74.9537 48.1863 76.2543 46.6596 78.9684 45.9811C80.8909 47.3382 81.6826 49.9392 74.4448 51.5225Z" fill="#AB6377"/>
</g>
<g style="mix-blend-mode:multiply">
<path d="M77.8934 31.1662C75.1227 31.3924 73.5394 30.6008 73.8787 32.8626C71.2776 33.3149 69.4682 31.5055 69.8075 28.0563C71.1645 28.5086 71.4473 27.9997 71.6169 26.9819C73.9352 27.8301 76.2536 29.6395 77.8934 31.1662Z" fill="#AB6377"/>
</g>
<path d="M62.2881 77.9855C58.2169 78.3813 54.9938 70.5781 55.2766 67.864C55.3519 67.2231 55.465 66.6577 55.6158 66.1676C55.6912 65.9037 55.7855 65.6587 55.8985 65.4325C57.1425 62.3226 59.574 61.3048 57.1425 60.2869C58.2734 57.9121 60.8745 57.4032 63.5887 59.5519C61.553 61.0786 64.041 61.4744 65.9635 64.0755C66.0766 64.1885 66.1709 64.3016 66.2463 64.4147C66.6421 64.9802 66.9813 65.6022 67.2075 66.3372C68.9604 70.9739 64.9457 77.7593 62.2881 77.9855Z" fill="url(#paint2_linear_39_5054)"/>
<path d="M55.5024 66.6765C59.2909 61.9267 67.0376 72.331 67.0376 72.331C67.0376 72.331 67.6596 70.0692 67.603 69.221C67.603 68.3729 61.8355 64.5278 59.7433 63.6796C57.6511 62.8315 56.1244 64.6409 55.5024 66.6765Z" fill="url(#paint3_linear_39_5054)"/>
<g style="mix-blend-mode:multiply" opacity="0.8">
<path d="M57.1411 60.2869C60.0814 61.5309 55.784 62.8314 55.2751 67.8639C54.9924 70.578 56.2929 72.444 57.9892 73.4053C57.9892 73.4053 55.784 72.3875 56.7452 70.8042C57.7631 69.1644 69.3548 71.6524 66.2448 64.4147C64.2657 61.5309 61.4385 61.1351 63.5872 59.5518C60.873 57.4031 58.272 57.912 57.1411 60.2869Z" fill="#E09781"/>
</g>
<g style="mix-blend-mode:soft-light" opacity="0.3">
<path d="M56.3501 71.9917C55.9543 70.6912 62.5135 70.8608 66.3586 69.7299C68.2246 69.221 65.7931 77.0242 62.2873 77.7593C60.5345 78.1551 57.4245 75.2148 56.3501 71.9917Z" fill="#FFD8BA"/>
</g>
<g style="mix-blend-mode:multiply" opacity="0.8">
<path d="M56.2934 68.2032C55.7845 68.4294 55.6149 65.6587 57.6505 62.8314C61.1563 58.0251 65.4537 63.7927 65.5668 64.0189C65.7364 64.1885 62.0045 64.867 60.5908 65.6587C59.2338 66.4503 56.2934 68.2032 56.2934 68.2032Z" fill="#E09781"/>
</g>
<g style="mix-blend-mode:soft-light" opacity="0.3">
<path d="M57.7072 71.8786C56.8591 72.5006 59.8559 73.4619 62.1177 73.2357C64.4361 73.0095 64.8319 71.3132 64.4361 71.1436C64.0403 70.9739 61.3261 69.2776 57.7072 71.8786Z" fill="#FFD8BA"/>
</g>
<g style="mix-blend-mode:multiply">
<path d="M65.9626 64.0754C66.0191 65.3759 65.5667 67.0157 63.1353 67.2419C59.2903 67.6377 55.3887 67.977 55.6149 66.1675C55.6525 65.9414 55.7468 65.6963 55.8976 65.4324C57.1416 62.3225 59.573 61.3047 57.1416 60.2869C58.2725 57.912 60.8735 57.4031 63.5877 59.5518C61.5521 61.0785 64.04 61.4743 65.9626 64.0754Z" fill="#AB6377"/>
</g>
<path d="M51.9958 23.1935C54.5969 21.1013 49.8471 20.8186 47.7549 15.3903C46.5675 12.3934 47.6984 3.17662 52.5047 2.04572C55.3885 1.36718 61.0995 8.37874 60.5906 14.0898C60.5341 14.9945 60.3644 15.7296 60.1382 16.4647C58.8943 20.1401 56.1236 21.2144 58.7246 22.4584C56.5759 25.3988 53.8052 25.5118 51.9958 23.1935Z" fill="url(#paint4_linear_39_5054)"/>
<g style="mix-blend-mode:multiply" opacity="0.8">
<path d="M51.9965 23.1935C54.5976 21.1013 49.8478 20.8186 47.7557 15.3903C46.5682 12.3934 47.3599 9.96198 48.83 8.43526C48.83 8.43526 46.7944 10.1316 48.3777 11.7149C49.9609 13.2981 61.383 7.474 60.139 16.4646C58.895 20.1401 56.1243 21.2144 58.7254 22.4584C56.5767 25.3987 53.806 25.5118 51.9965 23.1935Z" fill="#E09781"/>
</g>
<g style="mix-blend-mode:soft-light" opacity="0.3">
<path d="M47.9256 10.6406C47.6428 12.1107 54.4282 10.9798 58.7256 11.2626C61.8921 11.4887 51.601 -9.0936 47.9256 10.6406Z" fill="#FFD8BA"/>
</g>
<g style="mix-blend-mode:multiply" opacity="0.8">
<path d="M48.6607 14.7684C48.0953 14.5987 48.7738 17.7653 51.7142 20.3098C56.6901 24.6637 59.4608 17.3694 59.5739 17.0867C59.6304 16.804 55.6158 17.0302 53.9194 16.5213C52.2796 16.0124 48.6607 14.7684 48.6607 14.7684Z" fill="#E09781"/>
</g>
<g style="mix-blend-mode:soft-light" opacity="0.3">
<path d="M49.2822 9.22686C48.1513 8.7745 51.0351 6.85197 53.5231 6.45616C56.0111 6.11689 56.9158 8.03942 56.5765 8.32214C56.1807 8.60487 53.8624 11.2625 49.2822 9.22686Z" fill="#FFD8BA"/>
</g>
<g style="mix-blend-mode:soft-light" opacity="0.3">
<path d="M52.562 23.3066C52.3924 22.7977 55.9547 22.8542 56.916 22.8542C57.9338 22.9108 56.4071 24.8898 54.4845 24.4375C52.6186 23.9851 52.562 23.3066 52.562 23.3066Z" fill="#FFD8BA"/>
</g>
<g style="mix-blend-mode:soft-light" opacity="0.3">
<path d="M57.7066 60.0608C57.6501 60.5131 60.8732 59.778 61.8344 59.5519C62.7391 59.3257 60.8166 57.8555 59.1768 58.6471C57.537 59.4388 57.7066 60.0608 57.7066 60.0608Z" fill="#FFD8BA"/>
</g>
<g style="mix-blend-mode:soft-light" opacity="0.3">
<path d="M72.5223 51.1266C72.8616 51.3528 73.5966 48.3559 73.7663 47.4512C73.9359 46.603 71.8438 47.5643 71.8438 49.3172C71.9003 51.0135 72.5223 51.1266 72.5223 51.1266Z" fill="#FFD8BA"/>
</g>
<path d="M73.4266 32.5799C73.8224 32.4103 71.4476 30.1485 70.769 29.5265C70.0905 28.9045 69.8643 31.2794 71.4476 32.1841C72.9743 33.0888 73.4266 32.5799 73.4266 32.5799Z" fill="#FFD8BA"/>
<path fill-rule="evenodd" clip-rule="evenodd" d="M71.1087 40.157C71.9568 47.3947 71.561 53.6712 67.3767 57.2335C65.9065 58.4775 64.0406 59.3822 61.6091 59.8911C61.496 59.8911 61.0437 60.0042 60.3651 60.0607C58.4426 60.3435 54.9934 60.8524 54.5976 60.8524C46.5117 61.0786 39.1043 57.912 35.7116 50.3916C35.7116 50.3916 34.4111 42.5884 33.7891 40.9486C33.9587 31.1098 41.1399 25.0029 49.2258 23.3066C49.5085 23.25 53.5798 22.6281 55.3327 22.4019L55.5588 22.3453C55.8416 22.2888 56.0112 22.2888 56.0677 22.2888C57.7641 22.2134 59.2719 22.3642 60.5913 22.7411C60.9306 22.8165 61.251 22.9108 61.5526 23.0239C62.1934 23.25 62.8154 23.5328 63.4186 23.872C68.2814 26.7558 70.2605 32.9758 71.1087 40.157ZM60.6479 41.4009C60.0259 36.7077 55.5588 33.2585 50.696 33.7674C45.7766 34.3328 42.3839 38.6302 43.119 43.4366C43.854 48.1298 48.3776 51.4094 53.1274 50.8439C57.9337 50.2219 61.2699 46.0376 60.6479 41.4009Z" fill="url(#paint5_linear_39_5054)"/>
<path fill-rule="evenodd" clip-rule="evenodd" d="M76.1407 39.5915C76.7627 44.9632 75.1795 49.9957 72.1261 53.7842C71.5229 54.5382 70.8444 55.2544 70.0904 55.9329C70.0528 55.9706 69.9962 56.0083 69.9208 56.046C69.8077 56.1591 69.6758 56.2722 69.525 56.3853C69.2988 56.5738 69.0726 56.7434 68.8465 56.8942C68.658 57.045 68.4695 57.1769 68.281 57.29C68.1679 57.3654 68.0737 57.422 67.9983 57.4597C67.9606 57.4973 67.904 57.535 67.8287 57.5727C67.8287 57.6104 67.8098 57.6293 67.7721 57.6293C67.6213 57.7047 67.5082 57.7801 67.4328 57.8555C67.3574 57.8932 67.3198 57.912 67.3198 57.912C65.4538 58.9864 63.3616 59.7214 61.1564 60.0042C60.8925 60.0419 60.6286 60.0607 60.3647 60.0607C51.0914 60.8523 42.3269 53.7842 40.7437 43.6627C39.1039 33.315 45.6065 23.8155 55.3322 22.4018L55.5584 22.3453C55.7469 22.3076 55.9165 22.2887 56.0673 22.2887C57.5375 22.138 58.9511 22.1757 60.3082 22.4018C60.4213 22.4584 60.8736 22.6846 61.5522 23.0238C62.193 23.25 62.815 23.5327 63.4182 23.872C64.6056 24.3809 65.9061 24.8333 66.6978 24.8333C66.7732 24.8333 66.8485 24.8144 66.9239 24.7767C71.8433 27.8301 75.4622 33.2584 76.1407 39.5915ZM66.5847 40.7224C66.0192 36.0291 62.0045 32.5799 57.5375 33.0323C53.0704 33.5412 49.9605 37.782 50.6956 42.5318C51.3741 47.225 55.4453 50.5612 59.7993 49.9957C64.1532 49.4868 67.2067 45.359 66.5847 40.7224Z" fill="url(#paint6_linear_39_5054)"/>
<path d="M35.4287 36.1423C34.2412 42.5884 40.2915 39.1391 41.1963 32.5234C41.5921 29.1873 36.6727 29.6396 35.4287 36.1423Z" fill="url(#paint7_linear_39_5054)"/>
<path d="M43.1186 57.6294C48.7166 60.909 47.3595 54.5194 41.4788 51.3529C38.4819 49.7696 37.4076 54.2367 43.1186 57.6294Z" fill="url(#paint8_linear_39_5054)"/>
<path d="M36.4463 37.7255C36.3898 34.3894 33.1667 38.1779 27.7949 35.9726C21.8012 33.5412 19.3132 25.5118 20.1614 24.494C21.2923 21.8364 30.0002 21.1013 34.2976 25.1726C34.9761 25.8511 35.5416 26.4731 35.9374 27.0951C38.1426 30.4878 37.4076 33.315 39.9521 32.071C40.9699 35.6334 39.3866 37.8386 36.4463 37.7255Z" fill="url(#paint9_linear_39_5054)"/>
<path d="M19.9917 25.2856C20.7833 24.0982 26.7771 22.1757 33.4494 24.7202C35.4284 25.4553 36.2201 28.7914 35.7677 29.3569C35.3719 29.9789 35.9373 30.7705 36.7855 32.693C37.6337 34.559 40.2913 33.6543 40.2913 33.6543C40.2913 33.6543 38.595 35.0679 37.0117 33.7108C35.4284 32.2972 35.1457 29.9789 35.1457 29.3569C35.1457 28.7349 35.2588 26.36 33.619 25.6814C31.9792 25.0029 27.0033 25.2856 25.9855 25.3987C24.9676 25.5118 19.9917 25.2856 19.9917 25.2856Z" fill="url(#paint10_linear_39_5054)"/>
<path d="M20.8965 28.3956C20.8965 28.3956 29.7175 26.2469 32.262 27.0385C34.8065 27.7736 34.2976 30.4877 34.1845 32.4668C34.0714 34.5024 37.351 35.2375 37.9165 35.4071C38.5385 35.5768 40.0652 35.6333 40.0652 35.6333C40.0652 35.6333 39.7825 36.2553 39.5563 36.4815C39.3867 36.7077 35.6547 36.6511 34.2976 35.2375C32.9971 33.8239 34.3542 30.9966 33.9583 29.4134C33.6191 27.8301 32.0924 26.8123 28.1908 27.6605C24.2326 28.5652 21.575 29.6961 21.575 29.6961L20.8965 28.3956Z" fill="url(#paint11_linear_39_5054)"/>
<g style="mix-blend-mode:multiply" opacity="0.8">
<path d="M36.4466 37.7255C36.3901 34.3894 33.3367 37.8386 27.7953 35.9726C24.6853 34.9548 23.2151 32.8061 22.8193 30.6574C22.8193 30.6574 23.2152 35.2941 29.7178 34.1066C33.4498 33.3716 36.6163 29.3569 35.9377 27.0951C38.143 30.4878 37.4079 33.315 39.9524 32.071C40.9702 35.6333 39.387 37.8386 36.4466 37.7255Z" fill="#E09781"/>
</g>
<g style="mix-blend-mode:soft-light" opacity="0.3">
<path d="M24.0636 32.7496C25.138 33.8805 28.2479 34.9549 30.9056 33.4282C33.5066 31.9014 34.1852 27.2648 32.5454 24.4375C31.3014 22.3454 24.7422 20.4794 21.0102 24.4375C19.8228 25.6815 19.8793 28.3957 24.0636 32.7496Z" fill="#FFD8BA"/>
</g>
<g style="mix-blend-mode:multiply" opacity="0.8">
<path d="M29.3782 34.1632C28.9258 34.5024 30.2829 36.8773 34.0149 36.0857C37.7468 35.3506 36.0505 29.9788 35.8243 29.7527C35.6547 29.5265 34.3541 31.9014 32.9405 32.8626C31.5834 33.7673 29.3782 34.1632 29.3782 34.1632Z" fill="#E09781"/>
</g>
<g style="mix-blend-mode:soft-light" opacity="0.3">
<path d="M29.8871 33.8805C28.8693 34.4459 29.0389 31.0533 30.2263 28.9046C31.4138 26.7559 33.4494 27.2648 33.4494 27.7171C33.4494 28.1695 34.1845 31.6753 29.8871 33.8805Z" fill="#FFD8BA"/>
</g>
<g style="mix-blend-mode:soft-light" opacity="0.3">
<path d="M36.899 37.3297C36.3901 37.2166 38.5388 34.5024 39.1608 33.7674C39.7828 33.0323 40.5179 35.4637 38.9912 36.6511C37.4645 37.782 36.899 37.3297 36.899 37.3297Z" fill="#FFD8BA"/>
</g>
<path d="M44.7016 57.5728C41.5351 56.555 43.91 60.3435 40.6869 64.4147C38.934 66.6765 30.1696 70.465 26.268 67.1854C24.1193 65.3194 27.3989 57.6859 32.3183 55.311C33.1099 54.9152 33.845 54.689 34.5235 54.5194C38.2555 53.6712 40.8 55.311 40.2911 52.6534C43.9665 52.8796 45.6063 55.0283 44.7016 57.5728Z" fill="url(#paint12_linear_39_5054)"/>
<g style="mix-blend-mode:multiply" opacity="0.8">
<path d="M44.7025 57.5728C41.536 56.555 43.9109 60.3435 40.6878 64.4147C38.9349 66.6765 36.56 67.242 34.5244 66.8461C34.5244 66.8461 38.9349 68.0336 39.4438 62.2095C39.7831 58.7602 36.8428 54.689 34.5244 54.5194C38.2564 53.6712 40.8009 55.311 40.292 52.6534C43.9674 52.8796 45.6072 55.0283 44.7025 57.5728Z" fill="#E09781"/>
</g>
<path d="M26.8906 60.9654C28.9828 57.912 33.5629 60.9654 35.9943 63.3403C38.4258 65.7152 36.5598 67.355 36.5598 67.355L39.1609 65.8283C39.1609 65.8283 36.786 59.778 32.7147 58.7037C28.6435 57.6858 28.2477 58.8167 28.2477 58.8167L26.8906 60.9654Z" fill="url(#paint13_linear_39_5054)"/>
<path d="M26.1553 62.6052C26.1553 62.6052 26.438 59.9476 30.3396 60.9089C34.1847 61.8701 36.1637 67.2419 36.1637 67.2419L33.9585 67.977C33.9585 67.977 32.0925 65.0367 29.8307 64.3581C27.5689 63.6796 25.5898 65.4325 25.5898 65.4325L26.1553 62.6052Z" fill="url(#paint14_linear_39_5054)"/>
<g style="mix-blend-mode:multiply" opacity="0.8">
<path d="M39.4435 62.4922C39.6697 62.9445 42.1577 62.6053 42.497 59.156C42.7797 55.6503 37.2948 55.3675 37.0121 55.4806C36.7294 55.5372 38.6519 57.4597 39.1608 58.9864C39.6697 60.5131 39.4435 62.4922 39.4435 62.4922Z" fill="#E09781"/>
</g>
<g style="mix-blend-mode:soft-light" opacity="0.3">
<path d="M44.4751 57.0638C44.1924 57.4031 42.2133 54.6324 41.6478 53.8408C41.1389 53.0491 43.6835 53.2753 44.362 54.9717C45.0405 56.668 44.4751 57.0638 44.4751 57.0638Z" fill="#FFD8BA"/>
</g>
<g style="mix-blend-mode:soft-light" opacity="0.3">
<path d="M36.7288 66.9027C38.0859 66.3373 39.8954 63.6797 39.1603 60.9655C38.4252 58.1948 34.2409 56.1026 31.1875 56.6116C29.2084 56.8943 24.0628 64.0755 26.268 66.9593C27.3989 68.4294 31.4702 68.9949 36.7288 66.9027Z" fill="#FFD8BA"/>
</g>
<g style="mix-blend-mode:soft-light" opacity="0.3">
<path d="M39.3297 61.9267C39.5559 63.0011 36.4459 61.7571 34.7496 60.0607C33.0532 58.3078 34.0145 56.7246 34.4668 56.8942C34.9192 57.0639 38.3684 57.5728 39.3297 61.9267Z" fill="#FFD8BA"/>
</g>
<g style="mix-blend-mode:multiply" opacity="0.8">
<path d="M48.1514 25.2291C49.6781 25.3987 55.7284 33.4281 55.7284 33.4281C55.7284 33.4281 57.764 32.8627 58.8949 33.0323C58.8949 33.0323 58.6687 24.8898 52.5619 23.3066C50.0739 23.5328 48.1514 25.2291 48.1514 25.2291Z" fill="#E09781"/>
</g>
<g style="mix-blend-mode:multiply" opacity="0.8">
<path d="M72.1265 53.7842C71.6176 54.5193 70.8825 55.2544 70.0909 55.9329C70.0532 55.9706 69.9966 56.0083 69.9212 56.046C69.8081 56.1591 69.6762 56.2722 69.5254 56.3853C68.6207 57.1204 67.7725 57.6293 67.4332 57.8555C67.3579 57.8932 67.3202 57.912 67.3202 57.912C67.3202 57.912 67.3202 57.6858 67.3767 57.2335C67.6029 54.802 68.2249 46.1507 66.472 37.16C64.7191 28.339 61.6091 23.9285 60.5913 22.7411C60.4405 22.5526 60.3463 22.4395 60.3086 22.4018C60.4217 22.4584 60.874 22.6846 61.5526 23.0238C62.1934 23.25 62.8154 23.5327 63.4186 23.872C64.606 24.3809 65.9065 24.8333 66.6982 24.8333C67.6029 25.6814 69.4689 27.8867 70.5432 32.2972C72.0134 38.1778 73.6532 51.5224 72.1265 53.7842Z" fill="#E09781"/>
</g>
<g style="mix-blend-mode:multiply" opacity="0.8">
<path d="M43.2876 30.4312C47.3588 25.8511 52.7306 59.3257 52.8437 59.156C52.9568 59.0429 47.3023 37.5559 46.3976 34.6156C45.4929 31.7318 42.496 31.8449 42.6656 31.5056C42.8918 31.1663 43.2876 30.4312 43.2876 30.4312Z" fill="#E09781"/>
</g>
<path d="M40.1782 41.005C40.9133 39.3652 42.4965 43.6061 42.6096 45.359C42.7227 47.1119 41.5353 47.5643 41.5353 47.5643C41.5353 47.5643 38.8777 43.8323 40.1782 41.005Z" fill="url(#paint15_linear_39_5054)"/>
<path d="M41.5355 47.5643C41.5355 47.5643 41.4224 47.4512 41.592 46.1507C41.7616 44.9067 42.3836 44.002 42.3836 44.002C42.3836 44.002 43.458 46.7727 41.5355 47.5643Z" fill="#A3523F"/>
<g style="mix-blend-mode:multiply" opacity="0.6">
<path d="M40.0084 41.401C39.7257 41.8533 40.7435 44.7371 41.1393 44.9067C41.5351 45.0764 42.1571 43.8889 41.9309 42.6449C41.7047 41.4575 40.9131 39.8742 40.0084 41.401Z" fill="#904F81"/>
</g>
<path d="M49.6218 9.90547C50.5831 8.71803 51.3182 11.2625 51.1486 12.3934C50.9224 13.5243 49.7915 13.9767 49.7915 13.9767C49.7915 13.9767 47.982 11.9976 49.6218 9.90547Z" fill="url(#paint16_linear_39_5054)"/>
<path d="M49.7908 13.9766C49.7908 13.9766 49.6777 13.9201 50.0736 13.0719C50.4128 12.2238 51.1479 11.5452 51.1479 11.5452C51.1479 11.5452 51.6568 13.1285 49.7908 13.9766Z" fill="#A3523F"/>
<g style="mix-blend-mode:multiply" opacity="0.6">
<path d="M49.4516 10.1882C49.1124 10.584 49.5647 12.2803 49.8474 12.3369C50.1867 12.3369 50.9783 11.4887 50.9783 10.6971C50.9783 9.96199 50.526 9.05727 49.4516 10.1882Z" fill="#904F81"/>
</g>
<path d="M82.7002 54.9717C83.6615 56.1591 81.0039 56.2722 79.9295 55.8199C78.8552 55.3109 78.6855 54.1235 78.6855 54.1235C78.6855 54.1235 81.0604 52.8795 82.7002 54.9717Z" fill="url(#paint17_linear_39_5054)"/>
<path d="M78.6855 54.1234C78.6855 54.1234 78.7421 54.0669 79.5337 54.5758C80.2688 55.1412 80.7777 55.9894 80.7777 55.9894C80.7777 55.9894 79.0814 56.1025 78.6855 54.1234Z" fill="#A3523F"/>
<g style="mix-blend-mode:multiply" opacity="0.6">
<path d="M82.4745 54.6889C82.1917 54.2365 80.3823 54.2931 80.2692 54.5758C80.1561 54.9151 80.8347 55.8763 81.6263 56.046C82.3614 56.2156 83.3226 55.9894 82.4745 54.6889Z" fill="#904F81"/>
</g>
<path d="M58.895 33.0323C58.895 33.0323 56.3505 32.0145 55.8981 32.071C55.3892 32.1275 55.7285 33.4281 55.7285 33.4281C55.7285 33.4281 58.6688 32.9757 58.895 33.0323Z" fill="url(#paint18_linear_39_5054)"/>
<path d="M58.4424 50.0523C58.4424 50.0523 59.9691 50.9005 61.722 50.7309C63.5314 50.5612 63.7011 48.356 63.7011 48.356C63.7011 48.356 59.5733 47.9602 58.4424 50.0523Z" fill="url(#paint19_linear_39_5054)"/>
<path d="M59.2339 50.335C59.2339 50.335 60.8737 50.7874 61.8915 50.4481C62.9093 50.1654 63.4182 49.3738 63.4182 49.3738C63.4182 49.3738 62.9658 51.9748 59.2339 50.335Z" fill="#954D59"/>
<path d="M61.5527 23.0238C62.1936 23.25 62.8156 23.5327 63.4187 23.872C62.7402 23.5893 62.0616 23.3065 61.5527 23.0238Z" fill="url(#paint20_linear_39_5054)"/>
<g style="mix-blend-mode:multiply">
<path d="M33.7891 40.9486C34.6938 40.4397 38.3692 39.9873 38.9912 40.3266C39.6132 40.6093 39.387 44.2282 40.6875 46.8292C41.9315 49.4303 43.119 51.0701 43.119 51.0701C43.119 51.0701 39.6697 50.3916 38.9912 51.1832C38.3127 51.9183 38.7085 53.6146 38.7085 53.6146C38.7085 53.6146 36.8425 51.9748 35.7681 49.2041C34.6938 46.49 34.9765 43.7193 33.7891 40.9486Z" fill="#CA9DAA"/>
</g>
<g style="mix-blend-mode:multiply" opacity="0.8">
<path d="M66.9242 24.7768C66.698 24.8333 63.4184 24.0417 62.5137 23.5328C61.5525 23.0239 65.2844 28.1129 67.7158 36.9905C70.2038 45.868 70.9389 39.8177 70.9954 35.6899C71.1085 31.5622 66.9242 24.7768 66.9242 24.7768Z" fill="#E09781"/>
</g>
<g style="mix-blend-mode:multiply" opacity="0.5">
<path d="M52.3919 48.6387C51.7133 48.469 52.3919 55.8764 54.0882 58.3078C55.7845 60.6827 63.4746 59.8911 65.1144 58.4775C66.7542 57.1204 67.2632 49.8826 67.0935 48.5256C66.8673 47.1685 65.171 47.847 64.6055 48.1863C64.0966 48.5821 65.5103 50.5046 62.683 51.3528C59.9123 52.2575 57.8202 50.5046 57.0285 50.2219C56.2934 49.8826 52.3919 48.6387 52.3919 48.6387Z" fill="#E09781"/>
</g>
<path d="M42.6658 31.5056C42.0438 31.2794 39.9517 29.3003 39.9517 29.1872C39.9517 29.0176 43.3444 29.3003 44.3056 29.8658C45.2669 30.4312 46.6805 34.1632 46.737 34.559C46.8501 34.9548 45.2669 32.4103 42.6658 31.5056Z" fill="url(#paint21_linear_39_5054)"/>
<g style="mix-blend-mode:multiply" opacity="0.6">
<path d="M39.9521 29.0176C39.839 29.0176 42.2704 31.1663 42.6662 31.3925C43.062 31.6752 44.5322 31.7883 45.2673 32.4103C46.0024 33.0323 45.1542 30.3181 44.306 29.8658C43.4578 29.3569 40.2348 29.0176 39.9521 29.0176Z" fill="#904F81"/>
</g>
<path d="M41.083 30.2051C41.083 30.2051 43.2317 31.1098 43.6841 31.5621C44.1364 32.0145 44.8715 32.7496 44.8715 32.7496C44.8715 32.7496 42.7228 31.9014 42.4966 31.5621C42.2704 31.2794 41.083 30.2051 41.083 30.2051Z" fill="#AE5236"/>
<g style="mix-blend-mode:multiply" opacity="0.5">
<path d="M41.3657 39.3653C41.3657 40.4396 42.4401 40.7224 42.8924 43.9454C43.2882 47.1685 43.0621 47.6208 43.1752 48.8083C43.2882 49.9957 49.1689 56.3288 50.4129 57.4031C51.6569 58.4775 47.3029 42.758 46.7375 37.8386C46.172 32.9192 42.2139 34.2197 41.8746 34.1632C41.5354 34.1066 41.3657 38.9695 41.3657 39.3653Z" fill="#E09781"/>
</g>
<path d="M63.7012 48.356C63.7012 48.356 65.5672 47.1685 66.1891 45.7549C66.8677 44.3978 66.6981 42.023 66.6981 42.023C66.6981 42.023 65.963 46.1507 63.7012 48.356Z" fill="#AE5C29"/>
<path d="M47.02 55.3675C47.02 55.3675 51.0913 57.177 52.5614 57.912C54.0881 58.5906 56.463 59.9477 56.463 59.9477C56.463 59.9477 48.7729 58.9299 47.02 55.3675Z" fill="#772029"/>
<path d="M31.3574 68.4294C31.3574 68.4294 34.637 68.2032 37.1815 67.0723C39.7261 65.9414 41.3659 63.51 41.3659 63.51C41.3659 63.51 36.4465 66.62 31.3574 68.4294Z" fill="url(#paint22_linear_39_5054)"/>
<path d="M71.9004 25.3988C71.9004 25.3988 75.5193 20.4228 76.3109 19.5747C77.046 18.783 77.4418 18.048 77.4418 18.048C77.4418 18.048 72.4658 19.9705 71.9004 25.3988Z" fill="#AE5C29"/>
<path d="M62.9663 23.5893L66.9244 24.7767C66.9244 24.7767 66.1894 25.2856 65.0585 25.0594C63.9276 24.8332 62.9663 23.5893 62.9663 23.5893Z" fill="#AE5C29"/>
<path d="M58.4424 50.0523C58.4424 50.0523 61.8916 50.335 62.5702 50.4481C62.5702 50.4481 62.0613 51.1832 60.6476 51.0136C59.1775 50.8439 58.4424 50.0523 58.4424 50.0523Z" fill="#AE5C29"/>
<path d="M56.2372 24.5506C54.5974 25.0029 53.6361 26.36 53.5796 27.8302C53.5796 29.3569 55.6718 31.7318 58.2728 31.6187C60.9304 31.5621 61.5524 29.4134 61.609 27.7736C61.7221 26.1904 59.2906 23.7024 56.2372 24.5506Z" fill="url(#paint23_linear_39_5054)"/>
<path d="M56.2373 24.8333C53.5797 25.7945 53.8624 29.5265 55.7849 30.5443C56.9724 31.2229 59.3473 31.7318 60.7043 29.4134C62.0049 27.0385 58.8384 23.872 56.2373 24.8333Z" fill="url(#paint24_linear_39_5054)"/>
<g style="mix-blend-mode:multiply" opacity="0.8">
<path d="M55.05 29.9224C54.5976 29.1874 59.9694 28.3392 60.5914 28.3392C61.2133 28.3957 60.8741 30.7706 58.6123 31.0533C56.3505 31.2795 55.05 29.9224 55.05 29.9224Z" fill="#E09781"/>
</g>
<g style="mix-blend-mode:soft-light" opacity="0.3">
<path d="M54.9935 25.6816C54.2584 26.7559 56.4636 28.4523 56.916 28.6219C57.3683 28.8481 60.3652 28.2261 60.5914 28.113C60.8176 28.0565 59.9129 25.1161 57.9903 24.7203C56.1244 24.3811 54.9935 25.6816 54.9935 25.6816Z" fill="#C5CFEA"/>
</g>
<g style="mix-blend-mode:soft-light" opacity="0.5">
<path d="M56.9161 28.6219C56.0679 28.2827 55.6721 27.2083 55.6156 26.7559C55.559 26.247 57.3684 26.6994 58.8386 27.3214C60.3653 27.9434 57.2554 28.7916 56.9161 28.6219Z" fill="#C5CFEA"/>
</g>
<g style="mix-blend-mode:multiply">
<path d="M53.5796 27.8301C53.5796 27.8301 54.5409 25.3986 57.1419 25.1159C59.743 24.7766 61.2131 26.4164 61.2131 26.4164C61.2131 26.4164 59.9692 24.2112 57.0288 24.4374C54.0885 24.6636 53.5796 27.8301 53.5796 27.8301Z" fill="#AB6377"/>
</g>
<path d="M55.333 30.6574C55.333 30.6574 57.5383 31.6752 59.2346 31.2794C60.9309 30.8836 61.3268 29.4134 61.3268 29.4134C61.3268 29.4134 60.8179 31.6187 59.065 32.1276C57.2555 32.5799 55.333 30.6574 55.333 30.6574Z" fill="#AE5C29"/>
<path d="M61.2693 51.5789C59.573 52.0313 58.4421 53.3318 58.1028 54.8585C57.8201 56.3852 59.3468 58.7601 61.9479 58.647C64.5489 58.5905 65.5668 56.4418 65.906 54.802C66.3018 53.2187 64.4359 50.7307 61.2693 51.5789Z" fill="url(#paint25_linear_39_5054)"/>
<path d="M61.2119 51.8051C58.4977 52.8229 58.0454 56.5549 59.7417 57.5727C60.7595 58.2512 62.9648 58.7601 64.7177 56.3852C66.4705 54.0669 63.926 50.8438 61.2119 51.8051Z" fill="url(#paint26_linear_39_5054)"/>
<g style="mix-blend-mode:multiply" opacity="0.8">
<path d="M59.1193 56.9507C58.78 56.159 64.2083 55.3674 64.8303 55.3674C65.3957 55.424 64.6606 57.7988 62.3989 58.0816C60.1371 58.3077 59.1193 56.9507 59.1193 56.9507Z" fill="#E09781"/>
</g>
<g style="mix-blend-mode:soft-light" opacity="0.3">
<path d="M59.9107 52.6532C58.9495 53.7841 60.7589 55.4239 61.1547 55.6501C61.5505 55.8763 64.6039 55.2543 64.8301 55.1412C65.0563 55.0846 64.7736 52.0878 62.9641 51.7485C61.2113 51.4092 59.9107 52.6532 59.9107 52.6532Z" fill="#C5CFEA"/>
</g>
<g style="mix-blend-mode:soft-light" opacity="0.5">
<path d="M61.1551 55.6502C60.42 55.3109 60.2503 54.2365 60.3069 53.7276C60.3069 53.2753 62.0032 53.7276 63.3038 54.3496C64.6608 54.9716 61.4943 55.8198 61.1551 55.6502Z" fill="#C5CFEA"/>
</g>
<g style="mix-blend-mode:multiply">
<path d="M58.103 54.8585C58.103 54.8585 59.5166 52.4271 62.0612 52.0878C64.6622 51.8051 65.7931 53.4449 65.7931 53.4449C65.7931 53.4449 65.0015 51.1831 62.0612 51.4093C59.1774 51.692 58.103 54.8585 58.103 54.8585Z" fill="#AB6377"/>
</g>
<path d="M59.2329 57.6857C59.2329 57.6857 61.212 58.7035 62.9649 58.3077C64.6612 57.9119 65.3398 56.4417 65.3398 56.4417C65.3398 56.4417 64.435 58.647 62.6256 59.1559C60.7596 59.6648 59.2329 57.6857 59.2329 57.6857Z" fill="#AE5C29"/>
<path d="M44.7017 40.4962C43.0619 40.9485 42.1006 42.2491 41.9875 43.7758C41.931 45.3025 43.91 47.6774 46.5676 47.5643C49.1687 47.4512 49.8472 45.3025 49.9603 43.7192C50.13 42.136 47.8116 39.648 44.7017 40.4962Z" fill="url(#paint27_linear_39_5054)"/>
<path d="M44.7591 40.7224C42.1015 41.7402 42.158 45.4156 44.0806 46.49C45.2115 47.1685 47.5863 47.6774 49 45.3025C50.4136 42.9842 47.3602 39.7611 44.7591 40.7224Z" fill="url(#paint28_linear_39_5054)"/>
<g style="mix-blend-mode:multiply" opacity="0.8">
<path d="M43.3455 45.868C42.9497 45.0764 48.3215 44.2848 48.9435 44.2848C49.5655 44.2848 49.1696 46.7162 46.8513 46.9424C44.5895 47.1685 43.3455 45.868 43.3455 45.868Z" fill="#E09781"/>
</g>
<g style="mix-blend-mode:soft-light" opacity="0.3">
<path d="M43.4586 41.5707C42.667 42.7016 44.8157 44.3414 45.2681 44.5676C45.7204 44.7937 48.7173 44.1152 48.9435 44.0587C49.1697 44.0021 48.378 41.0052 46.5121 40.666C44.6461 40.2701 43.4586 41.5707 43.4586 41.5707Z" fill="#C5CFEA"/>
</g>
<g style="mix-blend-mode:soft-light" opacity="0.5">
<path d="M45.2684 44.5676C44.4202 44.1718 44.1375 43.154 44.0809 42.6451C44.0244 42.1927 45.7773 42.5886 47.2474 43.2671C48.7176 43.8891 45.6076 44.7373 45.2684 44.5676Z" fill="#C5CFEA"/>
</g>
<g style="mix-blend-mode:multiply">
<path d="M41.9883 43.7758C41.9883 43.7758 43.0626 41.2878 45.6072 41.0051C48.2082 40.7224 49.6218 42.3622 49.6218 42.3622C49.6218 42.3622 48.4909 40.1004 45.5506 40.3265C42.6103 40.5527 41.9883 43.7758 41.9883 43.7758Z" fill="#AB6377"/>
</g>
<path d="M43.6274 46.603C43.6274 46.603 45.7761 47.6208 47.4725 47.225C49.1688 46.7726 49.6212 45.359 49.6212 45.359C49.6212 45.359 49.0557 47.5643 47.2463 48.0732C45.4369 48.5255 43.6274 46.603 43.6274 46.603Z" fill="#AE5C29"/>
<path d="M70.5992 35.5202C69.2421 35.916 68.3939 37.2165 68.3939 38.7433C68.3374 40.2134 70.0903 42.6449 72.2955 42.5883C74.5573 42.5883 75.0662 40.4396 75.1227 38.8563C75.2358 37.2731 73.2568 34.7286 70.5992 35.5202Z" fill="url(#paint29_linear_39_5054)"/>
<path d="M70.6551 35.7464C68.3933 36.6511 68.5629 40.3831 70.2027 41.4574C71.2205 42.136 73.1996 42.7014 74.3305 40.3831C75.4614 38.1213 72.8603 34.8417 70.6551 35.7464Z" fill="url(#paint30_linear_39_5054)"/>
<g style="mix-blend-mode:multiply" opacity="0.8">
<path d="M69.5813 40.8354C69.1855 40.0438 73.7657 39.3652 74.2746 39.3652C74.7835 39.4218 74.5007 41.7967 72.5782 42.0229C70.6557 42.1925 69.5813 40.8354 69.5813 40.8354Z" fill="#E09781"/>
</g>
<g style="mix-blend-mode:soft-light" opacity="0.3">
<path d="M69.5817 36.5946C68.9032 37.6689 70.7692 39.3653 71.165 39.5914C71.5608 39.8176 74.1053 39.1956 74.2749 39.1391C74.4446 39.0825 73.7095 36.0857 72.1262 35.6898C70.543 35.294 69.5817 36.5946 69.5817 36.5946Z" fill="#C5CFEA"/>
</g>
<g style="mix-blend-mode:soft-light" opacity="0.5">
<path d="M71.1643 39.5914C70.4292 39.1956 70.1464 38.1212 70.0899 37.6689C70.0334 37.16 71.5601 37.6689 72.8041 38.2909C74.048 38.9694 71.447 39.761 71.1643 39.5914Z" fill="#C5CFEA"/>
</g>
<g style="mix-blend-mode:multiply">
<path d="M68.3945 38.7434C68.3945 38.7434 69.1862 36.3119 71.3914 36.0292C73.5967 35.803 74.7841 37.4428 74.7841 37.4428C74.7841 37.4428 73.8228 35.181 71.2783 35.3507C68.7903 35.5203 68.3945 38.7434 68.3945 38.7434Z" fill="#AB6377"/>
</g>
<path d="M69.8076 41.5705C69.8076 41.5705 71.6736 42.6449 73.0872 42.2491C74.5008 41.9098 74.8967 40.4962 74.8967 40.4962C74.8967 40.4962 74.4443 42.6449 72.9176 43.0972C71.3909 43.5496 69.8076 41.5705 69.8076 41.5705Z" fill="#AE5C29"/>
<g style="mix-blend-mode:multiply">
<path d="M54.5967 34.2197C54.5967 34.2197 56.7454 34.6155 58.9506 37.2732C61.1559 39.9873 61.2124 41.5706 61.5517 42.4753C61.891 43.4365 65.5664 42.5318 66.5276 40.9486C67.4889 39.3653 64.0397 34.559 61.0428 33.5412C58.0459 32.5234 55.2752 33.5412 54.5967 34.2197Z" fill="#AB6377"/>
</g>
<g style="mix-blend-mode:soft-light" opacity="0.5">
<path d="M57.2549 49.4304C57.2549 49.4304 60.4214 49.4869 62.2308 48.6953C64.0403 47.9602 65.1712 45.1895 65.2277 44.3979C65.3408 43.6628 61.4957 44.9068 61.0434 45.1895C60.591 45.5288 58.4989 48.4691 57.2549 49.4304Z" fill="#C5CFEA"/>
</g>
<g style="mix-blend-mode:multiply" opacity="0.3">
<path d="M47.5858 33.1453C48.0947 35.0679 49.3953 36.4815 50.4696 35.5202C51.7136 34.3893 53.4665 33.4846 52.7879 31.7317C52.6749 31.449 52.5618 31.1097 52.4487 30.7704C51.8832 29.3003 51.2047 27.7736 49.3953 28.6783C49.3953 28.6783 47.19 29.6395 47.4162 32.0144C47.4539 32.3914 47.5104 32.7684 47.5858 33.1453Z" fill="#9D116F"/>
</g>
<g style="mix-blend-mode:multiply" opacity="0.5">
<path d="M47.5858 33.1453L47.6989 33.3715C47.6989 33.3715 47.4162 32.1275 47.8685 30.9966C48.3209 29.8657 49.056 28.8479 50.3565 29.0176C51.6005 29.1872 52.4487 30.7704 52.4487 30.7704C51.8832 29.3003 51.2047 27.7736 49.3953 28.6783C49.3953 28.6783 47.19 29.6395 47.4162 32.0144C47.4539 32.3914 47.5104 32.7684 47.5858 33.1453Z" fill="#9D116F"/>
</g>
<g style="mix-blend-mode:multiply" opacity="0.3">
<path d="M53.8057 54.6324C53.9753 55.933 54.4842 57.0073 55.1062 56.4984C55.7847 55.8764 56.6895 55.4241 56.4633 54.2366C56.4256 54.0104 56.3879 53.7842 56.3502 53.5581C56.1805 52.4837 55.8978 51.4659 54.9931 51.8617C54.9931 51.8617 53.8057 52.2575 53.8057 53.8973C53.8057 54.1235 53.8057 54.3685 53.8057 54.6324Z" fill="#9D116F"/>
</g>
<g style="mix-blend-mode:multiply" opacity="0.5">
<path d="M53.8057 54.6324L53.8622 54.8021C53.8622 54.8021 53.8057 53.9539 54.0884 53.2753C54.3711 52.5403 54.7669 51.9748 55.3889 52.201C56.0109 52.4272 56.3502 53.5581 56.3502 53.5581C56.1805 52.4837 55.8978 51.4659 54.9931 51.8617C54.9931 51.8617 53.8057 52.2575 53.8057 53.8973C53.8057 54.1235 53.8057 54.3685 53.8057 54.6324Z" fill="#9D116F"/>
</g>
<path d="M27.7954 64.3581C27.7954 64.3581 30.3965 64.0188 32.6017 66.3372C32.6017 66.3372 31.1316 63.7361 27.7954 64.3581Z" fill="#A05C42"/>
<path d="M28.7568 59.7215C28.7568 59.7215 31.0752 59.6649 33.6762 61.5875C36.2773 63.4534 36.8428 64.4147 36.8428 64.4147C36.8428 64.4147 36.2773 62.888 33.7328 61.1916C31.1883 59.4387 28.7568 59.7215 28.7568 59.7215Z" fill="#A05C42"/>
<defs>
<linearGradient id="paint0_linear_39_5054" x1="77.9048" y1="58.6731" x2="76.105" y2="45.7555" gradientUnits="userSpaceOnUse">
<stop stop-color="#531047"/>
<stop offset="1" stop-color="#934B29"/>
</linearGradient>
<linearGradient id="paint1_linear_39_5054" x1="73.5711" y1="32.9327" x2="71.4503" y2="17.7137" gradientUnits="userSpaceOnUse">
<stop stop-color="#531047"/>
<stop offset="1" stop-color="#934B29"/>
</linearGradient>
<linearGradient id="paint2_linear_39_5054" x1="46.7496" y1="80.1732" x2="43.995" y2="60.4052" gradientUnits="userSpaceOnUse">
<stop stop-color="#531047"/>
<stop offset="1" stop-color="#6B3129"/>
</linearGradient>
<linearGradient id="paint3_linear_39_5054" x1="58.0707" y1="73.5671" x2="56.6997" y2="63.7265" gradientUnits="userSpaceOnUse">
<stop stop-color="#45002C"/>
<stop offset="1" stop-color="#612029"/>
</linearGradient>
<linearGradient id="paint4_linear_39_5054" x1="42.5313" y1="14.5778" x2="54.1823" y2="1.92919" gradientUnits="userSpaceOnUse">
<stop stop-color="#531047"/>
<stop offset="1" stop-color="#934B29"/>
</linearGradient>
<linearGradient id="paint5_linear_39_5054" x1="33.8049" y1="22.2633" x2="71.4677" y2="22.2633" gradientUnits="userSpaceOnUse">
<stop stop-color="#512C54"/>
<stop offset="0.533" stop-color="#420D0F"/>
</linearGradient>
<linearGradient id="paint6_linear_39_5054" x1="38.2749" y1="60.1354" x2="38.2749" y2="22.1926" gradientUnits="userSpaceOnUse">
<stop stop-color="#862E57"/>
<stop offset="1" stop-color="#934B29"/>
</linearGradient>
<linearGradient id="paint7_linear_39_5054" x1="34.5986" y1="40.0501" x2="32.7533" y2="32.0558" gradientUnits="userSpaceOnUse">
<stop stop-color="#360900"/>
<stop offset="0.994" stop-color="#2E0019"/>
</linearGradient>
<linearGradient id="paint8_linear_39_5054" x1="46.3111" y1="60.3446" x2="38.0997" y2="59.2219" gradientUnits="userSpaceOnUse">
<stop stop-color="#360900"/>
<stop offset="0.994" stop-color="#2E0019"/>
</linearGradient>
<linearGradient id="paint9_linear_39_5054" x1="23.8786" y1="39.5694" x2="21.5427" y2="22.805" gradientUnits="userSpaceOnUse">
<stop stop-color="#531047"/>
<stop offset="1" stop-color="#6B3129"/>
</linearGradient>
<linearGradient id="paint10_linear_39_5054" x1="26.8523" y1="35.9432" x2="25.1194" y2="23.5056" gradientUnits="userSpaceOnUse">
<stop stop-color="#45002C"/>
<stop offset="1" stop-color="#612029"/>
</linearGradient>
<linearGradient id="paint11_linear_39_5054" x1="27.9312" y1="38.1597" x2="26.415" y2="27.2765" gradientUnits="userSpaceOnUse">
<stop stop-color="#45002C"/>
<stop offset="1" stop-color="#612029"/>
</linearGradient>
<linearGradient id="paint12_linear_39_5054" x1="42.2374" y1="70.7325" x2="25.0811" y2="67.4632" gradientUnits="userSpaceOnUse">
<stop stop-color="#531047"/>
<stop offset="1" stop-color="#6B3129"/>
</linearGradient>
<linearGradient id="paint13_linear_39_5054" x1="29.3413" y1="68.3807" x2="27.9632" y2="58.4899" gradientUnits="userSpaceOnUse">
<stop stop-color="#45002C"/>
<stop offset="1" stop-color="#612029"/>
</linearGradient>
<linearGradient id="paint14_linear_39_5054" x1="28.0931" y1="68.7924" x2="26.9949" y2="60.9128" gradientUnits="userSpaceOnUse">
<stop stop-color="#45002C"/>
<stop offset="1" stop-color="#612029"/>
</linearGradient>
<linearGradient id="paint15_linear_39_5054" x1="26.3371" y1="55.1209" x2="23.3567" y2="49.119" gradientUnits="userSpaceOnUse">
<stop stop-color="#4F1F11"/>
<stop offset="0.994" stop-color="#48001B"/>
</linearGradient>
<linearGradient id="paint16_linear_39_5054" x1="34.6414" y1="21.5175" x2="32.9435" y2="18.0976" gradientUnits="userSpaceOnUse">
<stop stop-color="#4F1F11"/>
<stop offset="0.994" stop-color="#48001B"/>
</linearGradient>
<linearGradient id="paint17_linear_39_5054" x1="74.8286" y1="36.9757" x2="78.6081" y2="36.1286" gradientUnits="userSpaceOnUse">
<stop stop-color="#4F1F11"/>
<stop offset="0.994" stop-color="#48001B"/>
</linearGradient>
<linearGradient id="paint18_linear_39_5054" x1="57.3044" y1="33.8132" x2="56.2785" y2="31.7471" gradientUnits="userSpaceOnUse">
<stop stop-color="#4F1811"/>
<stop offset="0.994" stop-color="#48001B"/>
</linearGradient>
<linearGradient id="paint19_linear_39_5054" x1="61.2453" y1="51.7617" x2="59.5053" y2="48.2571" gradientUnits="userSpaceOnUse">
<stop stop-color="#4F1811"/>
<stop offset="0.994" stop-color="#48001B"/>
</linearGradient>
<linearGradient id="paint20_linear_39_5054" x1="62.1945" y1="24.0659" x2="62.0387" y2="22.9469" gradientUnits="userSpaceOnUse">
<stop stop-color="#7C2147"/>
<stop offset="1" stop-color="#934329"/>
</linearGradient>
<linearGradient id="paint21_linear_39_5054" x1="39.9443" y1="29.1414" x2="45.8984" y2="28.3116" gradientUnits="userSpaceOnUse">
<stop stop-color="#4F1F11"/>
<stop offset="0.994" stop-color="#48001B"/>
</linearGradient>
<linearGradient id="paint22_linear_39_5054" x1="30.8802" y1="64.9491" x2="41.3637" y2="63.4891" gradientUnits="userSpaceOnUse">
<stop stop-color="#4F1F11"/>
<stop offset="0.994" stop-color="#48001B"/>
</linearGradient>
<linearGradient id="paint23_linear_39_5054" x1="54.892" y1="32.7343" x2="53.6483" y2="23.8088" gradientUnits="userSpaceOnUse">
<stop stop-color="#4F1811"/>
<stop offset="0.994" stop-color="#48001B"/>
</linearGradient>
<linearGradient id="paint24_linear_39_5054" x1="54.9452" y1="32.0806" x2="53.8365" y2="24.1236" gradientUnits="userSpaceOnUse">
<stop stop-color="#2A1036"/>
<stop offset="0.597" stop-color="#3D3252"/>
<stop offset="1" stop-color="#656883"/>
</linearGradient>
<linearGradient id="paint25_linear_39_5054" x1="58.4579" y1="59.7683" x2="58.8933" y2="50.8116" gradientUnits="userSpaceOnUse">
<stop stop-color="#4F1811"/>
<stop offset="0.994" stop-color="#48001B"/>
</linearGradient>
<linearGradient id="paint26_linear_39_5054" x1="58.6283" y1="59.1129" x2="59.0162" y2="51.1283" gradientUnits="userSpaceOnUse">
<stop stop-color="#2A1036"/>
<stop offset="0.597" stop-color="#3D3252"/>
<stop offset="1" stop-color="#656883"/>
</linearGradient>
<linearGradient id="paint27_linear_39_5054" x1="43.1128" y1="48.6737" x2="42.1889" y2="39.7096" gradientUnits="userSpaceOnUse">
<stop stop-color="#4F1811"/>
<stop offset="0.994" stop-color="#48001B"/>
</linearGradient>
<linearGradient id="paint28_linear_39_5054" x1="43.1894" y1="48.0178" x2="42.3661" y2="40.0263" gradientUnits="userSpaceOnUse">
<stop stop-color="#2A1036"/>
<stop offset="0.597" stop-color="#3D3252"/>
<stop offset="1" stop-color="#656883"/>
</linearGradient>
<linearGradient id="paint29_linear_39_5054" x1="68.2712" y1="43.7938" x2="67.3474" y2="34.8298" gradientUnits="userSpaceOnUse">
<stop stop-color="#4F1811"/>
<stop offset="0.994" stop-color="#48001B"/>
</linearGradient>
<linearGradient id="paint30_linear_39_5054" x1="68.3746" y1="43.134" x2="67.551" y2="35.1425" gradientUnits="userSpaceOnUse">
<stop stop-color="#2A1036"/>
<stop offset="0.597" stop-color="#3D3252"/>
<stop offset="1" stop-color="#656883"/>
</linearGradient>
</defs>
</svg>
