<svg width="110" height="80" viewBox="0 0 110 80" fill="none" xmlns="http://www.w3.org/2000/svg">
<mask id="mask0_39_4981" style="mask-type:alpha" maskUnits="userSpaceOnUse" x="0" y="0" width="110" height="80">
<rect width="110" height="80" rx="10" fill="#D9D9D9"/>
</mask>
<g mask="url(#mask0_39_4981)">
<path d="M52.91 78.0528C48.4049 78.3275 45.674 76.7503 40.7156 71.7593C35.2508 66.2405 35.6744 62.7185 36.5268 59.6151C37.5741 55.8143 41.0481 50.8488 41.3615 46.6162C41.6748 42.3837 40.8336 40.0888 39.5708 39.3752C38.2487 38.6708 32.9249 39.9215 29.412 36.0401C25.8307 32.1088 26.2789 29.917 26.8046 27.8344C27.2762 26.1847 29.665 23.9949 29.6242 24.1225C29.6242 24.1225 24.043 20.1983 23.064 17.0152C22.0849 13.8322 26.6563 8.51439 29.3555 6.76152C32.0455 4.94944 34.4047 4.52268 34.4047 4.52268L70.3249 70.3174C70.3249 70.3174 58.7861 77.626 52.91 78.0528Z" fill="#81CEFF"/>
<path d="M79.8416 39.4318C81.129 41.4756 82.4082 44.2483 83.3821 47.0077C84.6123 50.6369 85.1912 54.3671 84.3837 56.9785C82.8954 61.4541 74.0843 67.9755 69.9375 70.5594C65.7408 73.2117 56.1079 78.3447 51.4057 77.7404C48.8086 77.4158 45.9634 75.4926 43.3408 73.0496C41.0601 70.8568 38.9612 68.272 37.5278 66.069C35.5238 62.9237 37.5941 57.509 39.6981 53.4836C40.7567 51.3184 41.8796 49.5675 42.3022 48.7743C43.5701 46.3947 41.5028 40.1061 40.048 38.9372C38.5249 37.7183 37.9797 38.8944 33.9922 37.8154C33.5274 37.6854 33.0959 37.5098 32.6977 37.2886C32.6583 37.2947 32.6385 37.2978 32.6385 37.2978C32.599 37.3039 32.5793 37.307 32.5793 37.307C29.3248 35.8717 27.1523 32.8132 28.2232 29.5545C29.5257 25.8355 38.4113 20.5758 38.4113 20.5758C38.4113 20.5758 46.9774 14.82 50.8731 15.307C54.1491 15.7081 55.9571 18.7625 56.0071 22.2111C56.0071 22.2111 55.9935 22.2536 55.9663 22.3387C55.9731 22.9035 55.9207 23.4776 55.8091 24.0609C55.0945 28.0525 53.7643 28.077 54.2452 30.0034C54.6025 31.5245 57.9827 34.9413 60.6216 35.9264C61.1838 36.1626 61.6851 36.2667 62.1254 36.2388C64.7174 36.1397 76.7739 34.5113 79.8416 39.4318Z" fill="url(#paint0_linear_39_4981)"/>
<path d="M72.9285 40.9898C70.1384 39.4218 66.0131 40.9715 62.437 40.9808C58.8516 40.9308 52.3364 36.8484 49.9751 32.182C47.5361 27.4064 48.4896 24.9543 47.9067 25.1053C47.3238 25.2564 43.4822 27.8536 43.1045 28.1548C42.7176 28.3967 38.7117 30.7162 38.3524 31.1358C37.943 31.6237 40.5218 31.8299 43.7937 36.1124C46.9789 40.2265 47.859 47.8514 46.3053 51.1243C44.8016 54.3289 41.6348 57.367 41.885 60.5419C42.0668 63.6668 49.4661 71.4927 51.7631 72.2277C53.618 72.8494 56.8602 64.8274 63.5377 60.5774C70.2836 56.3774 78.9171 56.9174 79.156 54.9399C79.4581 52.5889 75.6001 42.5762 72.9285 40.9898Z" fill="url(#paint1_linear_39_4981)"/>
<path d="M27.3176 30.3621C28.556 36.7793 40.1214 32.3771 46.5018 27.385C52.9322 22.3244 54.3277 16.4687 51.9521 14.8363C49.5081 13.154 42.6366 15.3724 37.1107 18.8373C31.644 22.293 26.7581 27.5383 27.3176 30.3621Z" fill="url(#paint2_linear_39_4981)"/>
<path d="M33.8743 27.283C34.1612 30.6948 39.8893 28.5325 43.8033 25.6209C47.6489 22.6593 47.6274 20.1766 46.3053 19.4722C44.9741 18.7086 42.0687 19.5233 38.8642 21.5365C35.6597 23.5497 33.713 25.8528 33.8743 27.283Z" fill="url(#paint3_linear_39_4981)"/>
<g style="mix-blend-mode:multiply" opacity="0.5">
<path d="M55.9668 22.3387C55.9736 22.9036 55.9212 23.4776 55.8096 24.0609C55.0951 28.0525 53.7649 28.077 54.2457 30.0034C54.603 31.5245 58.0832 34.8045 60.6222 35.9264C61.151 36.2082 50.2929 31.1019 45.7195 38.3604C44.1147 40.9136 46.0177 46.9245 39.6986 53.4837C40.7572 51.3184 41.8801 49.5676 42.3028 48.7743C43.5707 46.3947 41.5033 40.1061 40.0486 38.9373C38.5254 37.7184 37.9711 38.8352 33.9927 37.8154C33.5279 37.6854 33.0964 37.5098 32.6982 37.2886C33.4639 37.5336 38.9552 38.925 47.0751 33.4204C55.0358 28.0617 55.8678 23.2636 55.9668 22.3387Z" fill="#85538B"/>
</g>
<path d="M34.4988 27.7924C34.4988 27.7924 24.5972 19.0814 23.8612 17.0734C23.1159 15.0061 25.9559 9.47196 30.3752 6.30005C34.8037 3.18735 41.1648 4.32248 42.0724 5.09119C42.9115 5.80987 46.9482 20.1 46.9482 20.1C46.9482 20.1 46.9656 22.9472 40.9436 26.7317C38.4537 28.2701 34.4988 27.7924 34.4988 27.7924Z" fill="url(#paint4_linear_39_4981)"/>
<path d="M23.861 17.0734C24.5593 18.0565 35.3856 12.7989 36.4779 12.023C37.5702 11.2471 38.7279 11.6739 38.7279 11.6739C38.7279 11.6739 38.9321 11.0358 39.3996 9.75052C39.8763 8.52445 42.5245 6.05186 42.0722 5.09123C41.5515 4.08057 36.3247 2.83007 31.1581 5.8754C25.9231 8.8707 22.542 15.2165 23.861 17.0734Z" fill="#BB6334"/>
<g style="mix-blend-mode:multiply" opacity="0.3">
<path d="M23.7901 14.659C23.7901 14.659 31.0117 11.9618 33.7925 13.4706C36.5642 14.9202 42.9101 25.3351 42.9101 25.3351L43.884 24.5776C43.884 24.5776 39.2992 16.133 36.0915 12.2649C32.8839 8.3969 27.2691 10.1171 26.236 10.8838C25.2029 11.6505 23.7901 14.659 23.7901 14.659Z" fill="#98326F"/>
</g>
<g style="mix-blend-mode:multiply" opacity="0.3">
<path d="M45.8081 22.5205C45.8081 22.5205 40.4932 9.76275 39.795 8.77966C39.0967 7.79657 32.9755 5.47212 28.5368 7.73749C28.5368 7.73749 29.3688 6.45628 31.2451 6.04383C33.0531 5.58135 39.7316 5.63639 41.4967 7.2422C43.1934 8.79799 46.7309 21.0433 46.44 21.5129C46.2082 21.9733 45.8081 22.5205 45.8081 22.5205Z" fill="#98326F"/>
</g>
<g style="mix-blend-mode:multiply" opacity="0.3">
<path d="M26.6946 16.5731C25.101 17.2449 33.4478 24.9238 35.3405 26.5704C37.174 28.2262 41.1625 26.5764 42.1681 25.6321C43.1828 24.747 34.9963 14.1933 33.7161 14.1495C32.3767 14.1148 28.6843 15.7186 26.6946 16.5731Z" fill="#B81964"/>
</g>
<g style="mix-blend-mode:soft-light" opacity="0.5">
<path d="M24.5312 17.8789C24.5772 18.1749 27.0345 19.5521 30.1992 21.9715C33.3639 24.3909 34.4982 27.7924 34.4982 27.7924C34.4982 27.7924 26.7537 20.869 24.5312 17.8789Z" fill="#81CEFF"/>
</g>
<g style="mix-blend-mode:multiply" opacity="0.3">
<path d="M36.8569 12.5099C37.0978 12.1087 39.2886 11.7687 40.533 12.3639C41.7091 12.909 45.1546 21.0453 45.2424 22.0019C45.271 22.9676 43.8092 23.3158 43.3028 22.788C42.8056 22.3194 36.8569 12.5099 36.8569 12.5099Z" fill="#E2A1BF"/>
</g>
<g style="mix-blend-mode:soft-light" opacity="0.3">
<path d="M29.2723 8.95742C28.7446 9.46378 33.0955 9.75876 34.6912 10.6632C36.346 11.5585 38.0753 10.1987 39.0125 9.20435C39.8904 8.2192 33.7723 4.74219 29.2723 8.95742Z" fill="#FFD8BA"/>
</g>
<path d="M25.7059 16.8478C25.7059 16.8478 27.7047 16.0525 29.5668 15.1571C31.4289 14.2618 33.7922 13.4706 33.7922 13.4706C33.7922 13.4706 32.4273 14.8345 30.2283 15.9034C27.961 16.9222 25.7059 16.8478 25.7059 16.8478Z" fill="#A44D43"/>
<path d="M36.2005 12.1873C36.2005 12.1873 40.1084 8.06398 40.8822 7.58008C41.1099 7.48411 41.0629 9.91685 39.9533 11.3624C38.8436 12.808 36.2005 12.1873 36.2005 12.1873Z" fill="#A0463C"/>
<path d="M24.3627 17.1776C24.3627 17.1776 29.9132 15.0428 32.203 13.7779C34.552 12.5039 35.1114 11.8107 35.8852 11.3268C36.659 10.8429 38.2199 9.56984 39.8309 8.22839C41.3826 6.89613 41.6735 6.42653 41.6735 6.42653C41.6735 6.42653 41.451 6.94615 40.6823 7.85372C39.9044 8.70207 36.5284 11.9546 36.2007 12.1874C35.8822 12.4794 33.8425 13.4022 33.7424 13.539C33.574 13.6258 26.2483 16.8243 25.893 16.8794C25.5969 16.9254 24.3627 17.1776 24.3627 17.1776Z" fill="#D57850"/>
<path d="M33.3271 12.8152C33.3271 12.8152 33.8967 12.9694 34.4388 12.9459C34.9217 12.9316 37.3626 12.2496 37.3626 12.2496C37.3626 12.2496 35.2249 11.3686 34.5419 11.6565C33.8681 12.0036 33.3271 12.8152 33.3271 12.8152Z" fill="url(#paint5_linear_39_4981)"/>
<path d="M33.3271 12.8153L36.3744 12.5243C36.3744 12.5243 35.0494 12.9725 34.5849 13.1052C34.1296 13.2971 33.3271 12.8153 33.3271 12.8153Z" fill="#A3523F"/>
<g style="mix-blend-mode:multiply" opacity="0.3">
<path d="M36.5294 12.7427C36.3742 12.5242 34.8174 13.4328 34.6081 13.6472C34.3988 13.8616 36.8347 16.2729 39.637 20.2644C42.4394 24.256 41.592 20.7493 40.5599 18.7872C39.4685 16.8343 36.5294 12.7427 36.5294 12.7427Z" fill="#B12A6F"/>
</g>
<g style="mix-blend-mode:multiply" opacity="0.3">
<path d="M45.2989 19.6284C45.2816 20.2981 41.1704 11.78 40.9959 10.655C40.7529 9.47997 41.1285 7.60258 41.2786 7.39738C41.4971 7.24221 45.7175 15.6827 45.2989 19.6284Z" fill="#B12A6F"/>
</g>
<g style="mix-blend-mode:multiply" opacity="0.3">
<path d="M34.1813 21.8387C35.5901 22.7115 37.1347 22.8962 37.2653 21.7845C37.3592 20.4359 37.8492 18.9046 36.5272 18.2002C36.2658 18.0791 36.0045 17.958 35.7431 17.8368C34.6171 17.2233 33.3135 16.6373 32.7642 18.1778C32.7642 18.1778 32.0058 19.9327 33.4881 21.2792C33.7222 21.4854 33.9533 21.6719 34.1813 21.8387Z" fill="#9D116F"/>
</g>
<g style="mix-blend-mode:multiply" opacity="0.5">
<path d="M34.1813 21.8387L34.3681 21.8703C34.3681 21.8703 33.5565 21.3292 33.1726 20.4186C32.7796 19.4488 32.6826 18.433 33.5064 17.8807C34.3303 17.3284 35.7431 17.8368 35.7431 17.8368C34.6171 17.2233 33.3135 16.6373 32.7642 18.1778C32.7642 18.1778 32.0058 19.9327 33.4881 21.2792C33.7222 21.4854 33.9533 21.6719 34.1813 21.8387Z" fill="#9D116F"/>
</g>
<g style="mix-blend-mode:multiply" opacity="0.2">
<path d="M43.1921 35.357C39.6589 36.8148 36.978 35.1692 36.4349 34.4046C35.901 33.6992 42.6898 30.9478 47.0999 27.7167C51.5008 24.4264 51.9306 22.1162 52.5319 22.0835C53.1424 22.11 54.6605 26.4222 49.1907 31.0305C43.7301 35.6979 43.1921 35.357 43.1921 35.357Z" fill="#904F98"/>
</g>
<g style="mix-blend-mode:soft-light" opacity="0.3">
<path d="M52.9436 20.4429C52.8446 21.3679 53.8563 21.6353 53.4091 24.6152C52.962 27.5952 55.0456 25.3921 55.4927 22.4122C55.949 19.4915 54.5443 18.2542 54.2891 18.1725C54.043 18.1501 52.9609 19.7733 52.9436 20.4429Z" fill="#FFD8BA"/>
</g>
<g style="mix-blend-mode:soft-light">
<path d="M30.448 34.1209C29.615 34.614 32.3193 36.8017 34.3427 37.3366C36.4161 37.8031 39.0663 36.9067 39.4532 36.6648C39.8401 36.4228 36.2527 34.7966 35.8056 34.2597C35.4268 33.7727 30.448 34.1209 30.448 34.1209Z" fill="#81CEFF"/>
</g>
<g style="mix-blend-mode:multiply" opacity="0.2">
<path d="M30.7971 32.854C28.4409 32.1282 27.86 30.3386 28.1489 28.2928C28.497 26.2377 31.4943 26.0151 32.5386 26.8839C33.6422 27.7435 32.7847 30.4233 37.4164 29.4013C42.1073 28.3702 37.5369 34.4761 30.7971 32.854Z" fill="#904F98"/>
</g>
<path d="M47.7904 25.9119C47.5168 25.7119 48.2477 23.7793 49.6269 22.8983C51.0061 22.0173 52.2271 22.0703 52.323 22.298C52.3506 22.4756 50.0792 27.3758 47.7904 25.9119Z" fill="#40394F"/>
<g style="mix-blend-mode:multiply" opacity="0.5">
<path d="M47.7902 25.912C47.6483 25.3883 48.2159 23.9662 49.4726 23.468C50.7793 22.9014 50.6946 24.3092 50.0718 25.376C49.4491 26.4428 47.9638 26.2489 47.7902 25.912Z" fill="#AB6377"/>
</g>
<path d="M49.6268 22.8983C49.2582 23.2587 51.4041 23.4108 51.6818 23.2464C51.9595 23.082 52.2729 22.3664 52.1861 22.198C52.1677 22.0795 50.4047 22.0499 49.6268 22.8983Z" fill="#3C4563"/>
<path d="M51.3383 22.2082C51.2883 22.2766 52.0356 22.4032 52.154 22.3848C52.2132 22.3756 52.3224 22.298 52.3224 22.298C52.3224 22.298 52.3133 22.2388 52.058 22.1571C51.7436 22.0846 51.3383 22.2082 51.3383 22.2082Z" fill="#65637D"/>
<path d="M47.995 26.0619C47.995 26.0619 49.12 25.8873 50.3399 25.1523C51.5507 24.358 52.009 23.0135 52.009 23.0135C52.009 23.0135 51.7967 24.3805 50.4134 25.6259C49.0394 26.9306 47.995 26.0619 47.995 26.0619Z" fill="#7C8689"/>
<g style="mix-blend-mode:multiply" opacity="0.2">
<path d="M50.513 21.9722C49.1839 22.7849 47.4688 24.6276 46.5214 24.7746C45.5833 24.9808 47.7117 22.2857 47.5913 20.7278C47.5392 19.22 45.9139 16.5617 46.1906 15.6092C46.4672 14.6567 48.904 14.3392 51.2755 16.336C53.6379 18.2736 51.8013 21.2872 50.513 21.9722Z" fill="#904F98"/>
</g>
<g style="mix-blend-mode:multiply" opacity="0.5">
<path d="M37.277 37.4876C37.277 37.4876 38.7634 38.4697 42.7305 37.854C46.766 37.2884 51.9417 30.7854 51.9958 30.3525C52.0591 29.9789 48.8873 32.5934 45.0131 34.5893C41.1981 36.5759 37.277 37.4876 37.277 37.4876Z" fill="#85538B"/>
</g>
<g style="mix-blend-mode:soft-light" opacity="0.3">
<path d="M53.0755 72.0848C51.4788 73.9091 60.1379 73.0505 69.8279 66.332C79.4587 59.6227 78.6124 56.9041 78.5205 56.312C78.4878 55.7107 70.0207 57.0247 63.6209 61.1103C57.1527 65.1459 53.0755 72.0848 53.0755 72.0848Z" fill="#C5CFEA"/>
</g>
<g style="mix-blend-mode:soft-light" opacity="0.5">
<path d="M63.2532 72.8095C59.332 73.7212 70.5911 65.0007 76.2987 61.1438C82.0748 57.3369 77.8914 66.7178 63.2532 72.8095Z" fill="white"/>
</g>
<g style="mix-blend-mode:multiply" opacity="0.5">
<path d="M53.106 71.1099C52.4149 72.1267 55.8879 73.4069 63.1156 68.4045C70.3525 63.4613 73.2966 57.4259 72.9454 57.1166C72.5943 56.8073 68.1535 57.4964 64.0067 60.0803C59.8008 62.6734 53.106 71.1099 53.106 71.1099Z" fill="#85538B"/>
</g>
<path d="M56.6129 70.2623C51.8148 72.9473 45.5905 68.3953 44.7278 63.6176C44.5349 62.3742 51.5278 58.9848 54.3443 52.9086C57.17 46.8915 56.3921 44.223 57.2424 43.0602C58.0836 41.8382 67.3245 40.0403 71.453 44.3718C75.5815 48.7033 72.4158 52.5296 72.1157 52.94C71.8155 53.3504 73.1376 54.0548 73.3111 54.3916C73.4755 54.6693 65.5811 58.5018 56.6129 70.2623Z" fill="url(#paint6_linear_39_4981)"/>
<g style="mix-blend-mode:multiply" opacity="0.5">
<path d="M58.4823 44.0198C57.9412 44.8314 60.913 49.5243 61.3091 49.3416C61.7052 49.1589 61.4061 46.8405 62.4933 45.6409C63.5713 44.3822 66.1817 44.4015 68.151 45.3693C70.1886 46.3871 69.9896 47.4488 69.5169 48.3104C68.9851 49.1812 68.2174 50.8769 68.2174 50.8769L71.4474 50.982C71.4474 50.982 73.0379 47.9459 72.065 45.9746C71.0921 44.0033 62.8893 41.9413 60.8629 42.5589C58.8273 43.1174 58.4823 44.0198 58.4823 44.0198Z" fill="#9A538B"/>
</g>
<path d="M73.311 54.3917C73.311 54.3917 67.9657 56.6765 63.5831 53.0514C59.2504 49.3579 57.0667 44.664 57.2423 43.0602C57.4679 41.388 66.3546 40.4334 70.6045 43.594C74.7952 46.7637 74.1715 50.5593 72.5382 52.1468C70.8364 53.6843 63.9996 51.0464 62.4692 47.8276C60.8889 44.6772 65.7482 43.5593 68.3607 45.1549C70.9731 46.7505 69.8318 48.3829 69.0712 48.5615C68.3107 48.7402 66.9386 48.1042 66.9652 47.4937C66.9325 46.8924 67.9207 46.6178 67.1091 46.0768C66.3475 45.4673 64.8867 46.6036 64.756 47.7153C64.6253 48.827 68.5649 51.5507 70.8414 50.591C73.168 49.563 71.3263 45.1191 67.5705 43.5797C63.8147 42.0403 59.6791 42.7427 58.8747 44.2015C58.0703 45.6604 62.8297 51.7131 67.3133 52.4725C71.7286 53.182 71.8603 52.8584 72.1023 53.2453C72.3942 53.5638 73.311 54.3917 73.311 54.3917Z" fill="url(#paint7_linear_39_4981)"/>
<g style="mix-blend-mode:multiply" opacity="0.5">
<path d="M66.047 49.3946C66.047 49.3946 66.7647 47.7673 67.0873 47.1109C67.4099 46.4545 67.2904 45.6847 66.0654 45.9961C64.9087 46.3575 64.6372 47.7337 64.8015 48.0113C64.9659 48.289 66.047 49.3946 66.047 49.3946Z" fill="#9A538B"/>
</g>
<g style="mix-blend-mode:multiply" opacity="0.3">
<path d="M44.7273 63.6177C44.173 64.7345 48.8415 70.9832 52.0746 69.9358C55.3077 68.8883 58.5305 59.9597 60.4354 56.9961C62.3495 54.0917 67.901 56.262 69.8499 55.5351C71.8579 54.799 73.3106 54.3917 73.3106 54.3917C73.3106 54.3917 67.5029 58.3854 62.7304 63.1887C57.9079 68.0603 56.6124 70.2624 56.6124 70.2624C56.6124 70.2624 52.9802 72.6451 48.9171 69.5162C44.8039 66.4557 44.7273 63.6177 44.7273 63.6177Z" fill="#E09ABB"/>
</g>
<g style="mix-blend-mode:soft-light" opacity="0.4">
<path d="M45.2331 63.3573C44.2909 63.928 49.1554 70.2676 52.7611 68.4953C56.3668 66.723 58.532 60.7478 58.7228 56.8981C58.9229 53.1076 55.3897 54.5655 51.4216 57.9099C47.3943 61.2635 45.7293 63.0378 45.2331 63.3573Z" fill="#FFFFEA"/>
</g>
<path d="M54.6164 52.3206C54.6164 52.3206 52.198 52.7566 52.9524 54.883C53.6569 57.0779 54.9514 61.1216 58.7623 63.0162C62.5141 64.9201 64.7896 63.1724 65.5675 62.324C66.277 61.4256 66.0248 60.1914 66.0248 60.1914L64.9325 60.9673C64.9325 60.9673 62.7488 63.3071 59.0777 60.3599C55.4067 57.4127 54.3541 53.756 54.349 53.3323C54.3439 52.9086 54.6164 52.3206 54.6164 52.3206Z" fill="url(#paint8_linear_39_4981)"/>
<path d="M52.8074 55.5119C52.8074 55.5119 52.3235 54.7381 51.0076 55.2455C49.7601 55.8029 48.8903 59.576 51.9397 64.3782C54.9391 69.2487 59.3564 68.0175 60.8673 66.8129C62.3782 65.6082 61.5839 64.3975 61.5839 64.3975C61.5839 64.3975 60.9244 65.2274 60.5375 65.4694C60.2098 65.7022 56.7715 66.5995 53.8191 62.8132C50.8167 59.0952 52.0662 56.5971 52.2663 56.3235C52.398 55.9999 52.8074 55.5119 52.8074 55.5119Z" fill="url(#paint9_linear_39_4981)"/>
<g style="mix-blend-mode:soft-light" opacity="0.4">
<path d="M54.3432 52.9086C53.4775 52.8004 53.5909 55.8753 55.3989 58.9297C57.2161 62.0434 60.5431 63.1642 61.1761 62.9447C61.8774 62.7753 58.1389 60.5661 56.2309 57.6485C54.3228 54.7309 54.3432 52.9086 54.3432 52.9086Z" fill="#FFFFEA"/>
</g>
<g style="mix-blend-mode:soft-light" opacity="0.4">
<path d="M52.6077 55.7854C52.375 55.4577 50.3629 56.5583 50.2516 58.5765C50.2088 60.6448 51.8994 64.5057 54.0238 65.692C56.1483 66.8782 57.7878 66.5025 58.0246 66.4657C58.3115 66.3606 55.3499 66.0319 53.2132 62.4221C51.0265 58.8807 51.8574 56.8114 52.6077 55.7854Z" fill="#FFFFEA"/>
</g>
<g style="mix-blend-mode:multiply" opacity="0.5">
<path d="M52.847 53.808C52.847 53.808 54.0639 57.7424 56.6917 60.609C59.2602 63.4848 62.1125 63.8911 62.1125 63.8911C62.1125 63.8911 59.7513 66.2585 56.3027 62.7917C52.9134 59.3156 53.0583 55.1699 53.0583 55.1699C53.0583 55.1699 52.7112 54.4961 52.847 53.808Z" fill="#9A538B"/>
</g>
<g style="mix-blend-mode:multiply" opacity="0.5">
<path d="M49.8638 58.0304C49.8638 58.0304 50.1528 63.0183 53.7279 65.7379C57.2939 68.3982 58.6006 67.8316 58.6006 67.8316L57.9411 68.6616C57.9411 68.6616 55.4471 70.5646 52.413 67.0334C49.3106 63.4522 49.8638 58.0304 49.8638 58.0304Z" fill="#9A538B"/>
</g>
<g style="mix-blend-mode:multiply" opacity="0.5">
<path d="M58.9318 60.2006C58.9318 60.2006 61.9025 60.5885 64.3618 60.025C66.8711 59.393 68.8005 57.7596 68.8005 57.7596C68.8005 57.7596 65.8931 60.515 63.4757 61.739C61.581 62.0331 59.4933 61.0837 58.9318 60.2006Z" fill="#9A538B"/>
</g>
<path d="M56.3462 65.0283C56.3462 65.0283 58.8208 65.7358 59.6906 65.4795C60.5011 65.2325 60.6471 65.3917 60.6471 65.3917C60.6471 65.3917 58.9178 66.7515 56.3462 65.0283Z" fill="#9A538B"/>
<path d="M62.7689 50.1461C62.336 50.092 61.2805 51.1047 60.9722 52.244C60.7231 53.3741 60.7068 54.8319 60.7068 54.8319C60.7068 54.8319 63.311 53.6395 63.5111 53.3659C63.7796 53.1423 64.388 51.5926 64.2053 51.1965C64.0133 50.7412 62.7689 50.1461 62.7689 50.1461Z" fill="url(#paint10_linear_39_4981)"/>
<g style="mix-blend-mode:multiply" opacity="0.5">
<path d="M62.7686 50.1461C62.7686 50.1461 62.443 51.955 62.3572 52.5747C62.2623 53.1352 60.7065 54.8319 60.7065 54.8319C60.7065 54.8319 61.2761 51.4691 61.467 51.1363C61.7263 50.8535 62.3041 50.2788 62.7686 50.1461Z" fill="#9A538B"/>
</g>
<path d="M60.8241 54.8135C60.8241 54.8135 63.6692 53.2199 63.7876 53.2015C63.8377 53.1331 64.2909 51.3649 64.3317 51.2373C64.3134 51.1189 62.6524 52.5288 62.2155 52.8391C61.7877 53.2087 60.8241 54.8135 60.8241 54.8135Z" fill="#FFD9C3"/>
<g style="mix-blend-mode:multiply" opacity="0.2">
<path d="M47.8453 71.9868C46.5356 73.706 38.8575 68.7733 38.0867 64.5877C37.3843 60.4521 38.1734 57.7223 40.5653 54.38C42.9479 50.9784 45.9881 48.6875 46.2892 49.0652C46.5904 49.4429 43.9403 53.8562 41.9231 58.05C39.9651 62.2346 46.8101 67.6604 47.8453 71.9868Z" fill="#904F98"/>
</g>
<g style="mix-blend-mode:multiply" opacity="0.2">
<path d="M63.5725 38.1366C62.0024 39.3504 70.1469 38.6929 72.9737 40.4977C75.7913 42.2434 79.1082 49.5508 80.5426 52.5419C81.9678 55.4738 83.5511 50.4378 81.5215 45.1743C79.4828 39.8514 78.2363 37.6801 75.2329 36.6909C72.2294 35.7017 65.7387 36.4664 63.5725 38.1366Z" fill="#904F98"/>
</g>
<path d="M51.1739 21.9304C49.3894 22.935 51.0248 19.4068 52.0304 18.4625C53.0359 17.5182 54.8521 19.8437 51.1739 21.9304Z" fill="white"/>
<path d="M34.1507 33.3643C33.0931 32.8008 41.112 30.1618 41.4815 30.5895C41.8419 30.958 37.3328 35.1141 34.1507 33.3643Z" fill="#9FAEC3"/>
<path d="M67.8552 38.3815C65.6787 39.2044 69.0048 43.054 72.7667 42.2883C76.4786 41.591 73.178 36.3428 67.8552 38.3815Z" fill="white"/>
<g style="mix-blend-mode:soft-light" opacity="0.2">
<path d="M42.7245 57.7437C42.8195 60.7001 47.7349 57.2087 47.6808 54.1246C47.5674 51.0498 42.6244 54.3636 42.7245 57.7437Z" fill="white"/>
</g>
<g style="mix-blend-mode:multiply" opacity="0.5">
<path d="M83.3824 47.0077C84.6126 50.6369 85.1915 54.3671 84.384 56.9785C82.8957 61.4541 74.0846 67.9755 69.9379 70.5594C65.7411 73.2117 56.1082 78.3447 51.406 77.7404C48.8089 77.4158 45.9637 75.4925 43.3411 73.0496L43.4003 73.0404C43.4003 73.0404 52.384 76.6185 58.6277 75.0432C64.8713 73.4679 77.5984 65.6111 80.8345 59.8942C84.0706 54.1773 83.3824 47.0077 83.3824 47.0077Z" fill="#85538B"/>
</g>
<g style="mix-blend-mode:soft-light" opacity="0.5">
<path d="M38.3019 62.0682C38.4949 63.3116 40.3304 59.5099 42.3802 55.9174C44.4301 52.3249 44.6373 50.5343 44.6373 50.5343C44.6373 50.5343 37.2912 55.555 38.3019 62.0682Z" fill="#81CEFF"/>
</g>
<path d="M25.0933 18.7619C25.0933 18.7619 27.2382 21.6428 28.7164 23.3537C30.1946 25.0647 33.2399 26.7144 33.2399 26.7144L25.0933 18.7619Z" fill="#81CEFF"/>
<g style="mix-blend-mode:soft-light" opacity="0.5">
<path d="M43.8154 72.9762C43.8154 72.9762 48.097 72.433 52.1202 72.9607C56.1935 73.4201 59.3297 74.8738 59.3297 74.8738C59.3297 74.8738 52.8135 77.0371 43.8154 72.9762Z" fill="#81CEFF"/>
</g>
<g style="mix-blend-mode:soft-light" opacity="0.5">
<path d="M51.3359 41.7333C45.5446 47.7861 48.2786 58.7615 60.1616 60.3131C72.0446 61.8646 71.7942 44.6221 66.1396 40.2243C60.4257 35.8356 53.0601 39.9498 51.3359 41.7333Z" fill="white"/>
</g>
<g style="mix-blend-mode:multiply">
<path d="M32.6748 26.1958C32.6748 26.1958 35.9834 27.1983 40.9969 25.5107C45.9512 23.8324 46.5963 19.0026 46.5963 19.0026C46.5963 19.0026 46.8342 19.754 46.9485 20.1C47.0629 20.4461 46.0471 24.06 41.3359 26.9134C36.6838 29.7576 34.4991 27.7925 34.4991 27.7925L32.6748 26.1958Z" fill="#AB6377"/>
</g>
<path style="mix-blend-mode:screen" d="M49.4762 75.857C46.632 74.7218 42.0993 71.3019 40.0932 66.5804C39.1428 64.3631 40.7659 58.4114 46.0479 60.0172C55.1398 62.7295 55.4686 70.3187 55.1941 72.8474C54.9195 75.3761 51.0759 76.397 49.4762 75.857Z" fill="url(#paint11_linear_39_4981)"/>
</g>
<defs>
<linearGradient id="paint0_linear_39_4981" x1="40.3183" y1="89.2435" x2="8.784" y2="39.202" gradientUnits="userSpaceOnUse">
<stop stop-color="#77868D"/>
<stop offset="0.913" stop-color="#535C68"/>
</linearGradient>
<linearGradient id="paint1_linear_39_4981" x1="45.5524" y1="76.4653" x2="23.0183" y2="40.7056" gradientUnits="userSpaceOnUse">
<stop stop-color="#96A0A7"/>
<stop offset="0.913" stop-color="#535C68"/>
</linearGradient>
<linearGradient id="paint2_linear_39_4981" x1="24.6464" y1="26.6764" x2="49.6893" y2="10.8955" gradientUnits="userSpaceOnUse">
<stop stop-color="#83A1B2"/>
<stop offset="0.994" stop-color="#A4B3BF"/>
</linearGradient>
<linearGradient id="paint3_linear_39_4981" x1="41.0963" y1="27.3902" x2="37.8199" y2="22.1908" gradientUnits="userSpaceOnUse">
<stop stop-color="#725F72"/>
<stop offset="0.994" stop-color="#6C6D75"/>
</linearGradient>
<linearGradient id="paint4_linear_39_4981" x1="20.8391" y1="12.3264" x2="39.3107" y2="0.686313" gradientUnits="userSpaceOnUse">
<stop stop-color="#531047"/>
<stop offset="1" stop-color="#933B27"/>
</linearGradient>
<linearGradient id="paint5_linear_39_4981" x1="33.0924" y1="13.2603" x2="35.2751" y2="10.1446" gradientUnits="userSpaceOnUse">
<stop stop-color="#4F1F11"/>
<stop offset="0.994" stop-color="#48001B"/>
</linearGradient>
<linearGradient id="paint6_linear_39_4981" x1="58.3439" y1="69.206" x2="46.1995" y2="49.934" gradientUnits="userSpaceOnUse">
<stop stop-color="#E39C7C"/>
<stop offset="1" stop-color="#F193A4"/>
</linearGradient>
<linearGradient id="paint7_linear_39_4981" x1="60.1045" y1="62.6837" x2="50.3002" y2="47.1251" gradientUnits="userSpaceOnUse">
<stop stop-color="#EBBAA4"/>
<stop offset="1" stop-color="#FFACB9"/>
</linearGradient>
<linearGradient id="paint8_linear_39_4981" x1="52.9892" y1="70.4482" x2="45.1663" y2="58.0342" gradientUnits="userSpaceOnUse">
<stop stop-color="#771048"/>
<stop offset="1" stop-color="#934B29"/>
</linearGradient>
<linearGradient id="paint9_linear_39_4981" x1="47.32" y1="75.3821" x2="39.2947" y2="62.6465" gradientUnits="userSpaceOnUse">
<stop stop-color="#771048"/>
<stop offset="1" stop-color="#934B29"/>
</linearGradient>
<linearGradient id="paint10_linear_39_4981" x1="61.999" y1="54.3591" x2="60.2534" y2="51.589" gradientUnits="userSpaceOnUse">
<stop stop-color="#E39C7C"/>
<stop offset="1" stop-color="#F193A4"/>
</linearGradient>
<linearGradient id="paint11_linear_39_4981" x1="37.5566" y1="63.6367" x2="47.3395" y2="56.662" gradientUnits="userSpaceOnUse">
<stop stop-color="#007C9C"/>
<stop offset="1"/>
</linearGradient>
</defs>
</svg>
