<svg width="110" height="80" viewBox="0 0 110 80" fill="none" xmlns="http://www.w3.org/2000/svg">
<path d="M52.1112 48.96C56.6712 48.88 68.4312 47.44 75.5512 47.44C76.1912 47.44 76.8312 47.44 77.3912 47.44C78.1112 53.76 78.1112 61.92 77.3912 68.32C75.7912 68.56 70.5112 68.64 63.8712 68.64C51.6312 68.64 35.0712 68.32 30.2712 68.08C29.6312 63.68 29.7112 47.76 30.3512 41.12C38.2712 40.24 58.0312 41.28 58.0312 35.36C58.0312 32.4 52.9912 31.76 46.5912 31.76C41.9512 31.76 36.6712 32.08 32.1112 32.08C31.4712 32.08 30.8312 32.08 30.2712 32.08C29.5512 25.84 29.5512 17.76 30.2712 11.44C35.6312 11.2 40.8312 10.96 45.7112 10.96C64.1912 10.96 78.2712 13.92 78.2712 28.4C78.2712 44.96 58.9112 45.2 52.1112 46.24V48.96Z" fill="white"/>
</svg>
